<svg xmlns="http://www.w3.org/2000/svg" viewBox="0 0 91.49 91.46"><defs><style>.cls-1{fill:none;stroke:#fff;stroke-miterlimit:10;stroke-width:10px;}.cls-2{fill:#fff;}</style></defs><title>error-icon</title><g id="Layer_2" data-name="Layer 2"><g id="Layer_1-2" data-name="Layer 1"><path class="cls-1" d="M15.51,86.46H76a10.5,10.5,0,0,0,9.39-15.19L55.13,10.8a10.5,10.5,0,0,0-18.77,0L6.12,71.27A10.5,10.5,0,0,0,15.51,86.46Z"/><path class="cls-2" d="M40.59,69.18c0-2.86,1.53-4.26,4.19-4.26s4.13,1.4,4.13,4.26-1.46,4.13-4.13,4.13S40.59,72,40.59,69.18Zm8.07-36.1L47.45,58.38a2.38,2.38,0,0,1-2.67,2.41c-1.91,0-2.73-1-2.8-2.41L40.84,33.08c-.13-2.48,1.4-3.56,3.94-3.56S48.79,30.6,48.66,33.08Z"/></g></g></svg>