<svg id="Layer_1" data-name="Layer 1" xmlns="http://www.w3.org/2000/svg" viewBox="0 0 80 80"><defs><style>.cls-1{fill:#1cb0f6;}.cls-2{fill:#d33131;}.cls-3{fill:#fff;}</style></defs><title>flag-circle-cs</title><path d="M241.7,546.3l-0.2-.3-29.56335-28.49481-0.016.01526Z" transform="translate(-200 -506)"/><path class="cls-1" d="M212.18958,574.736L241.7,546.3l-29.77936-28.77954A39.97335,39.97335,0,0,0,212.18958,574.736Z" transform="translate(-200 -506)"/><path class="cls-2" d="M241.7,546.3l-29.51044,28.436A39.98949,39.98949,0,0,0,280,546H241.5Z" transform="translate(-200 -506)"/><path class="cls-3" d="M240,506a39.86512,39.86512,0,0,0-28.06335,11.50519L241.5,546H280A40,40,0,0,0,240,506Z" transform="translate(-200 -506)"/></svg>