<?xml version="1.0" encoding="utf-8"?>
<!-- Generator: Adobe Illustrator 21.1.0, SVG Export Plug-In . SVG Version: 6.00 Build 0)  -->
<svg version="1.1" id="Layer_1" xmlns="http://www.w3.org/2000/svg" xmlns:xlink="http://www.w3.org/1999/xlink" x="0px" y="0px"
	 viewBox="0 0 80 80.1" style="enable-background:new 0 0 80 80.1;" xml:space="preserve">
<style type="text/css">
	.st0{fill:#0B4EA2;}
	.st1{fill:#EE1C25;}
	.st2{fill:#FFFFFF;}
	.st3{fill:none;}
</style>
<path class="st0" d="M2.3,26.6C0.8,30.8,0,35.3,0,40c0,4.7,0.8,9.1,2.3,13.3h75.5C79.2,49.1,80,44.7,80,40c0-4.7-0.8-9.2-2.3-13.3
	H2.3z"/>
<path class="st1" d="M2.3,53.3C7.8,68.9,22.6,80,40,80s32.2-11.1,37.7-26.7H2.3z"/>
<path class="st2" d="M2.3,26.7h75.5C72.2,11.1,57.4,0,40,0S7.8,11.1,2.3,26.7z"/>
<title>flag-no</title>
<path id="path3055" class="st2" d="M40,67.7c-9.1-4.4-22.1-13.1-22.1-30.3s0.8-25.1,0.8-25.1H40h21.3c0,0,0.8,7.8,0.8,25.1
	S49.1,63.3,40,67.7z"/>
<path id="path2828" class="st1" d="M40,65.4c-8.4-4-20.3-12-20.3-27.8s0.8-23,0.8-23H40h19.5c0,0,0.8,7.2,0.8,23S48.4,61.4,40,65.4z
	"/>
<path id="path2838" class="st2" d="M41.8,33.4c2.3,0,6.7,0.1,10.6-1.2c0,0-0.1,1.4-0.1,3s0.1,3,0.1,3C48.8,37,44.3,37,41.8,37v8.7
	h-3.6V37c-2.5,0-7,0-10.6,1.2c0,0,0.1-1.4,0.1-3s-0.1-3-0.1-3c3.9,1.3,8.3,1.2,10.6,1.2V28c-2.1,0-5,0.1-8.4,1.2c0,0,0.1-1.4,0.1-3
	s-0.1-3-0.1-3c3.4,1.1,6.3,1.2,8.4,1.2c-0.1-3.5-1.1-7.8-1.1-7.8s2.1,0.2,2.9,0.2c0.8,0,2.9-0.2,2.9-0.2s-1,4.4-1.1,7.8
	c2.1,0,5-0.1,8.4-1.2c0,0-0.1,1.4-0.1,3s0.1,3,0.1,3c-3.4-1.1-6.3-1.2-8.4-1.2L41.8,33.4L41.8,33.4z"/>
<path class="st3" d="M40,65.4c-8.4-4-20.3-12-20.3-27.8s0.8-23,0.8-23H40h19.5c0,0,0.8,7.2,0.8,23S48.4,61.4,40,65.4z"/>
<path class="st0" d="M51.1,48c-3.4,0-4.7,2.8-4.7,2.8S44.1,45,39.9,45s-6.5,5.8-6.5,5.8S32.3,48,28.9,48c-2.3,0-4,2.1-5.1,4
	c4.2,6.7,11,10.9,16.3,13.4c5.3-2.6,12-6.7,16.3-13.4C55.2,50.1,53.5,48,51.1,48z"/>
</svg>
