<?xml version="1.0" encoding="utf-8"?>
<!-- Generator: Adobe Illustrator 24.1.0, SVG Export Plug-In . SVG Version: 6.00 Build 0)  -->
<svg version="1.1" id="Layer_1" xmlns="http://www.w3.org/2000/svg" xmlns:xlink="http://www.w3.org/1999/xlink" x="0px" y="0px"
	 viewBox="0 0 80 80" style="enable-background:new 0 0 80 80;" xml:space="preserve">
<style type="text/css">
	.st0{fill:#FF9933;}
	.st1{fill:#128807;}
	.st2{fill:#FFFFFF;}
	.st3{fill:#000088;}
	.st4{fill:none;stroke:#000088;}
</style>
<g transform="translate(0 0.063)">
	<path class="st0" d="M4,24.9h72c-7.5-20-29.5-30-49.5-22.5C16.2,6.2,8,14.4,4,24.9z"/>
	<path class="st1" d="M77.5,53.9h-75C10.2,74.6,33.2,85.1,54,77.4C64.7,73.4,73.5,64.6,77.5,53.9z"/>
	<path class="st2" d="M0,39.9c0,5.7,0.7,11.2,2.5,16.5h75c3.2-10.7,3.2-22.2,0-33.2h-75C0.7,28.7,0,34.2,0,39.9L0,39.9z"/>
</g>
<circle class="st3" cx="40" cy="40.1" r="14.2"/>
<circle class="st2" cx="40" cy="40.1" r="11.5"/>
<circle class="st3" cx="40" cy="40.1" r="2.7"/>
<circle class="st3" cx="40" cy="40.1" r="5.7"/>
<line class="st4" x1="52.7" y1="40.1" x2="27.2" y2="40.1"/>
<line class="st4" x1="50" y1="30.1" x2="30" y2="50.1"/>
<line class="st4" x1="30" y1="30.1" x2="50" y2="50.1"/>
<line class="st4" x1="40" y1="27.1" x2="40" y2="52.8"/>
</svg>
