<?xml version="1.0" encoding="utf-8"?>
<!-- Generator: Adobe Illustrator 22.1.0, SVG Export Plug-In . SVG Version: 6.00 Build 0)  -->
<svg version="1.1" id="Layer_1" xmlns="http://www.w3.org/2000/svg" xmlns:xlink="http://www.w3.org/1999/xlink" x="0px" y="0px"
	 viewBox="0 0 80 80" style="enable-background:new 0 0 80 80;" xml:space="preserve">
<style type="text/css">
	.st0{fill:#009C57;}
	.st1{fill:#FFFFFF;}
	.st2{fill:#EC1B2E;}
</style>
<title>flag-circle-cz</title>
<path class="st0" d="M2.9,25h74.2C71.1,10.3,56.8,0,40,0S8.9,10.3,2.9,25z"/>
<path class="st1" d="M2.9,25C1,29.6,0,34.7,0,40s1,10.4,2.9,15h74.2C79,50.4,80,45.3,80,40s-1-10.4-2.9-15H2.9z"/>
<path class="st2" d="M77.1,55H2.9C8.9,69.7,23.2,80,40,80S71.1,69.7,77.1,55z"/>
<g>
	<path class="st2" d="M47.1,47.6c6.8-3.6,5.6-14.8-2.3-16.5C49,34.5,51.8,40.7,47.1,47.6z"/>
	<path class="st2" d="M32.9,47.6C26,44,27.2,32.8,35.1,31.1C31,34.5,28.2,40.7,32.9,47.6z"/>
	<path class="st2" d="M38.9,50l1.1,1.5l1.1-1.5v-0.1c1.5,0.2,3.3,0.1,5.1-0.4c-1.5,0-2.9-0.2-4.1-0.6c6.1-3.3,7.6-12.9,1.5-17.6
		c3.8,5.7,2.2,12.4-2.5,15.9l0.2-15.4c-0.4-0.2-1-0.6-1.4-1.1c-0.4,0.5-1,0.9-1.4,1.1l0.2,15.4c-4.6-3.5-6.3-10.2-2.5-15.9
		c-6,4.8-4.6,14.3,1.5,17.6c-1.3,0.4-2.7,0.6-4.1,0.6C35.6,50.1,37.3,50.2,38.9,50L38.9,50z"/>
	<path class="st2" d="M40,28.9c-1.3,1.5-2.4,0.7-2.8-0.4c-1.1,1.6,1.5,3.3,2.8,1.9c1.3,1.4,3.9-0.3,2.8-1.9
		C42.4,29.6,41.3,30.4,40,28.9z"/>
</g>
</svg>
