<svg id="Layer_1" data-name="Layer 1" xmlns="http://www.w3.org/2000/svg" viewBox="0 0 80 80"><defs><style>.cls-1{fill:#fff;}.cls-2{fill:#d33131;}</style></defs><title>flag-circle-da</title><circle class="cls-1" cx="40" cy="40" r="40"/><path class="cls-2" d="M136.6792,132.5h42.6084A40.00518,40.00518,0,0,0,140,100c-1.11938,0-2.22467.05792-3.3208,0.14807V132.5Z" transform="translate(-100 -100)"/><path class="cls-2" d="M121.6792,132.5V104.44592A40.04084,40.04084,0,0,0,100.7124,132.5h20.9668Z" transform="translate(-100 -100)"/><path class="cls-2" d="M121.6792,147.5H100.7124a40.04084,40.04084,0,0,0,20.9668,28.05408V147.5Z" transform="translate(-100 -100)"/><path class="cls-2" d="M136.6792,147.5v32.35193C137.77533,179.94208,138.88062,180,140,180a40.00518,40.00518,0,0,0,39.2876-32.5H136.6792Z" transform="translate(-100 -100)"/></svg>