<?xml version="1.0" encoding="utf-8"?>
<!-- Generator: Adobe Illustrator 24.1.0, SVG Export Plug-In . SVG Version: 6.00 Build 0)  -->
<svg version="1.1" id="flag-circle-zh-t" xmlns="http://www.w3.org/2000/svg" xmlns:xlink="http://www.w3.org/1999/xlink" x="0px"
	 y="0px" viewBox="0 0 80 80" style="enable-background:new 0 0 80 80;" xml:space="preserve">
<style type="text/css">
	.st0{fill:#C6363C;}
	.st1{fill:#EDB92E;}
	.st2{fill:#0C4076;}
	.st3{fill:#FFFFFF;}
	.st4{fill-rule:evenodd;clip-rule:evenodd;fill:#EDB92E;}
	.st5{fill-rule:evenodd;clip-rule:evenodd;fill:#FFFFFF;}
</style>
<path class="st0" d="M40,0C17.9,0,0,17.9,0,40c0,22,17.7,39.8,39.6,40h0.8C62.3,79.8,80,62,80,40C80,17.9,62.1,0,40,0z"/>
<path class="st1" d="M46.9,8.4H33.1c-3.5,0-6,3.4-4.9,6.7l3.5,11h16.8l3.5-11C52.9,11.8,50.4,8.4,46.9,8.4z M50.3,14.1L47,24.6H33
	l-3.3-10.5c-0.7-2.1,0.9-4.3,3.1-4.3h14.3C49.4,9.9,51,12,50.3,14.1z"/>
<path class="st2" d="M2.5,26.2C0.8,30.5,0,35.2,0,40c0,22.1,17.9,40,40,40s40-17.9,40-40c0-4.8-0.8-9.5-2.5-13.8H2.5z"/>
<path class="st3" d="M77.8,53.1H2.2C7.6,68.8,22.5,80,40,80S72.4,68.8,77.8,53.1z"/>
<path class="st3" d="M40,74.6L40,74.6c-10.2,0-18.5-8.2-18.5-18.5v-30h36.9v30C58.5,66.4,50.2,74.6,40,74.6z"/>
<path class="st0" d="M40,74.6L40,74.6c-8.9,0-16.2-7.2-16.2-16.2V29.2h32.3v29.2C56.2,67.4,48.9,74.6,40,74.6z"/>
<g>
	<g>
		<path class="st4" d="M30.2,62.1c0.2-0.2,0.2-0.5,0.3-0.6c0.2-0.2,1.2-0.8,1.5-0.6c0.5,0.2,0.8,0.1,0.8-0.4c0,0,0,0,0-0.1
			c0.3-0.2,0.6-0.2,0.8-0.1c0.1,0.1,0.2,0,0.2-0.2c-0.3-0.5-0.7-0.6-1.1-0.5c0-0.1-0.1-0.2-0.2-0.2c-0.2,0-0.4,0.1-0.7,0.2
			c-0.4,0.3-0.5,0.5-0.7,0.5c-0.3,0.2,0.5-0.2,1.2-1.2c0.1-0.1,0.1-0.2,0.2-0.2l0.4-0.5l0,0c0.6-0.9,0.6-1.5,0.6-1.8l0,0
			c-0.3,0-0.7,0.2-1.8,1.2c-0.5,1-0.9,1.9-1.6,2.8c-0.2,0.2-0.4,0.2-0.6,0.3c-0.2,0.1-1.5,0-1.6-0.1c-0.2-0.2-0.6-0.2-0.8-0.1
			c-0.3-0.2-0.6,0-0.8,0.5c-0.1,0.2,0.1,0.2,0.2,0.1c0.2-0.2,0.3-0.2,0.6,0c0.1,0.2,0.3,0.5,0.5,0.3c0.3-0.2,1.2,0,1.5-0.2
			c-0.2,0.3-1,0.5-1.6,0.5c-0.4,0-0.5,0.2-0.5,0.5c-0.2,0.2-0.2,0.5,0.1,1c0.1,0.2,0.2,0.1,0.2,0c0-0.2,0-0.2,0.2-0.4
			c0.2,0.3,0.7,0.2,0.7-0.2s1.3-0.8,1.5-1.2c-0.2,0.5-0.8,1.1-1.1,1.6c-0.3,0.3-0.5,0.3-0.2,0.8c-0.1,0.3,0.1,0.7,0.5,1.1
			c0.2,0.2,0.2,0,0.2-0.2c-0.1-0.2,0-0.5,0.1-0.7l0,0c0.5-0.1,0.7-0.2,0.5-0.7C29.6,63.2,30,62.3,30.2,62.1z"/>
		<path class="st4" d="M32.8,64.8c-0.1,0.2-0.2,0.5-0.2,0.6c0-0.1,0-0.1,0-0.2c0.1-0.4,0.2-0.8,0.5-1.2c0.3-0.4,0.4-1.1,0-1.5
			c-0.3-0.3-0.6-0.7-0.8-1l0,0c0-0.1-0.1-0.1-0.1-0.1s-0.1,0-0.1,0.1l0,0l0,0c-0.1,0.3-0.5,0.7-0.8,1c-0.5,0.5-0.3,1.2,0,1.5
			c0.3,0.4,0.5,0.8,0.5,1.2c0,0.1,0,0.1,0,0.2c-0.1-0.2-0.1-0.5-0.2-0.6c-0.5-1.4-2.9-0.8-1.5,1c0.1,0.1,0.2,0.1,0.2-0.1
			c-0.1-0.4,0.2-0.6,0.5-0.5s0.6,0.4,0.7,0.7c-0.2,0.1-0.2,0.2-0.2,0.3c0,0.2,0.1,0.3,0.2,0.3c-0.1,0.3-0.4,0.5-0.8,0.3
			c-0.2,0,0,0.4,0.2,0.5l0,0c0.2,0.2,0.4,0.2,0.5,0.1c-0.1,0.1,0.1,0.3,0.4,0.5c0.1,0,0.2,0.1,0.2,0.3c0,0.1,0.2,0.1,0.2,0
			c0.1-0.2,0.2-0.2,0.2-0.3c0.4-0.2,0.5-0.5,0.4-0.5c0.2,0.1,0.3,0.1,0.5-0.1l0,0c0.2-0.2,0.4-0.5,0.2-0.5c-0.4,0.2-0.7,0-0.8-0.3
			c0.2-0.1,0.2-0.2,0.2-0.3s-0.1-0.3-0.2-0.3c0.1-0.3,0.3-0.6,0.7-0.7c0.4-0.1,0.6,0.2,0.5,0.5c0,0.1,0.1,0.2,0.2,0.1
			C35.7,64,33.3,63.5,32.8,64.8z M32.1,66.8c0,0.2-0.1,0.4-0.2,0.5c0.1-0.2,0.2-0.4,0.2-0.6C32.1,66.7,32.1,66.8,32.1,66.8z
			 M32.5,66.8c0-0.1,0-0.1,0-0.2c0.1,0.2,0.1,0.5,0.2,0.6C32.6,67.2,32.5,67,32.5,66.8z"/>
		<path class="st4" d="M53.8,61c-0.2-0.5-0.5-0.6-0.8-0.5c-0.2-0.2-0.5-0.2-0.8,0.1c0,0.1-1.4,0.1-1.6,0.1c-0.2-0.1-0.4-0.2-0.6-0.3
			c-0.7-0.8-1.2-1.8-1.6-2.8c-1.1-0.9-1.5-1.1-1.8-1.2l0,0c-0.1,0.4,0,0.9,0.6,1.8l0,0l0.4,0.5c0.1,0.1,0.1,0.2,0.2,0.2
			c0.8,1,1.6,1.4,1.3,1.5c-0.2,0-0.3-0.2-0.7-0.5c-0.2-0.2-0.4-0.3-0.7-0.2c-0.1,0-0.2,0.1-0.2,0.2c-0.3-0.2-0.7,0-1.1,0.5
			c-0.1,0.2,0,0.2,0.2,0.2c0.2-0.2,0.5-0.1,0.8,0.1c0,0,0,0,0,0.1c0.1,0.5,0.4,0.6,0.8,0.4c0.2-0.2,1.2,0.4,1.5,0.6
			c0.2,0.2,0.2,0.4,0.3,0.6c0.2,0.2,0.5,1.1,0.5,1.5c-0.1,0.5,0,0.6,0.5,0.7l0,0c0.2,0.3,0.2,0.5,0.1,0.7c-0.1,0.2,0,0.3,0.2,0.2
			c0.4-0.4,0.5-0.8,0.5-1.1c0.3-0.5,0.2-0.5-0.2-0.8c-0.3-0.5-0.8-1.1-1.1-1.6c0.2,0.3,1.5,0.8,1.5,1.2c0,0.3,0.5,0.4,0.7,0.2
			c0.1,0.1,0.2,0.2,0.2,0.4s0.1,0.2,0.2,0c0.2-0.5,0.2-0.8,0.1-1c0-0.3-0.1-0.5-0.5-0.5c-0.6-0.1-1.5-0.2-1.6-0.5
			c0.3,0.1,1.3-0.1,1.5,0.2c0.2,0.2,0.5-0.1,0.5-0.3c0.3-0.2,0.5-0.2,0.6,0C53.8,61.2,53.8,61.2,53.8,61z"/>
		<path class="st4" d="M48.2,64.8c-0.1,0.2-0.2,0.5-0.2,0.6c0-0.1,0-0.1,0-0.2c0.1-0.4,0.2-0.8,0.5-1.2c0.3-0.4,0.4-1.1,0-1.5
			c-0.3-0.3-0.6-0.7-0.8-1l0,0l0,0c0,0-0.1,0-0.1,0s-0.1,0-0.1,0.1l0,0c-0.1,0.3-0.5,0.7-0.8,1c-0.5,0.5-0.3,1.2,0,1.5
			s0.5,0.8,0.5,1.2c0,0,0,0.1,0,0.2c-0.1-0.2-0.1-0.4-0.2-0.6c-0.5-1.4-2.9-0.8-1.5,1c0.1,0.1,0.2,0.1,0.2-0.1
			c-0.1-0.4,0.2-0.6,0.5-0.5c0.4,0.1,0.6,0.4,0.7,0.7c-0.2,0.1-0.2,0.2-0.2,0.3s0.1,0.3,0.2,0.3c-0.1,0.3-0.4,0.5-0.8,0.3
			c-0.2,0,0,0.4,0.2,0.5l0,0c0.2,0.2,0.4,0.2,0.5,0.1c-0.1,0.1,0.1,0.3,0.4,0.5c0.1,0,0.2,0.1,0.2,0.3c0,0.1,0.2,0.1,0.2,0
			c0.1-0.2,0.2-0.2,0.2-0.3c0.4-0.2,0.5-0.5,0.4-0.5c0.2,0.1,0.3,0.1,0.5-0.1l0,0c0.2-0.2,0.4-0.5,0.2-0.5c-0.4,0.2-0.7,0-0.8-0.3
			c0.2-0.1,0.2-0.2,0.2-0.3c0-0.2-0.1-0.3-0.2-0.3c0.1-0.3,0.3-0.6,0.7-0.7s0.6,0.2,0.5,0.5c0,0.1,0.1,0.2,0.2,0.1
			C51.1,64,48.6,63.5,48.2,64.8z M47.5,66.8c0,0.2-0.1,0.4-0.2,0.5c0.1-0.2,0.2-0.4,0.2-0.6C47.5,66.8,47.5,66.8,47.5,66.8z
			 M47.9,66.8c0-0.1,0-0.1,0-0.2c0.1,0.2,0.2,0.5,0.2,0.6C48,67.2,47.9,67.1,47.9,66.8z"/>
		<path class="st4" d="M45.8,35.7c0.1,0,0.2-0.1,0.3-0.5c-0.1,0-0.2,0-0.3,0c1.3,0,2.1-0.4,2.2-1.3c-0.5,0.6-1.2,0.9-1.8,0.8
			c-0.9-0.2-1.5-0.4-1.7-0.4l0,0c0.2-0.2,0.4-0.3,0.6-0.5c0.7,0.1,0.6-0.1,0.8-0.3c0.3-0.4,0.8-0.1,0.9,0.4c0.1,0.3,0.2,0.3,0.5,0
			c1.5-1.5,1.5-2.5,0-2.6l0,0c-0.4-0.7-1.3,0-1.2,0.4c0.1,0.2-3.5,4.1-2.2,3.8C44.5,35.4,45.2,35.8,45.8,35.7z"/>
		<path class="st4" d="M32.8,31.3L32.8,31.3c-1.5,0.2-1.5,1.2,0,2.6c0.3,0.3,0.4,0.2,0.5,0c0.1-0.5,0.7-0.8,0.9-0.4
			c0.2,0.2,0.2,0.4,0.8,0.3c0.2,0.2,0.5,0.4,0.6,0.5l0,0c-0.2-0.1-0.8,0.2-1.7,0.4c-0.7,0.2-1.3-0.2-1.8-0.8
			c0.2,0.8,0.9,1.3,2.2,1.3c-0.1,0-0.2,0-0.3,0c0.2,0.4,0.2,0.4,0.3,0.5c0.6,0.2,1.2-0.2,1.8-0.2c1.4,0.2-2.2-3.6-2.2-3.8
			C34.1,31.3,33.2,30.6,32.8,31.3z M35.9,34.7L35.9,34.7L35.9,34.7z"/>
	</g>
	<g>
		<path class="st5" d="M55.4,40.8c-0.2-0.8-0.2-1.9-0.5-3.2c-0.5-3.4-2.2-6.2-4.3-6.5c-2.1-0.2-0.5,1.2-0.1,2.5
			c0.3,1.2-0.5,2.7-2.3,4.7c-0.6,0.7-1.3,1.8-2,2.4c-0.1,0.1-1.1-0.2-1.2-0.4l0,0l0,0c0.1,0,0.1,0,0.2-0.1c0,0,0,0,0.1,0
			c0.1,0,0.2-0.1,0.2-0.1l0,0c-0.7-0.5-1.3-1-2-2.1c-0.7-1.1,0.3-3.1,0.8-4.2c0.9-0.7,1.8-1.6,2-2.9c0.1-0.7-1.8-0.5-3.2,0.2
			c-1.6,0.8-1.8,0.5-2.4,0.7c-0.2,1,0.2,1.1,0.6,1l0,0l0,0l0,0c-0.8,1.4-1.2,2.8-1.5,4.8c-0.2-2-0.5-3.5-1.5-4.8
			c0.4,0.1,0.8,0,0.6-1c-0.5-0.2-0.8,0.1-2.4-0.7c-1.3-0.6-3.2-0.8-3.2-0.2c0.2,1.3,1.1,2.2,2,2.9c0.5,1.1,1.5,3.1,0.8,4.2
			c-0.7,1.1-1.3,1.6-2,2.1c0,0,0,0,0.1,0c0.1,0,0.1,0,0.2,0.1h0.1c0.1,0,0.1,0,0.2,0c0,0,0,0,0.1,0c-0.1,0.2-1.1,0.5-1.2,0.4
			c-0.7-0.5-1.4-1.7-2-2.4c-1.7-1.9-2.6-3.5-2.3-4.7c0.5-1.3,2-2.8-0.1-2.5c-2.1,0.2-3.8,3.1-4.3,6.5c-0.2,1.2-0.3,2.3-0.5,3.2
			c0.1-0.1,0.2-0.1,0.3-0.2c-0.1,1.5-0.1,2.8-0.1,3.9c0,0.8,0.1,1.5,0.2,2.1c-0.2,1.8,0.2,4.2,0.7,7.3c0.5,2.7,0.2,4.8-0.2,6.2
			c0.8-0.1,1.5-0.6,1.8-1.5c0.1,0.5,0.2,0.9,0.5,1.4c0.7-0.5,1.1-1.4,1.3-2.5c0.1,0.3,0.2,0.5,0.3,0.6c0.3-0.2,0.5-0.7,0.7-1.2
			c0,0,0,0.1,0.1,0.1c0.8-0.4,1.2-1.8,1.2-3.5c0.1,0.2,0.2,0.5,0.3,0.6c0.4-0.3,0.7-0.8,0.8-1.6c0-0.2,0-0.8,0.1-1.4
			c0.1,0.6,0.2,1.2,0.5,1.6c0.4-0.3,0.7-0.8,0.8-1.5s0.4-6.2,0.4-7.1l0,0c0-0.1-0.1-0.2-0.1-0.3s0-0.2,0-0.2c0-0.4,0-0.8-0.1-1.2
			c1.9,0,3.8,0,5.8-0.1c1.9,0.1,3.8,0.1,5.8,0.1c0,0.4-0.1,0.8-0.1,1.2c0,0.1,0,0.2,0,0.2s-0.1,0.2-0.1,0.3l0,0
			c0,0.8,0.3,6.3,0.4,7.1c0.1,0.8,0.5,1.3,0.8,1.5c0.3-0.4,0.5-1,0.5-1.6c0,0.7,0.1,1.2,0.1,1.4c0.1,0.8,0.4,1.3,0.8,1.6
			c0.2-0.2,0.2-0.4,0.3-0.6c0.1,1.8,0.5,3.2,1.2,3.5c0,0,0-0.1,0.1-0.1c0.2,0.5,0.4,1,0.7,1.2c0.1-0.2,0.2-0.4,0.3-0.6
			c0.2,1.1,0.5,2.1,1.3,2.5c0.2-0.5,0.4-0.9,0.5-1.4c0.1,0.2,0.2,0.4,0.3,0.5c0,0,0.9,0.8,1.5,0.9c-0.3-1.4-0.5-3.5-0.2-6.2
			c0.5-3.1,0.8-5.4,0.7-7.3c0.2-0.5,0.2-1.2,0.2-2.1c0-1.2,0-2.5-0.1-3.9C55.2,40.8,55.3,40.8,55.4,40.8z"/>
		<path class="st5" d="M48.1,56.2c0.1,0,0.2,0,0.2,0c-0.5-0.7-0.9-1.3-1.2-2.6c-0.1-0.3-0.2-0.5-0.3-0.8c-0.1-0.1-0.2-0.2-0.2-0.2
			c-0.3-0.4-0.7-1-0.9-0.9l-0.2,1.5l0,0c0.1,0.1,0.2,0.2,0.3,0.4l-1.1,0.4c0.1,0.2,0.1,0.3,0.2,0.5h-0.5c-0.1,0-0.1,0.1-0.2,0.1
			c0,0,0,0-0.1-0.1L43.1,55l0,0c0,0.2-0.1,0.4-0.2,0.7c0-0.1-0.1-0.1-0.1-0.1l-0.1,0.1c-0.2-0.4-0.5-0.6-0.6-0.8l-0.5,0.2
			c-0.3-1.4-0.7-3-1.2-4.7c0-0.1,0-0.2,0-0.2c0.1-0.2,0.1-0.5,0.2-0.8h-0.1l0,0h-0.1l0,0h-0.1l0,0h-0.1l0,0h-0.1l0,0h-0.1l0,0
			c-0.1,0-0.1,0-0.1,0h-0.1l0,0h-0.1l0,0h-0.1l0,0h-0.1l0,0h-0.1l0,0h-0.1l0,0h-0.1c0.1,0.2,0.1,0.5,0.2,0.7c0,0.1,0,0.2-0.1,0.2
			c-0.5,1.8-0.8,3.3-1.2,4.7l-0.5-0.3c-0.2,0.2-0.5,0.4-0.6,0.8l-0.1-0.1l-0.1,0.1c-0.2-0.2-0.2-0.4-0.2-0.5l0,0L36,54.5
			c0,0-0.1,0-0.1,0.1c-0.1,0-0.1-0.1-0.2-0.1h-0.5c0.1-0.2,0.1-0.3,0.2-0.5l0,0l-1.1-0.4c0.1-0.2,0.2-0.4,0.3-0.4l0,0l-0.2-1.5
			c-0.2-0.1-0.6,0.5-0.9,0.9c-0.1,0.1-0.2,0.2-0.2,0.2c-0.2,0.2-0.2,0.5-0.3,0.8c-0.3,1.2-0.7,1.9-1.2,2.6c0.1,0,0.2,0,0.2,0
			c-0.5,1-1,1.6-1.5,2.2c0.9,0.2,1.7,0,2.2-0.7c0,0,0,0,0-0.1l0,0c-0.2,0.7-0.3,1.3-0.2,1.8c0.3-0.1,0.6-0.2,0.9-0.5
			c0,0.4,0.2,0.7,0.2,1c0.4-0.2,0.8-0.7,1-1.4c0.2,0.3,0.4,0.6,0.7,0.8c0.1-0.8,0.2-1.5,0.8-2.6c0.7,0.9,1.1,1.7,1.2,2.5
			c-0.2,0.6-0.5,1.2-0.8,1.6c-0.2,0.4-0.4,1.2-0.3,1.4c0.1,0.2,0.2,0.2,0.3,0.2c0,0,0,0,0,0.1c-0.3,0.6-0.7,1.2-1.1,1.7
			c-0.3,0.4-0.5,1.2-0.4,1.4c0.1,0.2,0.3,0.2,0.4,0.2c-0.3,0.9-0.7,1.8-1.2,2.4c-0.2,0.2-0.4,1-0.2,1.2c0.2,0.2,0.4,0.2,0.5,0.3
			l0.3,0.1c0.2,0,0.4,0.2,0.6,0.1c0.3-0.1,0.3-0.9,0.5-1.3c0.3-0.7,0.6-1.6,0.8-2.6l0,0c-0.2,1-0.5,1.8-0.8,2.6
			c-0.1,0.3-0.4,1.2-0.1,1.5c0.2,0.2,0.4,0.2,0.5,0.2l0.3,0.1c0.2,0,0.4,0.1,0.5,0s0.2-0.3,0.2-0.5c0,0.2,0,0.5,0.2,0.6
			s0.4,0.2,0.5,0.2h0.3c0.2,0,0.4,0.1,0.5-0.1c0.2-0.1,0.2-0.4,0.2-0.7c0,0.3,0,0.6,0.2,0.7c0.2,0.2,0.4,0.1,0.5,0.2h0.3
			c0.2,0,0.4,0,0.5-0.2c0.2-0.1,0.2-0.4,0.2-0.7c0,0.3,0.1,0.6,0.2,0.7c0.2,0.2,0.4,0.1,0.5,0.1h0.3c0.2,0,0.4,0,0.5-0.2
			c0.2-0.2,0.2-0.4,0.2-0.6c0.1,0.2,0.1,0.5,0.2,0.5c0.2,0.1,0.4,0,0.5,0l0.3-0.1c0.2-0.1,0.4-0.1,0.5-0.2c0.2-0.3,0-1.2-0.1-1.5
			C44,67.9,43.7,67,43.5,66l0,0c0.2,1,0.5,1.8,0.8,2.6c0.2,0.4,0.2,1.2,0.5,1.3c0.2,0.1,0.5-0.1,0.6-0.1l0.3-0.1
			c0.2-0.1,0.4-0.1,0.5-0.3c0.2-0.2,0-1-0.3-1.4c-0.5-0.7-0.8-1.5-1.2-2.4c0.1-0.1,0.3-0.1,0.4-0.2c0.2-0.2-0.1-1-0.4-1.4
			c-0.4-0.5-0.7-1-1.1-1.7c0,0,0,0,0-0.1c0.1-0.1,0.2-0.1,0.3-0.2c0.1-0.2-0.1-1-0.3-1.4c-0.3-0.5-0.5-1-0.8-1.6
			c0.2-0.8,0.5-1.5,1.2-2.5c0.5,1.1,0.8,1.8,0.8,2.6c0.3-0.3,0.5-0.5,0.7-0.9l0,0c0.2,0.7,0.6,1.2,1,1.4c0.2-0.3,0.2-0.6,0.2-1
			c0.3,0.3,0.6,0.5,0.9,0.5c0.2-0.5,0.1-1.2-0.2-1.8l0,0c0,0,0,0,0,0.1c0.5,0.7,1.3,0.8,2.2,0.7C49.1,57.8,48.6,57.2,48.1,56.2z"/>
		<path class="st5" d="M44.5,54L44.5,54L44.5,54z"/>
	</g>
</g>
<path class="st0" d="M40,60.3L40,60.3c-4.5,0-8.2-3.7-8.2-8.2V40.8h16.5v11.3C48.2,56.6,44.5,60.3,40,60.3z"/>
<rect x="37.7" y="40" class="st3" width="4.6" height="20.8"/>
<rect x="30" y="46.9" class="st3" width="20.8" height="4.6"/>
<path id="path1592_1_" class="st5" d="M43.8,42.6v3c0.6,0.2,2.2,0.8,2.3-0.5c0-0.6-0.8-1.1-1-0.5c-0.1,0.2,0,0.5,0.2,0.5
	c0.2,0.1,0.3-0.1,0.3-0.3c0.7,0.4-0.6,1.1-1.2,0.2c-0.2-0.3,0.3-0.5,0.3-0.8c0-0.2-0.5-0.5-0.3-0.8c0.6-1,1.8-0.2,1.2,0.2
	c0.1-0.2-0.2-0.3-0.3-0.3c-0.2,0.1-0.3,0.2-0.2,0.5c0.2,0.5,1.1,0.2,1-0.5C46.1,41.8,44.5,42.4,43.8,42.6L43.8,42.6z"/>
<path id="path1592_2_" class="st5" d="M36.2,42.6c-0.6-0.2-2.2-0.8-2.3,0.5c0,0.6,0.8,1.1,1,0.5c0.1-0.2,0-0.5-0.2-0.5
	s-0.3,0.1-0.3,0.3c-0.7-0.4,0.6-1.1,1.2-0.2c0.2,0.2-0.3,0.5-0.3,0.8c0,0.2,0.5,0.5,0.3,0.8c-0.5,1-1.8,0.2-1.2-0.2
	c-0.1,0.2,0.2,0.3,0.3,0.3c0.2-0.1,0.3-0.2,0.2-0.5c-0.2-0.5-1,0-1,0.6c0.1,1.4,1.7,0.8,2.3,0.5V42.6L36.2,42.6z"/>
<path id="path1592_4_" class="st5" d="M43.8,52.6v3c0.6,0.2,2.2,0.8,2.3-0.5c0-0.6-0.8-1.1-1-0.5c-0.1,0.2,0,0.5,0.2,0.5
	c0.2,0.1,0.3-0.1,0.3-0.3c0.7,0.4-0.6,1.1-1.2,0.2c-0.2-0.3,0.3-0.5,0.3-0.8c0-0.2-0.5-0.5-0.3-0.8c0.6-1,1.8-0.2,1.2,0.2
	c0.1-0.2-0.2-0.3-0.3-0.3c-0.2,0.1-0.3,0.2-0.2,0.5c0.2,0.5,1.1,0.2,1-0.5C46.1,51.8,44.5,52.4,43.8,52.6L43.8,52.6z"/>
<path id="path1592_3_" class="st5" d="M36.2,52.6c-0.6-0.2-2.2-0.8-2.3,0.5c0,0.6,0.8,1.1,1,0.5c0.1-0.2,0-0.5-0.2-0.5
	s-0.3,0.1-0.3,0.3c-0.7-0.4,0.6-1.1,1.2-0.2c0.2,0.2-0.3,0.5-0.3,0.8s0.5,0.5,0.3,0.8c-0.5,1-1.8,0.2-1.2-0.2
	c-0.1,0.2,0.2,0.3,0.3,0.3c0.2-0.1,0.3-0.2,0.2-0.5c-0.2-0.5-1,0-1,0.6c0.1,1.4,1.7,0.8,2.3,0.5V52.6L36.2,52.6z"/>
<path class="st3" d="M52,104c0.2,0,0.3,0,0.5,0h-1C51.7,104,51.8,104,52,104z"/>
<circle class="st4" cx="40" cy="7.5" r="1.9"/>
<rect x="39" y="9" class="st4" width="2" height="16"/>
<rect x="43.5" y="9" class="st4" width="2" height="16"/>
<rect x="39.3" y="6.5" transform="matrix(6.123234e-17 -1 1 6.123234e-17 23.3468 56.3468)" class="st4" width="1" height="20"/>
<rect x="39.3" y="10.8" transform="matrix(6.123234e-17 -1 1 6.123234e-17 19.004 60.6896)" class="st4" width="1" height="20"/>
<rect x="34.5" y="9" class="st4" width="2" height="16"/>
</svg>
