<?xml version="1.0" encoding="utf-8"?>
<!-- Generator: Adobe Illustrator 23.0.1, SVG Export Plug-In . SVG Version: 6.00 Build 0)  -->
<svg version="1.1" id="Layer_1" xmlns="http://www.w3.org/2000/svg" xmlns:xlink="http://www.w3.org/1999/xlink" x="0px" y="0px"
	 viewBox="0 0 80 80" style="enable-background:new 0 0 80 80;" xml:space="preserve">
<style type="text/css">
	.st0{fill:#EA1F1F;}
	.st1{fill:#000095;}
	.st2{fill:#FFFFFF;}
</style>
<path class="st0" d="M57.6,4.1v50.9H2.9C8.8,69.6,23.2,80,40,80c22.1,0,40-17.9,40-40C80,24.2,70.9,10.6,57.6,4.1z"/>
<path class="st1" d="M57.6,4.1C52.3,1.5,46.3,0,40,0C17.9,0,0,17.9,0,40c0,5.3,1,10.3,2.9,14.9h54.7V4.1z"/>
<path class="st1" d="M0,39.1V40h40V0C29.8,0,19.5,3.9,11.7,11.7C4.1,19.3,0.2,29.2,0,39.1z"/>
<title>flag-circle-de</title>
<g>
	<g>
		<path class="st2" d="M33.1,18.2l-2.4-8.9l-2.4,8.9C29.9,17.9,31.5,17.9,33.1,18.2z"/>
		<path class="st2" d="M22.3,21.7l-8.9-2.4l6.6,6.5C20.4,24.3,21.3,22.9,22.3,21.7z"/>
		<path class="st2" d="M40.7,12l-6.5,6.5c1.5,0.5,2.9,1.3,4.1,2.4L40.7,12z"/>
		<path class="st2" d="M27.3,18.5L20.7,12l2.4,8.9C24.3,19.8,25.7,19,27.3,18.5z"/>
		<path class="st2" d="M19.4,29.3c0-0.8,0.1-1.6,0.2-2.4l-8.9,2.4l8.9,2.4C19.5,30.8,19.4,30.1,19.4,29.3z"/>
		<path class="st2" d="M22.3,36.9c-1.1-1.2-1.9-2.6-2.4-4.1l-6.5,6.5L22.3,36.9z"/>
	</g>
	<g>
		<path class="st2" d="M28.2,40.8l2.4,8.9l2.4-8.9C31.4,41.1,29.8,41.1,28.2,40.8z"/>
		<path class="st2" d="M39,37.3l8.9,2.4l-6.6-6.5C40.9,34.7,40,36.2,39,37.3z"/>
		<path class="st2" d="M20.6,47l6.5-6.5c-1.5-0.5-2.9-1.3-4.1-2.4L20.6,47z"/>
		<path class="st2" d="M34.1,40.5l6.5,6.5l-2.4-8.9C37,39.2,35.6,40,34.1,40.5z"/>
		<path class="st2" d="M41.9,29.8c0,0.8-0.1,1.6-0.2,2.4l8.9-2.4l-8.9-2.4C41.8,28.2,41.9,29,41.9,29.8z"/>
		<path class="st2" d="M39,22.2c1.1,1.2,1.9,2.6,2.4,4.1l6.5-6.5L39,22.2z"/>
	</g>
	<circle class="st2" cx="30.7" cy="29.5" r="9.3"/>
</g>
</svg>
