<?xml version="1.0" encoding="utf-8"?>
<!-- Generator: Adobe Illustrator 24.1.0, SVG Export Plug-In . SVG Version: 6.00 Build 0)  -->
<svg version="1.1" id="flag-circle-zh-t" xmlns="http://www.w3.org/2000/svg" xmlns:xlink="http://www.w3.org/1999/xlink" x="0px"
	 y="0px" viewBox="0 0 80 80" style="enable-background:new 0 0 80 80;" xml:space="preserve">
<style type="text/css">
	.st0{fill:#FFFFFF;}
	.st1{fill:#EDB92E;}
	.st2{fill:#C82E35;}
</style>
<path class="st0" d="M52,104c0.2,0,0.3,0,0.5,0h-1C51.7,104,51.8,104,52,104z"/>
<path class="st1" d="M65.1,8.9C58.3,3.3,49.5,0,40,0S21.7,3.3,14.9,8.9H65.1z"/>
<path class="st2" d="M6.7,17.8h66.5c-2.2-3.4-5-6.4-8.1-8.9H14.9C11.7,11.4,9,14.4,6.7,17.8z"/>
<path class="st1" d="M2.3,26.7h75.4c-1.1-3.2-2.6-6.1-4.5-8.9H6.7C4.9,20.5,3.4,23.5,2.3,26.7z"/>
<path class="st2" d="M0.3,35.6h79.5c-0.3-3.1-1-6.1-2-8.9H2.3C1.3,29.5,0.6,32.5,0.3,35.6z"/>
<path class="st1" d="M0.3,35.6C0.1,37,0,38.5,0,40s0.1,3,0.3,4.4h79.5C79.9,43,80,41.5,80,40s-0.1-3-0.3-4.4H0.3z"/>
<path class="st2" d="M77.7,53.3c1-2.8,1.7-5.8,2-8.9H0.3c0.3,3.1,1,6.1,2,8.9H77.7z"/>
<path class="st1" d="M6.7,62.2h66.5c1.8-2.7,3.3-5.7,4.5-8.9H2.3C3.4,56.5,4.9,59.5,6.7,62.2z"/>
<path class="st2" d="M14.9,71.1h50.3c3.1-2.5,5.9-5.5,8.1-8.9H6.7C9,65.6,11.7,68.6,14.9,71.1z"/>
<path class="st1" d="M14.9,71.1C21.7,76.7,30.5,80,40,80s18.3-3.3,25.1-8.9H14.9z"/>
</svg>
