<?xml version="1.0" encoding="utf-8"?>
<!-- Generator: Adobe Illustrator 27.5.0, SVG Export Plug-In . SVG Version: 6.00 Build 0)  -->
<svg version="1.1" id="Layer_1" xmlns="http://www.w3.org/2000/svg" xmlns:xlink="http://www.w3.org/1999/xlink" x="0px" y="0px"
	 viewBox="0 0 80 80" enable-background="new 0 0 80 80" xml:space="preserve">
<path fill="#E03C31" d="M40,0C29.9,0,20.7,3.7,13.7,9.9L55.6,40H80C80,17.9,62.1,0,40,0z"/>
<path fill="#001489" d="M80,40H55.6L15.1,71.3C21.9,76.7,30.6,80,40,80C62.1,80,80,62.1,80,40z"/>
<path fill="#FFFFFF" d="M24.4,76.8l35.2-23.5h18.1C79.2,49.2,80,44.7,80,40s-0.8-9.2-2.3-13.3H59.6L24.4,3.2C10,9.3,0,23.5,0,40
	S10,70.7,24.4,76.8z"/>
<path d="M12.3,68.8L55.6,40L12.3,11.2C4.7,18.4,0,28.7,0,40S4.7,61.6,12.3,68.8z"/>
<path fill="#FFB81C" d="M19,6c-6.4,4-11.6,9.7-14.9,16.4L30.4,40L4.1,57.6c2.9,5.9,7.2,10.9,12.4,14.8L69.9,40L19,6z"/>
<path fill="#007749" d="M19,6c-4.7,2.9-8.7,6.8-11.9,11.3L41.1,40L7.1,62.7c3.1,4.5,7.2,8.4,11.9,11.3l39-26h21.2
	c0.5-2.6,0.8-5.3,0.8-8s-0.3-5.4-0.8-8H58L19,6z"/>
</svg>
