<svg id="Layer_1" data-name="Layer 1" xmlns="http://www.w3.org/2000/svg" viewBox="0 0 80 80"><defs><style>.cls-1{fill:#d33131;}.cls-2{fill:#ffc200;}</style></defs><title>flag-circle-cz</title><circle class="cls-1" cx="40" cy="40" r="40"/><path class="cls-2" d="M26.30631,548.82521L20.084,553.15508a0.5268,0.5268,0,0,1-.80513-0.585l2.19515-7.25578a0.5268,0.5268,0,0,0-.186-0.57234l-6.04075-4.57977a0.5268,0.5268,0,0,1,.30753-0.94649l7.579-.15445a0.5268,0.5268,0,0,0,.48686-0.35373l2.48893-7.16032a0.5268,0.5268,0,0,1,.9952,0l2.48893,7.16032a0.5268,0.5268,0,0,0,.48686.35373l7.579,0.15445a0.5268,0.5268,0,0,1,.30753.94649L31.92637,544.742a0.5268,0.5268,0,0,0-.186.57234l2.19515,7.25578a0.5268,0.5268,0,0,1-.80513.585l-6.22232-4.32987A0.5268,0.5268,0,0,0,26.30631,548.82521Z" transform="translate(0 -506)"/><path class="cls-2" d="M44.76765,525.29974L47.77078,523.21a0.25426,0.25426,0,0,1,.38859.28233l-1.05947,3.50193a0.25426,0.25426,0,0,0,.08975.27624l2.91551,2.21038a0.25426,0.25426,0,0,1-.14843.45681l-3.65792.07454a0.25426,0.25426,0,0,0-.235.17072l-1.20125,3.45586a0.25426,0.25426,0,0,1-.48032,0L43.181,530.18292a0.25426,0.25426,0,0,0-.235-0.17072l-3.65792-.07454a0.25426,0.25426,0,0,1-.14843-0.45681l2.91551-2.21038a0.25426,0.25426,0,0,0,.08975-0.27624l-1.05947-3.50193a0.25426,0.25426,0,0,1,.38859-0.28233l3.00314,2.08977A0.25426,0.25426,0,0,0,44.76765,525.29974Z" transform="translate(0 -506)"/><path class="cls-2" d="M56.36232,535.66052l3.44915-1.22038a0.25426,0.25426,0,0,1,.3.37511l-1.94856,3.09662a0.25426,0.25426,0,0,0,.01344.29014l2.22649,2.90322a0.25426,0.25426,0,0,1-.264.40124l-3.5472-.89628a0.25426,0.25426,0,0,0-.27179.10244l-2.0731,3.01467a0.25426,0.25426,0,0,1-.46319-0.12713l-0.24373-3.65055a0.25426,0.25426,0,0,0-.18141-0.22683l-3.50774-1.04005a0.25426,0.25426,0,0,1-.02223-0.47981L53.225,536.843a0.25426,0.25426,0,0,0,.15967-0.24263l-0.0948-3.65745a0.25426,0.25426,0,0,1,.44945-0.16941l2.34292,2.8101A0.25426,0.25426,0,0,0,56.36232,535.66052Z" transform="translate(0 -506)"/><path class="cls-2" d="M52.26606,553.828l-2.80587-2.348a0.25426,0.25426,0,0,1,.17022-0.44915l3.65728,0.1014a0.25426,0.25426,0,0,0,.24292-0.15923l1.366-3.39411a0.25426,0.25426,0,0,1,.47977.02309l1.03373,3.50961a0.25426,0.25426,0,0,0,.2265.18182l3.65011,0.25031a0.25426,0.25426,0,0,1,.12629.46342l-3.0184,2.06766a0.25426,0.25426,0,0,0-.10293.2716l0.88989,3.54881a0.25426,0.25426,0,0,1-.40171.26332l-2.8992-2.23172a0.25426,0.25426,0,0,0-.29012-0.014l-3.10013,1.943a0.25426,0.25426,0,0,1-.37457-0.30068l1.22659-3.44694A0.25426,0.25426,0,0,0,52.26606,553.828Z" transform="translate(0 -506)"/><path class="cls-2" d="M39.02145,562.42445l-1.53119-3.32286a0.25426,0.25426,0,0,1,.34605-0.3331l3.26209,1.65672a0.25426,0.25426,0,0,0,.28769-0.04l2.68707-2.48307a0.25426,0.25426,0,0,1,.42374.22618l-0.56759,3.61439a0.25426,0.25426,0,0,0,.12691.26126l3.19189,1.78824a0.25426,0.25426,0,0,1-.08417.47289l-3.61288.57709a0.25426,0.25426,0,0,0-.20926.20143l-0.71437,3.58826a0.25426,0.25426,0,0,1-.47575.06608l-1.66529-3.25772a0.25426,0.25426,0,0,0-.25623-0.13677l-3.63339.42942a0.25426,0.25426,0,0,1-.20986-0.432l2.58368-2.59048A0.25426,0.25426,0,0,0,39.02145,562.42445Z" transform="translate(0 -506)"/></svg>