<?xml version="1.0" encoding="utf-8"?>
<!-- Generator: Adobe Illustrator 21.0.0, SVG Export Plug-In . SVG Version: 6.00 Build 0)  -->
<svg version="1.1" id="Layer_1" xmlns="http://www.w3.org/2000/svg" xmlns:xlink="http://www.w3.org/1999/xlink" x="0px" y="0px"
	 viewBox="0 0 80 80" style="enable-background:new 0 0 80 80;" xml:space="preserve">
<style type="text/css">
	.st0{fill:#FFFFFF;}
	.st1{fill:#02247D;}
	.st2{fill:#D33131;}
</style>
<title>flag-circle-en</title>
<g>
	<path class="st0" d="M57.1,30l14.5-14.5c-0.5-0.7-1-1.3-1.6-1.9L53.6,30H50v-0.2l18.2-18.2c-1.2-1.1-2.4-2.2-3.7-3.2L50,22.9V1.3
		c-1.6-0.4-3.3-0.7-5-0.9V35h34.7c-0.2-1.7-0.5-3.4-0.9-5H57.1z"/>
	<path class="st0" d="M0.3,45c0.2,1.7,0.5,3.4,0.9,5h21.7L8.3,64.6c0.5,0.6,1,1.2,1.5,1.8L26.2,50H30L11.7,68.3
		c1.2,1.2,2.5,2.3,3.8,3.3L30,57.1v21.7c1.6,0.4,3.3,0.7,5,0.9V45H0.3z"/>
	<path class="st0" d="M30,22.9L15.5,8.4c-1.3,1-2.6,2.1-3.8,3.3L30,30h-3.8L9.9,13.7c-0.5,0.6-1,1.2-1.5,1.8L22.9,30H1.2
		c-0.4,1.6-0.7,3.3-0.9,5H35V0.3c-1.7,0.2-3.4,0.5-5,0.9V22.9z"/>
	<path class="st0" d="M45,79.8c1.7-0.2,3.4-0.5,5-0.9V57.1l14.6,14.6c1.3-1,2.5-2,3.6-3.2L50,50.3v-0.2h3.6L70,66.5
		c0.6-0.6,1.1-1.3,1.6-2L57.1,50h21.7c0.4-1.6,0.7-3.3,0.9-5H45V79.8z"/>
	<path class="st1" d="M1.2,50C2.6,55.4,5,60.3,8.3,64.6L22.9,50H1.2z"/>
	<path class="st1" d="M8.4,15.5C5.1,19.7,2.6,24.6,1.2,30h21.7L8.4,15.5z"/>
	<path class="st1" d="M71.7,64.6c3.3-4.3,5.8-9.2,7.1-14.6H57.1L71.7,64.6z"/>
	<path class="st1" d="M15.4,71.7c4.3,3.3,9.2,5.8,14.6,7.2V57.1L15.4,71.7z"/>
	<path class="st1" d="M30,1.3c-5.4,1.4-10.3,3.8-14.5,7.1L30,22.9V1.3z"/>
	<path class="st1" d="M64.5,8.4C60.3,5.1,55.4,2.6,50,1.3v21.6L64.5,8.4z"/>
	<path class="st1" d="M78.8,30c-1.4-5.4-3.9-10.3-7.2-14.5L57.1,30H78.8z"/>
	<path class="st1" d="M50,78.8c5.4-1.4,10.3-3.9,14.6-7.2L50,57.1V78.8z"/>
	<path class="st2" d="M35,45v34.8c0.8,0.1,1.5,0.2,2.3,0.2h5.4c0.8-0.1,1.5-0.1,2.3-0.2V45h34.7c0.1-1,0.2-2,0.3-3v-4
		c-0.1-1-0.2-2.1-0.3-3.1H45V0.3C43.4,0.1,41.7,0,40,0s-3.4,0.1-5,0.3V35H0.3c-0.1,1-0.2,2-0.3,3.1v4c0,1,0.1,2,0.3,3H35z"/>
	<path class="st2" d="M26.2,50L9.8,66.4c0.6,0.7,1.2,1.3,1.8,2L30,50H26.2z"/>
	<path class="st2" d="M30,30L11.7,11.7c-0.6,0.6-1.2,1.3-1.8,2L26.2,30H30z"/>
	<path class="st2" d="M50,30h3.6L70,13.6c-0.6-0.7-1.2-1.3-1.8-2L50,29.8V30z"/>
	<path class="st2" d="M50,50.1v0.2l18.2,18.2c0.6-0.6,1.2-1.3,1.8-2L53.6,50.1H50z"/>
</g>
</svg>
