<?xml version="1.0" encoding="utf-8"?>
<!-- Generator: Adobe Illustrator 24.1.0, SVG Export Plug-In . SVG Version: 6.00 Build 0)  -->
<svg version="1.1" id="Layer_1" xmlns="http://www.w3.org/2000/svg" xmlns:xlink="http://www.w3.org/1999/xlink" x="0px" y="0px"
	 viewBox="0 0 80 80" style="enable-background:new 0 0 80 80;" xml:space="preserve">
<style type="text/css">
	.st0{fill:#FFFFFF;}
	.st1{fill:#2C0075;}
	.st2{fill:#262626;}
	.st3{fill:#FF0000;}
</style>
<g transform="translate(0.389 0.438)">
	<circle class="st0" cx="39.6" cy="39.6" r="40"/>
	<g transform="translate(0.111 0.063)">
		<circle class="st0" cx="39.5" cy="39.5" r="40"/>
		<circle class="st1" cx="39.2" cy="40.2" r="18.4"/>
		<path class="st2" d="M8.9,23.6l9.1-9.1l1.6,1.6l-9.1,9.1L8.9,23.6z"/>
		<path class="st2" d="M10.9,25.4l9.1-9.1l1.6,1.6L12.4,27L10.9,25.4z"/>
		<path class="st2" d="M12.7,27.4l9.1-9.1l1.6,1.6l-9.1,9.1L12.7,27.4z"/>
		<path class="st2" d="M14.3,50l9.1,9.1l-1.6,1.6l-9.1-9.1L14.3,50z"/>
		<path class="st2" d="M10.6,53.9l9.1,9.1l-1.6,1.6L9,55.4L10.6,53.9z"/>
		<path class="st2" d="M12.4,52l4.2,4.2l-1.6,1.6l-4.2-4.2L12.4,52z"/>
		<path class="st2" d="M15.7,58.3l1.6-1.6l4.3,4.3L20,62.7L15.7,58.3z"/>
		<path class="st2" d="M57.4,61.1l4.2-4.2l1.6,1.6l-4.2,4.2L57.4,61.1z"/>
		<path class="st2" d="M63.8,57.8l-1.6-1.6l4.3-4.3l1.6,1.6L63.8,57.8z"/>
		<path class="st2" d="M59.3,62.9l4.2-4.2l1.6,1.6l-4.2,4.2L59.3,62.9z"/>
		<path class="st2" d="M65.7,59.8l-1.6-1.6l4.3-4.3l1.6,1.6L65.7,59.8z"/>
		<path class="st2" d="M55.6,59.2l4.2-4.2l1.6,1.6l-4.2,4.2L55.6,59.2z"/>
		<path class="st2" d="M62,55.9l-1.6-1.6l4.3-4.3l1.6,1.6L62,55.9z"/>
		<path class="st2" d="M66.6,27.2L57.4,18l1.6-1.6l9.1,9.1L66.6,27.2z"/>
		<path class="st2" d="M68.5,25.3l-4.2-4.2l1.6-1.6l4.2,4.2L68.5,25.3z"/>
		<path class="st2" d="M65.2,18.9l-1.6,1.6l-4.3-4.3l1.6-1.6L65.2,18.9z"/>
		<path class="st2" d="M64.7,29l-4.2-4.2l1.6-1.6l4.2,4.2L64.7,29z"/>
		<path class="st2" d="M61.5,22.7l-1.6,1.6l-4.3-4.3l1.6-1.6L61.5,22.7z"/>
		<path class="st3" d="M57.6,40.2c0-6.1-3-11.9-8.1-15.3c-3-2.1-6.6-3.1-10.3-3.1c-9.2,0-17,6.8-18.3,15.9c1.9,3.7,5.8,6.1,10,6.1
			c8.4,0,8-7.1,16.3-7.1c4.5-0.1,8.5,2.6,10.2,6.7v-0.2c0.1-0.4,0.1-0.9,0.2-1.3L57.6,40.2z"/>
	</g>
</g>
</svg>
