<?xml version="1.0" encoding="utf-8"?>
<!-- Generator: Adobe Illustrator 24.1.0, SVG Export Plug-In . SVG Version: 6.00 Build 0)  -->
<svg version="1.1" id="flag-circle-zh-t" xmlns="http://www.w3.org/2000/svg" xmlns:xlink="http://www.w3.org/1999/xlink" x="0px"
	 y="0px" viewBox="0 0 80 80" style="enable-background:new 0 0 80 80;" xml:space="preserve">
<style type="text/css">
	.st0{fill:#FF0000;}
	.st1{fill:#FFFFFF;}
	.st2{fill:#171796;}
	.st3{fill:#0093DD;}
</style>
<path class="st0" d="M40,0C17.9,0,0,17.9,0,40c0,22,17.7,39.8,39.6,40h0.8C62.3,79.8,80,62,80,40C80,17.9,62.1,0,40,0z"/>
<path class="st1" d="M2.5,26.2C0.8,30.5,0,35.2,0,40c0,22.1,17.9,40,40,40s40-17.9,40-40c0-4.8-0.8-9.5-2.5-13.8H2.5z"/>
<path class="st2" d="M77.8,53.1H2.2C7.6,68.8,22.5,80,40,80S72.4,68.8,77.8,53.1z"/>
<path class="st0" d="M40,66.2L40,66.2c-10.2,0-18.5-8.2-18.5-18.5V26.2h36.9v21.5C58.5,57.9,50.2,66.2,40,66.2z"/>
<path class="st1" d="M40.8,64.7h-1.5c-8.9,0-16.2-7.2-16.2-16.2V27.9h33.8v20.6C56.9,57.5,49.7,64.7,40.8,64.7z"/>
<path class="st1" d="M40,80c0.2,0,0.2,0,0.4,0h-0.8C39.8,80,39.8,80,40,80z"/>
<g>
	<path class="st0" d="M30.2,28.5h-6.5v7.2h6.5V28.5z"/>
	<path class="st0" d="M30.2,42.7h6.5v-7.2h-6.5C30.2,35.5,30.2,42.7,30.2,42.7z"/>
	<path class="st0" d="M23.8,47.9c0,0.6,0.1,1.3,0.1,1.9h6.4v-7.2h-6.5V47.9z"/>
	<path class="st0" d="M43.2,42.7h-6.5v7.2h6.5C43.2,49.8,43.2,42.7,43.2,42.7z"/>
	<path class="st0" d="M43.2,56.9h6.5v-7.2h-6.5C43.2,49.8,43.2,56.9,43.2,56.9z"/>
	<path class="st0" d="M49.7,60.8c1.5-1.1,2.7-2.4,3.7-3.9h-3.7V60.8z"/>
	<path class="st0" d="M30.2,56.9h6.5v-7.2h-6.5C30.2,49.8,30.2,56.9,30.2,56.9z"/>
	<path class="st0" d="M26.5,56.9c1,1.5,2.2,2.8,3.7,3.9v-3.9H26.5z"/>
	<path class="st0" d="M41.1,64.1c0.7-0.1,1.4-0.2,2.1-0.3v-6.8h-6.5v6.8c0.7,0.2,1.4,0.2,2.1,0.3C39.6,64.1,40.3,64.1,41.1,64.1
		L41.1,64.1z"/>
	<path class="st0" d="M56.1,49.8c0.1-0.6,0.1-1.3,0.1-1.9v-5.2h-6.5v7.2H56.1L56.1,49.8z"/>
	<path class="st0" d="M43.2,42.7h6.5v-7.2h-6.5C43.2,35.5,43.2,42.7,43.2,42.7z"/>
	<path class="st0" d="M43.2,28.5h-6.5v7.2h6.5C43.2,35.6,43.2,28.5,43.2,28.5z"/>
	<path class="st0" d="M56.2,35.5v-7.1h-6.5v7.2L56.2,35.5L56.2,35.5z"/>
</g>
<g>
	<path class="st1" d="M58.6,25.2L63.1,15l-3.4-5.5L54,11.5L50,7l-5.2,3l-4.7-3.8L35.4,10l-5.2-3l-3.9,4.5l-5.7-2.1L17.2,15l4.5,10.2
		c5.6-2.5,11.9-4,18.5-4C46.7,21.2,52.9,22.6,58.6,25.2L58.6,25.2z"/>
	<g>
		<path class="st3" d="M26.4,12L26.4,12l-5.6-2.1L17.6,15l1.2,2.8l3.1,6.9c2.3-1,4.6-1.8,7.1-2.5L26.4,12L26.4,12z"/>
	</g>
	<g>
		<path class="st2" d="M35.5,10.5L35.5,10.5l-5.2-3l-3.9,4.5l2.6,10.2c2.4-0.6,4.8-1,7.4-1.2L35.5,10.5L35.5,10.5z"/>
		<g>
			<path class="st0" d="M28.3,19.7c2.5-0.6,5.2-1.1,7.8-1.3l-0.2-2.6c-2.8,0.2-5.6,0.7-8.3,1.4L28.3,19.7L28.3,19.7z"/>
			<path class="st0" d="M27,14.5c2.8-0.7,5.8-1.2,8.7-1.5l-0.2-2.6c-3.2,0.2-6.2,0.8-9.2,1.5L27,14.5z"/>
		</g>
	</g>
	<g>
		<path class="st3" d="M44.8,10.5L44.8,10.5l-4.6-3.8l-4.6,3.8l0.8,10.5c1.2-0.1,2.5-0.2,3.8-0.2s2.5,0.1,3.8,0.2L44.8,10.5
			L44.8,10.5z"/>
	</g>
	<g>
		<path class="st2" d="M53.9,12L53.9,12L50,7.5l-5.2,3l-1,10.5c2.5,0.2,5,0.6,7.4,1.2L53.9,12L53.9,12z"/>
	</g>
	<g>
		<path class="st3" d="M58.4,24.7l4.2-9.7l-3.2-5.1L53.8,12l-2.6,10.2C53.8,22.8,56.1,23.7,58.4,24.7L58.4,24.7z"/>
		<path class="st1" d="M52.9,15.8c2.8,0.7,5.5,1.7,8.2,2.8l-1.6,3.7c-2.4-1.1-4.9-1.9-7.5-2.6L52.9,15.8z"/>
		<path class="st0" d="M59.7,21.7l1.1-2.5c-2.5-1.2-5.2-2.1-8-2.8L52.2,19C54.8,19.7,57.3,20.5,59.7,21.7L59.7,21.7z"/>
	</g>
</g>
</svg>
