<svg id="Layer_1" data-name="Layer 1" xmlns="http://www.w3.org/2000/svg" viewBox="0 0 80 80"><defs><style>.cls-1{fill:#fff;}.cls-2{fill:#1cb0f6;}.cls-3{fill:#d33131;}</style></defs><title>flag-circle-no</title><path class="cls-1" d="M326.45319,305.3573a40.03268,40.03268,0,0,0-26.239,33.49274h26.239V305.3573Z" transform="translate(-300 -303)"/><path class="cls-1" d="M300.54272,349.55a40.04692,40.04692,0,0,0,25.91046,31.09265V349.55H300.54272Z" transform="translate(-300 -303)"/><path class="cls-1" d="M379.78583,338.85A40.00442,40.00442,0,0,0,340,303c-0.95831,0-1.9054.04572-2.8468,0.112V338.85h42.63263Z" transform="translate(-300 -303)"/><path class="cls-1" d="M337.1532,382.888C338.0946,382.95428,339.04169,383,340,383a40.00437,40.00437,0,0,0,39.45728-33.45H337.1532v33.338Z" transform="translate(-300 -303)"/><path class="cls-2" d="M379.78583,338.85H337.1532V303.112a39.81117,39.81117,0,0,0-10.7,2.2453V338.85h-26.239a39.99526,39.99526,0,0,0,.32855,10.7h25.91046V380.6427a39.81117,39.81117,0,0,0,10.7,2.2453V349.55h42.30408A39.99526,39.99526,0,0,0,379.78583,338.85Z" transform="translate(-300 -303)"/><path class="cls-3" d="M377.99567,330.5a40.02081,40.02081,0,0,0-33.79578-27.27325V330.5h33.79578Z" transform="translate(-300 -303)"/><path class="cls-3" d="M319.19989,308.85455A40.07469,40.07469,0,0,0,302.0152,330.5h17.18469V308.85455Z" transform="translate(-300 -303)"/><path class="cls-3" d="M302.0152,355.5a40.07469,40.07469,0,0,0,17.18469,21.64545V355.5H302.0152Z" transform="translate(-300 -303)"/><path class="cls-3" d="M344.19989,382.77325A40.02081,40.02081,0,0,0,377.99567,355.5H344.19989v27.27325Z" transform="translate(-300 -303)"/></svg>