<?xml version="1.0" encoding="utf-8"?>
<!-- Generator: Adobe Illustrator 20.0.0, SVG Export Plug-In . SVG Version: 6.00 Build 0)  -->
<svg version="1.1" id="Layer_1" xmlns="http://www.w3.org/2000/svg" xmlns:xlink="http://www.w3.org/1999/xlink" x="0px" y="0px"
	 viewBox="0 0 80 80" style="enable-background:new 0 0 80 80;" xml:space="preserve">
<style type="text/css">
	.st0{fill:#FFFFFF;}
	.st1{fill:#243C92;}
</style>
<title>flag-circle-el</title>
<path class="st0" d="M71.8,44h-1.8c0.8,2.6,1.4,5.3,1.6,8h0.2V44z"/>
<path class="st0" d="M71.8,68.1v-8h-0.2c-0.3,2.7-0.8,5.4-1.7,8L71.8,68.1L71.8,68.1z"/>
<path class="st1" d="M40,80c10.7,0,21-4.3,28.6-12H11.4C19,75.7,29.3,80,40,80z"/>
<path class="st1" d="M78.2,28c-0.9-2.8-2.1-5.5-3.5-8H25v16h15v-8H78.2L78.2,28z"/>
<path class="st1" d="M40,0C29.3,0,19,4.3,11.4,12h57.1C61,4.3,50.7,0,40,0z"/>
<path class="st1" d="M79.8,44.1c0.1-1.4,0.2-2.8,0.2-4.1c0-1.4-0.1-2.7-0.2-4H40v8H25v16h49.6c1.4-2.5,2.6-5.1,3.5-7.9H40v-8H79.8
	L79.8,44.1z"/>
<path class="st1" d="M15,20H5.4c-2.8,4.9-4.6,10.4-5.2,16H15V20z"/>
<path class="st1" d="M15,44H0.2c0.6,5.6,2.3,11.1,5.2,16H15V44z"/>
<path class="st0" d="M78.2,28H40v8h39.8C79.5,33.3,79,30.6,78.2,28z"/>
<path class="st0" d="M40,52.1l38.1,0c0.8-2.6,1.4-5.3,1.7-8H40V52.1z"/>
<path class="st0" d="M25,60V44h15v-8H25V20h49.6c-1.7-2.9-3.7-5.6-6.1-8H11.4c-2.4,2.4-4.4,5.1-6.1,8H15v16H0.2
	C0.1,37.3,0,38.6,0,40s0.1,2.7,0.2,4H15v16H5.4c1.7,2.9,3.7,5.6,6.1,8h57.1c2.4-2.4,4.4-5.1,6.1-8H25z"/>
</svg>
