<svg id="Layer_1" data-name="Layer 1" xmlns="http://www.w3.org/2000/svg" viewBox="0 0 80 80"><defs><style>.cls-1{fill:#d33131;}.cls-2{fill:#ffc200;}</style></defs><title>flag-circle-es</title><path class="cls-1" d="M940,100a39.97894,39.97894,0,0,0-34.90045,20.45551h69.8009A39.97894,39.97894,0,0,0,940,100Z" transform="translate(-900 -100)"/><path class="cls-1" d="M940,180a39.97894,39.97894,0,0,0,34.90045-20.45551h-69.8009A39.97894,39.97894,0,0,0,940,180Z" transform="translate(-900 -100)"/><path class="cls-2" d="M902.52441,126a39.93418,39.93418,0,0,0,2.57513,33.54449h69.8009a39.93418,39.93418,0,0,0,0-39.089h-69.8009A39.82438,39.82438,0,0,0,902.52441,126Z" transform="translate(-900 -100)"/></svg>