<?xml version="1.0" encoding="utf-8"?>
<!-- Generator: Adobe Illustrator 27.5.0, SVG Export Plug-In . SVG Version: 6.00 Build 0)  -->
<svg version="1.1" id="Layer_1" xmlns="http://www.w3.org/2000/svg" xmlns:xlink="http://www.w3.org/1999/xlink" x="0px" y="0px"
	 viewBox="0 0 80 80" enable-background="new 0 0 80 80" xml:space="preserve">
<path fill="#FFFFFF" d="M2.3,26.7h75.4C72.2,11.1,57.4,0,40,0S7.8,11.1,2.3,26.7z"/>
<path fill="#0000FF" d="M2.3,26.7C0.8,30.8,0,35.3,0,40s0.8,9.2,2.3,13.3h75.4C79.2,49.2,80,44.7,80,40s-0.8-9.2-2.3-13.3H2.3z"/>
<g transform="matrix(.39140688 0 0 .39140688 60 60)">
	<path fill="#0000FF" d="M-75.9-114c15.8-7,33.8-7,49.6,0c2.6,36.6-5.7,57.4-24.8,62.2C-70.2-56.7-78.5-77.4-75.9-114z"/>
	<path id="a" fill="#FFFF00" d="M-51.1-107.4l0.8,1.7l1.8-0.2l-1.1,1.5l1.1,1.5l-1.8-0.2l-0.8,1.7l-0.8-1.7l-1.8,0.2l1.1-1.5
		l-1.1-1.5l1.8,0.2"/>
	<g>
		<path id="a_00000128478011318526918660000017528179954538735746_" fill="#FFFF00" d="M-58.1-116.8l0.8,1.7l1.8-0.2l-1.1,1.5
			l1.1,1.5l-1.8-0.2l-0.8,1.7l-0.8-1.7l-1.8,0.2l1.1-1.5l-1.1-1.5l1.8,0.2"/>
	</g>
	<g>
		<path id="a_00000062194213935166334840000006933480521898560644_" fill="#FFFF00" d="M-44.1-116.8l0.8,1.7l1.8-0.2l-1.1,1.5
			l1.1,1.5l-1.8-0.2l-0.8,1.7l-0.8-1.7l-1.8,0.2l1.1-1.5l-1.1-1.5l1.8,0.2"/>
	</g>
	<path fill="#FFFFFF" d="M-51.1-97.8l6,12l4-5.3l10,13.3c0,0.6-0.1,1.2-0.3,1.8c-2.8,9.7-10.2,17.5-19.7,20.8
		c-9.6-3.3-17-11-19.7-20.8c-0.2-0.6-0.3-1.2-0.3-1.8l10-13.3l4,5.3L-51.1-97.8z"/>
	<path id="b" fill="#0000FF" d="M-70.8-75.9c1,3.5,4.7,5.6,8.2,4.6c0.5-0.1,1-0.4,1.5-0.6c2.1-1.2,4.6-1.2,6.7,0
		c2.1,1.2,4.6,1.2,6.7,0c2.1-1.2,4.6-1.2,6.7,0c3.2,1.8,7.3,0.7,9.1-2.4c0.3-0.5,0.5-1,0.6-1.5l0.3,0.1v4.9c-1.2,0-2.3,0.3-3.3,0.9
		c-2.1,1.2-4.6,1.2-6.7,0c-2.1-1.2-4.6-1.2-6.7,0c-2.1,1.2-4.6,1.2-6.7,0c-2.1-1.2-4.6-1.2-6.7,0c-2.1,1.2-4.6,1.2-6.7,0
		c-1-0.6-2.2-0.9-3.3-0.9v-4.9"/>
	<g>
		<path id="b_00000145055629385132924720000011505539004625849276_" fill="#0000FF" d="M-70.8-72.1c1,3.5,4.7,5.6,8.2,4.6
			c0.5-0.1,1-0.4,1.5-0.6c2.1-1.2,4.6-1.2,6.7,0c2.1,1.2,4.6,1.2,6.7,0c2.1-1.2,4.6-1.2,6.7,0c3.2,1.8,7.3,0.7,9.1-2.4
			c0.3-0.5,0.5-1,0.6-1.5l0.3,0.1v4.9c-1.2,0-2.3,0.3-3.3,0.9c-2.1,1.2-4.6,1.2-6.7,0c-2.1-1.2-4.6-1.2-6.7,0
			c-2.1,1.2-4.6,1.2-6.7,0c-2.1-1.2-4.6-1.2-6.7,0c-2.1,1.2-4.6,1.2-6.7,0c-1-0.6-2.2-0.9-3.3-0.9V-72"/>
	</g>
	<path fill="#FF0000" d="M-77.8-113.1c0.6-0.3,1.3-0.6,1.9-0.9l2,31.6c0.8,13.5,9.9,25.1,22.8,29.3c12.9-4.1,22-15.7,22.8-29.3
		l2-31.6c0.6,0.3,1.3,0.6,1.9,0.9l-1.9,30.9c-0.9,14.5-10.8,27-24.7,31.2c-14-4.2-23.8-16.6-24.7-31.2L-77.8-113.1z"/>
</g>
<path fill="#FF0000" d="M77.7,53.3H2.3C7.8,68.9,22.6,80,40,80S72.2,68.9,77.7,53.3z"/>
</svg>
