<?xml version="1.0" encoding="utf-8"?>
<!-- Generator: Adobe Illustrator 26.2.1, SVG Export Plug-In . SVG Version: 6.00 Build 0)  -->
<svg version="1.1" id="Layer_1" xmlns="http://www.w3.org/2000/svg" xmlns:xlink="http://www.w3.org/1999/xlink" x="0px" y="0px"
	 viewBox="0 0 80 80" enable-background="new 0 0 80 80" xml:space="preserve">
<circle fill="#FFFFFF" cx="40" cy="40" r="39.3"/>
<path fill="#00509E" d="M36.7,32.5h42.6C75.7,13.6,59.2,0,40,0c-1.1,0-2.2,0.1-3.3,0.1V32.5z"/>
<path fill="#00509E" d="M21.7,32.5V4.4C10.8,10,3,20.4,0.7,32.5H21.7z"/>
<path fill="#00509E" d="M21.7,47.5h-21c2.3,12.1,10,22.4,21,28.1V47.5z"/>
<path fill="#00509E" d="M36.7,47.5v32.4C37.8,80,38.9,80,40,80c19.2,0,35.7-13.6,39.3-32.5H36.7z"/>
<path fill="#DF192F" d="M33,0.6c-2.8,0.5-5.5,1.3-8,2.3v33.6H0.2C0.1,37.7,0,38.8,0,40c0,1.5,0.1,3,0.3,4.5H25v32.6
	c2.5,1,5.2,1.8,8,2.3V44.5h46.7c0.2-1.5,0.3-3,0.3-4.5c0-1.2-0.1-2.3-0.2-3.5H33V0.6z"/>
</svg>
