<?xml version="1.0" encoding="utf-8"?>
<!-- Generator: Adobe Illustrator 25.2.0, SVG Export Plug-In . SVG Version: 6.00 Build 0)  -->
<svg version="1.1" id="Layer_1" xmlns="http://www.w3.org/2000/svg" xmlns:xlink="http://www.w3.org/1999/xlink" x="0px" y="0px"
	 viewBox="0 0 80 80" style="enable-background:new 0 0 80 80;" xml:space="preserve">
<style type="text/css">
	.st0{fill:#091A2F;}
	.st1{fill:#FFFFFF;}
</style>
<path class="st0" d="M40,80c22.1,0,40-17.9,40-40H0C0,62.1,17.9,80,40,80z"/>
<path class="st0" d="M40,0C17.9,0,0,17.9,0,40h80C80,17.9,62.1,0,40,0z"/>
<path class="st1" d="M45.7,10.7L45.7,10.7H34.4c-4.4,0.2-7.7,3.8-7.7,8.1v0.1c0,2.4,1,4.6,2.8,6.2L44,40.6c0.2,0.2,0.4,0.3,0.7,0.3
	c0.5,0,1-0.4,1-1l0,0V26.8c4.4-0.2,7.9-4,7.7-8.4C53.1,14.2,49.8,10.9,45.7,10.7z M45.4,23.3h-2.8c-0.3,0-0.5,0.2-0.5,0.5v9.5
	c-0.6-0.7-1.3-1.4-1.9-2.1c-1.3-1.4-2.7-2.9-4-4.3c-1.1-1.1-2.1-2.4-3.3-3.5c-0.9-0.9-1.9-1.9-2.3-3.2c-0.1-0.4-0.2-0.8-0.2-1.2
	v-0.1c0-2.4,1.8-4.3,4.2-4.5h10.6h0.1c2.5,0.1,4.3,2.2,4.2,4.7C49.4,21.4,47.7,23.2,45.4,23.3z"/>
<g>
	<path class="st1" d="M18.4,51.1c0-0.7,0.3-1,1-1h3.7c2.6,0,4.3,1.2,4.3,3.3c0,1.1-0.5,2.2-1.5,2.7v0.1c1.5,0.5,2,1.8,2,2.8
		c0,2.8-2.3,3.8-4.9,3.8h-3.7c-0.6,0-1-0.3-1-1V51.1z M23.1,55.1c0.8,0,1.2-0.5,1.2-1.2s-0.3-1.1-1.2-1.1h-1.6v2.3L23.1,55.1
		L23.1,55.1z M23.4,60.3c0.9,0,1.4-0.6,1.4-1.4s-0.4-1.3-1.4-1.3h-1.9v2.6H23.4z"/>
	<path class="st1" d="M30.2,51.1c0-0.7,0.3-1,1-1h6c0.7,0,1,0.3,1,1v0.7c0,0.7-0.3,1-1,1h-3.9v2.3h2.9c0.6,0,1,0.3,1,1V57
		c0,0.6-0.3,1-1,1h-2.9v2.4h4.1c0.6,0,1,0.3,1,1v0.7c0,0.7-0.3,1-1,1h-6.3c-0.6,0-1-0.3-1-1L30.2,51.1L30.2,51.1z"/>
	<path class="st1" d="M43.5,52.9h-2.9c-0.6,0-1-0.3-1-1v-0.7c0-0.7,0.3-1,1-1h8.9c0.6,0,1,0.3,1,1v0.7c0,0.7-0.3,1-1,1h-2.9V62
		c0,0.7-0.3,1-1,1h-1.2c-0.6,0-1-0.3-1-1v-9.1H43.5z"/>
	<path class="st1" d="M54,51c0.2-0.5,0.5-0.8,1.1-0.8h1.6c0.5,0,0.9,0.3,1.1,0.8l3.7,10.8c0.2,0.7-0.1,1.2-0.8,1.2h-1.2
		c-0.5,0-0.9-0.3-1.1-0.8l-0.5-1.8h-4l-0.5,1.8c-0.1,0.5-0.5,0.8-1.1,0.8h-1.2c-0.7,0-1-0.5-0.8-1.2L54,51z M57.1,57.8l-0.7-2.5
		c-0.2-0.8-0.5-2.2-0.5-2.2h-0.1c0,0-0.3,1.4-0.5,2.2l-0.6,2.5H57.1z"/>
</g>
</svg>
