<?xml version="1.0" encoding="utf-8"?>
<!-- Generator: Adobe Illustrator 23.0.0, SVG Export Plug-In . SVG Version: 6.00 Build 0)  -->
<svg version="1.1" id="Layer_1" xmlns="http://www.w3.org/2000/svg" xmlns:xlink="http://www.w3.org/1999/xlink" x="0px" y="0px"
	 viewBox="0 0 80 80" style="enable-background:new 0 0 80 80;" xml:space="preserve">
<style type="text/css">
	.st0{fill:#FFFFFF;}
	.st1{fill:#CCCCCC;}
	.st2{fill:#CF3535;}
</style>
<title>flag-circle-de</title>
<g>
	<path class="st0" d="M40,79.5c-21.6,0-39.2-17.5-39.5-39h79C79.2,62,61.6,79.5,40,79.5z"/>
	<path class="st1" d="M79,41c-0.5,21-17.8,38-39,38C18.8,79,1.5,62,1,41H79 M80,40H0v0c0,22.1,17.9,40,40,40h0
		C62.1,80,80,62.1,80,40L80,40L80,40z"/>
</g>
<path class="st2" d="M40,0L40,0C17.9,0,0,17.9,0,40h80C80,17.9,62.1,0,40,0z"/>
</svg>
