<?xml version="1.0" encoding="utf-8"?>
<!-- Generator: Adobe Illustrator 26.5.0, SVG Export Plug-In . SVG Version: 6.00 Build 0)  -->
<svg version="1.1" id="Layer_1" xmlns="http://www.w3.org/2000/svg" xmlns:xlink="http://www.w3.org/1999/xlink" x="0px" y="0px"
	 viewBox="0 0 80 80" enable-background="new 0 0 80 80" xml:space="preserve">
<path fill="#1D439B" d="M80,40C80,17.9,62.1,0,40,0c-9.1,0-17.6,3.1-24.3,8.2L80,41.1C80,40.7,80,40.4,80,40z"/>
<path fill="#CE2028" d="M40,80c21.7,0,39.4-17.3,40-38.9l-63.8,31C22.8,77.1,31.1,80,40,80z"/>
<polygon fill="#FFFFFF" points="80,41.1 80,41.1 80,41.1 "/>
<path fill="#FFFFFF" d="M15.7,8.2C6.2,15.5,0,27,0,40c0,13.2,6.4,24.8,16.2,32.1l63.8-31c0,0,0,0,0,0L15.7,8.2z"/>
<g transform="rotate(120,-2.019,0)">
	<path id="s_00000151533306545909877680000010276350214779623091_" fill="#FBD118" d="M12.9,69.3l0.7-3.5l-3.1-1.9l3.6-0.4l0.8-3.5
		l1.5,3.3l3.6-0.3l-2.6,2.5l1.4,3.3L15.6,67L12.9,69.3z"/>
</g>
<g transform="rotate(120,-2.019,0)">
	<path id="s_00000165230719242339363650000006414010557333142695_" fill="#FBD118" d="M68.1,45.8l-1.5-3.2l-3.6,0.3l2.6-2.5
		l-1.4-3.3l3.2,1.7l2.7-2.4L69.4,40l3.1,1.9l-3.6,0.5L68.1,45.8z"/>
</g>
<g transform="rotate(120,-2.019,0)">
	<path id="s_00000148635272406781960290000009412765674149190536_" fill="#FBD118" d="M15.4,20.3l-1.1-3.4l-3.6-0.2l2.9-2.1l-1-3.5
		l2.9,2.1l3-2l-1.1,3.4l2.8,2.2l-3.6,0L15.4,20.3z"/>
</g>
<path fill="#FBD118" d="M51.1,41.2l1.1-1.1L51.1,39l-8.4,0.6c0-0.2,0-0.4-0.1-0.6l7.6-1l-0.9-0.9l-6.7,1.3c-0.2-1.1-0.7-2.2-1.3-3.1
	l5.7-3.8l0-1.3l-6.1,4.6c-0.1-0.1-0.2-0.3-0.4-0.4l6.4-5.6v-1.6l-1.6,0l-5.6,6.4c-0.1-0.1-0.3-0.2-0.4-0.4l4.6-6.1l-1.3,0L38.9,33
	c-0.9-0.6-2-1.1-3.1-1.3l1.3-6.7L36.2,24l-1,7.6c-0.2,0-0.4,0-0.6-0.1l0.6-8.4L34.1,22L33,23.1l0.6,8.4c-0.2,0-0.4,0-0.6,0.1L32,24
	l-0.9,0.9l1.3,6.7c-1.1,0.2-2.2,0.7-3.1,1.3l-3.8-5.7l-1.3,0l4.6,6.1c-0.1,0.1-0.3,0.2-0.4,0.4l-5.6-6.4h-1.6v1.6l6.4,5.6
	c-0.1,0.1-0.2,0.3-0.4,0.4l-6.1-4.6l0,1.3l5.7,3.8c-0.6,0.9-1.1,2-1.3,3.1L19,37.1L18.1,38l7.6,1c0,0.2,0,0.4-0.1,0.6L17.1,39
	L16,40.1l1.1,1.1l8.4-0.6c0,0.2,0,0.4,0.1,0.6l-7.6,1l0.9,0.9l6.7-1.3c0.2,1.1,0.7,2.2,1.3,3.1l-5.7,3.8l0,1.3l6.1-4.6
	c0.1,0.1,0.2,0.3,0.4,0.4l-6.4,5.6v1.6h1.6l5.6-6.4c0.1,0.1,0.3,0.2,0.4,0.4l-4.6,6.1l1.3,0l3.8-5.7c0.9,0.6,2,1.1,3.1,1.3l-1.3,6.7
	l0.9,0.9l1-7.6c0.2,0,0.4,0,0.6,0.1L33,57.1l1.1,1.1l1.1-1.1l-0.6-8.4c0.2,0,0.4,0,0.6-0.1l1,7.6l0.9-0.9l-1.3-6.7
	c1.1-0.2,2.2-0.7,3.1-1.3l3.8,5.7l1.3,0l-4.6-6.1c0.1-0.1,0.3-0.2,0.4-0.4l5.6,6.4h1.6l0-1.6l-6.4-5.6c0.1-0.1,0.2-0.3,0.4-0.4
	L47,50l0-1.3l-5.7-3.8c0.6-0.9,1.1-2,1.3-3.1l6.7,1.3l0.9-0.9l-7.6-1c0-0.2,0-0.4,0.1-0.6L51.1,41.2z"/>
<circle fill="none" stroke="#BCBEC0" stroke-miterlimit="10" cx="40" cy="40" r="39.5"/>
</svg>
