<?xml version="1.0" encoding="utf-8"?>
<!-- Generator: Adobe Illustrator 27.5.0, SVG Export Plug-In . SVG Version: 6.00 Build 0)  -->
<svg version="1.1" id="Layer_1" xmlns="http://www.w3.org/2000/svg" xmlns:xlink="http://www.w3.org/1999/xlink" x="0px" y="0px"
	 viewBox="0 0 80 80" style="enable-background:new 0 0 80 80;" xml:space="preserve">
<style type="text/css">
	.st0{fill:#FFFFFF;stroke:#FF0000;stroke-miterlimit:10;}
	.st1{fill:#FF0000;}
</style>
<circle class="st0" cx="40" cy="40" r="39.5"/>
<path class="st1" d="M45.6,0.9c-1.8-0.3-3.7-0.4-5.6-0.4s-3.8,0.1-5.6,0.4v33.5H0.9c-0.3,1.8-0.4,3.7-0.4,5.6s0.1,3.8,0.4,5.6h33.5
	v33.5c1.8,0.3,3.7,0.4,5.6,0.4s3.8-0.1,5.6-0.4V45.6h33.5c0.3-1.8,0.4-3.7,0.4-5.6s-0.1-3.8-0.4-5.6H45.6V0.9z"/>
<path id="a" class="st1" d="M18.7,13.3c1.6,0.2,3.3,0.2,4.9,0c-0.9,4.7-0.9,9.5,0,14.2c-1.6-0.2-3.3-0.2-4.9,0
	C19.6,22.8,19.6,18,18.7,13.3L18.7,13.3z"/>
<path id="a_00000001646711906666726310000003154900167980861878_" class="st1" d="M28.2,18c-0.2,1.6-0.2,3.3,0,4.9
	c-4.7-0.9-9.5-0.9-14.2,0c0.2-1.6,0.2-3.3,0-4.9C18.8,18.9,23.6,18.9,28.2,18L28.2,18z"/>
<path id="a_00000063607234289367942140000014787849087766856890_" class="st1" d="M61.3,13.3c-0.9,4.7-0.9,9.5,0,14.2
	c-1.6-0.2-3.3-0.2-4.9,0c0.9-4.7,0.9-9.5,0-14.2C58.1,13.5,59.7,13.5,61.3,13.3L61.3,13.3z"/>
<path id="a_00000136372835697796528210000000262097951898002085_" class="st1" d="M65.9,22.9c-4.7-0.9-9.5-0.9-14.2,0
	c0.2-1.6,0.2-3.3,0-4.9c4.7,0.9,9.5,0.9,14.2,0C65.8,19.6,65.8,21.3,65.9,22.9L65.9,22.9z"/>
<path id="a_00000170967933679415545240000007421524398522735242_" class="st1" d="M61.3,66.7c-1.6-0.2-3.3-0.2-4.9,0
	c0.9-4.7,0.9-9.5,0-14.2c1.6,0.2,3.3,0.2,4.9,0C60.4,57.2,60.4,62,61.3,66.7L61.3,66.7z"/>
<path id="a_00000057855529958599990430000018398983677439503523_" class="st1" d="M51.8,62c0.2-1.6,0.2-3.3,0-4.9
	c4.7,0.9,9.5,0.9,14.2,0c-0.2,1.6-0.2,3.3,0,4.9C61.2,61.2,56.4,61.2,51.8,62L51.8,62z"/>
<path id="a_00000109013429493355138350000008778943637934113710_" class="st1" d="M18.7,66.7c0.9-4.7,0.9-9.5,0-14.2
	c1.6,0.2,3.3,0.2,4.9,0c-0.9,4.7-0.9,9.5,0,14.2C21.9,66.5,20.3,66.5,18.7,66.7L18.7,66.7z"/>
<path id="a_00000093859504257171211680000001430537388743285142_" class="st1" d="M14.1,57.1c4.7,0.9,9.5,0.9,14.2,0
	c-0.2,1.6-0.2,3.3,0,4.9c-4.7-0.9-9.5-0.9-14.2,0C14.2,60.3,14.2,58.7,14.1,57.1L14.1,57.1z"/>
</svg>
