<svg id="Layer_1" data-name="Layer 1" xmlns="http://www.w3.org/2000/svg" viewBox="0 0 80 80"><defs><style>.cls-1{fill:#7ac70c;}.cls-2{fill:#fff;}</style></defs><title>flag-circle-eo</title><circle class="cls-1" cx="40" cy="40" r="40"/><rect class="cls-2" x="19.70001" y="19.85001" width="40.59998" height="40.29999"/><path class="cls-1" d="M651.1,338.75h-7.9l-2.4-7.5a0.63376,0.63376,0,0,0-.6-0.5,0.56,0.56,0,0,0-.6.5l-2.4,7.5h-7.8a0.56,0.56,0,0,0-.6.5,0.77773,0.77773,0,0,0,.2.8l6.3,4.6-2.4,7.5a0.77773,0.77773,0,0,0,.2.8,0.85005,0.85005,0,0,0,.8,0l6.3-4.6,6.3,4.6a0.85005,0.85005,0,0,0,.8,0,0.77774,0.77774,0,0,0,.2-0.8l-2.4-7.5,6.3-4.6a0.60464,0.60464,0,0,0,.3-0.6,0.56268,0.56268,0,0,0-.6-0.7Z" transform="translate(-600 -303)"/></svg>