<?xml version="1.0" encoding="utf-8"?>
<!-- Generator: Adobe Illustrator 21.0.0, SVG Export Plug-In . SVG Version: 6.00 Build 0)  -->
<svg version="1.1" id="Layer_1" xmlns="http://www.w3.org/2000/svg" xmlns:xlink="http://www.w3.org/1999/xlink" x="0px" y="0px"
	 viewBox="0 0 80 80" style="enable-background:new 0 0 80 80;" xml:space="preserve">
<style type="text/css">
	.st0{fill:#FFFFFF;}
	.st1{fill:#2A41A0;}
</style>
<path class="st0" d="M37.3,0.1c-0.7,0-4.3,0-4.3,0v0.5C34.4,0.4,35.9,0.2,37.3,0.1z"/>
<path class="st1" d="M33,33.9V0.6c-5.3,0.9-10.3,2.9-14.7,5.8v27.5H0.5c-0.3,2-0.5,4-0.5,6.1c0,3,0.3,5.8,0.9,8.6h17.4v25
	c4.4,2.8,9.4,4.8,14.7,5.8V48.6h46.1C79.7,45.8,80,43,80,40c0-2.1-0.2-4.1-0.5-6.1H33z"/>
<path class="st0" d="M33,33.9h46.5C76.7,15.6,61.5,1.3,42.7,0.1c-1.8,0-4.5,0-5.4,0c-1.5,0.1-2.9,0.3-4.3,0.5V33.9z"/>
<path class="st0" d="M18.3,73.6v-25H0.9C3.2,59,9.6,68,18.3,73.6z"/>
<path class="st0" d="M79.1,48.6H33v30.8c2.3,0.4,4.6,0.6,7,0.6C59.1,80,75.1,66.6,79.1,48.6z"/>
<path class="st0" d="M0.5,33.9h17.8V6.4C8.9,12.5,2.2,22.4,0.5,33.9z"/>
</svg>
