<svg id="Layer_1" data-name="Layer 1" xmlns="http://www.w3.org/2000/svg" viewBox="0 0 80 80"><defs><style>.cls-1{fill:#010066;}.cls-2{fill:#fc0;}.cls-3{fill:#cc0001;}.cls-4{fill:#fff;}</style></defs><title>flag-circle-ms</title><path class="cls-1" d="M56.58,3.6A40,40,0,0,0,5.36,60H56.58Z"/><path id="path4945" class="cls-2" d="M26.6,19.83a14.28,14.28,0,1,0,7.75,26.28,13,13,0,0,1-4.15.69,12.66,12.66,0,1,1,4.4-24.53A14.26,14.26,0,0,0,26.6,19.83Z"/><path id="path4959" class="cls-2" d="M50.35,41.54l-6-3.15,1.79,6.44-4-5.39L40.8,46l-1.23-6.56-4.06,5.37,1.81-6.43-6,3.13,4.48-5-6.83.27,6.28-2.64-6.27-2.66,6.83.29L31.3,26.68l6,3.14-1.78-6.44,4,5.39,1.26-6.56,1.24,6.56,4.05-5.37-1.8,6.43,6-3.12-4.49,5,6.84-.26-6.29,2.64,6.28,2.65-6.84-.28Z"/><path class="cls-3" d="M56.58,10h9.84a40,40,0,0,0-9.84-6.4Z"/><path class="cls-4" d="M66.42,10H56.58V20h18A40.14,40.14,0,0,0,66.42,10Z"/><path class="cls-3" d="M56.58,20V30H78.72a39.56,39.56,0,0,0-4.1-10Z"/><path class="cls-4" d="M56.58,30V40H80a39.72,39.72,0,0,0-1.28-10Z"/><path class="cls-3" d="M56.58,40V50H78.71A39.72,39.72,0,0,0,80,40Z"/><path class="cls-4" d="M56.58,50V60h18a39.72,39.72,0,0,0,4.1-10Z"/><path class="cls-3" d="M74.61,60H5.36a40.14,40.14,0,0,0,8.2,10H66.4A40.21,40.21,0,0,0,74.61,60Z"/><path class="cls-4" d="M66.4,70H13.56A39.83,39.83,0,0,0,66.4,70Z"/></svg>