<svg id="Layer_1" data-name="Layer 1" xmlns="http://www.w3.org/2000/svg" viewBox="0 0 80 80"><defs><style>.cls-1{fill:#ffc200;}.cls-2{fill:none;}.cls-3{fill:#1cb0f6;}.cls-4{fill:#7ac70c;}.cls-5{fill:#d33131;}.cls-6{fill:#ffce00;}.cls-7{fill:#fff;}</style></defs><title>flag-circle-brazilportugal-pt</title><circle class="cls-1" cx="40" cy="40" r="40"/><path class="cls-2" d="M423.6,546.12823a16.11575,16.11575,0,0,0,3.86084,10.48035l22.81952-22.81952A16.1879,16.1879,0,0,0,423.6,546.12823Z" transform="translate(-400 -506.12823)"/><path class="cls-3" d="M450.28033,533.78906a16.1879,16.1879,0,0,0-22.81952,22.81952Z" transform="translate(-400 -506.12823)"/><path class="cls-4" d="M427.82623,560.96973h-0.48389l-2.71759,2.71753a23.41406,23.41406,0,0,0,12.59875,5.765v-2.69849A15.33314,15.33314,0,0,1,427.82623,560.96973Z" transform="translate(-400 -506.12823)"/><path class="cls-5" d="M440.0235,573.64514v12.48309h0.2v-12.478C440.15643,573.65021,440.09045,573.64563,440.0235,573.64514Z" transform="translate(-400 -506.12823)"/><path class="cls-6" d="M427.63123,560.68079l-0.28888.28894h0.48389C427.75574,560.8775,427.69965,560.7746,427.63123,560.68079Z" transform="translate(-400 -506.12823)"/><path class="cls-5" d="M455.04047,564.3797a23.72231,23.72231,0,0,0,3.41522-3.41h-5.53687Z" transform="translate(-400 -506.12823)"/><path class="cls-5" d="M450.65106,537.72821v13.15442a10.61677,10.61677,0,0,1-7.296,10.0871c-0.04449.01471-.08685,0.03406-0.13159,0.04816a10.61478,10.61478,0,0,1-3,.48224c-0.0672.00128-.13251,0.01007-0.2,0.01007a10.6111,10.6111,0,0,1-2.8-.38513c-0.17871-.04877-0.35681-0.0976-0.53162-0.15533a10.624,10.624,0,0,1-5.35266-3.99695l-3.708,3.708c0.06842,0.09381.12451,0.19672,0.195,0.28894a15.43829,15.43829,0,0,0,12.1972,6.051h0.00006c0.0675,0,.13269-0.00922.2-0.01007a15.417,15.417,0,0,0,3-.32886v2.77045a23.32173,23.32173,0,0,0,6.71716-1.91156l-1.78394-2.86713a15.359,15.359,0,0,0,6.85938-9.70386h6.99872a23.3207,23.3207,0,0,0,1.51794-5.7254h-8.14984v-6h8.17944a23.32455,23.32455,0,0,0-1.37317-5.51611h-6.80627v-4.79913l-4.73187,4.73187v0.06726Z" transform="translate(-400 -506.12823)"/><path class="cls-5" d="M458.8028,531.72821c-0.32245-.41516-0.66058-0.8172-1.01056-1.20844l-1.20844,1.20844h2.219Z" transform="translate(-400 -506.12823)"/><path class="cls-7" d="M443.22351,561.01788c0.04474-.0141.0871-0.03345,0.13159-0.04816h-0.13159v0.04816Z" transform="translate(-400 -506.12823)"/><path class="cls-7" d="M436.69189,560.96973c0.1748,0.05774.35291,0.10657,0.53162,0.15533a10.6111,10.6111,0,0,0,2.8.38513c0.0675,0,.13281-0.00879.2-0.01007a10.61478,10.61478,0,0,0,3-.48224v-0.04816h0.13159a10.61677,10.61677,0,0,0,7.296-10.0871V537.66095l-19.31183,19.31183A10.624,10.624,0,0,0,436.69189,560.96973Z" transform="translate(-400 -506.12823)"/><path class="cls-4" d="M422.49048,561.57892L403.4,546.51575a0.5,0.5,0,0,1,0-.8l36.5-28.8a0.63759,0.63759,0,0,1,.6,0l14.89832,11.75543,11.832-11.832a39.9913,39.9913,0,0,0-56.51941,56.51935Z" transform="translate(-400 -506.12823)"/><path class="cls-5" d="M467.74548,546.12823a27.553,27.553,0,0,1-27.522,27.522v12.47235a39.98889,39.98889,0,0,0,29.12659-67.16064l-8.723,8.72308A27.40646,27.40646,0,0,1,467.74548,546.12823Z" transform="translate(-400 -506.12823)"/><path class="cls-4" d="M440.0235,573.64514a27.41128,27.41128,0,0,1-18.24493-7.11163l-8.94482,8.94482A39.84992,39.84992,0,0,0,440,586.12823l0.0235-.00061V573.64514Z" transform="translate(-400 -506.12823)"/></svg>