<?xml version="1.0" encoding="utf-8"?>
<!-- Generator: Adobe Illustrator 27.8.1, SVG Export Plug-In . SVG Version: 6.00 Build 0)  -->
<svg version="1.1" id="Layer_1" xmlns:v="https://vecta.io/nano"
	 xmlns="http://www.w3.org/2000/svg" xmlns:xlink="http://www.w3.org/1999/xlink" x="0px" y="0px" viewBox="0 0 80 80"
	 style="enable-background:new 0 0 80 80;" xml:space="preserve">
<style type="text/css">
	.st0{fill:#006600;}
	.st1{fill:#BB0000;}
	.st2{stroke:#000000;stroke-miterlimit:37.5;}
	.st3{fill:#FFFFFF;}
</style>
<path class="st0" d="M76.7,56H3.3C9.5,70.1,23.6,80,40,80S70.5,70.1,76.7,56z"/>
<path d="M3.3,24h73.3C70.5,9.9,56.4,0,40,0S9.5,9.9,3.3,24z"/>
<path class="st1" d="M49.5,28C48,24,43,16,40,16s-8,8-9.5,12H1.8C0.6,31.8,0,35.8,0,40s0.6,8.2,1.8,12h28.7C32,56,37,64,40,64
	s8-8,9.5-12h28.7c1.2-3.8,1.8-7.8,1.8-12s-0.6-8.2-1.8-12H49.5z"/>
<g>
	<path id="A" class="st2" d="M25.7,63.8l0.9,0.5L50,23.8c1.4-0.4,2.1-1.7,2.9-3c0.5-0.9,2.5-4.3,3.4-8.8c-3.5,3-5.5,6.5-6,7.3
		c-0.8,1.3-1.5,2.6-1.1,4L25.7,63.8z"/>
	<path id="A_00000137840082907292746530000013520549791098451636_" class="st3" d="M25.7,63.8l0.9,0.5L50,23.8
		c1.4-0.4,2.1-1.7,2.9-3c0.5-0.9,2.5-4.3,3.4-8.8c-3.5,3-5.5,6.5-6,7.3c-0.8,1.3-1.5,2.6-1.1,4L25.7,63.8z"/>
	<path id="A_00000034063338638173820770000011271378164801129358_" class="st2" d="M54.3,63.8l-0.9,0.5L30.1,23.8
		c-1.4-0.4-2.1-1.7-2.9-3c-0.5-0.9-2.5-4.3-3.4-8.8c3.5,3,5.5,6.5,6,7.3c0.8,1.3,1.5,2.6,1.1,4L54.3,63.8z"/>
	<path id="A_00000115513695914561347050000001095628802648092552_" class="st3" d="M54.3,63.8l-0.9,0.5L30.1,23.8
		c-1.4-0.4-2.1-1.7-2.9-3c-0.5-0.9-2.5-4.3-3.4-8.8c3.5,3,5.5,6.5,6,7.3c0.8,1.3,1.5,2.6,1.1,4L54.3,63.8z"/>
	<path id="C" d="M49.5,52C51,48,52,44,52,40s-1-8-2.5-12C48,32,47,36,47,40S48,48,49.5,52"/>
	<path id="C_00000011018361863096971280000008681223963126672562_" d="M30.5,52C29,48,28,44,28,40s1-8,2.5-12C32,32,33,36,33,40
		S32,48,30.5,52"/>
	<ellipse class="st3" cx="40" cy="40" rx="2" ry="3"/>
	<path id="D" class="st3" d="M40.5,42.9c0,0,2,4,2,10.5s-2,10.5-2,10.5V42.9z"/>
	<path id="D_00000032611409422557075110000003891238474256356741_" class="st3" d="M39.5,37.1c0,0-2-4-2-10.5s2-10.5,2-10.5V37.1z"
		/>
	<path id="D_00000139272638315954006980000000014731604382677432_" class="st3" d="M39.5,42.9c0,0-2,4-2,10.5s2,10.5,2,10.5V42.9z"
		/>
	<path id="D_00000092416214280277057820000004322038195770218641_" class="st3" d="M40.5,37.1c0,0,2-4,2-10.5s-2-10.5-2-10.5V37.1z"
		/>
</g>
</svg>
