<?xml version="1.0" encoding="utf-8"?>
<!-- Generator: Adobe Illustrator 27.8.1, SVG Export Plug-In . SVG Version: 6.00 Build 0)  -->
<svg version="1.1" id="Layer_1" xmlns="http://www.w3.org/2000/svg" xmlns:xlink="http://www.w3.org/1999/xlink" x="0px" y="0px"
	 viewBox="0 0 80 80" enable-background="new 0 0 80 80" xml:space="preserve">
<circle fill="#D82126" cx="40" cy="40" r="40"/>
<path fill="#F8E92E" d="M25.7,40c0-0.5,0-1,0.1-1.4L0.2,36C0.1,37.3,0,38.7,0,40c0,1.3,0.1,2.7,0.2,4l25.6-2.6
	C25.7,41,25.7,40.5,25.7,40z"/>
<path fill="#F8E92E" d="M28.7,31.3L7.6,16.5c-1.3,1.8-2.5,3.8-3.5,5.9L27,34.1C27.5,33.1,28,32.2,28.7,31.3z"/>
<path fill="#F8E92E" d="M27,45.9L4.1,57.6c1,2.1,2.2,4,3.5,5.9l21.1-14.8C28,47.8,27.5,46.9,27,45.9z"/>
<path fill="#F8E92E" d="M40,54.3c-0.5,0-1,0-1.4-0.1l-6.4,25c2.5,0.5,5.1,0.8,7.7,0.8h0.1c2.6,0,5.2-0.3,7.7-0.8l-6.4-25
	C41,54.3,40.5,54.3,40,54.3z"/>
<circle fill="#F8E92E" cx="40" cy="40" r="11.4"/>
<path fill="#F8E92E" d="M53,45.9c-0.4,1-1,1.9-1.7,2.8l21.1,14.8c1.3-1.8,2.5-3.8,3.5-5.9L53,45.9z"/>
<path fill="#F8E92E" d="M79.8,36l-25.6,2.6c0,0.5,0.1,0.9,0.1,1.4s0,1-0.1,1.4L79.8,44c0.1-1.3,0.2-2.6,0.2-4
	C80,38.7,79.9,37.3,79.8,36z"/>
<path fill="#F8E92E" d="M53,34.1l22.9-11.7c-1-2.1-2.2-4-3.5-5.9L51.3,31.3C52,32.2,52.5,33.1,53,34.1z"/>
<path fill="#F8E92E" d="M40,25.7c0.5,0,1,0,1.4,0.1l6.4-25C45.3,0.3,42.7,0,40,0s-5.3,0.3-7.8,0.8l6.4,25C39,25.7,39.5,25.7,40,25.7
	z"/>
</svg>
