<?xml version="1.0" encoding="utf-8"?>
<!-- Generator: Adobe Illustrator 24.1.0, SVG Export Plug-In . SVG Version: 6.00 Build 0)  -->
<svg version="1.1" id="Layer_1" xmlns="http://www.w3.org/2000/svg" xmlns:xlink="http://www.w3.org/1999/xlink" x="0px" y="0px"
	 viewBox="0 0 80 79.8" style="enable-background:new 0 0 80 79.8;" xml:space="preserve">
<style type="text/css">
	.st0{fill:#008061;}
	.st1{fill:#FFFFFF;}
	.st2{fill:none;stroke:#FFCF46;stroke-miterlimit:10;stroke-dasharray:1.9856,2.9784;}
</style>
<path class="st0" d="M40.1,79.8h-0.2C17.9,79.8,0,61.9,0,39.9l0,0C0,17.9,17.9,0,39.9,0h0.2C62.1,0,80,17.9,80,39.9l0,0
	C80,61.9,62.1,79.8,40.1,79.8z"/>
<g>
	<path class="st1" d="M41.1,16.6c-0.7-0.3-1.8-0.9-3.5-0.4c-0.9,0.1-1.5,1-0.4,1.8s2.2,1.8,2.8,2.4c0.6,0.6,2.4,0.9,3.4,0.1
		c0.7-0.6,0.9-1.6,0-2.2c-0.9-0.4-1.5,0-1.8,0.4c-0.3,0.6,0.6,1,0.6,0.6c0.1-0.7,1.2-0.7,0.6,0.1c-0.3,0.3-1,1-2.1,0.3
		c-0.9-0.7-1.2-0.7-1.9-1.3c-0.7-0.6-2.2-1.6,0.1-1.6s1,1.2-0.6,1.9c-1.6,0.7-2.6,0-4-0.7c-1.5-0.7-1.8,0.3-2.1,1
		c-0.3,0.7-1.5,0.4-1.9,0.3c-0.4-0.3-1.3-0.1-0.4,0.9c0.7,1.2,2.8,0.3,3.1-0.3c0.4-0.9,0.9-1.3,2.6-0.3c1,0.6,2.8,0.6,3.8-0.3
		c0.9-0.9,1.6-1.3,2.1-1.5C41.6,17.5,41.8,16.9,41.1,16.6L41.1,16.6z"/>
	<path class="st1" d="M45,14.9c-0.1-0.6-1.5,0.1-1.3,0.6c0.4,2.4,1.2,4.3,1.8,5.4c0.6,1,1.8,1.3,3.5,0.3c1.8-0.9,3.4-1.8,1.9-2.8
		c-1.5-1-4.3-0.7-5,1.2c-0.6,1.9-1.2,4-0.6,4.3c0.6,0.3,1.2-1.2,1.3-2.5c0.1-1.2,0-2.2,1.9-2.5c1.9-0.1,2.1,0.4,1.2,1
		c-0.9,0.6-2.9,1.5-3.2,0.1C46.1,18.7,45.5,16.1,45,14.9L45,14.9z"/>
	<path class="st1" d="M49.2,21.9c-0.6,0.6-0.6,0.7,0,1.3c0.6,0.4,0.7,0.3,1-0.1c0.4-0.3,0.4-0.6,0-1C49.9,21.6,49.6,21.5,49.2,21.9
		L49.2,21.9z"/>
	<path class="st1" d="M52.1,24.4c-0.7,1.2-2.1,0.7-2.5,1.2c-0.3,0.4-0.4,2.5,0.1,1.6c1-1.3,2.4-1.2,2.6-1.6
		C52.5,25.2,52.7,23.6,52.1,24.4L52.1,24.4z"/>
	<path class="st1" d="M31.8,23.3c0.4,0.4,1.6,1.3,2.1,0.4c0.3-0.4,0.6-0.6,1-0.3c0.4,0.4,1.3,0.6,1.3-0.3c0-0.6,0.3-0.7,0.7-0.1
		c0.4,0.7-0.3,3.2-2.4,1.3c-1.6,1.6-2.6,0.6-2.9,0.1C31.6,24.1,31.8,23.6,31.8,23.3L31.8,23.3z"/>
	<path class="st1" d="M24.4,22.2c-0.7,0.7-0.4,0.7,0,1.2c0.4,0.4,0.6,0.7,1.2,0.3c0.6-0.6,0.7-0.7,0.1-1.3
		C25.2,21.8,24.9,21.8,24.4,22.2L24.4,22.2z"/>
	<path class="st1" d="M27.4,22.7c-0.7,0.7-0.7,0.7,0,1.5s0.7,0.6,1.3,0c0.6-0.6,0.7-0.7,0-1.3C28.1,22.1,28,22.1,27.4,22.7
		L27.4,22.7z"/>
	<path class="st1" d="M21.5,27.4c0,1.8,1.8,2.9,2.6,0.9c0.9-2.2,2.6-3.5,4-1.8c1,1.5,2.9,2.5,4.1,1.3c0.7-0.7,1.5-0.7,2.4,0
		c0.9,0.7,2.5,0.7,2.4-0.9c0-0.6,0.1-1,0.7-0.1c0.4,0.9,0,2.6-1.6,2.8c-0.6,0-1.3,0.1-1.9-0.6c-0.6-0.7-0.9-0.6-1.5,0
		c-0.9,0.7-3.1,0.7-4.1-0.4c-1.5-1.9-2.2-2.1-2.9-0.6c-0.7,1.5-2.1,3.5-3.8,1.8C20.9,28.9,21,28,21,27.7
		C21,27.2,21.5,27.1,21.5,27.4L21.5,27.4z"/>
	<path class="st1" d="M26.6,28.7c-1.5,0.6-1.8,2.4-0.6,3.1c0.7,0.4,1.2-0.7,0.6-1c-0.6-0.3-0.4-1,0.3-1.5
		C27.5,28.9,27.2,28.6,26.6,28.7L26.6,28.7z"/>
	<path class="st1" d="M38.7,40.9c-1.3-1.3-4.3-1.8-6-1.6c-2.2,0.1-3.8-1.5-4.4-3.4c-0.1-0.6-0.7-1.3-0.6,0.1c0.3,2.2,2.1,3.7,5,4
		c4.4,0.3,7.4,1.8,5.6,6.5c-1,2.9-6.5,4.4-9.1,1.5c-3.1-3.4-1.8-7.7,2.6-11.9c1.2-1.2,2.2-1.8,2.9-2.1c0.7-0.3,2.2-1.6,0.6-1.9
		C33.3,31.7,30,32,28.1,33c-0.4,0.1-0.3,1.2,0.6,1.2c0.9,0,1.5,0,2.4,1c0.4,0.6,1.5,1.6,2.8,2.2c-3.1,1.3-2.9,5.6-0.1,7.8
		s8.1,1.9,11-1.2c5.6-5.7,0-9.7,2.8-15.6c0.3-0.6,0.6-1,0.1-1.5c-0.4-0.3-0.9-1.5-1-2.2c-0.1-0.7-0.4-0.6-0.6,0.4
		c-1.2,8.7,2.6,13.4-1.3,17.4c-4.3,4.3-7.5,3.2-10.3,1.3c-0.9-0.6-3.5-4.1,0.4-6.2c0.7,0.1,1.5,0.3,2.4,0.3c2.9-0.3,4.6-2.9,3.5-7.1
		c-0.1-0.9-0.9-2.5,0.1-2.6c0.4-0.1,0.3-0.4,0-0.9C40.5,26.8,40,25.6,40,25c0-0.6-0.3-0.4-0.6,0.3c-0.6,1.9-0.4,3.4,0,5.3
		s0.7,4.6-1.3,5.7c-3.5,2.2-6.5-2.4-7.5-2.6c-0.7-0.1-1.3-0.9,0.1-1.2c1.2-0.1,2.6-0.1,3.2-0.1c0.6,0,1.3,0.3,0.3,0.7
		c-2.4,0.7-4.3,2.9-5.6,4.7c-1.3,1.8-4,4-6,2.4c-1.9-1.6-1-3.7-0.1-4.9c0.4-0.6,0.4-0.9-0.3-1c-0.7-0.3-1.6-1.2,0.1-2.9
		c0.3-0.3-0.1-0.7-0.4-0.4c-1.5,1.3-2.1,2.8-0.1,4.1c-1.5,1.9-1.5,4.9-0.1,6c1.3,1.2,4,1.2,5.4-0.3c-1.3,3.5-0.6,9.6,5.6,9.9
		s7.8-5.3,6.6-8.5c3.2-2.1,7.2-2.8,9.6-4.6c2.4-1.8,4.6-3.7,3.7-7.5c-0.7-3.2-4-1.9-4.3-0.6c-0.3,1,0,2.5,1.9,2.9
		c1,0.1,0.7-0.4,0-0.9c-0.7-0.3-1.3-1.6-0.7-2.4c0.6-0.6,2.1-0.7,2.4,1.8c0.3,2.6-1.9,4.6-3.1,5.6C46.4,38.6,41.1,39.6,38.7,40.9
		L38.7,40.9z"/>
	<path class="st1" d="M24.3,34c-0.6,0.4-0.9,0.4-0.3,1.3c0.6,0.9,0.7,0.4,1.2,0.1c0.4-0.3,0.9-0.3,0.3-1.2
		C24.9,33.4,24.7,33.7,24.3,34L24.3,34z"/>
	<path class="st1" d="M23.5,36.5c-0.7,0.6-0.6,0.7-0.1,1.3c0.4,0.6,0.6,0.7,1.3,0.1c0.7-0.6,0.6-0.7,0.1-1.2
		C24.3,36.2,24.1,35.9,23.5,36.5L23.5,36.5z"/>
	<path class="st1" d="M30.2,43.6c-0.6,0.4-0.4,0.6-0.1,1.2c0.3,0.6,0.6,0.6,1,0.1c0.4-0.4,0.7-0.6,0.1-1.2
		C30.6,43.1,30.5,43.4,30.2,43.6L30.2,43.6z"/>
	<path class="st1" d="M50.5,30.6c0.1,0.1,0.3,0.1,0.4,0.1c0.1-0.1,0.1-0.3,0-0.4c-0.1-0.1-0.3-0.3-0.4-0.1
		C50.3,30.2,50.3,30.5,50.5,30.6L50.5,30.6z"/>
	<path class="st1" d="M50.3,44c-1,2.2-4.4,5.9-7.2,4.4c-2.9-1.6-1-5.4-0.1-8.4c0.9-2.9,0.1-8.8-0.3-10.6c-0.6-1.8-0.4-3.5-0.3-4.9
		c0.3-1.3,0.6-0.7,0.7,0.1c0.1,0.7,0.3,2.6,0.7,3.1c0.4,0.3,1,0.7,0.4,1.2c-0.6,0.4-0.6,2.1-0.3,4.6c0.3,2.5,0.4,5.6-0.6,7.9
		c-1,2.2-1.3,5,0.4,5.9c1.8,0.7,3.5-0.4,5.6-4.3c-1.3-2.8-1.9-6.9-1.2-9c0.3-0.9,1.2-0.9,0.9,0.4c-0.3,1.3-0.1,6.5,1.6,8.4
		c1.8,1.9,3.8,1.8,4.1-1c0.4-3.8,0.1-11-0.9-14.7c-0.1-0.6-0.1-1,0.3-1.5s0.9-1.2,1,0c0,1.2-0.1,1.8,1.2,3.5
		c8.2,10-1.3,25.9-18.7,22.5c-1.9-0.4-0.6-0.7,0.9-0.6c7.7,1.2,13.4-1.6,16.9-5.9c3.1-3.8,4.3-11.5,0.1-14.4
		c0.4,6.6,0.9,12.2-1.2,14C52.7,46.4,51.2,45.1,50.3,44L50.3,44z"/>
	<path class="st1" d="M52.2,37.4c-0.9,1.3-0.7,3.1,0.7,3.5c0.9,0.3,0.9-0.7,0.3-1c-0.6-0.3-0.7-1-0.3-1.8
		C53.3,37.7,52.7,36.7,52.2,37.4L52.2,37.4z"/>
</g>
<path class="st1" d="M57.4,23.7c2.1,3.2,3.4,7.2,3.4,11.3c0,11.5-9.3,20.8-20.8,20.8S19.3,46.5,19.3,35c0-4.1,1.2-8.1,3.4-11.3
	c-4,4.3-6.5,10-6.5,16.3c0,13.2,10.7,23.8,23.8,23.8S63.9,53.1,63.9,40C63.9,33.7,61.4,28,57.4,23.7z"/>
<g>
	<circle class="st2" cx="40" cy="39.9" r="30"/>
</g>
</svg>
