<?xml version="1.0" encoding="utf-8"?>
<!-- Generator: Adobe Illustrator 24.1.0, SVG Export Plug-In . SVG Version: 6.00 Build 0)  -->
<svg version="1.1" id="Layer_1" xmlns="http://www.w3.org/2000/svg" xmlns:xlink="http://www.w3.org/1999/xlink" x="0px" y="0px"
	 viewBox="0 0 80 80" style="enable-background:new 0 0 80 80;" xml:space="preserve">
<style type="text/css">
	.st0{fill:#DE2910;}
	.st1{fill:#FFFFFF;}
</style>
<path class="st0" d="M68.3,11.7c-15.6-15.6-41-15.6-56.6,0s-15.6,40.9,0,56.6c15.6,15.6,40.9,15.6,56.6,0S83.9,27.4,68.3,11.7z"/>
<g>
	<path class="st1" d="M49.1,4.3C28.8,3,19.2,29.8,38.6,39.8c-2-1.6-3.6-4-4.3-6.8c-1.1-4-0.5-8.4,1.7-11.9l0.5,0.3
		c-2.1,3.4-2.7,7.5-1.6,11.5c0.8,2.9,2.5,5.4,4.6,6.8c-3.6-4-2.1-10.2,3.4-12.7c3.7-1.6,6.7-8.4,4-12.6C44.3,10.6,44.9,6.5,49.1,4.3
		z M39.2,20L38,22l-0.4-2.2l-2.2-0.6l2-1.2l-0.2-2.2l1.6,1.5l2.1-0.9l-1,2.1l1.4,1.7L39.2,20z"/>
	<path class="st1" d="M40.7,38.7c0.9-2.4,2.7-4.6,5.2-6.3c3.5-2.3,7.8-3,11.9-2l-0.1,0.5c-3.9-1-8-0.3-11.4,1.9
		c-2.5,1.6-4.3,4-5.1,6.5c2.6-4.6,9.1-5.2,13.2-0.7c2.7,3,10,3.7,13.2-0.2c2.8-3.5,6.8-4.1,10.2-0.8C72.7,17.9,44.1,17.1,40.7,38.7z
		 M61.3,33.4l-1.3,2l-0.5-2.2l-2.1-0.6l2-1.2l-0.1-2.3l1.6,1.5l2.1-0.9l-1,2.1l1.4,1.7L61.3,33.4z"/>
	<path class="st1" d="M42.3,40.3c2.6,0.1,5.2,1.2,7.5,3c3.3,2.6,5.3,6.5,5.6,10.6h-0.6c-0.3-4-2.2-7.7-5.4-10.2
		c-2.3-1.8-5.1-2.9-7.7-2.9c5.2,1.1,7.7,7,4.7,12.3c-2,3.5-0.4,10.7,4.2,12.5c4.1,1.6,6.1,5.3,4,9.5C72,64.3,64,36.9,42.3,40.3z
		 M55.4,58.6l-1.3,1.9l-0.5-2.2l-2.2-0.6l2-1.2l-0.1-2.3l1.6,1.5l2.1-0.9l-1,2.1l1.4,1.7H55.4z"/>
	<path class="st1" d="M41.3,42.3c0.7,2.5,0.6,5.3-0.5,8.1c-1.4,3.9-4.5,7-8.4,8.6l-0.2-0.5c3.8-1.4,6.7-4.5,8.1-8.3
		c1.1-2.8,1.2-5.8,0.3-8.3c0.6,5.3-4.2,9.5-10.2,8.3c-4-0.8-10.3,2.9-10.6,7.9c-0.3,4.4-3.2,7.4-7.8,6.7
		C27.7,78,51.3,61.9,41.3,42.3z M29.7,60.7l-1.3,1.9l-0.5-2.2l-2.2-0.6l2-1.2l-0.1-2.3l1.6,1.5l2.1-0.9l-1,2.1l1.4,1.7H29.7z"/>
	<path class="st1" d="M31.2,44c-4.1-0.2-8.1-2.1-10.7-5.3l0.4-0.4c2.6,3.1,6.4,4.9,10.3,5.1c3,0.1,5.9-0.7,8-2.2
		c-4.8,2.2-10.4-1.2-11.1-7.1c-0.5-4-6-8.9-10.8-7.6c-4.3,1.2-8-0.7-8.8-5.4C1.1,40,23.6,57.5,39.1,42C37,43.5,34.2,44.2,31.2,44z
		 M18.5,38.8L18,36.6L15.8,36l2-1.2l-0.1-2.3l1.6,1.5l2.1-0.9l-1,2.1l1.4,1.7l-2.3-0.3L18.5,38.8z"/>
</g>
</svg>
