<svg id="Layer_1" data-name="Layer 1" xmlns="http://www.w3.org/2000/svg" viewBox="0 0 80 80"><defs><style>.cls-1{fill:#1cb0f6;}.cls-2{fill:#fff;}</style></defs><title>flag-circle-he</title><path class="cls-1" d="M940,383a39.98966,39.98966,0,0,0,35.71838-22H904.28162A39.98966,39.98966,0,0,0,940,383Z" transform="translate(-899.8999 -303)"/><path class="cls-1" d="M940,303a39.98966,39.98966,0,0,0-35.71838,22h71.43677A39.98966,39.98966,0,0,0,940,303Z" transform="translate(-899.8999 -303)"/><path class="cls-2" d="M904.18152,325a39.977,39.977,0,0,0,0,36h71.43677a39.977,39.977,0,0,0,0-36H904.18152Z" transform="translate(-899.8999 -303)"/><path class="cls-1" d="M949.22052,342.99982l4.488-7.75885h-8.976l-4.83258-8.35449-4.83258,8.35449h-8.976l4.488,7.75885-4.488,7.75873h8.97583l4.83276,8.355,4.83276-8.355h8.97583Zm0.4704-5.442-1.809,3.12775-1.8092-3.12775h3.61823Zm-3.14752,5.44189-3.14746,5.44189h-6.99207l-3.14746-5.44189,3.14746-5.44189h6.99207Zm-6.64349-11.48633,2.15594,3.72754H937.744Zm-9.791,6.04443h3.61823l-1.8092,3.12775Zm0,10.88379,1.809-3.12762,1.80914,3.12762h-3.6181Zm9.791,6.04443-2.15594-3.72754h4.31189ZM947.882,345.314l1.809,3.12762h-3.6181Z" transform="translate(-899.8999 -303)"/></svg>