<?xml version="1.0" encoding="utf-8"?>
<!-- Generator: Adobe Illustrator 25.2.0, SVG Export Plug-In . SVG Version: 6.00 Build 0)  -->
<svg version="1.1" id="Layer_1" xmlns="http://www.w3.org/2000/svg" xmlns:xlink="http://www.w3.org/1999/xlink" x="0px" y="0px"
	 viewBox="0 0 305 66" style="enable-background:new 0 0 305 66;" xml:space="preserve">
<style type="text/css">
	.st0{fill:#FFFFFF;}
</style>
<g>
	<path class="st0" d="M145,26.9c-2,0-3.7,1.5-3.7,3.5c0,0,0,0.1,0,0.1v14.1c0,0.3,0.3,0.6,0.6,0.6l0,0h6.2c0.3,0,0.6-0.3,0.6-0.6v0
		V30.6C148.6,28.6,147,27,145,26.9z"/>
	<circle class="st0" cx="144.9" cy="21.6" r="3.7"/>
	<path class="st0" d="M162.6,23.9c-5.9,0-10.7,4.8-10.7,10.7c0,0,0,0,0,0l0,0v10c0,0.4,0.3,0.7,0.7,0.7h5.7c0.4,0,0.7-0.3,0.7-0.7
		v-10c0-2,1.7-3.7,3.7-3.7s3.7,1.7,3.7,3.7l0,0v10c0,0.4,0.3,0.7,0.7,0.7h5.6c0.4,0,0.7-0.3,0.7-0.7v-10
		C173.3,28.7,168.5,23.9,162.6,23.9L162.6,23.9L162.6,23.9z"/>
	<path class="st0" d="M225.8,43.9l-4-3.6c1.1-1.7,1.7-3.7,1.7-5.7l0,0v-13c0-5.9-4.8-10.7-10.7-10.7h-3.6c-5.9,0-10.7,4.8-10.6,10.7
		v13.1c0,5.9,4.8,10.7,10.6,10.7h3.6c1,0,2-0.2,3-0.5l0.5,0.4c2.8,2.5,7.1,2.3,9.6-0.5l0,0C226.1,44.6,226.1,44.2,225.8,43.9
		L225.8,43.9z M205.7,34.6v-13c0-2,1.6-3.6,3.6-3.6h3.6c2,0,3.6,1.7,3.6,3.7v13c0,0.3,0,0.5-0.1,0.8c-1.5-1-3.5-0.8-4.7,0.5
		c-0.6,0.6-1,1.5-1,2.4h-1.4C207.2,38.2,205.7,36.6,205.7,34.6L205.7,34.6z"/>
	<path class="st0" d="M189.5,24.9c-5.6-2-11.7,0.8-13.7,6.4c-2,5.6,0.8,11.7,6.4,13.7c2.4,0.9,5,0.9,7.4,0v4.3l0,0
		c0,2-1.6,3.7-3.7,3.7c-0.9,0-1.8-0.3-2.5-1l-0.3-0.3l-1.2-1.2l-0.6-0.6c-1.4-1.4-3.6-1.5-5-0.1c-1.4,1.3-1.5,3.6-0.2,5c0,0,0,0,0,0
		l0.1,0.1l1.9,1.8l0.4,0.4c4.3,4.1,11.1,3.9,15.1-0.4c1.9-2,3-4.6,2.9-7.4V34.9C196.4,30.4,193.7,26.4,189.5,24.9z M185.8,38.6
		L185.8,38.6c-2,0-3.7-1.7-3.7-3.7c0-2,1.7-3.7,3.7-3.7c2,0,3.7,1.6,3.7,3.7C189.5,36.9,187.8,38.6,185.8,38.6
		C185.8,38.6,185.8,38.6,185.8,38.6z"/>
	<path class="st0" d="M137.2,38.3h-5.6c-1.4,0-2.5-1.1-2.5-2.5l0,0V17.2c0-1.9-1.5-3.5-3.4-3.6c-1.9-0.1-3.6,1.5-3.6,3.4
		c0,0,0,0.1,0,0.1v21.1c0,3.9,3.1,7,7,7h8.1c0.4,0,0.7-0.3,0.7-0.7l0,0V39C137.9,38.6,137.6,38.3,137.2,38.3z"/>
	<path class="st0" d="M113.7,15.9c-0.3-5.4-4.6-9.7-10-10H89c-5.6,0.3-10,5-10,10.6v0.1c0,3,0.9,5.2,3.4,7.8
		c0.2,0.2,19.2,20.5,19.2,20.5c0.2,0.3,0.6,0.4,0.9,0.4c0.7,0,1.3-0.5,1.3-1.2c0,0,0,0,0,0V26.9C109.6,26.6,114,21.7,113.7,15.9z
		 M103.7,22.4h-1.8c-1.3,0-2.4,1.1-2.4,2.4v0v10.5l-2.5-2.7l-5.2-5.6c-1.4-1.5-2.8-3.1-4.2-4.5c-1.3-1.1-2.3-2.5-3-4.1
		c-0.2-0.5-0.2-1.1-0.2-1.6v-0.1c0-3.1,2.4-5.6,5.4-5.9h13.9c3.2,0.1,5.7,2.7,5.7,5.9C109.1,19.8,106.7,22.2,103.7,22.4L103.7,22.4z
		"/>
</g>
</svg>
