<svg width="20" height="20" viewBox="0 0 20 20" fill="none" xmlns="http://www.w3.org/2000/svg">
<path fill-rule="evenodd" clip-rule="evenodd" d="M20 10C20 15.5229 15.5229 20 10 20C4.47715 20 0 15.5229 0 10C0 4.47715 4.47715 0 10 0C15.5229 0 20 4.47715 20 10ZM18.4615 10C18.4615 14.6732 14.6732 18.4615 10 18.4615C5.32682 18.4615 1.53846 14.6732 1.53846 10C1.53846 5.32682 5.32682 1.53846 10 1.53846C14.6732 1.53846 18.4615 5.32682 18.4615 10ZM10.7692 6.92308C10.7692 7.34791 10.4248 7.69231 10 7.69231C9.57517 7.69231 9.23077 7.34791 9.23077 6.92308C9.23077 6.49825 9.57517 6.15385 10 6.15385C10.4248 6.15385 10.7692 6.49825 10.7692 6.92308ZM9.23077 9.23077C8.80594 9.23077 8.46154 9.57517 8.46154 10C8.46154 10.4248 8.80594 10.7692 9.23077 10.7692V13.0769C9.23077 13.5018 9.57517 13.8462 10 13.8462C10.4248 13.8462 10.7692 13.5018 10.7692 13.0769V10C10.7692 9.57517 10.4248 9.23077 10 9.23077H9.23077Z" fill="#61C554"/>
</svg>
