<svg width="19" height="19" viewBox="0 0 19 19" fill="none" xmlns="http://www.w3.org/2000/svg">
<path fill-rule="evenodd" clip-rule="evenodd" d="M18.05 0H10.45C9.9275 0 9.5 0.4275 9.5 0.95C9.5 1.4725 9.9275 1.9 10.45 1.9H17.1V17.1H10.45C9.9275 17.1 9.5 17.5275 9.5 18.05C9.5 18.5725 9.9275 19 10.45 19H18.05C18.5725 19 19 18.5725 19 18.05V0.95C19 0.4275 18.5725 0 18.05 0ZM14.25 9.5C14.25 9.234 14.1455 8.9965 13.9745 8.8255L9.2245 4.0755C9.0535 3.9045 8.816 3.8 8.55 3.8C8.0275 3.8 7.6 4.2275 7.6 4.75C7.6 5.016 7.7045 5.2535 7.8755 5.4245L11.0105 8.55H0.95C0.4275 8.55 0 8.9775 0 9.5C0 10.0225 0.4275 10.45 0.95 10.45H11.0105L7.885 13.5755C7.7045 13.7465 7.6 13.984 7.6 14.25C7.6 14.7725 8.0275 15.2 8.55 15.2C8.816 15.2 9.0535 15.0955 9.2245 14.9245L13.9745 10.1745C14.1455 10.0035 14.25 9.766 14.25 9.5Z" fill="#61C554"/>
</svg>
