<svg width="17" height="17" viewBox="0 0 17 17" fill="none" xmlns="http://www.w3.org/2000/svg">
<path fill-rule="evenodd" clip-rule="evenodd" d="M16.7535 7.8965L12.5035 3.6465C12.3505 3.4935 12.138 3.4 11.9 3.4C11.4325 3.4 11.05 3.7825 11.05 4.25C11.05 4.488 11.1435 4.7005 11.2965 4.8535L14.1015 7.65H5.1C4.6325 7.65 4.25 8.0325 4.25 8.5C4.25 8.9675 4.6325 9.35 5.1 9.35H14.1015L11.305 12.1465C11.1435 12.2995 11.05 12.512 11.05 12.75C11.05 13.2175 11.4325 13.6 11.9 13.6C12.138 13.6 12.3505 13.5065 12.5035 13.3535L16.7535 9.1035C16.9065 8.9505 17 8.738 17 8.5C17 8.262 16.9065 8.0495 16.7535 7.8965ZM7.65 15.3H1.7V1.7H7.65C8.1175 1.7 8.5 1.3175 8.5 0.85C8.5 0.3825 8.1175 0 7.65 0H0.85C0.3825 0 0 0.3825 0 0.85V16.15C0 16.6175 0.3825 17 0.85 17H7.65C8.1175 17 8.5 16.6175 8.5 16.15C8.5 15.6825 8.1175 15.3 7.65 15.3Z" fill="#61C554"/>
</svg>
