<svg width="27" height="17" viewBox="0 0 27 17" fill="none" xmlns="http://www.w3.org/2000/svg">
<path d="M13.5 3.54167C13.0032 3.549 12.51 3.62354 12.0356 3.76302C12.2551 4.12751 12.3719 4.53905 12.375 4.95833C12.375 5.2839 12.3071 5.60628 12.1752 5.90707C12.0433 6.20786 11.8499 6.48116 11.6062 6.71137C11.3624 6.94158 11.073 7.1242 10.7545 7.24878C10.4361 7.37337 10.0947 7.4375 9.74999 7.4375C9.30604 7.43459 8.8703 7.32424 8.48437 7.11698C8.17988 8.11431 8.21537 9.17684 8.5858 10.1541C8.95624 11.1313 9.64284 11.9737 10.5484 12.5619C11.4539 13.1501 12.5324 13.4543 13.6311 13.4314C14.7299 13.4086 15.7932 13.0598 16.6704 12.4345C17.5476 11.8092 18.1942 10.9391 18.5188 9.94738C18.8433 8.9557 18.8292 7.89272 18.4785 6.90902C18.1278 5.92533 17.4582 5.07078 16.5647 4.46642C15.6712 3.86206 14.599 3.53853 13.5 3.54167ZM26.8369 7.85365C24.2949 3.16935 19.2624 0 13.5 0C7.73765 0 2.70373 3.17156 0.1631 7.85409C0.0558691 8.05442 0 8.27575 0 8.50022C0 8.72469 0.0558691 8.94602 0.1631 9.14635C2.70514 13.8307 7.73765 17 13.5 17C19.2624 17 24.2963 13.8284 26.8369 9.14591C26.9441 8.94558 27 8.72425 27 8.49978C27 8.2753 26.9441 8.05398 26.8369 7.85365ZM13.5 14.875C8.87577 14.875 4.63639 12.4401 2.34701 8.5C4.63639 4.5599 8.8753 2.125 13.5 2.125C18.1247 2.125 22.3636 4.5599 24.653 8.5C22.3641 12.4401 18.1247 14.875 13.5 14.875Z" fill="#47A6FF" fill-opacity="0.6"/>
</svg>
