<svg width="26" height="26" viewBox="0 0 26 26" fill="none" xmlns="http://www.w3.org/2000/svg">
<path d="M4.79755 12.4517C4.66401 12.2395 4.48619 12.0536 4.27423 11.9045C4.06228 11.7553 3.82034 11.6459 3.56224 11.5824C3.30413 11.519 3.03492 11.5027 2.76996 11.5346C2.50501 11.5665 2.2495 11.6459 2.01803 11.7683C1.78656 11.8907 1.58366 12.0536 1.42091 12.2478C1.25816 12.4421 1.13875 12.6638 1.06951 12.9003C1.00026 13.1368 0.982529 13.3835 1.01732 13.6263C1.05212 13.8691 1.13876 14.1033 1.2723 14.3154L5.45289 20.9524C6.54274 22.6445 8.31744 23.8738 10.3911 24.3732C12.4648 24.8725 14.6697 24.6015 16.5265 23.6191C18.3833 22.6366 19.7418 21.0222 20.3066 19.1268C20.8714 17.2314 20.5968 15.2083 19.5426 13.4974L17.6218 10.4429C17.3355 10.0473 16.8953 9.76671 16.391 9.65835C15.8867 9.54999 15.3563 9.62205 14.908 9.85983C14.4596 10.0976 14.1272 10.4832 13.9785 10.9379C13.8298 11.3926 13.8761 11.8822 14.1078 12.3067" stroke="black" stroke-linecap="round" stroke-linejoin="round"/>
<path d="M11.035 14.8952L6.7414 8.0822C6.60786 7.87008 6.43004 7.68415 6.21808 7.53501C6.00612 7.38587 5.76419 7.27645 5.50608 7.21299C5.24798 7.14953 4.97877 7.13328 4.71381 7.16517C4.44886 7.19705 4.19335 7.27645 3.96188 7.39883C3.73041 7.5212 3.5275 7.68416 3.36476 7.87839C3.20201 8.07263 3.0826 8.29434 3.01336 8.53086C2.94411 8.76738 2.92638 9.01409 2.96117 9.25689C2.99597 9.49969 3.08261 9.73383 3.21615 9.94595L7.50973 16.759" stroke="black" stroke-linecap="round" stroke-linejoin="round"/>
<path d="M15.9156 15.1852L11.1701 7.64739C10.9004 7.219 10.4561 6.90634 9.9348 6.77818C9.41354 6.65002 8.85807 6.71687 8.39059 6.96402C7.92312 7.21117 7.58192 7.61837 7.44207 8.09605C7.30222 8.57373 7.37517 9.08275 7.64487 9.51114" stroke="black" stroke-linecap="round" stroke-linejoin="round"/>
<path d="M10.1303 6.83978L8.9665 4.98638C8.69681 4.55799 8.25245 4.24532 7.73119 4.11717C7.20993 3.98901 6.65446 4.05586 6.18698 4.30301C5.7195 4.55016 5.37831 4.95736 5.23846 5.43504C5.09861 5.91272 5.17155 6.42174 5.44125 6.85013L5.71243 7.27465" stroke="black" stroke-linecap="round" stroke-linejoin="round"/>
<path d="M20.1867 19.6585C21.5658 18.5141 22.4758 16.9718 22.7657 15.2878C23.0555 13.6037 22.7076 11.8796 21.7799 10.4018L19.8591 7.35771C19.7255 7.1456 19.5477 6.95966 19.3358 6.81052C19.1238 6.66138 18.8819 6.55196 18.6238 6.4885C18.3657 6.42504 18.0964 6.40879 17.8315 6.44068C17.5665 6.47257 17.311 6.55196 17.0796 6.67434C16.8481 6.79672 16.6452 6.95967 16.4824 7.15391C16.3197 7.34814 16.2003 7.56985 16.131 7.80637C16.0618 8.04289 16.0441 8.2896 16.0788 8.5324C16.1136 8.7752 16.2003 9.00935 16.3338 9.22146" stroke="black" stroke-linecap="round" stroke-linejoin="round"/>
<path d="M16.5938 9.63548L13.3962 4.56194C13.1265 4.13355 12.6821 3.82089 12.1609 3.69273C11.6396 3.56457 11.0841 3.63142 10.6167 3.87857C10.1492 4.12572 9.808 4.53292 9.66815 5.0106C9.52829 5.48828 9.60124 5.9973 9.87094 6.42569" stroke="black" stroke-linecap="round" stroke-linejoin="round"/>
<path d="M18.9213 1L18.458 2.59454" stroke="#73C62F" stroke-linecap="round" stroke-linejoin="round"/>
<path d="M22.3447 2.45984L21.3052 3.81623" stroke="#73C62F" stroke-linecap="round" stroke-linejoin="round"/>
<path d="M25.0002 4.89294L23.52 5.84553" stroke="#73C62F" stroke-linecap="round" stroke-linejoin="round"/>
</svg>
