<svg width="12" height="13" viewBox="0 0 12 13" fill="none" xmlns="http://www.w3.org/2000/svg">
<path d="M0 6.5C0 6.88606 0.298182 7.20121 0.647273 7.20121H5.35273V12.2988C5.35273 12.677 5.64364 13 6 13C6.35636 13 6.65455 12.677 6.65455 12.2988V7.20121H11.3527C11.7018 7.20121 12 6.88606 12 6.5C12 6.11394 11.7018 5.79091 11.3527 5.79091H6.65455V0.701212C6.65455 0.32303 6.35636 0 6 0C5.64364 0 5.35273 0.32303 5.35273 0.701212V5.79091H0.647273C0.298182 5.79091 0 6.11394 0 6.5Z" fill="#8C8C8C"/>
</svg>
