<svg width="168" height="148" viewBox="0 0 168 148" fill="none" xmlns="http://www.w3.org/2000/svg">
<ellipse cx="84" cy="107.373" rx="84" ry="40.6274" fill="#231F20"/>
<path d="M101.474 102.645C101.241 103.793 101.148 104.936 100.74 105.968C100.211 107.307 98.9849 108.117 97.5697 108.528C96.015 108.981 94.4139 109.298 92.8227 109.63C92.2941 109.74 91.7339 109.719 91.1875 109.75C89.2204 109.862 87.2527 109.965 85.2858 110.081C84.2125 110.144 83.1413 110.238 82.0679 110.294C81.0385 110.348 80.0066 110.409 78.9769 110.395C78.7485 110.391 77.3202 110.585 75.3218 110.717C74.9338 110.743 75.5377 112.714 74.84 112.92C73.2856 113.381 69.478 113.252 68.8136 112.274C68.1495 111.297 68.385 110.885 67.6484 110.603C64.047 109.221 60.3374 108.899 59.2505 105.968C58.5268 104.017 59.9039 99.3958 59.5035 95.8481C58.4765 86.7508 56.4341 76.5999 56.3674 76.5478C56.3743 76.541 54.1926 76.7162 54.0301 75.9645C52.0144 66.6374 51.0949 54.3449 56.3674 51.2452C59.5424 49.3787 65.5902 47.4616 72.2948 45.8957C73.2693 45.6682 73.8446 44.3222 74.84 44.1106C75.0627 44.0634 75.7439 42.8474 76.3281 41.6259C76.9165 40.3958 77.4113 39.1599 78.6192 39.106C81.102 38.9949 85.3851 36.0055 88.2905 36.9383C90.9514 37.7924 92.3003 42.6009 93.3278 42.0185C94.3634 41.4316 95.2798 42.4505 96.6983 42.4505C106.851 42.4505 114.497 60.5812 115.561 65.0424C113.784 67.4528 108.521 67.4528 103.548 68.8811C102.725 67.927 101.072 65.0656 100.538 63.4558C99.9881 61.7994 99.7986 65.5558 99.7601 66.887C99.7104 68.6085 99.8746 70.3365 99.965 72.0608C100.025 73.1975 100.123 74.3321 100.193 75.4684C100.314 77.4631 100.443 79.4577 100.538 81.4537C100.604 82.8584 100.576 84.2681 100.672 85.6704C100.77 87.1073 100.974 88.5377 101.123 89.9718C101.21 90.815 101.29 91.6595 101.354 92.5046C101.408 93.2171 101.484 93.9329 101.463 94.645C101.422 96.0248 101.268 97.4027 101.262 98.7817C101.258 99.5019 101.515 100.22 101.568 100.945C101.608 101.489 101.51 102.041 101.474 102.645Z" fill="white"/>
<path d="M117.837 14.9367C117.18 14.3176 116.779 13.544 116.263 12.8557C116.248 12.8355 116.233 12.8142 116.223 12.7915C115.819 11.9188 115.425 11.0466 115.233 10.0926C115.121 9.53561 115.126 8.99277 115.211 8.44039C115.253 8.16554 115.271 7.88646 115.325 7.61449C115.494 6.77993 115.902 6.05319 116.382 5.36194C116.526 5.15408 116.692 4.96041 116.832 4.74989C117.358 3.96169 118.1 3.45413 118.964 3.10051C119.526 2.87047 120.104 2.67636 120.654 2.41614C120.722 2.3842 120.796 2.35558 120.87 2.3487C121.78 2.26285 122.69 2.17367 123.602 2.10135C124.49 2.03059 125.381 2.05011 126.27 2.10734C126.752 2.13818 127.236 2.15149 127.716 2.20007C128.757 2.30545 129.764 2.53949 130.731 2.96054C131.406 3.25469 132.087 3.52977 132.734 3.88538C133.478 4.29423 134.109 4.83707 134.707 5.42694C134.98 5.69692 135.19 6.01326 135.376 6.34579C135.488 6.54434 135.587 6.7522 135.718 6.93766C136.479 8.01602 136.643 9.21661 136.458 10.4862C136.415 10.7855 136.318 11.0776 136.343 11.3857C136.193 12.0007 136.047 12.6183 135.68 13.1507C135.391 13.5684 135.078 13.9666 134.689 14.2994C134.554 14.4147 134.418 14.531 134.296 14.6594C134.032 14.9383 133.709 15.1382 133.404 15.3644C132.745 15.8518 132.012 16.1959 131.287 16.5579C131.197 16.6027 131.101 16.6387 131.005 16.6677C130.616 16.7855 130.227 16.8993 129.837 17.0138C129.398 17.1425 128.962 17.2791 128.52 17.3962C127.828 17.5797 127.111 17.5824 126.406 17.6755C126.306 17.6886 126.201 17.6815 126.102 17.6647C125.35 17.5376 124.588 17.4987 123.832 17.4049C123.706 17.3894 123.583 17.3568 123.459 17.331C122.613 17.1556 121.761 16.9998 120.94 16.721C120.735 16.6513 120.549 16.6671 120.358 16.7791C120.139 16.9069 119.907 17.0116 119.678 17.1223C119.195 17.3559 118.774 17.6846 118.339 17.9912C118.215 18.0782 118.086 18.1574 117.954 18.2319C117.852 18.2894 117.678 18.2029 117.651 18.0828C117.618 17.9353 117.586 17.7893 117.63 17.6343C117.874 16.7696 117.866 15.8851 117.837 14.9367Z" fill="white"/>
<path fill-rule="evenodd" clip-rule="evenodd" d="M75.2017 43.4193C75.2017 43.4193 76.3094 41.9086 76.6918 41.121C77.0742 40.3335 77.4338 38.8228 77.4338 38.8228C77.4338 38.8228 85.3383 49.9711 84.0876 50.1161C81.5873 50.4063 75.2017 43.4193 75.2017 43.4193Z" fill="#E7EAEE"/>
<path d="M109.288 79.1064C108.036 77.1245 105.377 72.5047 104.152 70.5532C104.124 70.5081 109.827 65.2852 114.902 66.6073C115.406 66.7387 116.375 68.6955 116.851 68.9289C117.735 69.3632 117.577 67.2407 119.27 64.2501C121.936 59.5411 126.846 52.5086 128.774 48.3105C129.557 46.6041 129.003 45.2742 128.921 44.9017C128.615 43.5235 127.897 42.3992 126.86 41.4548C126.188 40.8423 126.161 39.4753 126.927 39.0987C127.492 38.8207 128.129 38.7326 128.774 39.0534C129.51 39.4197 130.243 39.7662 130.749 40.449C130.817 40.5413 130.937 40.5954 131.034 40.6673C131.08 40.5508 131.131 40.4361 131.172 40.3179C131.58 39.1317 131.955 37.9333 132.402 36.7623C132.797 35.7272 133.235 34.7038 133.732 33.7142C133.896 33.3881 134.309 32.9682 134.599 32.9748C135.027 32.9843 135.305 33.444 135.369 33.9258C135.404 34.1812 135.44 34.4367 135.488 34.6898C135.51 34.801 135.563 34.9059 135.603 35.0137C135.68 34.9214 135.752 34.8236 135.836 34.7378C136.09 34.4789 136.315 34.1736 136.613 33.9813C137.022 33.7169 137.489 34.0106 137.456 34.5184C137.41 35.2196 137.356 35.9326 137.186 36.6112C136.88 37.8309 136.485 39.0286 136.132 40.2367C136.111 40.3086 136.131 40.3927 136.132 40.471C136.212 40.4284 136.33 40.4062 136.364 40.3403C136.587 39.9108 136.824 39.4844 136.993 39.0334C137.265 38.3043 137.677 37.6798 138.273 37.1869C138.411 37.0719 138.636 37.0609 138.822 37.0018C138.875 37.1733 139.009 37.3663 138.969 37.5127C138.682 38.5711 138.434 39.6488 138.035 40.6664C137.029 43.23 135.954 45.7667 134.898 48.3105C134.287 49.7804 133.578 51.2155 133.06 52.7165C132.531 54.2469 132.224 55.8515 131.744 57.4004C131.235 59.0426 130.649 60.6616 130.077 62.2839C129.208 64.7494 128.426 67.2527 127.409 69.657C126.614 71.5361 125.58 73.3244 124.54 75.0871C123.76 76.408 122.868 77.6775 121.897 78.8659C121.327 79.5641 120.518 80.0729 119.796 80.6417C118.64 81.5522 117.328 82.1332 115.891 82.4613C114.238 82.8388 112.77 82.5449 111.536 81.3432C110.789 80.6151 110.056 79.872 109.288 79.1064Z" fill="white"/>
<path fill-rule="evenodd" clip-rule="evenodd" d="M70.3865 30.2416C70.2273 30.5626 70.2376 30.8435 70.4451 31.1159C70.5382 31.2381 70.6389 31.3546 70.7395 31.4711C70.8475 31.5959 70.9556 31.7211 71.0542 31.8531C71.203 32.0525 71.3569 32.2495 71.5108 32.4465C71.915 32.9636 72.3194 33.4811 72.6368 34.0468C73.0848 34.8461 73.604 35.4355 74.546 35.6048C74.9284 35.6736 75.0727 35.9779 75.1186 36.3786C75.1823 36.9363 75.2865 37.5017 75.4725 38.0293C75.6054 38.4066 75.9573 38.6569 76.4054 38.6085C76.6154 38.5859 76.8245 38.5506 77.0336 38.5153C77.3554 38.461 77.6768 38.4066 77.9997 38.3989C78.3091 38.3915 78.7104 38.4721 78.9184 38.6708C79.4743 39.2019 79.986 39.7796 80.4974 40.3564C80.6031 40.4757 80.7087 40.5948 80.8147 40.7137C80.8539 40.7574 80.8922 40.8016 80.9303 40.8455L80.9305 40.8457C81.3038 41.2754 81.6508 41.6748 82.3928 41.4183C83.2738 41.1139 84.2003 40.9775 85.1559 41.0394C86.0325 41.0962 86.3748 40.8005 86.6445 39.9455C86.6723 39.8579 86.6957 39.7683 86.7191 39.6786C86.7643 39.5058 86.8095 39.333 86.885 39.1744C86.9137 39.1145 86.942 39.0535 86.9705 38.9925V38.9923C87.1264 38.6575 87.2856 38.3152 87.5259 38.0521C87.9602 37.5772 88.523 37.6501 89.0998 37.8538C89.7492 38.0832 90.0859 37.9425 90.3661 37.3547C90.4846 37.1058 90.5238 37.1089 90.7407 37.2681C90.916 37.397 91.1923 37.4565 91.4159 37.4401C91.9693 37.3993 92.5234 37.3223 93.0657 37.2067C93.2617 37.165 93.5214 37.0106 93.5884 36.8427C93.6704 36.6375 93.7528 36.4323 93.8352 36.2271C94.3004 35.0699 94.7663 33.9111 95.1389 32.724C95.7451 30.7931 96.1965 28.8161 96.1954 26.7765C96.1947 25.41 96.1544 24.0437 96.1143 22.6774C96.1041 22.3311 96.0939 21.9848 96.0843 21.6385C96.0798 21.4743 96.0758 21.31 96.0718 21.1456V21.1449C96.054 20.3955 96.0359 19.6453 95.9605 18.9012C95.8242 17.5589 95.6484 16.2201 95.4729 14.8817L95.4725 14.8782C95.4431 14.6546 95.4139 14.4307 95.3848 14.2071C95.2988 13.5478 95.1986 12.8903 95.0986 12.2328L95.0984 12.2321C95.0654 12.0149 95.0322 11.7975 94.9997 11.5803L94.9291 11.1091C94.7728 10.0641 94.6164 9.01876 94.451 7.97478C94.4445 7.93397 94.4387 7.89182 94.4327 7.849C94.4026 7.63182 94.3701 7.39889 94.2472 7.25203C94.1372 7.12093 94.0274 6.98938 93.9178 6.85761C93.2156 6.01506 92.5114 5.1703 91.7282 4.40784C91.1135 3.80976 90.373 3.32948 89.6456 2.85785L89.551 2.7964C87.5636 1.50663 85.3374 0.925858 82.9974 0.772567C82.3563 0.73064 81.7118 0.740401 81.067 0.74994C80.6811 0.75593 80.2951 0.761698 79.9096 0.756373C79.5578 0.751493 79.3674 0.863078 79.1389 1.16899C78.836 1.57451 78.3832 1.90106 77.936 2.16194C76.8196 2.81371 75.837 3.57905 75.0825 4.65497C74.0912 6.0683 73.1831 7.52246 72.5895 9.14343C72.1317 10.3939 71.815 11.6782 71.7059 13.0232C71.6704 13.4573 71.5827 13.8859 71.4947 14.3147C71.3246 15.1444 71.1542 15.9752 71.3644 16.8501C71.4551 17.227 71.5076 17.6137 71.5604 18.0001C71.6221 18.4531 71.6838 18.9057 71.8065 19.3418C71.829 19.4221 71.8517 19.5022 71.8742 19.5823C72.2655 20.9677 72.6492 22.3273 72.5728 23.8181C72.4909 25.4206 71.9201 26.8207 71.2587 28.3376C71.1743 28.5237 71.091 28.7105 71.0079 28.8971C70.807 29.3483 70.6061 29.7997 70.3865 30.2416ZM96.5526 19.6903C96.5535 19.7041 96.552 19.7189 96.5504 19.7336C96.5475 19.7602 96.5448 19.7861 96.5557 19.8043C96.5896 19.8605 96.6304 19.9126 96.6711 19.9647C96.6871 19.9854 96.7032 20.006 96.719 20.0268C96.7361 20.0113 96.7544 19.9967 96.7724 19.9818C96.8114 19.9499 96.8504 19.9179 96.882 19.8798C96.9715 19.7717 97.0617 19.6639 97.1517 19.5563L97.1519 19.5561L97.1521 19.5559C97.4087 19.2493 97.6655 18.9427 97.9064 18.6242C98.4376 17.9214 98.9569 17.2095 99.4658 16.4903C99.7658 16.0664 99.4674 15.8909 99.1117 15.8656C98.371 15.8132 97.7436 16.1251 97.1072 16.4896C96.6524 16.7501 96.3174 16.9681 96.4364 17.6554L96.4542 17.9644C96.4872 18.5396 96.5201 19.1149 96.5526 19.6903ZM71.1858 20.0164C71.1698 20.0424 71.1538 20.0685 71.1422 20.0936C70.8253 19.9432 70.5315 19.7635 70.2407 19.5856C69.9861 19.4299 69.7338 19.2757 69.4703 19.1435C68.8746 18.8449 68.665 18.3023 68.4744 17.7632C68.2548 17.1427 68.7434 16.5502 69.4058 16.5546C69.4351 16.5548 69.4648 16.5548 69.4944 16.5551C69.7305 16.5559 69.9703 16.5566 70.1972 16.6063C70.6433 16.7037 70.6876 17.048 70.7302 17.3799C70.7433 17.4828 70.7565 17.5844 70.7814 17.6773C70.9406 18.271 71.0569 18.8764 71.1731 19.4813C71.1972 19.6065 71.2212 19.7316 71.2457 19.8565C71.2551 19.9042 71.2204 19.9603 71.1858 20.0164Z" fill="white"/>
<path d="M92.4317 28.4547C93.2927 28.4547 93.9907 27.7595 93.9907 26.9018C93.9907 26.0442 93.2927 25.349 92.4317 25.349C91.5708 25.349 90.8728 26.0442 90.8728 26.9018C90.8728 27.7595 91.5708 28.4547 92.4317 28.4547Z" fill="#F6B82D"/>
<path d="M76.1742 27.1237C77.0351 27.1237 77.7331 26.4284 77.7331 25.5708C77.7331 24.7132 77.0351 24.0179 76.1742 24.0179C75.3132 24.0179 74.6152 24.7132 74.6152 25.5708C74.6152 26.4284 75.3132 27.1237 76.1742 27.1237Z" fill="#F6B82D"/>
<path fill-rule="evenodd" clip-rule="evenodd" d="M83.5441 6.85957C84.4325 7.04968 85.3959 7.28039 86.2936 6.79479C86.5976 6.6304 86.8834 6.42787 87.1604 6.22023C87.3294 6.09356 87.4816 5.93627 87.6143 5.77122C88.6688 4.46193 89.4469 4.65737 90.899 5.51234C92.7566 6.606 94.9077 9.79205 89.1483 9.79205C86.2473 9.79205 74.6606 8.21855 76.2784 6.65436C76.9396 6.01525 77.8059 5.58732 78.5733 5.05557C78.8624 4.85525 79.1566 4.65471 79.4116 4.41534C79.7813 4.06861 80.0053 4.25163 80.2361 4.57041C80.5394 4.98946 80.8559 5.39876 81.1959 5.8411C81.9954 6.21202 82.7373 6.68697 83.5441 6.85957Z" fill="#E7EAEE"/>
<path fill-rule="evenodd" clip-rule="evenodd" d="M114.507 64.9407C114.206 65.1168 113.906 65.2925 113.583 65.4116C112.802 65.6998 112.01 65.9602 111.21 66.2235C110.704 66.3902 110.194 66.5579 109.681 66.7344C109.527 66.7928 109.391 66.8313 109.26 66.8685C109.229 66.8774 109.198 66.886 109.167 66.8949C108.71 67.0273 108.252 67.1612 107.795 67.2949L107.794 67.2951L107.793 67.2955C106.646 67.631 105.499 67.9667 104.346 68.2813C103.879 68.4087 103.493 68.2659 103.239 67.7749C102.608 66.5546 101.933 65.3554 101.254 64.1596C101.207 64.0766 101.091 64.0309 100.974 63.9851C100.92 63.9639 100.866 63.9426 100.819 63.9176C100.802 63.9755 100.774 64.0385 100.745 64.1016C100.685 64.2375 100.624 64.3733 100.669 64.4562C101.426 65.8709 102.203 67.2761 103.016 68.6607C103.117 68.832 103.481 68.9893 103.682 68.9505C104.749 68.7459 105.809 68.4956 106.861 68.2244C107.268 68.1195 107.671 67.9968 108.073 67.8744C108.653 67.6977 109.232 67.5211 109.824 67.3981C111.855 66.9752 113.798 66.3645 115.541 65.2351C116.167 64.8295 116.339 64.2094 116.034 63.5667C115.929 63.3441 115.821 63.122 115.714 62.8996L115.713 62.8985L115.713 62.8974L115.712 62.8966L115.711 62.8948C115.338 62.1232 114.964 61.3506 114.671 60.5504C113.774 58.0978 112.765 55.6926 111.576 53.3627C110.824 51.8881 110.025 50.433 109.177 49.0092C108.042 47.1069 106.855 45.2062 105.031 43.8527C103.765 42.9126 102.408 42.0272 100.966 41.3845C98.8587 40.4455 96.5439 40.2398 94.2405 40.0836C93.7698 40.0516 93.2751 39.8801 92.8597 39.6545C92.026 39.2021 91.6875 38.4009 91.3465 37.5943C91.3091 37.506 91.2718 37.4175 91.2337 37.3297C91.0653 36.9406 91.3363 36.8677 91.5066 36.8333C91.9455 36.745 92.409 36.6752 92.8501 36.7184C93.5376 36.7859 93.9157 36.4749 94.168 35.9204C94.7868 34.5609 95.3286 33.1784 95.7376 31.7395C96.3039 29.7475 96.7877 27.7557 96.7361 25.668C96.7136 24.7634 96.719 23.8579 96.7241 22.9526C96.7268 22.4806 96.7294 22.008 96.7283 21.536C96.7279 21.4071 96.7119 21.2723 96.6958 21.138C96.6636 20.868 96.6316 20.5996 96.7283 20.3843C96.9659 19.8552 97.3562 19.3802 97.735 18.9238C98.0348 18.5627 98.3478 18.2121 98.661 17.8615C99.0402 17.4366 99.4195 17.012 99.7747 16.5688C100.061 16.2118 100.274 15.7574 99.986 15.2834C99.7046 14.8205 99.2533 14.6325 98.729 14.7476C98.6392 14.7673 98.5487 14.7859 98.4579 14.8045C97.7989 14.9401 97.1325 15.0773 96.6671 15.6455C96.4436 15.9185 96.3144 15.9194 96.2563 15.5235C96.2134 15.2293 96.1522 14.9377 96.0911 14.6462C96.0277 14.3442 95.9643 14.0424 95.9211 13.7376C95.868 13.3621 95.8322 12.9844 95.7963 12.6067C95.7619 12.2412 95.7272 11.8756 95.6769 11.5122C95.6062 11.0019 95.5263 10.4929 95.4465 9.98372C95.3257 9.21299 95.2049 8.44249 95.1157 7.66851C95.0628 7.20885 94.9316 6.84068 94.6144 6.50561C94.45 6.33169 94.2827 6.1595 94.1157 5.98732C93.6032 5.4593 93.0901 4.93084 92.6481 4.35155C91.4286 2.75342 89.6965 1.9152 87.8993 1.15507C86.7412 0.665339 85.5436 0.314911 84.27 0.244176C83.7097 0.213243 83.1496 0.174307 82.5896 0.135587C82.0179 0.0957847 81.4461 0.056199 80.8738 0.0248334C80.4029 -0.0011243 79.9242 -0.0195113 79.4591 0.0373793C79.228 0.0657165 78.9967 0.245474 78.8061 0.403167C78.6177 0.558697 78.4387 0.725042 78.2594 0.891387C78.0287 1.10575 77.7981 1.31991 77.5483 1.51069C77.2849 1.71187 77.0058 1.89638 76.7273 2.0809C76.27 2.38352 75.8136 2.68571 75.4286 3.05885C74.9862 3.48802 74.6327 4.00502 74.2797 4.52114C74.1498 4.71106 74.0202 4.90099 73.886 5.08637C72.8907 6.46169 72.126 7.94799 71.7049 9.58419C71.4445 10.597 71.2238 11.6197 71.0047 12.642L70.97 12.8038C70.8094 13.5523 70.6482 14.3024 70.547 15.0591L70.5425 15.0926C70.4627 15.692 70.4564 15.7377 69.8652 15.525C69.2544 15.3055 68.7282 15.4537 68.2982 15.8567C67.8759 16.2525 67.8294 16.7866 67.9762 17.3248C68.4063 18.9015 69.6455 19.5615 71.1266 19.9547C71.2558 19.9891 71.3986 20.1118 71.4603 20.2301C72.0988 21.4585 72.1264 22.7653 71.7223 24.0322C71.3501 25.1988 70.9093 26.3446 70.4685 27.4905L70.468 27.4915C70.2736 27.9966 70.079 28.5026 69.8906 29.0096C69.6964 29.5323 69.5899 30.0114 70.0349 30.5173C70.992 31.6061 71.906 32.7328 72.5964 34.0097C72.8702 34.5161 73.2904 34.8806 73.854 34.9905C74.3909 35.0954 74.4637 35.3535 74.5271 35.8434C74.6103 36.4891 74.8313 37.1677 75.1899 37.7087C75.3038 37.8805 75.611 37.9268 75.9252 37.9743C76.0916 37.9997 76.26 38.025 76.403 38.0695C76.5196 38.1059 76.7048 38.2573 76.6906 38.3187C76.665 38.428 76.6403 38.5376 76.6154 38.6475C76.4962 39.1749 76.3765 39.7053 76.1752 40.203C75.7346 41.2928 74.7973 41.9746 73.8876 42.6364L73.8865 42.6372C73.7626 42.7274 73.6391 42.8172 73.5175 42.9076C71.9294 44.0885 70.0398 44.737 68.1417 45.2966C67.2497 45.5596 66.3447 45.7809 65.4396 46.0022C64.8524 46.1458 64.265 46.2895 63.6811 46.4446C63.3175 46.541 62.9578 46.6555 62.5986 46.7697C62.0659 46.9391 61.5332 47.1082 60.988 47.2194C58.8927 47.6468 57.0446 48.5261 55.4213 49.8729C54.3301 50.778 53.7445 51.9952 53.1557 53.2191C53.127 53.2784 53.0983 53.3383 53.0696 53.3975C52.2738 55.0474 51.5758 56.8064 51.4775 58.5917C51.4499 59.0925 51.4893 59.5963 51.5286 60.1005C51.5484 60.3555 51.5685 60.6103 51.5796 60.8652C51.6049 61.4375 51.6265 62.0103 51.6483 62.5831C51.6955 63.8289 51.7426 65.0744 51.8269 66.3178C51.8741 67.0111 52.0009 67.7 52.1274 68.3879C52.1639 68.5854 52.2001 68.7829 52.2346 68.9802C52.3283 69.5175 52.4328 70.0531 52.5376 70.5887C52.6072 70.9458 52.677 71.3032 52.7435 71.661C52.7869 71.8944 52.8336 72.1275 52.8801 72.3605C53.0056 72.9876 53.131 73.6154 53.1946 74.2485C53.2531 74.8304 53.236 75.4199 53.2191 76.0084C53.214 76.1826 53.2091 76.3567 53.206 76.5306C53.2006 76.8369 53.2556 77.0848 53.6341 77.0018C54.008 76.9196 54.3757 76.8092 54.7429 76.6987C54.8584 76.6639 54.9738 76.6293 55.0895 76.5955C55.4794 76.4813 55.7183 76.615 55.7685 77.005C55.8184 77.3907 55.8622 77.777 55.906 78.1634C55.9725 78.75 56.039 79.3364 56.1262 79.9198C56.3382 81.3386 56.5713 82.7546 56.8226 84.1674C57.2841 86.7603 57.9494 89.3072 58.8233 91.7957C59.6005 94.0079 60.4408 96.1996 61.2894 98.3872C61.7783 99.647 62.301 100.895 62.8237 102.142C62.9573 102.461 63.0908 102.78 63.2238 103.099C63.7627 104.391 64.3133 105.679 64.8647 106.966C64.9925 107.265 65.1191 107.564 65.2454 107.864C65.6162 108.742 65.987 109.62 66.3963 110.481C66.7517 111.229 67.1554 111.954 67.5591 112.68C67.6781 112.894 67.7973 113.108 67.915 113.322C67.9517 113.389 68.0251 113.436 68.0987 113.484C68.1328 113.506 68.167 113.528 68.1975 113.552C68.2122 113.513 68.2293 113.473 68.2462 113.434C68.2862 113.343 68.3263 113.252 68.3354 113.157C68.3425 113.084 68.2996 113.003 68.2584 112.926C68.2475 112.906 68.2369 112.886 68.2271 112.866C68.0898 112.586 67.9479 112.308 67.8058 112.03C67.5082 111.447 67.2104 110.865 66.9561 110.265C66.0755 108.185 65.2308 106.091 64.3891 103.996C64.011 103.055 63.6413 102.11 63.2714 101.166C62.9075 100.236 62.5436 99.3063 62.1715 98.3797C61.9402 97.8034 61.6955 97.2317 61.4511 96.66C61.0133 95.6368 60.5758 94.6136 60.2142 93.5656C59.4468 91.3404 58.7602 89.0855 58.1385 86.8174C57.7882 85.5395 57.5475 84.2318 57.3071 82.9266C57.2639 82.6919 57.2208 82.457 57.1769 82.2227C57.0557 81.5744 56.9785 80.9183 56.9013 80.2623C56.8749 80.0384 56.8486 79.8145 56.8206 79.591C56.6985 78.6198 56.5835 77.6475 56.4716 76.6749C56.4345 76.3509 56.5819 76.1973 56.922 76.0926C58.2248 75.6915 59.5211 75.2715 60.8176 74.8514C61.2774 74.7023 61.7373 74.5531 62.1975 74.4049C62.5399 74.2948 62.9044 74.189 63.279 74.0804C64.6665 73.6781 66.1936 73.2355 67.2497 72.3713C67.3109 72.3214 67.4708 72.2928 67.5093 72.3294C67.5783 72.3951 67.627 72.5204 67.6196 72.6162C67.5831 73.0958 67.5389 73.5753 67.4946 74.0545C67.4074 74.9998 67.3202 75.9451 67.2929 76.8919C67.2582 78.0928 67.3173 79.2975 67.3765 80.5L67.3767 80.5011V80.5022V80.5032V80.5045L67.377 80.5056V80.5067C67.3847 80.6633 67.3923 80.8199 67.3999 80.9763C67.4363 81.7395 67.4948 82.5087 67.6356 83.2586C67.9937 85.1672 68.7369 86.9531 69.6094 88.6877C69.7362 88.9399 69.887 89.1826 70.0378 89.4249C70.2629 89.7872 70.4878 90.1489 70.6306 90.5398C70.8492 91.1377 71.0804 91.7315 71.3115 92.3255C71.946 93.9562 72.5808 95.5873 72.9576 97.3031C73.0762 97.8428 73.2145 98.3784 73.3529 98.914C73.5066 99.5084 73.6601 100.103 73.7864 100.702C73.9815 101.627 74.1331 102.561 74.2851 103.495C74.32 103.709 74.3549 103.925 74.3905 104.14C74.4336 104.402 74.4821 104.665 74.5306 104.928C74.6619 105.641 74.7933 106.355 74.8251 107.072C74.8881 108.5 74.9081 109.929 74.9281 111.358C74.9388 112.121 74.9495 112.885 74.9668 113.647C74.9692 113.761 75.0189 113.874 75.0687 113.987C75.0918 114.039 75.1149 114.091 75.1332 114.144C75.1641 114.091 75.2021 114.038 75.2404 113.985C75.3231 113.872 75.4059 113.758 75.413 113.64C75.4515 112.996 75.4739 112.352 75.4966 111.708V111.706V111.705V111.704C75.5113 111.29 75.5258 110.875 75.5444 110.461C75.5533 110.263 75.5747 110.066 75.5958 109.868C75.6276 109.572 75.6592 109.275 75.6497 108.98C75.6396 108.671 75.6307 108.363 75.6216 108.055V108.054V108.053V108.052C75.58 106.636 75.5387 105.218 75.4019 103.811C75.3102 102.867 75.0802 101.933 74.8514 101.004C74.8075 100.825 74.7635 100.647 74.7208 100.469C74.618 100.042 74.5177 99.6139 74.4174 99.1863C74.062 97.6695 73.7063 96.1516 73.239 94.6675C72.4718 92.2303 71.4302 89.8911 70.2338 87.6141C69.69 86.5791 69.234 85.4744 68.9286 84.3523C68.3289 82.149 68.2769 79.8714 68.2253 77.6066L68.2204 77.3935C68.1964 76.3513 68.2404 75.3074 68.2845 74.2639C68.2996 73.9078 68.3147 73.5511 68.3269 73.1953C68.3432 72.7278 68.3801 72.2608 68.417 71.794V71.7925L68.4172 71.7912C68.4253 71.6902 68.4333 71.5883 68.441 71.4873C68.4769 71.0222 68.5204 70.5573 68.564 70.0922C68.6595 69.076 68.7551 68.0598 68.7682 67.0424C68.7787 66.2243 68.724 65.4056 68.6695 64.5866C68.6241 63.9083 68.5789 63.2299 68.5705 62.5511C68.5589 61.5935 68.2747 60.7083 67.9902 59.8227C67.9001 59.5417 67.8098 59.2607 67.7284 58.9774C67.697 58.8686 67.5811 58.7827 67.4653 58.6968C67.4117 58.657 67.358 58.6172 67.3129 58.5752C67.2951 58.6367 67.2697 58.6996 67.2442 58.7626C67.1886 58.9002 67.133 59.0375 67.1585 59.1591C67.2092 59.4026 67.2853 59.6425 67.3609 59.8822C67.467 60.2175 67.5729 60.5519 67.6094 60.8944C67.7731 62.4276 67.9281 63.9677 67.9535 65.5072C67.9642 66.1516 67.9126 66.7976 67.8607 67.4433C67.8031 68.1636 67.7453 68.8837 67.7744 69.6008C67.8158 70.6239 67.2791 71.168 66.5604 71.6871C65.6151 72.37 64.2648 72.7646 63.0525 73.1189C62.7314 73.2128 62.42 73.3039 62.1281 73.3967C60.3165 73.9731 58.5155 74.5816 56.7145 75.1901C55.9707 75.4415 55.2269 75.6928 54.4822 75.942L54.4698 75.9461C54.2209 76.0296 54.0156 76.0984 54.0158 75.6853C54.0163 75.1817 53.9627 74.6766 53.9093 74.1743L53.9064 74.1475C53.8759 73.8615 53.8461 73.5756 53.8163 73.2898C53.7011 72.1842 53.5859 71.078 53.4359 69.977C53.3445 69.3044 53.2333 68.6343 53.1221 67.9641C52.9891 67.1631 52.8563 66.3623 52.7571 65.5577C52.6174 64.4261 52.5345 63.2822 52.5251 62.1431C52.5155 60.9893 52.552 59.8351 52.5885 58.6808C52.6027 58.2278 52.6172 57.7749 52.6288 57.3219C52.6597 56.1065 53.2734 54.9913 53.8717 53.9039C54.0957 53.4971 54.3174 53.0941 54.5058 52.6913C55.4609 50.6475 57.2595 49.5208 59.2842 48.7247C60.2569 48.3423 61.2718 48.0596 62.2863 47.7773L62.2874 47.7768L62.2885 47.7766C62.6606 47.673 63.0325 47.5694 63.4022 47.4608C64.2321 47.2174 65.0637 46.9804 65.8956 46.7433L65.8967 46.7429L65.898 46.7426C67.5387 46.275 69.1791 45.8073 70.8034 45.291C72.2528 44.8304 73.6327 44.1707 74.7742 43.1492C75.0867 42.8695 75.2406 42.9191 75.5164 43.1754C76.4166 44.0123 77.3383 44.8274 78.26 45.6425L78.4186 45.7831C79.9901 47.1729 81.7388 48.3094 83.6835 49.1381C83.9715 49.261 84.4433 49.2439 84.7111 49.0925C85.3147 48.7509 85.8795 48.3423 86.4431 47.9347C86.5592 47.8506 86.6753 47.7667 86.7916 47.6834C87.0254 47.5158 87.2599 47.3488 87.4941 47.1815C88.4679 46.4872 89.4421 45.7926 90.3892 45.0649C91.3952 44.292 92.1152 43.2736 92.8325 42.2589C92.9473 42.0964 93.0618 41.9344 93.1777 41.7733C93.2231 41.7099 93.0627 41.3839 92.96 41.3636C92.5567 41.2842 92.3717 41.5396 92.1775 41.8077C92.1406 41.8585 92.1034 41.91 92.0643 41.9595C91.9032 42.1639 91.746 42.3735 91.5885 42.5838C91.1007 43.2349 90.6103 43.8895 89.9939 44.395C89.0101 45.2016 87.977 45.9505 86.9433 46.6998C86.2084 47.2324 85.4736 47.7652 84.756 48.3189C84.3096 48.6635 83.9808 48.6382 83.5493 48.4013C83.4548 48.3494 83.3603 48.2977 83.2657 48.2462C82.2593 47.6964 81.2606 47.1508 80.3898 46.3725C79.2705 45.3723 78.0957 44.4302 76.9213 43.4886C76.5854 43.2193 76.2495 42.9502 75.915 42.6796C75.6049 42.4287 75.6608 42.2736 75.9275 42.0363C76.8212 41.2411 77.3007 40.2575 77.4306 39.0708C77.4386 38.9984 77.4413 38.9188 77.444 38.8359C77.4564 38.4617 77.4711 38.0245 77.9858 37.9079C78.4805 37.7957 78.8493 38.11 79.1446 38.4585C79.3341 38.6823 79.5152 38.9134 79.6963 39.1442C79.9213 39.4314 80.1464 39.7185 80.388 39.9919L80.4334 40.0434C80.8951 40.5673 81.4038 41.1442 82.2066 40.8743C83.3291 40.497 84.462 40.4267 85.6286 40.4133C85.9602 40.4094 86.4209 40.1682 86.5908 39.8982C86.8717 39.452 87.0792 38.9618 87.2868 38.4721L87.2872 38.471L87.2877 38.4699L87.2881 38.4688C87.368 38.28 87.448 38.0912 87.5321 37.9051C87.8299 37.2464 88.1396 37.0003 88.8851 37.2642C89.209 37.379 89.6378 37.4703 89.9307 37.357C90.5113 37.1325 90.6209 37.4046 90.7838 37.8082C90.7904 37.8247 90.7971 37.8413 90.804 37.858C91.1841 38.7944 91.5707 39.7334 92.4882 40.3441C93.093 40.7466 93.7774 40.858 94.4627 40.9696C94.5263 40.98 94.5899 40.9904 94.6535 41.001C95.2494 41.1003 95.8473 41.1892 96.4449 41.2783C97.3046 41.4064 98.1647 41.5342 99.0184 41.6928C101.242 42.1055 103.148 43.2165 104.782 44.6539C105.923 45.6578 106.844 46.9222 107.743 48.155L107.769 48.1907C108.421 49.086 108.952 50.0696 109.48 51.0473C109.541 51.1602 109.601 51.2729 109.662 51.3854C109.826 51.688 109.992 51.9904 110.157 52.2928C110.912 53.6744 111.668 55.0578 112.309 56.4889C113.05 58.1452 113.726 59.8292 114.402 61.5134C114.73 62.3311 115.058 63.1488 115.394 63.9634C115.506 64.2358 115.542 64.4086 115.201 64.5648C114.963 64.674 114.735 64.8075 114.507 64.9407ZM70.9836 28.0217C71.0668 27.8396 71.1497 27.6575 71.2343 27.476C71.8946 25.9968 72.4647 24.6317 72.5468 23.069C72.6231 21.6154 72.2396 20.2898 71.8491 18.9389C71.8264 18.8608 71.8039 18.7825 71.7812 18.7042C71.6589 18.2789 71.5973 17.8377 71.5354 17.3959C71.4829 17.0193 71.4302 16.6421 71.3399 16.2746C71.1299 15.4214 71.3001 14.6115 71.47 13.8025C71.5577 13.3842 71.6455 12.9665 71.6807 12.5429C71.7899 11.2314 72.1062 9.97918 72.5635 8.76003C73.1563 7.17921 74.0633 5.76127 75.0533 4.38313C75.8069 3.33401 76.7882 2.58772 77.9033 1.95219C78.3497 1.69781 78.8021 1.37961 79.1046 0.98397C79.3326 0.685889 79.523 0.576867 79.8744 0.581626C80.2594 0.586817 80.6449 0.581193 81.0304 0.575569C81.6743 0.566051 82.3178 0.556534 82.9581 0.597634C85.2954 0.746891 87.5185 1.3132 89.5037 2.57107L89.598 2.63077C90.3244 3.09066 91.0642 3.55898 91.6779 4.14216C92.4602 4.88563 93.1635 5.70935 93.8648 6.53092C93.9745 6.65941 94.0841 6.78768 94.1938 6.91574C94.3168 7.05894 94.349 7.28585 94.3793 7.49762C94.3853 7.53937 94.3911 7.58047 94.3975 7.62027C94.5625 8.63803 94.7187 9.65687 94.8748 10.6759L94.9456 11.136C94.978 11.3478 95.011 11.5596 95.0441 11.7713C95.1442 12.4125 95.2441 13.0545 95.3299 13.6974C95.3593 13.9167 95.3886 14.1361 95.4182 14.3554C95.5935 15.6605 95.7688 16.9657 95.9051 18.2746C95.9805 19.0001 95.9985 19.7317 96.0163 20.4622C96.0203 20.6227 96.0241 20.7834 96.0288 20.9437C96.0381 21.2809 96.0484 21.6182 96.0586 21.9554V21.9565V21.9578V21.9591C96.0989 23.2905 96.1391 24.6221 96.1398 25.9538C96.1409 27.9426 95.69 29.8703 95.0846 31.7531C94.7125 32.9106 94.2471 34.0405 93.7827 35.1688C93.7004 35.3688 93.6177 35.5692 93.5358 35.7695C93.4689 35.933 93.2095 36.0835 93.014 36.1242C92.4722 36.2369 91.9188 36.3122 91.3663 36.3518C91.143 36.368 90.8669 36.3098 90.6917 36.1841C90.4753 36.029 90.4361 36.0258 90.3178 36.2685C90.038 36.8419 89.7014 36.9791 89.0531 36.7554C88.477 36.5566 87.9147 36.4855 87.4812 36.9488C87.2412 37.2051 87.0819 37.5389 86.9264 37.8653C86.898 37.925 86.8697 37.9845 86.841 38.0431C86.7654 38.1976 86.7202 38.3661 86.6751 38.5348C86.6517 38.622 86.6284 38.7096 86.6008 38.795C86.3315 39.6285 85.9896 39.9171 85.1141 39.8615C84.1595 39.8011 83.2342 39.9342 82.3545 40.2309C81.6133 40.481 81.2668 40.0916 80.8938 39.6726C80.8558 39.6298 80.8173 39.5868 80.7784 39.5439C80.6725 39.428 80.5668 39.3118 80.4614 39.1954C79.9509 38.6328 79.4396 38.0697 78.8844 37.5519C78.6766 37.3581 78.2758 37.2795 77.9667 37.2867C77.6441 37.2943 77.3232 37.3473 77.002 37.4002C76.7931 37.4346 76.5841 37.469 76.3743 37.4911C75.9268 37.5383 75.5756 37.2943 75.4428 36.9263C75.2571 36.4119 75.153 35.8607 75.0894 35.3169C75.0435 34.926 74.8994 34.6293 74.5175 34.5622C73.5766 34.3972 73.0582 33.8224 72.6104 33.043C72.2937 32.4914 71.8898 31.9868 71.4861 31.4825L71.4854 31.4817C71.3319 31.29 71.1784 31.0982 71.0299 30.9041C70.9313 30.7752 70.8234 30.6534 70.7156 30.5314C70.6153 30.4178 70.5147 30.3043 70.4217 30.1853C70.2144 29.9195 70.204 29.6456 70.3632 29.3328C70.5823 28.9017 70.783 28.4615 70.9836 28.0217ZM96.3973 17.3471L96.3804 17.0598C96.2617 16.3897 96.5962 16.177 97.0504 15.9231C97.6861 15.5677 98.3124 15.2637 99.0522 15.3146C99.4077 15.3392 99.7055 15.5105 99.4059 15.9239C98.8979 16.625 98.3789 17.3192 97.8485 18.0044C97.608 18.3151 97.3516 18.614 97.0951 18.9132C97.0052 19.0181 96.9147 19.1234 96.8255 19.229C96.7939 19.2662 96.755 19.2971 96.7159 19.3283C96.7092 19.3337 96.7025 19.3391 96.6958 19.3445C96.6845 19.3536 96.6734 19.3627 96.6625 19.3722C96.6469 19.3519 96.6309 19.3317 96.6149 19.3118C96.5742 19.261 96.5335 19.21 96.4997 19.1552C96.4885 19.1375 96.4914 19.1122 96.4941 19.0864C96.4957 19.0719 96.4972 19.0575 96.4965 19.044C96.4636 18.4784 96.4305 17.9127 96.3973 17.3471ZM71.1615 19.362C71.1455 19.3875 71.1295 19.4129 71.1177 19.4375C70.8014 19.2906 70.508 19.1154 70.2176 18.9422C69.9633 18.7905 69.7113 18.6397 69.4482 18.5108C68.8532 18.2197 68.6439 17.6908 68.4533 17.1649C68.234 16.5601 68.722 15.9821 69.3835 15.9864C69.413 15.9867 69.4426 15.9869 69.4722 15.9869C69.708 15.9877 69.9473 15.9886 70.1742 16.0368C70.6195 16.1318 70.6637 16.4675 70.7065 16.7911C70.7196 16.8915 70.7327 16.9908 70.7574 17.0812C70.9166 17.6601 71.0328 18.2506 71.1489 18.8403C71.1729 18.9623 71.1969 19.0843 71.2214 19.2063C71.2305 19.2526 71.196 19.3073 71.1615 19.362ZM106.431 72.6558C107.352 74.0891 108.275 75.5269 109.215 76.9808C109.455 77.214 109.692 77.445 109.926 77.6743C110.442 78.1785 110.948 78.6736 111.461 79.1617C112.693 80.3334 114.159 80.62 115.811 80.2519C117.246 79.9319 118.557 79.3654 119.711 78.4777C119.894 78.3371 120.082 78.1999 120.271 78.0628C120.826 77.6593 121.385 77.254 121.809 76.7461C122.779 75.5873 123.67 74.3493 124.449 73.0614C125.488 71.3425 126.521 69.5988 127.314 67.7664C128.054 66.0584 128.669 64.2994 129.285 62.5405L129.285 62.5394C129.514 61.8844 129.743 61.2294 129.979 60.577L130.05 60.3804L130.102 60.2359L130.146 60.1148L130.238 59.8623L130.238 59.8612C130.725 58.5184 131.212 57.1748 131.644 55.8151C131.853 55.1549 132.03 54.4841 132.206 53.8137C132.434 52.9506 132.661 52.0878 132.958 51.2478C133.299 50.2835 133.722 49.3471 134.146 48.4106C134.366 47.9257 134.585 47.4405 134.793 46.9516C135.012 46.437 135.232 45.9228 135.452 45.4086C136.291 43.4438 137.13 41.4789 137.927 39.4978C138.243 38.7124 138.464 37.8902 138.684 37.0697L138.684 37.0686L138.685 37.0676L138.685 37.0665L138.685 37.0654L138.685 37.0643C138.743 36.8502 138.801 36.6358 138.86 36.4227C138.887 36.3252 138.833 36.2064 138.779 36.0874C138.754 36.0325 138.729 35.9776 138.712 35.9246C138.654 35.9427 138.592 35.9561 138.53 35.9698C138.394 35.999 138.259 36.0282 138.164 36.105C137.569 36.5856 137.158 37.1945 136.886 37.9056C136.747 38.2696 136.56 38.6172 136.374 38.9638C136.335 39.0358 136.296 39.1078 136.258 39.1799C136.235 39.2238 136.172 39.2478 136.11 39.2718C136.081 39.283 136.052 39.2941 136.027 39.3073C136.026 39.283 136.024 39.2582 136.022 39.2333C136.017 39.1801 136.012 39.1269 136.026 39.0788C136.138 38.7038 136.255 38.3298 136.371 37.9557L136.372 37.9547L136.372 37.9534L136.373 37.9516L136.373 37.9503C136.622 37.1515 136.871 36.3522 137.078 35.5436C137.248 34.8819 137.303 34.1869 137.348 33.5029C137.381 33.008 136.916 32.7214 136.507 32.9792C136.294 33.1129 136.119 33.3024 135.944 33.4917C135.874 33.568 135.803 33.6444 135.731 33.7169C135.673 33.7744 135.621 33.8373 135.569 33.9003C135.545 33.9291 135.522 33.9578 135.497 33.9859C135.485 33.9531 135.472 33.9206 135.458 33.888C135.428 33.8164 135.398 33.7448 135.383 33.6701C135.335 33.4233 135.299 33.1741 135.265 32.9251C135.2 32.4553 134.922 32.0071 134.496 31.9978C134.206 31.9913 133.793 32.4008 133.629 32.7188C133.133 33.6838 132.696 34.6816 132.301 35.6909C131.994 36.4753 131.722 37.2724 131.449 38.0693C131.324 38.4325 131.199 38.7961 131.072 39.158C131.044 39.2368 131.012 39.314 130.979 39.3912C130.964 39.4269 130.949 39.4628 130.934 39.4987C130.904 39.4764 130.871 39.4561 130.838 39.4356C130.768 39.3914 130.697 39.3473 130.65 39.2859C130.164 38.646 129.469 38.309 128.763 37.9666L128.677 37.925C128.033 37.6122 127.397 37.6981 126.832 37.9692C126.068 38.3365 126.095 39.6694 126.766 40.2666C127.801 41.1875 128.518 42.2838 128.824 43.6277C129.239 45.4528 128.846 47.1022 127.736 48.6129L127.653 48.7262L127.573 48.8359L127.571 48.8376C127.019 49.5896 126.465 50.3428 125.956 51.1226C124.653 53.1217 123.363 55.1294 122.102 57.1541L122.027 57.2737C120.862 59.1457 119.694 61.0194 118.617 62.9394C118.129 63.8075 117.734 64.7251 117.34 65.642C117.2 65.9658 117.061 66.2895 116.917 66.6109C116.789 66.8979 116.699 66.9987 116.455 66.7067C116.272 66.4885 116.063 66.2834 115.835 66.1116C115.765 66.0591 115.658 66.0519 115.552 66.0448C115.504 66.0415 115.455 66.0383 115.411 66.0307C115.408 66.063 115.4 66.0995 115.393 66.1361C115.376 66.215 115.36 66.2942 115.393 66.3301C115.436 66.3775 115.479 66.4253 115.523 66.4733C115.748 66.7223 115.976 66.9745 116.248 67.1618C117.099 67.7468 117.2 67.6788 117.576 66.7145C117.596 66.6632 117.616 66.6122 117.636 66.5609C117.663 66.4908 117.69 66.421 117.717 66.3509C118.043 65.5079 118.37 64.6589 118.815 63.8767C120.023 61.7527 121.297 59.6637 122.58 57.5813C123.848 55.522 125.139 53.475 126.461 51.4481C126.759 50.9904 127.091 50.5519 127.423 50.1137C127.888 49.5 128.352 48.8863 128.723 48.2229C130.101 45.7571 129.899 43.3037 128.294 40.9815C128.135 40.7512 127.928 40.5509 127.722 40.3508C127.495 40.1303 127.268 39.9101 127.105 39.651C126.93 39.3715 126.911 38.8651 127.059 38.5759C127.159 38.3808 127.719 38.2428 127.994 38.3261C129.316 38.7269 130.573 39.248 130.851 40.8143C130.864 40.8877 130.952 40.9485 131.04 41.0092C131.081 41.0376 131.122 41.0659 131.155 41.0953C131.171 41.072 131.189 41.049 131.207 41.0263C131.246 40.977 131.285 40.9277 131.302 40.8721C131.466 40.3495 131.623 39.8251 131.781 39.3008L131.854 39.0566C131.973 38.6607 132.088 38.2636 132.203 37.8664L132.204 37.8653L132.204 37.8642L132.204 37.8629L132.205 37.8619L132.205 37.8606C132.476 36.9261 132.747 35.991 133.068 35.0731C133.27 34.4971 133.563 33.9507 133.856 33.4056C133.946 33.2364 134.037 33.067 134.125 32.8972C134.186 32.7806 134.344 32.6995 134.475 32.6385C134.509 32.6227 134.664 32.7382 134.673 32.8046C134.688 32.9195 134.708 33.0363 134.729 33.1534C134.787 33.4802 134.845 33.8099 134.776 34.1101C134.634 34.719 134.44 35.3161 134.246 35.9135C134.137 36.2523 134.027 36.5914 133.926 36.9328C133.697 37.7104 133.486 38.4937 133.299 39.2818C133.283 39.3495 133.359 39.4377 133.435 39.5262C133.47 39.5671 133.506 39.608 133.532 39.6469C133.567 39.617 133.608 39.5894 133.65 39.5614C133.739 39.5013 133.828 39.441 133.857 39.3605C134.044 38.8335 134.215 38.3012 134.386 37.7688L134.386 37.7676L134.387 37.7663L134.387 37.7649C134.446 37.5807 134.505 37.3955 134.565 37.2114C134.966 35.9788 135.391 34.758 136.339 33.7956C136.398 33.7357 136.477 33.6944 136.556 33.653C136.574 33.6437 136.592 33.6344 136.61 33.6249C136.628 33.6148 136.647 33.6044 136.665 33.5935C136.677 33.6368 136.695 33.6812 136.712 33.7255C136.75 33.8211 136.788 33.9167 136.768 33.9991C136.436 35.3721 136.089 36.7418 135.735 38.1098C135.683 38.3118 135.622 38.5121 135.561 38.7122C135.462 39.0345 135.363 39.3566 135.303 39.6856C135.276 39.8316 135.342 39.9936 135.408 40.1559C135.438 40.2296 135.468 40.3034 135.489 40.3756C135.548 40.3553 135.614 40.3406 135.68 40.3259C135.825 40.2937 135.969 40.2614 136.038 40.1734C136.392 39.7237 136.719 39.2486 137.002 38.7542C137.169 38.4634 137.314 38.1612 137.459 37.8588C137.58 37.6073 137.701 37.3553 137.834 37.1104C137.882 37.0223 137.984 36.9622 138.086 36.9021C138.133 36.8744 138.18 36.8469 138.222 36.8164C138.217 36.8616 138.215 36.9081 138.213 36.9544C138.209 37.0544 138.204 37.1545 138.169 37.2436L138.101 37.4191L138.016 37.6393C137.649 38.5839 137.282 39.529 136.888 40.4626C136.726 40.847 136.544 41.2234 136.362 41.5998C136.186 41.9658 136.009 42.3318 135.85 42.7049C135.555 43.3997 135.27 44.0988 134.985 44.7982C134.476 46.0439 133.969 47.2897 133.402 48.5095C132.598 50.237 131.956 52.009 131.42 53.825C131.206 54.5486 130.987 55.2715 130.742 55.9853C130.479 56.7478 130.208 57.5073 129.937 58.267C129.407 59.7522 128.876 61.2381 128.414 62.7428C127.733 64.9578 126.975 67.137 125.97 69.2313C124.899 71.4637 123.576 73.5609 122.036 75.5049C121.313 76.4184 120.399 77.265 119.399 77.8759C118.259 78.5729 117.036 79.2162 115.669 79.4833C114.759 79.6609 113.843 79.765 113.009 79.2973C111.474 78.437 110.328 77.1538 109.316 75.7798C108.553 74.7441 107.832 73.6798 107.11 72.6153C106.695 72.003 106.28 71.3904 105.857 70.7834C105.788 70.6843 105.667 70.6192 105.547 70.5539C105.491 70.5238 105.435 70.4935 105.385 70.4598C105.382 70.5162 105.379 70.5727 105.376 70.6291C105.368 70.7793 105.359 70.9298 105.367 71.0791C105.369 71.1107 105.405 71.1383 105.444 71.1675C105.474 71.19 105.505 71.2136 105.522 71.2407C105.825 71.7114 106.127 72.1821 106.43 72.6534L106.431 72.6547L106.431 72.6558ZM101.503 103.502C101.434 103.852 101.378 104.202 101.322 104.548C101.188 105.378 101.057 106.189 100.768 106.943C100.238 108.331 99.0115 109.169 97.5949 109.595C96.2021 110.014 94.7723 110.322 93.3454 110.628L93.3336 110.63L93.3174 110.634C93.1593 110.668 93.0011 110.702 92.843 110.736C92.4642 110.818 92.0689 110.83 91.6741 110.842C91.5178 110.846 91.3614 110.851 91.2061 110.86C90.423 110.906 89.6398 110.951 88.8567 110.996C87.6705 111.063 86.4843 111.131 85.2983 111.203C84.8152 111.232 84.3325 111.268 83.8496 111.304C83.2591 111.348 82.6683 111.392 82.0771 111.423C81.9832 111.429 81.8894 111.434 81.7955 111.439L81.7922 111.439L81.7886 111.439C80.854 111.49 79.9176 111.542 78.9829 111.528C78.3312 111.518 77.6802 111.441 77.03 111.365C76.8599 111.344 76.6895 111.324 76.5196 111.306C76.4511 111.298 76.389 111.235 76.3269 111.171C76.2983 111.142 76.2696 111.113 76.2402 111.089C76.2629 111.065 76.2847 111.036 76.3065 111.007C76.3541 110.944 76.4015 110.881 76.4591 110.87C76.5193 110.859 76.5798 110.847 76.6408 110.835C76.9133 110.781 77.1915 110.726 77.4553 110.759C79.2788 110.988 81.0875 110.838 82.8999 110.64C83.786 110.543 84.6768 110.484 85.5672 110.424L85.7709 110.41C86.3891 110.369 87.0078 110.335 87.6269 110.301L87.628 110.301H87.6291H87.6304L87.6315 110.301C88.8073 110.236 89.9832 110.171 91.1539 110.056C93.4257 109.833 95.6731 109.437 97.7993 108.588C99.0282 108.097 99.8741 107.164 100.195 105.933L100.228 105.808C100.581 104.452 100.941 103.074 100.798 101.647C100.765 101.314 100.708 100.983 100.652 100.651C100.565 100.143 100.479 99.6356 100.476 99.127C100.474 98.4584 100.524 97.7898 100.575 97.1209C100.619 96.538 100.663 95.9552 100.672 95.372C100.679 94.852 100.61 94.3307 100.54 93.8098C100.51 93.5881 100.48 93.3661 100.456 93.1446C100.436 92.9526 100.417 92.76 100.397 92.5677C100.346 92.0551 100.295 91.5413 100.218 91.0323C99.9401 89.2012 99.8327 87.363 99.8641 85.5124C99.8723 85.0274 99.8412 84.542 99.8103 84.0566C99.7891 83.7276 99.7682 83.3982 99.7593 83.0689C99.7395 82.3291 99.7255 81.5894 99.7113 80.8493V80.8483C99.6913 79.7931 99.671 78.7372 99.6343 77.6825C99.6043 76.8159 99.5531 75.95 99.502 75.0841C99.4693 74.5289 99.4364 73.9734 99.4092 73.4179C99.387 72.963 99.3712 72.5078 99.3554 72.0525V72.0512C99.3365 71.5035 99.3176 70.9558 99.2873 70.4087C99.2658 70.0198 99.2286 69.6304 99.1917 69.2413C99.1223 68.5095 99.0529 67.7781 99.0858 67.0509C99.1216 66.2618 99.2644 65.477 99.4074 64.6924C99.4713 64.3422 99.5351 63.9922 99.5894 63.6415C99.6256 63.4073 99.663 63.1732 99.7001 62.939C99.8011 62.303 99.9023 61.6668 99.9846 61.0285C100.031 60.6681 100.065 60.3062 100.1 59.9445C100.139 59.5257 100.179 59.1072 100.238 58.6912C100.25 58.599 100.357 58.5192 100.464 58.4396C100.514 58.4028 100.563 58.3661 100.603 58.328C100.625 58.3717 100.653 58.416 100.681 58.4606C100.742 58.5562 100.803 58.652 100.793 58.7403C100.657 59.9439 100.501 61.1455 100.338 62.346C100.277 62.7936 100.201 63.2405 100.126 63.6874C99.97 64.6141 99.8136 65.5403 99.7876 66.4705C99.7504 67.7971 99.8321 69.1273 99.9135 70.457C99.9415 70.9142 99.9695 71.3715 99.9926 71.8286C100.027 72.499 100.073 73.1685 100.12 73.838L100.12 73.8392V73.8403C100.156 74.3458 100.191 74.8518 100.221 75.3576C100.241 75.7024 100.262 76.0472 100.282 76.392L100.282 76.3941V76.3961L100.282 76.3982C100.385 78.1169 100.487 79.8363 100.566 81.556C100.595 82.1864 100.606 82.8178 100.617 83.449C100.631 84.2742 100.646 85.1003 100.7 85.923C100.765 86.8986 100.875 87.8713 100.985 88.8443L100.985 88.8456L100.985 88.8471C101.043 89.357 101.101 89.8673 101.152 90.3775C101.239 91.251 101.319 92.1254 101.383 93.0006C101.393 93.1358 101.404 93.2712 101.414 93.4066C101.462 94.0101 101.51 94.6149 101.492 95.2171C101.474 95.8354 101.435 96.4532 101.396 97.071C101.345 97.8811 101.294 98.6911 101.291 99.5012C101.289 99.9187 101.368 100.336 101.448 100.753C101.511 101.082 101.574 101.411 101.597 101.742C101.624 102.121 101.588 102.505 101.551 102.906C101.533 103.1 101.515 103.298 101.503 103.502ZM58.695 105.572C59.1839 107.588 60.5233 109.083 62.2409 110.323L62.3839 110.379C63.1328 110.671 63.8533 110.951 64.5882 111.189C64.729 111.234 64.8938 111.209 65.0586 111.185C65.1342 111.174 65.2101 111.162 65.2833 111.158C65.241 111.114 65.1987 111.07 65.1567 111.027C65.033 110.898 64.9094 110.77 64.7792 110.648C64.7626 110.633 64.7303 110.635 64.6963 110.637C64.6671 110.639 64.6367 110.642 64.6135 110.633C64.4214 110.558 64.2198 110.494 64.0183 110.43C63.557 110.283 63.0955 110.136 62.7447 109.858C61.8893 109.178 61.1092 108.379 60.427 107.531C59.7529 106.694 59.4092 105.688 59.4726 104.584C59.4955 104.185 59.508 103.785 59.5202 103.385C59.5375 102.819 59.5549 102.254 59.6025 101.691C59.6385 101.263 59.707 100.838 59.7755 100.412C59.836 100.037 59.8965 99.6617 59.9348 99.2845C60.0184 98.459 60.0705 97.6301 60.1227 96.8016V96.8006L60.123 96.7993C60.1354 96.602 60.1477 96.4049 60.1606 96.2076C60.1655 96.1324 60.1147 96.0275 60.0538 95.9827C60.0037 95.9455 59.8621 95.9446 59.8269 95.9838C59.8025 96.011 59.7762 96.0389 59.7493 96.0673C59.6323 96.1908 59.5071 96.3229 59.4895 96.4631C59.4159 97.0485 59.3647 97.6362 59.3133 98.2241V98.2254C59.29 98.4923 59.2669 98.7595 59.2415 99.0262C59.2337 99.1065 59.2166 99.1859 59.1995 99.2655C59.1866 99.3258 59.1734 99.3862 59.1645 99.447C59.1152 99.7857 59.0618 100.124 59.0084 100.463C58.8794 101.281 58.7504 102.099 58.6768 102.922C58.6712 102.985 58.6654 103.048 58.6596 103.111C58.5844 103.934 58.5059 104.792 58.695 105.572ZM88.9587 49.2988C89.2741 49.0851 89.5918 48.8766 89.9085 48.6687C91.1701 47.8404 92.4157 47.0226 93.4366 45.9388C93.9749 45.3675 94.4522 44.7417 94.9293 44.1162C95.1393 43.8408 95.3495 43.5652 95.5648 43.2944C95.5888 43.2643 95.6091 43.2286 95.6293 43.1934C95.6658 43.1293 95.7018 43.0662 95.7572 43.0391C95.8693 42.9842 95.9941 42.9537 96.1186 42.923C96.1707 42.9104 96.2227 42.8977 96.2737 42.8832C96.2572 42.9331 96.2443 42.9855 96.2314 43.038C96.2038 43.1516 96.176 43.2652 96.1109 43.3521C95.977 43.531 95.8437 43.7106 95.7105 43.8903C95.1729 44.615 94.6348 45.3403 94.0487 46.0264C93.5205 46.6451 92.938 47.2436 92.2869 47.7347C91.1568 48.5869 89.9953 49.4146 88.7719 50.1314C87.4338 50.9156 86.0292 51.6006 84.6163 52.2524C83.9161 52.5753 83.1528 52.5334 82.4595 52.0943C80.3633 50.7663 78.3197 49.3719 76.5774 47.6085C76.0954 47.1205 75.6499 46.5949 75.2286 46.0563C75.1603 45.9691 75.1694 45.8248 75.1783 45.6803C75.1826 45.6139 75.1866 45.5475 75.1832 45.4865C75.2457 45.498 75.3156 45.5027 75.3852 45.5075C75.5367 45.5179 75.6884 45.5283 75.7666 45.6072C75.9777 45.8203 76.1708 46.0507 76.3639 46.2808C76.5878 46.5475 76.8114 46.814 77.0627 47.0537C77.7111 47.6719 78.3928 48.2627 79.105 48.8104C79.9589 49.4673 80.8373 50.0944 81.7152 50.7215C81.9103 50.8606 82.1051 50.9999 82.3 51.1394C82.4283 51.2314 82.5667 51.3106 82.705 51.3895C82.8494 51.4717 82.9939 51.5546 83.1267 51.6515C83.6812 52.0562 84.1588 51.791 84.5967 51.5478C84.7055 51.4875 84.8118 51.4284 84.9162 51.3815C85.9547 50.9134 86.9587 50.3728 87.9774 49.8243L87.9785 49.8236L87.9805 49.8225C88.3046 49.6482 88.6302 49.4727 88.9587 49.2988ZM133.716 43.5881C133.888 43.3826 134.063 43.1737 134.245 42.9584C134.369 42.945 134.487 42.9435 134.601 42.942C134.727 42.9405 134.848 42.939 134.967 42.9215C135.067 42.9067 135.16 42.8514 135.254 42.796C135.296 42.7711 135.338 42.7462 135.38 42.725C135.346 42.6872 135.315 42.6428 135.284 42.5987C135.216 42.5031 135.148 42.4075 135.057 42.3742C134.191 42.0605 132.664 43.2146 132.71 44.1421C132.714 44.2289 132.766 44.3132 132.817 44.3978C132.841 44.437 132.865 44.4759 132.884 44.5153C132.914 44.4867 132.944 44.4588 132.975 44.4311C133.042 44.3703 133.109 44.3089 133.167 44.241C133.35 44.0255 133.531 43.809 133.716 43.5881ZM90.3558 28.0137C90.6354 28.0782 90.8861 28.171 91.1367 28.2638C91.0987 28.3254 91.0644 28.3908 91.0302 28.4563C90.9564 28.5971 90.8823 28.7382 90.7722 28.8431C89.4212 30.1295 87.7757 30.8812 85.9451 31.2545C85.7233 31.2998 85.476 31.2405 85.2344 31.1827C85.1615 31.165 85.0888 31.1477 85.0176 31.1334C84.9515 31.12 84.8519 30.945 84.8639 30.9327C84.8897 30.9058 84.9161 30.8762 84.9428 30.8461C85.0412 30.736 85.1459 30.6184 85.2631 30.6013C87.0979 30.3341 88.6369 29.5145 89.9666 28.2835C90.0293 28.2253 90.1034 28.1783 90.185 28.1269C90.239 28.0929 90.2962 28.0566 90.3558 28.0137ZM131.3 44.5083C131.575 43.8451 131.353 43.2165 131.102 42.5624C131.072 42.5284 131.042 42.4951 131.012 42.4618C130.977 42.4218 130.942 42.3824 130.907 42.3432C130.725 42.138 130.554 41.9448 130.375 41.7594C130.364 41.7473 130.146 41.8849 130.153 41.9002C130.243 42.1081 130.35 42.3102 130.465 42.5068C130.817 43.1103 130.863 43.7657 130.85 44.4398C130.848 44.5336 130.905 44.6286 130.963 44.7236C130.989 44.7675 131.016 44.8112 131.036 44.8549C131.065 44.8187 131.096 44.7837 131.128 44.7487C131.196 44.6725 131.264 44.5966 131.3 44.5083ZM81.1587 5.53976C81.3865 5.64295 81.6096 5.75435 81.8307 5.86467C82.3852 6.14155 82.9279 6.41259 83.5042 6.53308L83.5941 6.5519C84.456 6.73274 85.3837 6.9272 86.25 6.4697C86.5536 6.30941 86.8392 6.11192 87.1159 5.90945C87.2845 5.78593 87.4365 5.63256 87.5692 5.47163C88.6224 4.19494 89.3996 4.38551 90.8496 5.21918C92.7051 6.28561 93.3808 8.10611 94.0338 9.9171C94.3604 10.8219 94.5654 11.7709 94.7696 12.7147L94.7699 12.7162C94.7972 12.8423 94.8246 12.9689 94.8521 13.0945C94.9869 13.7113 95.0439 14.3472 95.0939 14.9775C95.1533 15.7251 95.1813 16.4755 95.2094 17.2253L95.2145 17.3631C95.2298 17.7734 95.2381 18.1842 95.2461 18.5952C95.2619 19.3956 95.2777 20.1966 95.347 20.9926C95.4531 22.2102 95.2532 23.3837 94.9738 24.5479C94.6522 25.8884 93.6043 26.5348 92.3343 26.8361C91.7994 26.9629 91.2411 26.9996 90.6839 27.0362C90.4915 27.0487 90.2989 27.0615 90.1078 27.0777C88.1413 27.2458 86.1873 27.4825 84.2876 28.0302C83.6984 28.2 83.1354 28.1219 82.6414 27.8024C81.644 27.1576 80.5174 26.922 79.3686 26.7411C77.226 26.4043 75.1921 25.8359 73.622 24.2509C73.2074 23.8326 72.9416 23.3848 72.9683 22.7547C73.0157 21.6374 72.8497 20.5377 72.684 19.439C72.5895 18.8115 72.495 18.1844 72.4403 17.5547C72.2746 15.6507 72.3473 13.7379 72.9458 11.8416C73.6133 9.72653 74.6318 7.858 76.2475 6.33299C76.6913 5.91399 77.2275 5.58822 77.7643 5.26202C78.0261 5.10303 78.2881 4.94382 78.5394 4.7738L78.5817 4.74524C78.8566 4.55943 79.1344 4.37145 79.3768 4.14951C79.7458 3.81141 79.9698 3.99009 80.2003 4.30072C80.4754 4.67191 80.7614 5.0351 81.0662 5.42209L81.1587 5.53976ZM93.0625 8.96467C93.0318 8.89328 93.0007 8.82211 92.9698 8.75073C92.903 8.59758 92.8361 8.44357 92.7718 8.28933C92.159 6.81775 91.0762 5.78506 89.5936 5.16403C89.3631 5.06755 88.9623 5.12357 88.7546 5.26634C88.5817 5.3851 88.4603 5.57178 88.338 5.75997C88.2686 5.86661 88.1989 5.97347 88.1195 6.06908C87.4102 6.92223 86.5786 7.58912 85.3646 7.48399C84.6132 7.41888 83.8543 7.32501 83.127 7.13962C81.9868 6.84911 80.9487 6.32758 80.2114 5.39786C80.1863 5.36628 80.1625 5.33621 80.1395 5.30723C79.6551 4.69376 79.6489 4.68597 78.9885 5.11708C78.7707 5.2592 78.5468 5.39526 78.3228 5.53154C77.7647 5.87116 77.2057 6.2112 76.7395 6.64448C75.1632 8.11001 74.1278 9.87167 73.5066 11.9569C72.9467 13.8363 72.9129 15.6996 73.0048 17.5841C73.0793 19.1143 73.3297 20.6407 73.5798 22.1568C73.5853 22.1897 73.5907 22.2228 73.596 22.2561L73.5962 22.2572C73.7056 22.9286 73.8182 23.6193 74.421 24.1391C75.5625 25.1236 76.915 25.6533 78.3695 25.9352C78.5668 25.9735 78.7643 26.0102 78.9616 26.0472C80.3484 26.3059 81.727 26.5633 82.9761 27.2889C83.2675 27.4582 83.7086 27.4954 84.0565 27.4427C84.839 27.3235 85.6186 27.1848 86.3982 27.0459C87.206 26.9021 88.0141 26.7585 88.8255 26.6365C89.2853 26.5672 89.7513 26.53 90.217 26.4928C90.8527 26.442 91.4875 26.3912 92.1052 26.2594C92.9557 26.0781 93.9122 25.7976 94.188 24.8296C94.456 23.8888 94.6871 22.9107 94.7238 21.9414C94.7745 20.6013 94.7165 19.2562 94.6584 17.9132C94.648 17.6689 94.6373 17.4247 94.6275 17.1807C94.6073 16.6834 94.5643 16.187 94.5212 15.6903C94.4738 15.1437 94.4264 14.5968 94.4095 14.0493C94.357 12.3431 93.7576 10.7789 93.1348 9.15351L93.0625 8.96467ZM91.8756 14.6111C90.8901 13.8622 89.7343 13.7089 88.4641 13.833C88.346 13.8536 88.2459 13.8765 88.1531 13.8977C88.0753 13.9154 88.0028 13.9321 87.9298 13.9451C86.7294 14.1573 85.7002 14.6338 84.9931 15.6583C84.919 15.7658 84.6417 15.8203 84.4887 15.7831C83.814 15.6187 83.1879 15.6049 82.6641 16.1353C82.5991 16.2008 82.5389 16.2709 82.4786 16.341C82.4508 16.3732 82.423 16.4052 82.3947 16.437C82.3841 16.3903 82.3694 16.3429 82.3547 16.2958C82.3231 16.1937 82.2915 16.0918 82.3002 15.9934C82.405 14.8212 81.8278 14.0913 80.7764 13.5983C79.7926 13.1372 78.7592 13.0387 77.6962 13.04C76.0774 13.042 74.6986 14.0615 74.1296 15.5525C73.7819 16.463 73.8762 17.3481 74.1759 18.1892C74.4686 19.0101 74.8011 19.8877 75.6703 20.3428C75.7804 20.4003 75.8912 20.4609 76.0026 20.5217C76.5133 20.8003 77.0392 21.0871 77.5828 21.1505C77.6315 21.1561 77.6804 21.162 77.7298 21.1678C78.5361 21.2639 79.4009 21.367 80.1627 20.8377C81.314 20.0376 81.9421 18.9069 82.2753 17.6235C82.4328 17.018 82.7504 16.6536 83.3056 16.4115C84.1412 16.0472 84.6652 16.3678 84.7524 17.2093C84.8545 18.1935 85.0772 19.1617 85.6704 20.0047C86.3653 20.9926 87.3088 21.5933 88.4739 22.0112C89.8778 22.5146 90.8865 22.2079 91.9046 21.4073C93.7963 19.9197 93.9845 16.2134 91.8756 14.6111ZM87.4818 14.6557C88.2755 14.4255 89.1369 14.3511 89.9775 14.5689C90.9319 14.6388 91.5587 15.1623 92.0213 15.7978C92.4855 16.4359 92.9064 17.1593 92.8768 17.9863C92.845 18.8734 92.502 19.672 91.9288 20.37C91.437 20.9688 90.7964 21.3517 90.0364 21.5156C89.8769 21.55 89.6979 21.5053 89.521 21.4611C89.4579 21.4453 89.3951 21.4296 89.3335 21.4174C87.3108 21.0231 85.9567 19.9459 85.5538 17.9032C85.528 17.7728 85.4956 17.6436 85.4631 17.5147C85.3323 16.9968 85.2031 16.4846 85.5298 15.9313C85.9769 15.174 86.7352 14.8722 87.4818 14.6557ZM81.5938 15.9899C81.7199 17.0308 81.3733 17.9666 80.8969 18.8714C80.801 18.9952 80.7187 19.113 80.6409 19.2244C80.527 19.3873 80.4231 19.5364 80.3008 19.6694C79.6277 20.4027 78.823 20.6333 77.8018 20.4237C77.0863 20.2768 76.4495 20.0968 75.8545 19.654C75.1376 19.1206 74.8302 18.3845 74.6245 17.6099C74.2969 16.3758 74.7433 15.3399 75.6528 14.4539C76.3874 13.7383 77.3163 13.6494 78.2443 13.74C79.1375 13.8274 80.0099 14.0429 80.7982 14.557C81.3633 14.9256 81.5239 15.4139 81.5938 15.9899ZM81.3624 11.682C81.9548 11.7145 82.4466 11.6535 82.895 11.3015C82.977 11.2368 83.1494 11.281 83.3218 11.3251C83.4008 11.3454 83.4799 11.3658 83.5502 11.3755C83.5171 11.4127 83.4851 11.451 83.453 11.4895C83.3836 11.5725 83.3142 11.6556 83.2337 11.7266C82.4835 12.3861 81.6578 12.34 80.7445 12.0653C79.9463 11.825 79.1079 11.6398 78.2772 11.5896C77.0296 11.5141 75.9626 11.9864 75.1283 12.9219C75.0562 13.0026 74.9448 13.0502 74.8331 13.0976C74.7815 13.1196 74.7299 13.1417 74.6821 13.167C74.6972 13.1015 74.7059 13.0305 74.7144 12.9596C74.7328 12.8066 74.7513 12.6539 74.8365 12.5559C76.2286 10.9552 78.0416 10.8888 79.9609 11.2881C80.2299 11.3441 80.4932 11.4248 80.7679 11.5087C80.959 11.5671 81.1551 11.6273 81.3624 11.682ZM90.5511 12.0869C89.4172 11.9178 88.2884 11.9368 87.2708 12.6727C87.1222 12.7794 86.9756 12.8817 86.8315 12.9821C86.5428 13.1834 86.2641 13.3779 85.9987 13.5884C85.9389 13.636 85.9297 13.7437 85.9204 13.8516C85.9162 13.9012 85.912 13.9509 85.9028 13.9946C85.9426 13.9896 85.9845 13.9879 86.0263 13.9864C86.1186 13.9827 86.2111 13.979 86.2818 13.939C86.4849 13.8246 86.6693 13.6762 86.8515 13.5298L86.8599 13.5228C87.9892 12.6148 89.2439 12.2481 90.6897 12.655C91.1924 12.7965 91.6995 12.9267 92.2111 13.0303C92.2943 13.0472 92.3899 13.0043 92.4858 12.9613C92.5298 12.9416 92.5741 12.9219 92.6168 12.9079C92.5843 12.8743 92.5536 12.8352 92.5231 12.796C92.4566 12.711 92.3901 12.626 92.304 12.5972C92.1942 12.5605 92.0843 12.5224 91.9744 12.4843C91.5062 12.3223 91.0351 12.1592 90.5511 12.0869ZM84.4186 23.9379C83.736 23.9851 83.082 24.0238 82.4299 24.0056C82.3433 24.003 82.2599 23.8966 82.1767 23.7902C82.1383 23.7411 82.0998 23.692 82.0611 23.653C82.1111 23.6325 82.1612 23.607 82.211 23.5814C82.3198 23.5259 82.4285 23.4705 82.5397 23.4655C83.1405 23.4389 83.7431 23.4408 84.3445 23.4473C84.4882 23.4491 84.6317 23.4713 84.7751 23.4938C84.8405 23.504 84.9059 23.5142 84.9715 23.5226C84.7972 23.6513 84.6219 23.7807 84.4186 23.9379ZM88.0268 15.7868C87.6122 16.2348 87.6573 17.1779 88.1438 17.6542C89.13 17.6826 89.7217 16.7208 89.2624 15.9116C89.0075 15.4623 88.3851 15.3996 88.0268 15.7868ZM79.267 15.1917C79.4747 15.7881 79.3388 16.4057 78.8759 16.7383C78.7414 16.835 78.4004 16.8653 78.3056 16.7751C77.7705 16.2672 77.6808 15.4076 78.4464 14.9615C78.7952 14.7582 79.0439 14.8523 79.267 15.1917ZM116.99 12.4653C117.291 12.9048 117.593 13.3474 118.004 13.7262C118.031 14.5847 118.039 15.3855 117.813 16.1684C117.772 16.3087 117.802 16.4409 117.833 16.5744C117.857 16.6832 118.019 16.7615 118.113 16.7094C118.235 16.6419 118.355 16.5703 118.47 16.4915C118.547 16.4388 118.623 16.3851 118.7 16.3315C119.024 16.1037 119.348 15.8761 119.711 15.7048C119.755 15.684 119.799 15.6635 119.843 15.6427C120.012 15.5644 120.18 15.4859 120.34 15.3942C120.518 15.2927 120.69 15.2784 120.88 15.3416C121.537 15.5594 122.213 15.6942 122.89 15.829C122.998 15.8506 123.106 15.872 123.214 15.8939C123.246 15.9006 123.279 15.9075 123.311 15.9146C123.394 15.9326 123.476 15.9508 123.56 15.9607C123.829 15.9934 124.099 16.0187 124.369 16.044C124.801 16.0844 125.234 16.1251 125.663 16.1958C125.755 16.2112 125.853 16.2177 125.945 16.2058C126.163 16.1777 126.382 16.1586 126.601 16.1396C127.039 16.1017 127.477 16.0637 127.904 15.9529C128.196 15.8772 128.486 15.7924 128.776 15.7076C128.892 15.6739 129.008 15.6399 129.124 15.6066C129.178 15.5912 129.232 15.5757 129.286 15.5603C129.593 15.4723 129.9 15.3842 130.206 15.2934C130.296 15.267 130.384 15.2345 130.467 15.1939C130.54 15.1586 130.612 15.1236 130.684 15.0887C131.285 14.7978 131.885 14.5073 132.429 14.1134C132.497 14.0638 132.567 14.0156 132.636 13.9674C132.853 13.8168 133.07 13.6667 133.256 13.4753C133.368 13.3593 133.493 13.2546 133.618 13.1506L133.619 13.1493C133.98 12.8479 134.27 12.4876 134.538 12.1094C134.872 11.6364 135.009 11.0893 135.145 10.5431L135.153 10.5115C135.137 10.3173 135.175 10.1302 135.213 9.94284C135.23 9.86129 135.247 9.77952 135.259 9.69711C135.43 8.54783 135.278 7.46085 134.573 6.48462C134.487 6.36544 134.416 6.23608 134.345 6.10672C134.316 6.05373 134.287 6.00094 134.257 5.94881C134.084 5.6477 133.89 5.3613 133.636 5.11687C133.083 4.58301 132.498 4.09154 131.809 3.72143C131.319 3.45882 130.81 3.24467 130.299 3.03009C130.183 2.98163 130.068 2.93318 129.952 2.88407C129.057 2.50293 128.124 2.29094 127.159 2.19555C126.862 2.16634 126.563 2.1512 126.264 2.13606C126.116 2.12849 125.967 2.12092 125.819 2.11162C124.995 2.05992 124.17 2.04218 123.346 2.10621C122.642 2.16094 121.939 2.22605 121.236 2.29116C121.096 2.30414 120.955 2.31712 120.815 2.33009C120.747 2.33637 120.678 2.36232 120.615 2.39131C120.285 2.54381 119.945 2.671 119.604 2.79841C119.419 2.86785 119.233 2.93729 119.049 3.01083C118.248 3.33098 117.561 3.79043 117.073 4.50405C117.003 4.60723 116.926 4.70609 116.848 4.80473C116.783 4.88822 116.718 4.97172 116.656 5.05803C116.212 5.68383 115.833 6.34186 115.677 7.09744C115.647 7.24562 115.629 7.39617 115.611 7.54694C115.599 7.64645 115.587 7.74617 115.571 7.84502C115.492 8.34514 115.488 8.83661 115.592 9.34084C115.77 10.2044 116.135 10.9941 116.509 11.7841C116.519 11.8047 116.532 11.8239 116.546 11.8423C116.702 12.0443 116.845 12.2544 116.99 12.4653ZM118.439 15.6992C118.435 15.6996 118.432 15.6998 118.428 15.7003C118.426 15.7044 118.431 15.7102 118.445 15.7176C118.443 15.7115 118.441 15.7052 118.439 15.6992ZM118.497 15.6972C118.477 15.6974 118.458 15.6977 118.439 15.6992C118.399 15.569 118.421 15.4372 118.459 15.312C118.551 15.0057 118.591 14.6914 118.631 14.3768C118.655 14.1912 118.679 14.0057 118.713 13.8218C118.735 13.7061 118.708 13.5879 118.582 13.5311C118.18 13.3507 117.918 13.0232 117.667 12.6924C117.457 12.4166 117.258 12.1285 117.096 11.825C116.945 11.5427 116.833 11.2377 116.73 10.9342C116.597 10.5429 116.483 10.1453 116.377 9.74642C116.281 9.38951 116.272 9.02113 116.275 8.65404C116.276 8.57444 116.281 8.49483 116.287 8.41501C116.294 8.3114 116.301 8.20778 116.298 8.10439C116.26 6.97652 116.726 6.01155 117.321 5.08897C117.695 4.50924 118.232 4.0857 118.845 3.78546C119.557 3.43611 120.298 3.12981 121.086 2.96627C121.824 2.81334 122.565 2.68658 123.322 2.66192C123.602 2.65283 123.879 2.63812 124.155 2.54554C124.346 2.48173 124.565 2.48346 124.776 2.48497C124.802 2.48519 124.828 2.48541 124.854 2.48541C125.136 2.48627 125.419 2.50466 125.7 2.53494C125.724 2.53754 125.749 2.54035 125.773 2.54295C126.053 2.57345 126.332 2.60373 126.615 2.60719C126.803 2.60979 126.992 2.6498 127.178 2.68917C127.2 2.69372 127.221 2.69826 127.242 2.70259C127.736 2.8062 128.215 2.95805 128.695 3.10991C128.999 3.20638 129.303 3.30286 129.61 3.38679C129.787 3.4705 129.963 3.55378 130.139 3.63728C130.534 3.82374 130.929 4.01042 131.322 4.20078C132.087 4.57197 132.696 5.1398 133.305 5.70697L133.369 5.76711C133.789 6.15756 134.037 6.65594 134.223 7.17596C134.4 7.67241 134.522 8.18507 134.559 8.71677C134.621 9.60279 134.465 10.4456 134.142 11.2732C133.805 12.1352 133.262 12.851 132.513 13.3892C131.545 14.0844 130.491 14.6472 129.34 15.0158C128.85 15.1731 128.359 15.3299 127.85 15.4333C127.082 15.5891 126.307 15.6023 125.529 15.6103C125.498 15.6107 125.466 15.6092 125.434 15.6077C125.395 15.6059 125.356 15.6042 125.317 15.6055C123.904 15.6568 122.563 15.3187 121.236 14.8992C121.109 14.8592 120.981 14.8235 120.853 14.7878C120.778 14.7669 120.703 14.7459 120.628 14.724C120.482 14.6816 120.346 14.7054 120.223 14.7859C119.986 14.9414 119.732 15.068 119.478 15.1947C119.187 15.3394 118.896 15.4844 118.631 15.6724C118.598 15.6959 118.547 15.6966 118.497 15.6972Z" fill="#00160A"/>
<path fill-rule="evenodd" clip-rule="evenodd" d="M101.688 53.4841C101.79 53.3949 101.894 53.3041 102.003 53.2141C102.075 53.1194 102.149 53.0291 102.221 52.9406C102.396 52.7258 102.562 52.5222 102.679 52.2932C102.968 51.7255 102.814 51.521 102.205 51.2486C101.928 51.1244 101.673 50.9511 101.418 50.7774C101.25 50.6636 101.083 50.5496 100.909 50.4493L100.869 50.4267C100.634 50.2907 100.377 50.1421 100.12 50.121C98.778 50.0107 97.6275 51.775 98.1622 53.0528C98.715 54.3739 99.8169 54.7734 100.97 54.0489C101.223 53.8902 101.45 53.6917 101.688 53.4841ZM98.6491 52.5151C98.613 52.0696 98.6747 51.6619 99.0009 51.3273C99.0851 51.2632 99.1564 51.2166 99.219 51.1761C99.2795 51.1366 99.3321 51.1024 99.3798 51.0629C99.9443 50.5944 100.307 50.625 100.869 51.0796C101.2 51.3482 101.596 51.557 101.993 51.7213C102.298 51.8476 102.329 52.0201 102.141 52.1996C102.022 52.3136 101.904 52.4312 101.786 52.549L101.786 52.5492C101.369 52.9641 100.949 53.3825 100.455 53.6684C99.7031 54.1039 98.7212 53.4093 98.6491 52.5151ZM64.4983 53.3592L64.5845 53.2831C65.0676 52.8558 65.531 52.4461 66.0493 52.1237C66.6247 51.7659 67.2788 51.9194 67.785 52.3911C68.5634 53.1163 69.0796 53.032 69.5876 52.413C69.6364 52.3536 69.6903 52.2943 69.7524 52.2498C69.8199 52.2014 69.8869 52.1481 69.9542 52.0945C70.2557 51.854 70.5659 51.6069 70.9802 51.7655C71.4911 51.9611 71.6964 52.4232 71.8576 52.9497C72.2249 54.1487 71.4781 55.1669 70.543 55.698C69.4687 56.3081 68.3115 56.5463 67.1245 56.7231C66.2715 56.8502 64.6284 56.1117 64.2587 55.5106C63.7817 54.7346 64.0728 54.0753 64.4983 53.3592ZM69.6602 55.4331H69.6604C70.5394 55.0001 71.4131 54.5697 71.2655 53.3106C71.2577 53.244 71.2539 53.1744 71.2501 53.1045C71.2332 52.7882 71.2162 52.4689 70.8181 52.4286C70.5646 52.4026 70.2303 52.6142 70.0205 52.8112C69.1511 53.6283 68.43 53.7057 67.5184 52.8494C67.2403 52.5883 66.9289 52.3174 66.4002 52.5257C65.4796 52.8884 65.0702 53.6438 64.7562 54.4513C64.613 54.8193 64.65 55.3364 65.2039 55.5101C65.3685 55.5618 65.5335 55.6235 65.6989 55.6854C66.1216 55.8433 66.5466 56.0022 66.9668 55.9944C67.6314 55.982 68.2928 55.814 68.9847 55.6383C69.1578 55.5942 69.3331 55.5498 69.5105 55.5072C69.5602 55.4824 69.6103 55.4578 69.6602 55.4331ZM89.0641 85.1442C89.0409 85.1915 89.0177 85.2387 88.9948 85.2858C88.6166 86.0617 88.2512 86.8118 87.4016 87.1421C86.5168 87.486 85.0881 87.5989 84.3933 86.7193C83.9813 86.198 83.9541 85.5056 84.4158 85.0111C84.5616 84.8547 84.7166 84.7025 84.8719 84.5504C85.2652 84.1646 85.6591 83.7781 85.9112 83.3156C86.1522 82.8735 86.26 82.3595 86.3675 81.8453L86.3678 81.845C86.4172 81.6079 86.4671 81.3707 86.5297 81.1405C86.7294 80.4077 86.9388 79.6652 87.6615 79.2582C88.1819 78.9649 88.5964 79.1555 88.9852 79.6278C89.6916 80.4856 89.6242 81.4546 89.5574 82.4141C89.5402 82.6627 89.5228 82.9108 89.519 83.1561C89.5119 83.6337 89.3687 84.1093 89.222 84.5963V84.5965C89.1674 84.7773 89.1126 84.9597 89.0641 85.1442ZM87.3281 81.5025C87.3218 81.5418 87.3156 81.581 87.3094 81.6203C87.1844 82.4096 87.0582 83.2058 86.5203 83.8418C86.1128 84.3239 85.6522 84.7704 85.1683 85.1771C84.7115 85.5611 84.6327 86.0136 85.044 86.4229C85.768 87.1432 87.5236 86.8158 88.0352 85.8299C88.3392 85.2445 88.5973 84.6273 88.8015 84.0004C89.1794 82.8402 88.9454 81.7059 88.5158 80.6054C88.4507 80.4388 88.2681 80.2207 88.1256 80.2096C87.9915 80.1994 87.8051 80.4093 87.7024 80.5626C87.5543 80.7838 87.4613 81.0415 87.3448 81.3998C87.3392 81.434 87.3336 81.4684 87.3281 81.5025ZM87.4232 57.1717C86.8887 56.7892 86.3807 56.783 85.8319 56.9081C84.934 57.1129 83.9632 58.1553 83.9632 59.2221C83.9632 60.2963 84.4429 61.0823 85.3273 61.5889C86.1807 62.0781 87.0791 62.4191 88.1376 62.3226C89.3772 62.2096 90.3141 61.7263 90.821 60.5975C90.9265 60.3626 90.9165 60.0762 90.9067 59.7898C90.902 59.6585 90.8976 59.5274 90.9041 59.4012C90.7952 59.4016 90.6829 59.3934 90.5707 59.3852C90.3181 59.3668 90.0653 59.3484 89.8504 59.4289C89.4498 59.5793 89.2355 59.4411 89.101 59.1434C88.7289 58.3204 88.1654 57.7028 87.4232 57.1717ZM85.5404 57.7817C86.0569 57.5395 87.0083 57.27 87.5731 57.7817C88.1376 58.2937 88.3516 58.7734 88.4935 59.1015C88.8358 59.893 89.3173 60.1534 90.1304 59.9354C90.207 59.9147 90.2892 59.9147 90.3713 59.9147C90.4094 59.9147 90.4475 59.9147 90.4851 59.9127C90.4736 59.9502 90.4633 59.9881 90.4529 60.0261C90.4306 60.1079 90.4083 60.1896 90.3742 60.2663C89.5709 62.0788 86.9891 61.8083 85.7821 61.0432C85.0458 60.5765 84.6273 59.9677 84.663 59.0806C84.6875 58.4659 85.009 58.0311 85.5404 57.7817ZM90.8125 72.14C90.6751 72.2558 90.5451 72.3783 90.417 72.4992C90.1277 72.7718 89.8482 73.0352 89.5175 73.1904C88.7953 73.5299 88.0243 73.3555 87.3218 73.0112C86.1359 72.4302 85.4046 71.5468 85.4778 70.149C85.53 69.153 86.1273 68.572 86.9337 68.093C87.6138 67.6891 88.2779 67.6041 88.989 67.9451C89.5204 68.2 89.6667 68.6938 89.8112 69.1814C89.8402 69.279 89.8691 69.3766 89.901 69.4718C89.9424 69.5955 89.9538 69.7298 89.9649 69.8637C89.9772 70.0093 89.9892 70.1548 90.0402 70.2857C90.1141 70.4754 90.2934 70.7101 90.4718 70.7593C91.3508 71.0022 91.4383 71.217 90.8849 71.9555C90.87 71.9752 90.8626 72.0007 90.8537 72.0313C90.8446 72.0624 90.8341 72.0988 90.8125 72.14ZM89.6761 72.227C89.7012 72.2141 89.7275 72.2024 89.7538 72.1908C89.8106 72.1656 89.8674 72.1405 89.9137 72.1028C90.4691 71.6509 90.4673 71.6493 89.9333 71.1883L89.9052 71.1642C89.7491 71.0291 89.6226 70.8157 89.5689 70.6153C89.5139 70.4086 89.4758 70.1956 89.438 69.9831C89.3765 69.6388 89.3153 69.2956 89.1812 68.9819C89.0625 68.7038 88.6783 68.4214 88.3717 68.3639C87.745 68.2463 86.3622 69.3597 86.3068 69.996C86.2321 70.8536 86.4907 71.5841 87.2898 72.0644C88.0398 72.5149 88.7875 72.7754 89.6761 72.227ZM57.6727 61.3944C58.9581 60.5722 59.7808 59.4812 59.9523 57.8876C59.9523 57.746 59.9572 57.6098 59.9618 57.4778C59.9719 57.1948 59.9812 56.9297 59.9411 56.6728C59.8538 56.1148 59.6694 55.5725 58.8966 55.6971C58.5187 55.7581 58.1303 55.9312 57.8123 56.1483C57.154 56.5982 56.9319 57.3423 56.7206 58.0499L56.7017 58.1134C56.3885 59.1591 55.903 59.895 54.6586 59.8943C54.4416 59.8943 54.0889 60.3001 54.0336 60.5667C53.8829 61.293 54.61 62.0382 55.3917 62.0679C56.2293 62.0998 56.9633 61.848 57.6727 61.3944ZM56.0164 61.4403C55.9485 61.4549 55.8808 61.4696 55.8142 61.4869C55.2514 61.5492 54.983 61.256 54.7243 60.9731C54.7038 60.9509 54.6835 60.9287 54.6632 60.9068C54.6216 60.862 54.6436 60.6796 54.6955 60.6424C54.708 60.6333 54.7205 60.6242 54.7332 60.6151C54.8964 60.4964 55.0739 60.3675 55.2612 60.3358C56.2079 60.1752 56.7317 59.6263 57.0591 58.7348C57.3348 57.9838 57.7493 57.2706 58.1953 56.6024C58.3379 56.3888 58.784 56.2868 59.0784 56.3081C59.1933 56.3163 59.351 56.8028 59.3572 57.0743C59.4055 59.2188 58.2089 60.5543 56.4429 61.3192C56.3084 61.3775 56.1623 61.409 56.0164 61.4403ZM58.5243 66.5666C58.7539 65.8744 59.2536 65.4314 59.7463 64.9944H59.7465C59.9206 64.8398 60.0941 64.6858 60.2545 64.5221C60.5725 64.1971 61.3054 64.6228 61.4678 65.1736C61.5357 65.4037 61.6018 65.6344 61.668 65.8651C61.8348 66.4463 62.0014 67.0273 62.1949 67.5994C62.3626 68.0957 62.2931 68.4839 61.9363 68.8724C61.666 69.1665 61.4214 69.5026 61.2433 69.8589C60.8054 70.7345 60.1609 70.9525 59.1835 70.1903C57.8925 69.1836 58.0642 67.9191 58.5243 66.5666ZM61.5842 67.8148C61.5116 67.634 61.4393 67.4532 61.3667 67.2724L61.3662 67.2716C61.1667 66.7742 60.9671 66.2768 60.7687 65.7788C60.7282 65.6768 60.691 65.5734 60.6536 65.4698C60.6364 65.4221 60.6195 65.3744 60.6019 65.3269C60.5516 65.3509 60.4994 65.3726 60.4476 65.3944C60.3349 65.4416 60.2217 65.4886 60.1258 65.5587C59.4138 66.0783 59.0773 66.8521 58.928 67.66C58.8091 68.3036 58.7808 69.0372 59.2939 69.5698C59.5293 69.8143 59.905 69.9602 60.244 70.0452C60.2957 70.0581 60.3885 69.8972 60.4868 69.7267C60.5427 69.6297 60.6001 69.5299 60.6531 69.4567C60.7429 69.3327 60.8362 69.2109 60.9293 69.0891C61.0823 68.8892 61.2355 68.6889 61.3733 68.479C61.4673 68.3357 61.5074 68.1571 61.5638 67.9058C61.5702 67.8765 61.5771 67.8461 61.5842 67.8148ZM74.7185 64.4431C73.5446 64.0005 72.375 64.2681 72.3079 65.783C72.379 65.9452 72.4445 66.1074 72.509 66.2675C72.6921 66.7214 72.8681 67.1573 73.1393 67.5229C74.1183 68.842 75.3566 69.2384 76.7335 68.6889C77.609 68.3397 77.613 67.5415 77.0268 67.0406C76.4759 66.5701 76.0015 66.0404 75.71 65.3278C75.557 64.9542 75.1138 64.5922 74.7185 64.4431ZM75.8873 68.1152C75.2543 68.2301 74.6167 68.3459 74.1148 67.7567C73.4907 67.1453 73.0598 66.5249 73.0041 65.7014C72.9819 65.3702 73.1133 65.1903 73.4244 65.0669C73.8613 64.8937 74.8666 65.1051 74.9635 65.535C75.1009 66.1442 75.4628 66.5852 75.8251 67.0269C75.9681 67.2012 76.1113 67.3756 76.2407 67.5606C76.3158 67.668 76.3959 67.863 76.3483 67.9417C76.2895 68.038 76.1026 68.0764 75.9641 68.1015L75.9273 68.1079L75.8873 68.1152ZM71.8418 79.9483C71.865 79.8072 71.879 79.6659 71.8926 79.5277C71.9242 79.2049 71.9543 78.9008 72.0977 78.6652C72.469 78.0551 72.3821 77.5301 72.0777 76.965C72.0478 76.9098 72.0316 76.8472 72.0151 76.7847C71.9993 76.7243 71.9837 76.6638 71.9556 76.6099C71.7082 76.1305 71.8242 75.6606 72.2565 75.4607C72.5603 75.3201 73.0683 75.3642 73.3752 75.5293C74.3722 76.0652 74.8245 77.0163 74.9782 78.0884C75.1127 79.0252 74.9018 79.9357 74.5192 80.7951C74.0254 81.9036 73.0288 81.7625 72.393 81.1054C72.1933 80.8989 72.0859 80.6039 71.9726 80.2917C71.9314 80.1784 71.8893 80.0628 71.8418 79.9483ZM73.8232 76.8714C73.7638 76.8122 73.7054 76.7516 73.6469 76.6911C73.503 76.542 73.3589 76.3929 73.1994 76.2627C73.132 76.2077 73.0344 76.1893 72.9371 76.1706C72.8928 76.1622 72.8487 76.1538 72.8073 76.142C72.7975 76.1881 72.7801 76.2385 72.7629 76.2889C72.7255 76.3976 72.6883 76.5063 72.726 76.5728C73.1444 77.308 73.0491 77.9853 72.6108 78.6774C72.5184 78.8234 72.4846 79.0059 72.4507 79.1887C72.434 79.2792 72.4173 79.3698 72.3932 79.4563C72.2632 79.9266 72.6102 80.8193 73.0522 80.9548C73.0645 80.9586 73.0769 80.9626 73.0899 80.9666C73.3255 81.0404 73.6431 81.1398 73.8304 80.7478C74.4334 79.4862 74.6337 78.2399 73.8232 76.8714ZM108.135 64.8327C108.885 65.1612 110.145 65.0514 111.095 64.0123C111.165 63.9047 111.235 63.7998 111.304 63.6962C111.519 63.373 111.725 63.0637 111.899 62.7378C112.335 61.9228 111.58 60.6674 110.646 60.6861C110.381 60.6914 110.117 60.7415 109.853 60.7917C109.607 60.8385 109.361 60.885 109.113 60.8957C108.364 60.9281 107.77 61.193 107.351 61.8197C106.628 62.9031 106.9 64.292 108.135 64.8327ZM109.323 61.7209C109.36 61.72 109.397 61.7192 109.434 61.7192C109.521 61.7043 109.605 61.6943 109.684 61.685C109.898 61.6593 110.071 61.6386 110.168 61.5421C110.487 61.2256 110.765 61.3724 111.011 61.565C111.277 61.7733 111.425 62.0288 111.297 62.4353C110.995 63.394 110.45 64.101 109.454 64.3559C108.896 64.4988 108.374 64.3617 107.988 63.8803C107.638 63.4455 107.585 62.985 107.842 62.4923C108.103 61.9938 108.468 61.657 109.084 61.7174C109.163 61.7252 109.243 61.7232 109.323 61.7209ZM94.8923 63.0835C95.6276 62.5992 96.3283 62.5684 96.9959 63.1174C97.185 63.2729 97.3516 63.4724 97.4779 63.682C97.5335 63.7741 97.5667 63.883 97.5995 63.9906C97.6418 64.1297 97.6836 64.2668 97.7723 64.3644C98.1674 64.7983 97.9202 65.1874 97.5975 65.3464C96.7821 65.748 95.922 66.0756 95.0528 66.3458C94.5952 66.488 93.9838 65.9492 93.8727 65.4338C93.6291 64.3036 94.089 63.5582 94.8923 63.0835ZM96.9028 64.6798C96.8463 64.6033 96.7904 64.5261 96.7345 64.4489V64.4487C96.5986 64.261 96.4628 64.0733 96.3162 63.8943L96.3033 63.8783C96.2047 63.7576 96.0786 63.603 95.9521 63.5893C95.0038 63.4865 94.1916 64.5778 94.5785 65.4307C94.6923 65.6819 94.9257 65.9512 95.2025 65.6566C95.5853 65.2493 96.0583 65.1663 96.5588 65.0782L96.5926 65.0725C96.7309 65.0481 96.8391 64.854 96.9028 64.6798ZM92.9242 88.5073C92.9046 88.6014 92.8841 88.6996 92.8523 88.8017C92.8572 88.8767 92.8777 88.9441 92.8968 89.008C92.9157 89.0703 92.9336 89.1293 92.9349 89.1886C92.9679 90.6228 94.8486 91.7308 96.0223 91.5614C96.8425 91.4431 97.2917 91.1461 97.4097 90.3934C97.5146 89.7241 97.3498 88.9916 96.8233 88.5639C96.2169 88.0716 95.4851 87.7007 94.7575 87.3963C93.8934 87.0347 93.348 87.324 93.0091 88.1874C92.9696 88.2877 92.9476 88.3944 92.9242 88.5073ZM93.785 88.2511C93.8364 88.1544 93.8879 88.0574 93.9306 87.96C94.0353 87.9849 94.14 88.0084 94.2437 88.0321C95.2158 88.2526 96.118 88.4572 96.5514 89.4208C96.7567 89.878 96.9908 90.4264 96.4274 90.7822C96.1554 90.9537 95.7403 91.0072 95.4114 90.9615C94.5936 90.8481 93.4313 89.9699 93.5387 88.8931C93.5605 88.6732 93.6727 88.462 93.785 88.2511ZM94.3386 74.0268C95.2871 74.1153 96.0394 74.533 96.1957 75.5291C96.251 75.8816 96.4748 75.9284 96.7209 75.9798C96.7567 75.9874 96.793 75.9949 96.8293 76.0036C97.3741 76.1334 97.8068 76.5801 97.7211 77.2854C97.6591 77.7965 97.3955 78.0048 96.6605 77.9637C96.1688 77.9362 95.6528 77.8843 95.1996 77.7095C93.7329 77.1438 93.3124 75.9412 93.4159 74.6692C93.4547 74.1918 93.8088 73.9973 94.3386 74.0268ZM96.4948 76.5812C95.8659 76.6207 95.5657 76.2454 95.5167 75.6988C95.465 75.1213 95.0499 74.9368 94.6408 74.7548L94.5941 74.734C94.3016 74.6036 93.9576 74.9427 94.0054 75.2624C94.1847 76.4572 95.551 77.495 96.7759 77.4014C97.228 77.3668 97.1707 77.1345 97.0075 76.8976C96.9541 76.8197 96.8565 76.7722 96.7407 76.7157C96.6643 76.6784 96.5799 76.6374 96.4948 76.5812ZM82.5655 96.5521C82.5798 96.3992 82.5807 96.2437 82.5816 96.092C82.5836 95.7577 82.5856 95.442 82.7285 95.2144C83.0777 94.6595 83.4984 94.1493 83.9193 93.6391L83.9196 93.6387C84.0908 93.431 84.2621 93.2234 84.4287 93.0126C84.7151 92.6501 85.1594 92.4398 85.5215 92.6359C85.8896 92.8352 86.2468 93.2407 86.3871 93.634C86.7205 94.5695 86.3001 95.3734 85.6711 96.0598C85.4928 96.2546 85.2905 96.4272 85.0881 96.5998C84.9286 96.736 84.769 96.8722 84.6209 97.0192C83.7993 97.8358 83.0668 97.4552 82.5655 96.5521ZM84.6055 96.3198C85.4451 95.7701 85.9869 95.056 85.9515 93.9958C85.9391 93.6253 85.7996 93.3782 85.4625 93.2218C85.1081 93.0574 84.8665 93.2788 84.7576 93.5175C84.4821 94.1205 84.0886 94.6351 83.6942 95.1509V95.1511C83.5579 95.3295 83.4214 95.5081 83.2895 95.6904C83.1555 95.8761 83.2383 96.3247 83.3737 96.5683C83.5316 96.852 83.8474 96.8043 84.1142 96.5864C84.1795 96.5332 84.2581 96.4964 84.3489 96.4538C84.426 96.4179 84.5117 96.3777 84.6055 96.3198ZM79.7536 89.6178C80.1169 88.7786 80.1717 87.8784 79.9721 86.944C79.9554 86.9274 79.9425 86.9156 79.9325 86.9063C79.9167 86.8916 79.908 86.8834 79.9024 86.8737C79.4995 86.1596 79.0782 85.8401 78.6049 85.9963C78.0061 86.194 77.7827 86.6403 77.7616 87.2883C77.7464 87.7504 77.5622 88.1581 76.9387 88.3394C76.0129 88.6085 76.0797 89.435 76.6507 89.8823C76.8687 90.0531 77.1462 90.152 77.4208 90.2498C77.5072 90.2805 77.5934 90.3111 77.6771 90.3439C78.2025 90.5491 79.4942 90.2168 79.7536 89.6178ZM79.3465 87.322C79.3697 87.3613 79.3931 87.4003 79.4185 87.4374C79.4185 87.6455 79.4318 87.8458 79.4448 88.0377C79.4719 88.439 79.4964 88.8037 79.3897 89.1249C79.116 89.9488 77.4899 90.0954 76.9712 89.3825C76.9157 89.3061 77.0703 88.9332 77.1765 88.9084C78.0361 88.709 78.3553 88.1541 78.3849 87.3267C78.3911 87.1472 78.5644 86.9322 78.7227 86.8207C78.7822 86.7787 79.033 86.966 79.1675 87.082C79.2412 87.1456 79.2938 87.2339 79.3465 87.322Z" fill="#F6B82D"/>
</svg>
