<svg width="11" height="13" viewBox="0 0 11 13" fill="none" xmlns="http://www.w3.org/2000/svg">
<path d="M5.4969 8.49003C5.76338 8.49003 5.99268 8.28268 5.99268 8.04076V2.12539L5.95549 1.26141L6.3707 1.67036L7.31268 2.60346C7.39944 2.69561 7.52338 2.74169 7.64732 2.74169C7.90141 2.74169 8.09972 2.5689 8.09972 2.33274C8.09972 2.21179 8.04394 2.11963 7.95099 2.03323L5.85634 0.155516C5.73239 0.040319 5.62704 0 5.4969 0C5.37296 0 5.26761 0.040319 5.13747 0.155516L3.04282 2.03323C2.94986 2.11963 2.90028 2.21179 2.90028 2.33274C2.90028 2.5689 3.0862 2.74169 3.34648 2.74169C3.46423 2.74169 3.60056 2.69561 3.68732 2.60346L4.6231 1.67036L5.04451 1.26141L5.00732 2.12539V8.04076C5.00732 8.28268 5.23042 8.49003 5.4969 8.49003ZM1.94592 13H9.05408C10.3493 13 11 12.401 11 11.2144V5.46611C11 4.27957 10.3493 3.68055 9.05408 3.68055H7.32507V4.60789H9.03549C9.64902 4.60789 10.0023 4.91892 10.0023 5.51794V11.1626C10.0023 11.7616 9.64902 12.0727 9.03549 12.0727H1.95831C1.33859 12.0727 0.997746 11.7616 0.997746 11.1626V5.51794C0.997746 4.91892 1.33859 4.60789 1.95831 4.60789H3.67493V3.68055H1.94592C0.650704 3.68055 0 4.27957 0 5.46611V11.2144C0 12.401 0.650704 13 1.94592 13Z" fill="#8C8C8C"/>
</svg>
