<svg width="304" height="45" viewBox="0 0 304 45" fill="none" xmlns="http://www.w3.org/2000/svg">
<rect y="12" width="87" height="21" rx="3" fill="#FFE2DD"/>
<path d="M9.26 27V17.816H10.464L13.782 23.584L14.776 25.488H14.832C14.804 25.0213 14.7713 24.5407 14.734 24.046C14.706 23.542 14.692 23.0473 14.692 22.562V17.816H15.798V27H14.594L11.262 21.218L10.268 19.328H10.212C10.2493 19.7853 10.282 20.2567 10.31 20.742C10.3473 21.2273 10.366 21.7127 10.366 22.198V27H9.26ZM20.8585 27.168C20.3078 27.168 19.7898 27.028 19.3045 26.748C18.8285 26.468 18.4411 26.062 18.1425 25.53C17.8531 24.998 17.7085 24.3587 17.7085 23.612C17.7085 22.8467 17.8531 22.198 18.1425 21.666C18.4411 21.134 18.8285 20.728 19.3045 20.448C19.7898 20.168 20.3078 20.028 20.8585 20.028C21.4185 20.028 21.9365 20.168 22.4125 20.448C22.8885 20.728 23.2711 21.134 23.5605 21.666C23.8591 22.198 24.0085 22.8467 24.0085 23.612C24.0085 24.3587 23.8591 24.998 23.5605 25.53C23.2711 26.062 22.8885 26.468 22.4125 26.748C21.9365 27.028 21.4185 27.168 20.8585 27.168ZM20.8585 26.216C21.4465 26.216 21.9178 25.978 22.2725 25.502C22.6365 25.0167 22.8185 24.3867 22.8185 23.612C22.8185 22.828 22.6365 22.1933 22.2725 21.708C21.9178 21.2227 21.4465 20.98 20.8585 20.98C20.2798 20.98 19.8085 21.2227 19.4445 21.708C19.0805 22.1933 18.8985 22.828 18.8985 23.612C18.8985 24.3867 19.0805 25.0167 19.4445 25.502C19.8085 25.978 20.2798 26.216 20.8585 26.216ZM27.7099 27.168C26.9819 27.168 26.4733 26.958 26.1839 26.538C25.9039 26.118 25.7639 25.572 25.7639 24.9V21.134H24.7559V20.266L25.8199 20.196L25.9599 18.292H26.9259V20.196H28.7599V21.134H26.9259V24.914C26.9259 25.334 27.0006 25.6607 27.1499 25.894C27.3086 26.118 27.5839 26.23 27.9759 26.23C28.0973 26.23 28.2279 26.2113 28.3679 26.174C28.5079 26.1273 28.6339 26.0853 28.7459 26.048L28.9699 26.916C28.7833 26.9813 28.5779 27.0373 28.3539 27.084C28.1393 27.14 27.9246 27.168 27.7099 27.168ZM35.7611 27.168C35.1171 27.168 34.5198 27.0467 33.9691 26.804C33.4185 26.552 32.9425 26.2207 32.5411 25.81L33.2411 24.998C33.5678 25.3433 33.9505 25.6233 34.3891 25.838C34.8371 26.0433 35.2991 26.146 35.7751 26.146C36.3818 26.146 36.8531 26.0107 37.1891 25.74C37.5251 25.46 37.6931 25.096 37.6931 24.648C37.6931 24.3307 37.6231 24.0787 37.4831 23.892C37.3525 23.7053 37.1705 23.5467 36.9371 23.416C36.7131 23.2853 36.4565 23.1547 36.1671 23.024L34.8511 22.45C34.5618 22.3287 34.2725 22.17 33.9831 21.974C33.7031 21.778 33.4651 21.526 33.2691 21.218C33.0825 20.91 32.9891 20.532 32.9891 20.084C32.9891 19.6173 33.1105 19.202 33.3531 18.838C33.6051 18.4647 33.9505 18.1753 34.3891 17.97C34.8278 17.7553 35.3225 17.648 35.8731 17.648C36.4238 17.648 36.9325 17.7553 37.3991 17.97C37.8658 18.1753 38.2625 18.446 38.5891 18.782L37.9591 19.538C37.6791 19.2673 37.3665 19.0573 37.0211 18.908C36.6851 18.7493 36.3025 18.67 35.8731 18.67C35.3598 18.67 34.9445 18.7913 34.6271 19.034C34.3191 19.2767 34.1651 19.6033 34.1651 20.014C34.1651 20.3033 34.2398 20.546 34.3891 20.742C34.5478 20.9287 34.7438 21.0827 34.9771 21.204C35.2105 21.3253 35.4485 21.4373 35.6911 21.54L36.9931 22.1C37.3478 22.2493 37.6651 22.4313 37.9451 22.646C38.2345 22.8513 38.4631 23.108 38.6311 23.416C38.7991 23.7147 38.8831 24.0927 38.8831 24.55C38.8831 25.0353 38.7571 25.4787 38.5051 25.88C38.2531 26.272 37.8938 26.5847 37.4271 26.818C36.9605 27.0513 36.4051 27.168 35.7611 27.168ZM42.3798 27.168C41.6518 27.168 41.1432 26.958 40.8538 26.538C40.5738 26.118 40.4338 25.572 40.4338 24.9V21.134H39.4258V20.266L40.4898 20.196L40.6298 18.292H41.5958V20.196H43.4298V21.134H41.5958V24.914C41.5958 25.334 41.6705 25.6607 41.8198 25.894C41.9785 26.118 42.2538 26.23 42.6458 26.23C42.7672 26.23 42.8978 26.2113 43.0378 26.174C43.1778 26.1273 43.3038 26.0853 43.4158 26.048L43.6398 26.916C43.4532 26.9813 43.2478 27.0373 43.0238 27.084C42.8092 27.14 42.5945 27.168 42.3798 27.168ZM46.2355 27.168C45.6662 27.168 45.1902 27 44.8075 26.664C44.4342 26.3187 44.2475 25.8427 44.2475 25.236C44.2475 24.4893 44.5789 23.92 45.2415 23.528C45.9135 23.1267 46.9729 22.8467 48.4195 22.688C48.4195 22.3987 48.3775 22.1233 48.2935 21.862C48.2189 21.6007 48.0789 21.3907 47.8735 21.232C47.6775 21.064 47.3929 20.98 47.0195 20.98C46.6275 20.98 46.2589 21.0547 45.9135 21.204C45.5682 21.3533 45.2602 21.5213 44.9895 21.708L44.5415 20.91C44.8589 20.7047 45.2462 20.5087 45.7035 20.322C46.1702 20.126 46.6742 20.028 47.2155 20.028C48.0462 20.028 48.6482 20.2847 49.0215 20.798C49.3949 21.302 49.5815 21.9787 49.5815 22.828V27H48.6295L48.5315 26.188H48.4895C48.1722 26.4493 47.8222 26.678 47.4395 26.874C47.0662 27.07 46.6649 27.168 46.2355 27.168ZM46.5715 26.244C46.8982 26.244 47.2062 26.1647 47.4955 26.006C47.7849 25.8473 48.0929 25.6233 48.4195 25.334V23.444C47.2902 23.584 46.4969 23.794 46.0395 24.074C45.5915 24.354 45.3675 24.7133 45.3675 25.152C45.3675 25.5347 45.4842 25.8147 45.7175 25.992C45.9509 26.16 46.2355 26.244 46.5715 26.244ZM51.7222 27V20.196H52.6742L52.7722 21.428H52.8142C53.0476 20.9987 53.3322 20.658 53.6682 20.406C54.0042 20.154 54.3636 20.028 54.7462 20.028C55.0169 20.028 55.2596 20.0747 55.4742 20.168L55.2502 21.176C55.1382 21.1387 55.0356 21.1107 54.9422 21.092C54.8489 21.0733 54.7322 21.064 54.5922 21.064C54.3029 21.064 53.9996 21.1807 53.6822 21.414C53.3742 21.6473 53.1036 22.0533 52.8702 22.632V27H51.7222ZM58.7177 27.168C57.9897 27.168 57.4811 26.958 57.1917 26.538C56.9117 26.118 56.7717 25.572 56.7717 24.9V21.134H55.7637V20.266L56.8277 20.196L56.9677 18.292H57.9337V20.196H59.7677V21.134H57.9337V24.914C57.9337 25.334 58.0084 25.6607 58.1577 25.894C58.3164 26.118 58.5917 26.23 58.9837 26.23C59.1051 26.23 59.2357 26.2113 59.3757 26.174C59.5157 26.1273 59.6417 26.0853 59.7537 26.048L59.9777 26.916C59.7911 26.9813 59.5857 27.0373 59.3617 27.084C59.1471 27.14 58.9324 27.168 58.7177 27.168ZM63.8728 27.168C63.2661 27.168 62.7155 27.028 62.2208 26.748C61.7261 26.4587 61.3341 26.048 61.0448 25.516C60.7555 24.984 60.6108 24.3493 60.6108 23.612C60.6108 22.8653 60.7555 22.226 61.0448 21.694C61.3435 21.162 61.7261 20.7513 62.1928 20.462C62.6595 20.1727 63.1495 20.028 63.6628 20.028C64.5308 20.028 65.1981 20.3173 65.6648 20.896C66.1408 21.4747 66.3788 22.2493 66.3788 23.22C66.3788 23.3413 66.3741 23.4627 66.3648 23.584C66.3648 23.696 66.3555 23.794 66.3368 23.878H61.7448C61.7915 24.5967 62.0155 25.1707 62.4168 25.6C62.8275 26.0293 63.3595 26.244 64.0128 26.244C64.3395 26.244 64.6381 26.1973 64.9088 26.104C65.1888 26.0013 65.4548 25.8707 65.7068 25.712L66.1128 26.468C65.8235 26.6547 65.4921 26.818 65.1188 26.958C64.7548 27.098 64.3395 27.168 63.8728 27.168ZM61.7308 23.052H65.3708C65.3708 22.3613 65.2215 21.8387 64.9228 21.484C64.6335 21.12 64.2228 20.938 63.6908 20.938C63.2148 20.938 62.7855 21.1247 62.4028 21.498C62.0295 21.862 61.8055 22.38 61.7308 23.052ZM70.3841 27.168C69.5348 27.168 68.8534 26.86 68.3401 26.244C67.8268 25.6187 67.5701 24.7413 67.5701 23.612C67.5701 22.8747 67.7054 22.24 67.9761 21.708C68.2561 21.1667 68.6201 20.7513 69.0681 20.462C69.5254 20.1727 70.0108 20.028 70.5241 20.028C70.9161 20.028 71.2568 20.098 71.5461 20.238C71.8354 20.378 72.1294 20.5693 72.4281 20.812L72.3721 19.65V17.032H73.5341V27H72.5821L72.4841 26.202H72.4421C72.1808 26.4633 71.8728 26.692 71.5181 26.888C71.1634 27.0747 70.7854 27.168 70.3841 27.168ZM70.6361 26.202C71.2334 26.202 71.8121 25.8893 72.3721 25.264V21.708C72.0828 21.4467 71.8028 21.2647 71.5321 21.162C71.2708 21.05 71.0001 20.994 70.7201 20.994C70.3561 20.994 70.0248 21.106 69.7261 21.33C69.4368 21.5447 69.2034 21.848 69.0261 22.24C68.8488 22.6227 68.7601 23.0753 68.7601 23.598C68.7601 24.41 68.9234 25.0493 69.2501 25.516C69.5768 25.9733 70.0388 26.202 70.6361 26.202Z" fill="#5D1715"/>
<g clip-path="url(#clip0_331_356)">
<path d="M161.704 22.5001C161.704 22.7675 161.624 23.0288 161.476 23.2511C161.327 23.4735 161.116 23.6467 160.869 23.7491C160.622 23.8514 160.35 23.8781 160.088 23.826C159.826 23.7738 159.585 23.6451 159.396 23.456C159.207 23.2669 159.078 23.0261 159.026 22.7638C158.974 22.5016 159.001 22.2298 159.103 21.9827C159.205 21.7357 159.378 21.5246 159.601 21.376C159.823 21.2275 160.084 21.1482 160.352 21.1482C160.71 21.1482 161.054 21.2906 161.308 21.5442C161.561 21.7977 161.704 22.1415 161.704 22.5001Z" fill="#61C554"/>
<path d="M166.21 22.5001C166.21 22.7675 166.131 23.0288 165.982 23.2511C165.833 23.4735 165.622 23.6467 165.375 23.7491C165.128 23.8514 164.856 23.8781 164.594 23.826C164.332 23.7738 164.091 23.6451 163.902 23.456C163.713 23.2669 163.584 23.0261 163.532 22.7638C163.48 22.5016 163.507 22.2298 163.609 21.9827C163.711 21.7357 163.885 21.5246 164.107 21.376C164.329 21.2275 164.591 21.1482 164.858 21.1482C165.216 21.1482 165.56 21.2906 165.814 21.5442C166.067 21.7977 166.21 22.1415 166.21 22.5001Z" fill="#61C554"/>
<path d="M170.716 22.5001C170.716 22.7675 170.637 23.0288 170.488 23.2511C170.34 23.4735 170.129 23.6467 169.882 23.7491C169.635 23.8514 169.363 23.8781 169.101 23.826C168.838 23.7738 168.597 23.6451 168.408 23.456C168.219 23.2669 168.091 23.0261 168.038 22.7638C167.986 22.5016 168.013 22.2298 168.115 21.9827C168.218 21.7357 168.391 21.5246 168.613 21.376C168.836 21.2275 169.097 21.1482 169.364 21.1482C169.723 21.1482 170.067 21.2906 170.32 21.5442C170.574 21.7977 170.716 22.1415 170.716 22.5001Z" fill="#61C554"/>
</g>
<g clip-path="url(#clip1_331_356)">
<path d="M183.536 27.5987C183.834 27.5987 184.083 27.3615 184.083 27.0693V23.0272H188.009C188.301 23.0272 188.551 22.7782 188.551 22.4802C188.55 22.3371 188.492 22.2003 188.391 22.0992C188.289 21.9981 188.152 21.9409 188.009 21.9397H184.083V17.891C184.083 17.5996 183.834 17.3623 183.536 17.3623C183.394 17.361 183.258 17.4158 183.156 17.5149C183.055 17.614 182.997 17.7492 182.995 17.891V21.9397H179.063C178.92 21.9409 178.783 21.9981 178.681 22.0992C178.58 22.2003 178.522 22.3371 178.521 22.4802C178.521 22.7782 178.77 23.0272 179.063 23.0272H182.995V27.0693C182.995 27.3615 183.238 27.5987 183.536 27.5987Z" fill="#61C554"/>
</g>
<rect x="205" y="12" width="87" height="21" rx="3" fill="#FDECC8"/>
<path d="M213.26 27V17.816H214.422V27H213.26ZM216.826 27V20.196H217.778L217.876 21.176H217.918C218.244 20.8493 218.59 20.5787 218.954 20.364C219.318 20.14 219.733 20.028 220.2 20.028C220.918 20.028 221.441 20.2567 221.768 20.714C222.104 21.162 222.272 21.82 222.272 22.688V27H221.124V22.842C221.124 22.2073 221.021 21.7453 220.816 21.456C220.61 21.1667 220.284 21.022 219.836 21.022C219.49 21.022 219.178 21.1107 218.898 21.288C218.627 21.4653 218.319 21.7267 217.974 22.072V27H216.826ZM227.397 27V17.816H230.015C230.705 17.816 231.307 17.9 231.821 18.068C232.334 18.236 232.735 18.5207 233.025 18.922C233.314 19.314 233.459 19.846 233.459 20.518C233.459 21.4793 233.146 22.1933 232.521 22.66C231.895 23.1267 231.079 23.36 230.071 23.36H228.559V27H227.397ZM228.559 22.408H229.931C230.733 22.408 231.326 22.2587 231.709 21.96C232.101 21.652 232.297 21.1713 232.297 20.518C232.297 19.8553 232.091 19.398 231.681 19.146C231.279 18.8847 230.677 18.754 229.875 18.754H228.559V22.408ZM235.214 27V20.196H236.166L236.264 21.428H236.306C236.54 20.9987 236.824 20.658 237.16 20.406C237.496 20.154 237.856 20.028 238.238 20.028C238.509 20.028 238.752 20.0747 238.966 20.168L238.742 21.176C238.63 21.1387 238.528 21.1107 238.434 21.092C238.341 21.0733 238.224 21.064 238.084 21.064C237.795 21.064 237.492 21.1807 237.174 21.414C236.866 21.6473 236.596 22.0533 236.362 22.632V27H235.214ZM242.577 27.168C242.027 27.168 241.509 27.028 241.023 26.748C240.547 26.468 240.16 26.062 239.861 25.53C239.572 24.998 239.427 24.3587 239.427 23.612C239.427 22.8467 239.572 22.198 239.861 21.666C240.16 21.134 240.547 20.728 241.023 20.448C241.509 20.168 242.027 20.028 242.577 20.028C243.137 20.028 243.655 20.168 244.131 20.448C244.607 20.728 244.99 21.134 245.279 21.666C245.578 22.198 245.727 22.8467 245.727 23.612C245.727 24.3587 245.578 24.998 245.279 25.53C244.99 26.062 244.607 26.468 244.131 26.748C243.655 27.028 243.137 27.168 242.577 27.168ZM242.577 26.216C243.165 26.216 243.637 25.978 243.991 25.502C244.355 25.0167 244.537 24.3867 244.537 23.612C244.537 22.828 244.355 22.1933 243.991 21.708C243.637 21.2227 243.165 20.98 242.577 20.98C241.999 20.98 241.527 21.2227 241.163 21.708C240.799 22.1933 240.617 22.828 240.617 23.612C240.617 24.3867 240.799 25.0167 241.163 25.502C241.527 25.978 241.999 26.216 242.577 26.216ZM249.815 30.136C248.984 30.136 248.308 29.9773 247.785 29.66C247.262 29.3427 247.001 28.89 247.001 28.302C247.001 28.0127 247.09 27.7327 247.267 27.462C247.444 27.2007 247.687 26.9673 247.995 26.762V26.706C247.827 26.6033 247.682 26.4587 247.561 26.272C247.449 26.0853 247.393 25.8613 247.393 25.6C247.393 25.3107 247.472 25.0587 247.631 24.844C247.79 24.6293 247.958 24.4613 248.135 24.34V24.284C247.911 24.0973 247.706 23.8453 247.519 23.528C247.342 23.2107 247.253 22.8513 247.253 22.45C247.253 21.9553 247.37 21.526 247.603 21.162C247.836 20.798 248.149 20.518 248.541 20.322C248.933 20.126 249.358 20.028 249.815 20.028C250.002 20.028 250.179 20.0467 250.347 20.084C250.515 20.112 250.66 20.1493 250.781 20.196H253.147V21.078H251.747C251.906 21.2273 252.036 21.428 252.139 21.68C252.251 21.9227 252.307 22.1887 252.307 22.478C252.307 22.9633 252.195 23.3833 251.971 23.738C251.747 24.0927 251.448 24.368 251.075 24.564C250.702 24.7507 250.282 24.844 249.815 24.844C249.451 24.844 249.11 24.7647 248.793 24.606C248.672 24.7087 248.569 24.8253 248.485 24.956C248.401 25.0773 248.359 25.2313 248.359 25.418C248.359 25.6327 248.443 25.81 248.611 25.95C248.788 26.09 249.106 26.16 249.563 26.16H250.879C251.672 26.16 252.265 26.2907 252.657 26.552C253.058 26.804 253.259 27.2147 253.259 27.784C253.259 28.204 253.119 28.5913 252.839 28.946C252.559 29.3007 252.162 29.5853 251.649 29.8C251.136 30.024 250.524 30.136 249.815 30.136ZM249.815 24.074C250.207 24.074 250.543 23.9293 250.823 23.64C251.112 23.3413 251.257 22.9447 251.257 22.45C251.257 21.9553 251.117 21.568 250.837 21.288C250.557 21.008 250.216 20.868 249.815 20.868C249.414 20.868 249.073 21.008 248.793 21.288C248.513 21.568 248.373 21.9553 248.373 22.45C248.373 22.9447 248.513 23.3413 248.793 23.64C249.082 23.9293 249.423 24.074 249.815 24.074ZM249.983 29.338C250.636 29.338 251.159 29.1933 251.551 28.904C251.943 28.624 252.139 28.3067 252.139 27.952C252.139 27.6347 252.018 27.4153 251.775 27.294C251.542 27.1727 251.206 27.112 250.767 27.112H249.591C249.46 27.112 249.316 27.1027 249.157 27.084C249.008 27.0653 248.858 27.0373 248.709 27C248.466 27.1773 248.289 27.364 248.177 27.56C248.065 27.756 248.009 27.952 248.009 28.148C248.009 28.512 248.182 28.8013 248.527 29.016C248.882 29.2307 249.367 29.338 249.983 29.338ZM254.574 27V20.196H255.526L255.624 21.428H255.666C255.899 20.9987 256.184 20.658 256.52 20.406C256.856 20.154 257.215 20.028 257.598 20.028C257.868 20.028 258.111 20.0747 258.326 20.168L258.102 21.176C257.99 21.1387 257.887 21.1107 257.794 21.092C257.7 21.0733 257.584 21.064 257.444 21.064C257.154 21.064 256.851 21.1807 256.534 21.414C256.226 21.6473 255.955 22.0533 255.722 22.632V27H254.574ZM262.049 27.168C261.442 27.168 260.891 27.028 260.397 26.748C259.902 26.4587 259.51 26.048 259.221 25.516C258.931 24.984 258.787 24.3493 258.787 23.612C258.787 22.8653 258.931 22.226 259.221 21.694C259.519 21.162 259.902 20.7513 260.369 20.462C260.835 20.1727 261.325 20.028 261.839 20.028C262.707 20.028 263.374 20.3173 263.841 20.896C264.317 21.4747 264.555 22.2493 264.555 23.22C264.555 23.3413 264.55 23.4627 264.541 23.584C264.541 23.696 264.531 23.794 264.513 23.878H259.921C259.967 24.5967 260.191 25.1707 260.593 25.6C261.003 26.0293 261.535 26.244 262.189 26.244C262.515 26.244 262.814 26.1973 263.085 26.104C263.365 26.0013 263.631 25.8707 263.883 25.712L264.289 26.468C263.999 26.6547 263.668 26.818 263.295 26.958C262.931 27.098 262.515 27.168 262.049 27.168ZM259.907 23.052H263.547C263.547 22.3613 263.397 21.8387 263.099 21.484C262.809 21.12 262.399 20.938 261.867 20.938C261.391 20.938 260.961 21.1247 260.579 21.498C260.205 21.862 259.981 22.38 259.907 23.052ZM268.014 27.168C267.529 27.168 267.067 27.0793 266.628 26.902C266.189 26.7153 265.807 26.4913 265.48 26.23L266.054 25.46C266.353 25.6933 266.661 25.8893 266.978 26.048C267.295 26.1973 267.655 26.272 268.056 26.272C268.504 26.272 268.84 26.1693 269.064 25.964C269.288 25.7493 269.4 25.4973 269.4 25.208C269.4 24.9747 269.321 24.7787 269.162 24.62C269.013 24.4613 268.817 24.3307 268.574 24.228C268.341 24.116 268.098 24.0133 267.846 23.92C267.529 23.7987 267.216 23.6633 266.908 23.514C266.6 23.3553 266.348 23.1547 266.152 22.912C265.956 22.66 265.858 22.3427 265.858 21.96C265.858 21.4093 266.063 20.952 266.474 20.588C266.894 20.2147 267.473 20.028 268.21 20.028C268.63 20.028 269.022 20.1027 269.386 20.252C269.75 20.4013 270.063 20.5833 270.324 20.798L269.764 21.526C269.531 21.3487 269.288 21.204 269.036 21.092C268.784 20.98 268.509 20.924 268.21 20.924C267.781 20.924 267.463 21.022 267.258 21.218C267.062 21.414 266.964 21.6427 266.964 21.904C266.964 22.1187 267.034 22.296 267.174 22.436C267.314 22.5667 267.496 22.6833 267.72 22.786C267.944 22.8793 268.182 22.9773 268.434 23.08C268.761 23.2013 269.083 23.3413 269.4 23.5C269.717 23.6493 269.979 23.8547 270.184 24.116C270.399 24.368 270.506 24.7087 270.506 25.138C270.506 25.502 270.408 25.838 270.212 26.146C270.025 26.454 269.745 26.7013 269.372 26.888C269.008 27.0747 268.555 27.168 268.014 27.168ZM273.879 27.168C273.394 27.168 272.932 27.0793 272.493 26.902C272.054 26.7153 271.672 26.4913 271.345 26.23L271.919 25.46C272.218 25.6933 272.526 25.8893 272.843 26.048C273.16 26.1973 273.52 26.272 273.921 26.272C274.369 26.272 274.705 26.1693 274.929 25.964C275.153 25.7493 275.265 25.4973 275.265 25.208C275.265 24.9747 275.186 24.7787 275.027 24.62C274.878 24.4613 274.682 24.3307 274.439 24.228C274.206 24.116 273.963 24.0133 273.711 23.92C273.394 23.7987 273.081 23.6633 272.773 23.514C272.465 23.3553 272.213 23.1547 272.017 22.912C271.821 22.66 271.723 22.3427 271.723 21.96C271.723 21.4093 271.928 20.952 272.339 20.588C272.759 20.2147 273.338 20.028 274.075 20.028C274.495 20.028 274.887 20.1027 275.251 20.252C275.615 20.4013 275.928 20.5833 276.189 20.798L275.629 21.526C275.396 21.3487 275.153 21.204 274.901 21.092C274.649 20.98 274.374 20.924 274.075 20.924C273.646 20.924 273.328 21.022 273.123 21.218C272.927 21.414 272.829 21.6427 272.829 21.904C272.829 22.1187 272.899 22.296 273.039 22.436C273.179 22.5667 273.361 22.6833 273.585 22.786C273.809 22.8793 274.047 22.9773 274.299 23.08C274.626 23.2013 274.948 23.3413 275.265 23.5C275.582 23.6493 275.844 23.8547 276.049 24.116C276.264 24.368 276.371 24.7087 276.371 25.138C276.371 25.502 276.273 25.838 276.077 26.146C275.89 26.454 275.61 26.7013 275.237 26.888C274.873 27.0747 274.42 27.168 273.879 27.168Z" fill="#402C1B"/>
<defs>
<clipPath id="clip0_331_356">
<rect width="12" height="11" fill="white" transform="translate(159 16.6418)"/>
</clipPath>
<clipPath id="clip1_331_356">
<rect width="12" height="11.7163" fill="white" transform="translate(177.695 16.6418)"/>
</clipPath>
</defs>
</svg>
