<svg width="621" height="29" viewBox="0 0 621 29" fill="none" xmlns="http://www.w3.org/2000/svg">
<rect width="621" height="29" rx="8" fill="#F1F1F1"/>
<path d="M253.648 20.8571H260.352C261.429 20.8571 262 20.3329 262 19.2975V14.7824C262 13.747 261.429 13.2293 260.352 13.2293H253.648C252.571 13.2293 252 13.747 252 14.7824V19.2975C252 20.3329 252.571 20.8571 253.648 20.8571ZM253.282 13.7339H254.447V11.519C254.447 9.86762 255.626 8.98951 256.996 8.98951C258.366 8.98951 259.56 9.86762 259.56 11.519V13.7339H260.718V11.6632C260.718 9.19921 258.916 8 256.996 8C255.084 8 253.282 9.19921 253.282 11.6632V13.7339Z" fill="#8C8C8C"/>
<path d="M274.122 20.1591C273.486 20.1591 272.924 19.9983 272.437 19.6768C271.95 19.352 271.569 18.8946 271.294 18.3047C271.018 17.7114 270.881 17.0104 270.881 16.2017C270.881 15.3996 271.018 14.7036 271.294 14.1136C271.569 13.5237 271.951 13.0679 272.442 12.7464C272.933 12.425 273.499 12.2642 274.142 12.2642C274.639 12.2642 275.032 12.3471 275.321 12.5128C275.612 12.6752 275.834 12.8608 275.987 13.0696C276.143 13.2751 276.264 13.4441 276.35 13.5767H276.449V9.81818H277.622V20H276.489V18.8267H276.35C276.264 18.9659 276.141 19.1416 275.982 19.3537C275.823 19.5625 275.596 19.7498 275.301 19.9155C275.006 20.0779 274.613 20.1591 274.122 20.1591ZM274.282 19.1051C274.752 19.1051 275.15 18.9825 275.475 18.7372C275.8 18.4886 276.046 18.1456 276.215 17.7081C276.384 17.2673 276.469 16.7585 276.469 16.1818C276.469 15.6117 276.386 15.1129 276.22 14.6854C276.055 14.2545 275.809 13.9197 275.485 13.6811C275.16 13.4392 274.759 13.3182 274.282 13.3182C273.784 13.3182 273.37 13.4458 273.039 13.701C272.71 13.9529 272.464 14.2959 272.298 14.7301C272.135 15.161 272.054 15.6449 272.054 16.1818C272.054 16.7254 272.137 17.2192 272.303 17.6634C272.472 18.1042 272.72 18.4555 273.049 18.7173C273.38 18.9759 273.791 19.1051 274.282 19.1051ZM283.036 20.1591C282.347 20.1591 281.742 19.995 281.222 19.6669C280.705 19.3388 280.3 18.8797 280.009 18.2898C279.72 17.6998 279.576 17.0104 279.576 16.2216C279.576 15.4261 279.72 14.7318 280.009 14.1385C280.3 13.5452 280.705 13.0845 281.222 12.7564C281.742 12.4283 282.347 12.2642 283.036 12.2642C283.726 12.2642 284.329 12.4283 284.846 12.7564C285.367 13.0845 285.771 13.5452 286.059 14.1385C286.351 14.7318 286.497 15.4261 286.497 16.2216C286.497 17.0104 286.351 17.6998 286.059 18.2898C285.771 18.8797 285.367 19.3388 284.846 19.6669C284.329 19.995 283.726 20.1591 283.036 20.1591ZM283.036 19.1051C283.56 19.1051 283.991 18.9709 284.329 18.7024C284.667 18.4339 284.917 18.081 285.08 17.6435C285.242 17.206 285.323 16.732 285.323 16.2216C285.323 15.7112 285.242 15.2356 285.08 14.7947C284.917 14.3539 284.667 13.9976 284.329 13.7259C283.991 13.4541 283.56 13.3182 283.036 13.3182C282.513 13.3182 282.082 13.4541 281.744 13.7259C281.406 13.9976 281.156 14.3539 280.993 14.7947C280.831 15.2356 280.75 15.7112 280.75 16.2216C280.75 16.732 280.831 17.206 280.993 17.6435C281.156 18.081 281.406 18.4339 281.744 18.7024C282.082 18.9709 282.513 19.1051 283.036 19.1051ZM291.37 23.0227C290.803 23.0227 290.316 22.9498 289.908 22.804C289.501 22.6615 289.161 22.4725 288.889 22.2372C288.621 22.0052 288.407 21.7566 288.248 21.4915L289.183 20.8352C289.289 20.9744 289.423 21.1335 289.585 21.3125C289.748 21.4948 289.97 21.6522 290.252 21.7848C290.537 21.9207 290.909 21.9886 291.37 21.9886C291.987 21.9886 292.495 21.8395 292.896 21.5412C293.297 21.2429 293.498 20.7756 293.498 20.1392V18.5881H293.399C293.312 18.7273 293.19 18.8996 293.031 19.1051C292.875 19.3073 292.649 19.4879 292.354 19.647C292.063 19.8028 291.668 19.8807 291.171 19.8807C290.555 19.8807 290.001 19.7348 289.511 19.4432C289.024 19.1515 288.637 18.7273 288.352 18.1705C288.071 17.6136 287.93 16.9375 287.93 16.142C287.93 15.3598 288.067 14.6787 288.342 14.0987C288.618 13.5154 289 13.0646 289.491 12.7464C289.981 12.425 290.548 12.2642 291.191 12.2642C291.688 12.2642 292.083 12.3471 292.374 12.5128C292.669 12.6752 292.895 12.8608 293.051 13.0696C293.21 13.2751 293.332 13.4441 293.418 13.5767H293.538V12.3636H294.671V20.2188C294.671 20.875 294.522 21.4086 294.224 21.8196C293.929 22.2339 293.531 22.5372 293.031 22.7294C292.533 22.925 291.98 23.0227 291.37 23.0227ZM291.33 18.8267C291.801 18.8267 292.199 18.719 292.524 18.5036C292.848 18.2881 293.095 17.9782 293.264 17.5739C293.433 17.1695 293.518 16.6856 293.518 16.1222C293.518 15.572 293.435 15.0864 293.269 14.6655C293.104 14.2446 292.858 13.9148 292.533 13.6761C292.209 13.4375 291.808 13.3182 291.33 13.3182C290.833 13.3182 290.419 13.4441 290.087 13.696C289.759 13.9479 289.512 14.286 289.347 14.7102C289.184 15.1345 289.103 15.6051 289.103 16.1222C289.103 16.6525 289.186 17.1214 289.352 17.5291C289.521 17.9335 289.769 18.2517 290.097 18.4837C290.429 18.7124 290.84 18.8267 291.33 18.8267ZM299.066 20.179C298.582 20.179 298.143 20.0878 297.749 19.9055C297.354 19.7199 297.041 19.4531 296.809 19.1051C296.577 18.7538 296.461 18.3295 296.461 17.8324C296.461 17.3949 296.547 17.0402 296.72 16.7685C296.892 16.4934 297.122 16.2779 297.411 16.1222C297.699 15.9664 298.017 15.8504 298.365 15.7741C298.716 15.6946 299.069 15.6316 299.424 15.5852C299.888 15.5256 300.264 15.4808 300.553 15.451C300.844 15.4179 301.056 15.3632 301.189 15.2869C301.325 15.2107 301.393 15.0781 301.393 14.8892V14.8494C301.393 14.3589 301.259 13.9777 300.99 13.706C300.725 13.4342 300.322 13.2983 299.782 13.2983C299.222 13.2983 298.783 13.4209 298.465 13.6662C298.146 13.9115 297.923 14.1733 297.793 14.4517L296.68 14.054C296.879 13.59 297.144 13.2287 297.475 12.9702C297.81 12.7083 298.175 12.526 298.569 12.4233C298.967 12.3172 299.358 12.2642 299.742 12.2642C299.988 12.2642 300.269 12.294 300.587 12.3537C300.909 12.41 301.219 12.5277 301.517 12.7067C301.819 12.8857 302.069 13.1558 302.268 13.517C302.467 13.8783 302.566 14.3622 302.566 14.9688V20H301.393V18.9659H301.333C301.254 19.1316 301.121 19.3089 300.935 19.4979C300.75 19.6868 300.503 19.8475 300.195 19.9801C299.886 20.1127 299.51 20.179 299.066 20.179ZM299.245 19.125C299.709 19.125 300.1 19.0339 300.418 18.8516C300.74 18.6693 300.982 18.4339 301.144 18.1456C301.31 17.8572 301.393 17.554 301.393 17.2358V16.1619C301.343 16.2216 301.234 16.2763 301.065 16.326C300.899 16.3724 300.707 16.4138 300.488 16.4503C300.273 16.4834 300.062 16.5133 299.857 16.5398C299.654 16.563 299.49 16.5829 299.364 16.5994C299.06 16.6392 298.774 16.7038 298.509 16.7933C298.247 16.8795 298.035 17.0104 297.873 17.1861C297.714 17.3584 297.634 17.5937 297.634 17.892C297.634 18.2997 297.785 18.608 298.087 18.8168C298.392 19.0223 298.778 19.125 299.245 19.125ZM308.029 12.3636V13.358H304.071V12.3636H308.029ZM305.225 10.5341H306.398V17.8125C306.398 18.1439 306.446 18.3925 306.542 18.5582C306.642 18.7206 306.768 18.83 306.92 18.8864C307.076 18.9394 307.24 18.9659 307.412 18.9659C307.541 18.9659 307.648 18.9593 307.73 18.946C307.813 18.9295 307.88 18.9162 307.929 18.9062L308.168 19.9602C308.088 19.9901 307.977 20.0199 307.835 20.0497C307.692 20.0829 307.512 20.0994 307.293 20.0994C306.961 20.0994 306.637 20.0282 306.318 19.8857C306.004 19.7431 305.742 19.526 305.533 19.2344C305.327 18.9427 305.225 18.5748 305.225 18.1307V10.5341ZM311.131 15.4062V20H309.958V9.81818H311.131V13.5568H311.23C311.409 13.1624 311.678 12.8492 312.036 12.6172C312.397 12.3819 312.878 12.2642 313.478 12.2642C313.998 12.2642 314.454 12.3686 314.845 12.5774C315.236 12.7829 315.539 13.0994 315.755 13.527C315.973 13.9512 316.083 14.4915 316.083 15.1477V20H314.909V15.2273C314.909 14.6207 314.752 14.1518 314.437 13.8203C314.126 13.4856 313.693 13.3182 313.139 13.3182C312.755 13.3182 312.41 13.3994 312.105 13.5618C311.804 13.7242 311.565 13.9612 311.389 14.2727C311.217 14.5843 311.131 14.9621 311.131 15.4062ZM321.431 20.1591C320.695 20.1591 320.06 19.9967 319.527 19.6719C318.996 19.3438 318.587 18.8864 318.299 18.2997C318.014 17.7098 317.871 17.0237 317.871 16.2415C317.871 15.4593 318.014 14.7699 318.299 14.1733C318.587 13.5734 318.988 13.1061 319.502 12.7713C320.019 12.4332 320.622 12.2642 321.312 12.2642C321.709 12.2642 322.102 12.3305 322.49 12.4631C322.878 12.5956 323.231 12.8111 323.549 13.1094C323.867 13.4044 324.12 13.7955 324.309 14.2827C324.498 14.7699 324.593 15.3698 324.593 16.0824V16.5795H318.706V15.5653H323.4C323.4 15.1345 323.313 14.75 323.141 14.4119C322.972 14.0739 322.73 13.8071 322.415 13.6115C322.104 13.416 321.736 13.3182 321.312 13.3182C320.844 13.3182 320.44 13.4342 320.098 13.6662C319.76 13.8949 319.5 14.1932 319.318 14.5611C319.136 14.929 319.044 15.3234 319.044 15.7443V16.4205C319.044 16.9972 319.144 17.486 319.343 17.8871C319.545 18.2848 319.825 18.5881 320.183 18.7969C320.541 19.0024 320.957 19.1051 321.431 19.1051C321.739 19.1051 322.017 19.062 322.266 18.9759C322.518 18.8864 322.735 18.7538 322.917 18.5781C323.1 18.3991 323.241 18.1771 323.34 17.9119L324.473 18.2301C324.354 18.6146 324.154 18.9527 323.872 19.2443C323.59 19.5327 323.242 19.758 322.828 19.9205C322.414 20.0795 321.948 20.1591 321.431 20.1591ZM326.378 20V12.3636H327.511V13.517H327.591C327.73 13.1392 327.982 12.8326 328.346 12.5973C328.711 12.362 329.122 12.2443 329.579 12.2443C329.665 12.2443 329.773 12.246 329.902 12.2493C330.032 12.2526 330.129 12.2576 330.196 12.2642V13.4574C330.156 13.4474 330.065 13.4325 329.922 13.4126C329.783 13.3894 329.636 13.3778 329.48 13.3778C329.109 13.3778 328.777 13.4557 328.486 13.6115C328.197 13.764 327.968 13.9761 327.799 14.2479C327.634 14.5163 327.551 14.8229 327.551 15.1676V20H326.378ZM331.567 20.0795C331.321 20.0795 331.111 19.9917 330.935 19.8161C330.76 19.6404 330.672 19.4299 330.672 19.1847C330.672 18.9394 330.76 18.7289 330.935 18.5533C331.111 18.3776 331.321 18.2898 331.567 18.2898C331.812 18.2898 332.022 18.3776 332.198 18.5533C332.374 18.7289 332.462 18.9394 332.462 19.1847C332.462 19.3471 332.42 19.4962 332.337 19.6321C332.258 19.768 332.15 19.8774 332.014 19.9602C331.882 20.0398 331.732 20.0795 331.567 20.0795ZM337.669 20.1591C336.953 20.1591 336.337 19.9901 335.82 19.652C335.303 19.3139 334.905 18.8482 334.627 18.255C334.348 17.6617 334.209 16.9839 334.209 16.2216C334.209 15.446 334.352 14.7616 334.637 14.1683C334.925 13.5717 335.326 13.1061 335.84 12.7713C336.357 12.4332 336.96 12.2642 337.649 12.2642C338.186 12.2642 338.67 12.3636 339.101 12.5625C339.532 12.7614 339.885 13.0398 340.16 13.3977C340.435 13.7557 340.606 14.1733 340.672 14.6506H339.499C339.409 14.3026 339.21 13.9943 338.902 13.7259C338.597 13.4541 338.186 13.3182 337.669 13.3182C337.212 13.3182 336.811 13.4375 336.466 13.6761C336.125 13.9115 335.858 14.2446 335.666 14.6754C335.477 15.103 335.382 15.6051 335.382 16.1818C335.382 16.7718 335.475 17.2855 335.661 17.723C335.85 18.1605 336.115 18.5002 336.456 18.7422C336.801 18.9841 337.205 19.1051 337.669 19.1051C337.974 19.1051 338.251 19.0521 338.5 18.946C338.748 18.84 338.959 18.6875 339.131 18.4886C339.303 18.2898 339.426 18.0511 339.499 17.7727H340.672C340.606 18.2235 340.442 18.6295 340.18 18.9908C339.921 19.3487 339.578 19.6338 339.151 19.8459C338.727 20.0547 338.233 20.1591 337.669 20.1591ZM345.49 20.1591C344.8 20.1591 344.195 19.995 343.675 19.6669C343.158 19.3388 342.754 18.8797 342.462 18.2898C342.174 17.6998 342.029 17.0104 342.029 16.2216C342.029 15.4261 342.174 14.7318 342.462 14.1385C342.754 13.5452 343.158 13.0845 343.675 12.7564C344.195 12.4283 344.8 12.2642 345.49 12.2642C346.179 12.2642 346.782 12.4283 347.299 12.7564C347.82 13.0845 348.224 13.5452 348.512 14.1385C348.804 14.7318 348.95 15.4261 348.95 16.2216C348.95 17.0104 348.804 17.6998 348.512 18.2898C348.224 18.8797 347.82 19.3388 347.299 19.6669C346.782 19.995 346.179 20.1591 345.49 20.1591ZM345.49 19.1051C346.013 19.1051 346.444 18.9709 346.782 18.7024C347.12 18.4339 347.371 18.081 347.533 17.6435C347.695 17.206 347.777 16.732 347.777 16.2216C347.777 15.7112 347.695 15.2356 347.533 14.7947C347.371 14.3539 347.12 13.9976 346.782 13.7259C346.444 13.4541 346.013 13.3182 345.49 13.3182C344.966 13.3182 344.535 13.4541 344.197 13.7259C343.859 13.9976 343.609 14.3539 343.446 14.7947C343.284 15.2356 343.203 15.7112 343.203 16.2216C343.203 16.732 343.284 17.206 343.446 17.6435C343.609 18.081 343.859 18.4339 344.197 18.7024C344.535 18.9709 344.966 19.1051 345.49 19.1051ZM350.741 20V12.3636H351.874V13.5568H351.974C352.133 13.1491 352.39 12.8326 352.744 12.6072C353.099 12.3786 353.525 12.2642 354.022 12.2642C354.526 12.2642 354.945 12.3786 355.28 12.6072C355.618 12.8326 355.881 13.1491 356.07 13.5568H356.15C356.345 13.1624 356.639 12.8492 357.03 12.6172C357.421 12.3819 357.89 12.2642 358.437 12.2642C359.12 12.2642 359.678 12.478 360.112 12.9055C360.546 13.3298 360.764 13.991 360.764 14.8892V20H359.59V14.8892C359.59 14.3258 359.436 13.9231 359.128 13.6811C358.82 13.4392 358.457 13.3182 358.039 13.3182C357.502 13.3182 357.086 13.4806 356.791 13.8054C356.496 14.1269 356.349 14.5346 356.349 15.0284V20H355.156V14.7699C355.156 14.3357 355.015 13.986 354.733 13.7209C354.451 13.4524 354.088 13.3182 353.644 13.3182C353.339 13.3182 353.054 13.3994 352.789 13.5618C352.527 13.7242 352.315 13.9496 352.153 14.2379C351.994 14.523 351.914 14.8527 351.914 15.2273V20H350.741Z" fill="black"/>
<path d="M594 15.6563C594 18.621 596.453 21 599.503 21C602.553 21 605 18.621 605 15.6563C605 15.3665 604.788 15.1552 604.483 15.1552C604.191 15.1552 603.998 15.3665 603.998 15.6563C603.998 18.0836 601.999 20.0278 599.503 20.0278C597.007 20.0278 595.002 18.0836 595.002 15.6563C595.002 13.235 597.007 11.2968 599.503 11.2968C599.976 11.2968 600.418 11.333 600.785 11.4176L598.924 13.2048C598.831 13.3014 598.781 13.4222 598.781 13.549C598.781 13.8268 598.993 14.032 599.273 14.032C599.428 14.032 599.547 13.9837 599.634 13.8932L602.199 11.3934C602.311 11.2908 602.354 11.17 602.354 11.0311C602.354 10.8983 602.298 10.7654 602.199 10.6688L599.634 8.14491C599.547 8.0483 599.422 8 599.273 8C598.993 8 598.781 8.21737 598.781 8.49512C598.781 8.62192 598.831 8.74268 598.918 8.83929L600.574 10.4273C600.25 10.3669 599.883 10.3247 599.503 10.3247C596.453 10.3247 594 12.6976 594 15.6563Z" fill="#8C8C8C"/>
</svg>
