<svg width="279" height="29" viewBox="0 0 279 29" fill="none" xmlns="http://www.w3.org/2000/svg">
<rect width="279" height="29" rx="8" fill="#F1F1F1"/>
<path opacity="0.8" d="M85.6484 20.7189H92.3516C93.4286 20.7189 94 20.2002 94 19.176V14.7095C94 13.6852 93.4286 13.1731 92.3516 13.1731H85.6484C84.5714 13.1731 84 13.6852 84 14.7095V19.176C84 20.2002 84.5714 20.7189 85.6484 20.7189ZM85.282 13.6723H86.4469V11.4812C86.4469 9.84754 87.6264 8.97887 88.9963 8.97887C90.3663 8.97887 91.5604 9.84754 91.5604 11.4812V13.6723H92.7179V11.6238C92.7179 9.18632 90.9157 8 88.9963 8C87.0842 8 85.282 9.18632 85.282 11.6238V13.6723Z" fill="#8C8C8C"/>
<path d="M106.622 20.1591C105.986 20.1591 105.424 19.9983 104.937 19.6768C104.45 19.352 104.069 18.8946 103.794 18.3047C103.518 17.7114 103.381 17.0104 103.381 16.2017C103.381 15.3996 103.518 14.7036 103.794 14.1136C104.069 13.5237 104.451 13.0679 104.942 12.7464C105.433 12.425 105.999 12.2642 106.642 12.2642C107.139 12.2642 107.532 12.3471 107.821 12.5128C108.112 12.6752 108.334 12.8608 108.487 13.0696C108.643 13.2751 108.764 13.4441 108.85 13.5767H108.949V9.81818H110.122V20H108.989V18.8267H108.85C108.764 18.9659 108.641 19.1416 108.482 19.3537C108.323 19.5625 108.096 19.7498 107.801 19.9155C107.506 20.0779 107.113 20.1591 106.622 20.1591ZM106.782 19.1051C107.252 19.1051 107.65 18.9825 107.975 18.7372C108.3 18.4886 108.546 18.1456 108.715 17.7081C108.884 17.2673 108.969 16.7585 108.969 16.1818C108.969 15.6117 108.886 15.1129 108.72 14.6854C108.555 14.2545 108.309 13.9197 107.985 13.6811C107.66 13.4392 107.259 13.3182 106.782 13.3182C106.284 13.3182 105.87 13.4458 105.539 13.701C105.21 13.9529 104.964 14.2959 104.798 14.7301C104.635 15.161 104.554 15.6449 104.554 16.1818C104.554 16.7254 104.637 17.2192 104.803 17.6634C104.972 18.1042 105.22 18.4555 105.549 18.7173C105.88 18.9759 106.291 19.1051 106.782 19.1051ZM115.536 20.1591C114.847 20.1591 114.242 19.995 113.722 19.6669C113.205 19.3388 112.8 18.8797 112.509 18.2898C112.22 17.6998 112.076 17.0104 112.076 16.2216C112.076 15.4261 112.22 14.7318 112.509 14.1385C112.8 13.5452 113.205 13.0845 113.722 12.7564C114.242 12.4283 114.847 12.2642 115.536 12.2642C116.226 12.2642 116.829 12.4283 117.346 12.7564C117.867 13.0845 118.271 13.5452 118.559 14.1385C118.851 14.7318 118.997 15.4261 118.997 16.2216C118.997 17.0104 118.851 17.6998 118.559 18.2898C118.271 18.8797 117.867 19.3388 117.346 19.6669C116.829 19.995 116.226 20.1591 115.536 20.1591ZM115.536 19.1051C116.06 19.1051 116.491 18.9709 116.829 18.7024C117.167 18.4339 117.417 18.081 117.58 17.6435C117.742 17.206 117.823 16.732 117.823 16.2216C117.823 15.7112 117.742 15.2356 117.58 14.7947C117.417 14.3539 117.167 13.9976 116.829 13.7259C116.491 13.4541 116.06 13.3182 115.536 13.3182C115.013 13.3182 114.582 13.4541 114.244 13.7259C113.906 13.9976 113.656 14.3539 113.493 14.7947C113.331 15.2356 113.25 15.7112 113.25 16.2216C113.25 16.732 113.331 17.206 113.493 17.6435C113.656 18.081 113.906 18.4339 114.244 18.7024C114.582 18.9709 115.013 19.1051 115.536 19.1051ZM123.87 23.0227C123.303 23.0227 122.816 22.9498 122.408 22.804C122.001 22.6615 121.661 22.4725 121.389 22.2372C121.121 22.0052 120.907 21.7566 120.748 21.4915L121.683 20.8352C121.789 20.9744 121.923 21.1335 122.085 21.3125C122.248 21.4948 122.47 21.6522 122.752 21.7848C123.037 21.9207 123.409 21.9886 123.87 21.9886C124.487 21.9886 124.995 21.8395 125.396 21.5412C125.797 21.2429 125.998 20.7756 125.998 20.1392V18.5881H125.899C125.812 18.7273 125.69 18.8996 125.531 19.1051C125.375 19.3073 125.149 19.4879 124.854 19.647C124.563 19.8028 124.168 19.8807 123.671 19.8807C123.055 19.8807 122.501 19.7348 122.011 19.4432C121.524 19.1515 121.137 18.7273 120.852 18.1705C120.571 17.6136 120.43 16.9375 120.43 16.142C120.43 15.3598 120.567 14.6787 120.842 14.0987C121.118 13.5154 121.5 13.0646 121.991 12.7464C122.481 12.425 123.048 12.2642 123.691 12.2642C124.188 12.2642 124.583 12.3471 124.874 12.5128C125.169 12.6752 125.395 12.8608 125.551 13.0696C125.71 13.2751 125.832 13.4441 125.918 13.5767H126.038V12.3636H127.171V20.2188C127.171 20.875 127.022 21.4086 126.724 21.8196C126.429 22.2339 126.031 22.5372 125.531 22.7294C125.033 22.925 124.48 23.0227 123.87 23.0227ZM123.83 18.8267C124.301 18.8267 124.699 18.719 125.024 18.5036C125.348 18.2881 125.595 17.9782 125.764 17.5739C125.933 17.1695 126.018 16.6856 126.018 16.1222C126.018 15.572 125.935 15.0864 125.769 14.6655C125.604 14.2446 125.358 13.9148 125.033 13.6761C124.709 13.4375 124.308 13.3182 123.83 13.3182C123.333 13.3182 122.919 13.4441 122.587 13.696C122.259 13.9479 122.012 14.286 121.847 14.7102C121.684 15.1345 121.603 15.6051 121.603 16.1222C121.603 16.6525 121.686 17.1214 121.852 17.5291C122.021 17.9335 122.269 18.2517 122.597 18.4837C122.929 18.7124 123.34 18.8267 123.83 18.8267ZM131.566 20.179C131.082 20.179 130.643 20.0878 130.249 19.9055C129.854 19.7199 129.541 19.4531 129.309 19.1051C129.077 18.7538 128.961 18.3295 128.961 17.8324C128.961 17.3949 129.047 17.0402 129.22 16.7685C129.392 16.4934 129.622 16.2779 129.911 16.1222C130.199 15.9664 130.517 15.8504 130.865 15.7741C131.216 15.6946 131.569 15.6316 131.924 15.5852C132.388 15.5256 132.764 15.4808 133.053 15.451C133.344 15.4179 133.556 15.3632 133.689 15.2869C133.825 15.2107 133.893 15.0781 133.893 14.8892V14.8494C133.893 14.3589 133.759 13.9777 133.49 13.706C133.225 13.4342 132.822 13.2983 132.282 13.2983C131.722 13.2983 131.283 13.4209 130.965 13.6662C130.646 13.9115 130.423 14.1733 130.293 14.4517L129.18 14.054C129.379 13.59 129.644 13.2287 129.975 12.9702C130.31 12.7083 130.675 12.526 131.069 12.4233C131.467 12.3172 131.858 12.2642 132.242 12.2642C132.488 12.2642 132.769 12.294 133.087 12.3537C133.409 12.41 133.719 12.5277 134.017 12.7067C134.319 12.8857 134.569 13.1558 134.768 13.517C134.967 13.8783 135.066 14.3622 135.066 14.9688V20H133.893V18.9659H133.833C133.754 19.1316 133.621 19.3089 133.435 19.4979C133.25 19.6868 133.003 19.8475 132.695 19.9801C132.386 20.1127 132.01 20.179 131.566 20.179ZM131.745 19.125C132.209 19.125 132.6 19.0339 132.918 18.8516C133.24 18.6693 133.482 18.4339 133.644 18.1456C133.81 17.8572 133.893 17.554 133.893 17.2358V16.1619C133.843 16.2216 133.734 16.2763 133.565 16.326C133.399 16.3724 133.207 16.4138 132.988 16.4503C132.773 16.4834 132.562 16.5133 132.357 16.5398C132.154 16.563 131.99 16.5829 131.864 16.5994C131.56 16.6392 131.274 16.7038 131.009 16.7933C130.747 16.8795 130.535 17.0104 130.373 17.1861C130.214 17.3584 130.134 17.5937 130.134 17.892C130.134 18.2997 130.285 18.608 130.587 18.8168C130.892 19.0223 131.278 19.125 131.745 19.125ZM140.529 12.3636V13.358H136.571V12.3636H140.529ZM137.725 10.5341H138.898V17.8125C138.898 18.1439 138.946 18.3925 139.042 18.5582C139.142 18.7206 139.268 18.83 139.42 18.8864C139.576 18.9394 139.74 18.9659 139.912 18.9659C140.041 18.9659 140.148 18.9593 140.23 18.946C140.313 18.9295 140.38 18.9162 140.429 18.9062L140.668 19.9602C140.588 19.9901 140.477 20.0199 140.335 20.0497C140.192 20.0829 140.012 20.0994 139.793 20.0994C139.461 20.0994 139.137 20.0282 138.818 19.8857C138.504 19.7431 138.242 19.526 138.033 19.2344C137.827 18.9427 137.725 18.5748 137.725 18.1307V10.5341ZM143.631 15.4062V20H142.458V9.81818H143.631V13.5568H143.73C143.909 13.1624 144.178 12.8492 144.536 12.6172C144.897 12.3819 145.378 12.2642 145.978 12.2642C146.498 12.2642 146.954 12.3686 147.345 12.5774C147.736 12.7829 148.039 13.0994 148.255 13.527C148.473 13.9512 148.583 14.4915 148.583 15.1477V20H147.409V15.2273C147.409 14.6207 147.252 14.1518 146.937 13.8203C146.626 13.4856 146.193 13.3182 145.639 13.3182C145.255 13.3182 144.91 13.3994 144.605 13.5618C144.304 13.7242 144.065 13.9612 143.889 14.2727C143.717 14.5843 143.631 14.9621 143.631 15.4062ZM153.931 20.1591C153.195 20.1591 152.56 19.9967 152.027 19.6719C151.496 19.3438 151.087 18.8864 150.799 18.2997C150.514 17.7098 150.371 17.0237 150.371 16.2415C150.371 15.4593 150.514 14.7699 150.799 14.1733C151.087 13.5734 151.488 13.1061 152.002 12.7713C152.519 12.4332 153.122 12.2642 153.812 12.2642C154.209 12.2642 154.602 12.3305 154.99 12.4631C155.378 12.5956 155.731 12.8111 156.049 13.1094C156.367 13.4044 156.62 13.7955 156.809 14.2827C156.998 14.7699 157.093 15.3698 157.093 16.0824V16.5795H151.206V15.5653H155.9C155.9 15.1345 155.813 14.75 155.641 14.4119C155.472 14.0739 155.23 13.8071 154.915 13.6115C154.604 13.416 154.236 13.3182 153.812 13.3182C153.344 13.3182 152.94 13.4342 152.598 13.6662C152.26 13.8949 152 14.1932 151.818 14.5611C151.636 14.929 151.544 15.3234 151.544 15.7443V16.4205C151.544 16.9972 151.644 17.486 151.843 17.8871C152.045 18.2848 152.325 18.5881 152.683 18.7969C153.041 19.0024 153.457 19.1051 153.931 19.1051C154.239 19.1051 154.517 19.062 154.766 18.9759C155.018 18.8864 155.235 18.7538 155.417 18.5781C155.6 18.3991 155.741 18.1771 155.84 17.9119L156.973 18.2301C156.854 18.6146 156.654 18.9527 156.372 19.2443C156.09 19.5327 155.742 19.758 155.328 19.9205C154.914 20.0795 154.448 20.1591 153.931 20.1591ZM158.878 20V12.3636H160.011V13.517H160.091C160.23 13.1392 160.482 12.8326 160.846 12.5973C161.211 12.362 161.622 12.2443 162.079 12.2443C162.165 12.2443 162.273 12.246 162.402 12.2493C162.532 12.2526 162.629 12.2576 162.696 12.2642V13.4574C162.656 13.4474 162.565 13.4325 162.422 13.4126C162.283 13.3894 162.136 13.3778 161.98 13.3778C161.609 13.3778 161.277 13.4557 160.986 13.6115C160.697 13.764 160.468 13.9761 160.299 14.2479C160.134 14.5163 160.051 14.8229 160.051 15.1676V20H158.878ZM164.067 20.0795C163.821 20.0795 163.611 19.9917 163.435 19.8161C163.26 19.6404 163.172 19.4299 163.172 19.1847C163.172 18.9394 163.26 18.7289 163.435 18.5533C163.611 18.3776 163.821 18.2898 164.067 18.2898C164.312 18.2898 164.522 18.3776 164.698 18.5533C164.874 18.7289 164.962 18.9394 164.962 19.1847C164.962 19.3471 164.92 19.4962 164.837 19.6321C164.758 19.768 164.65 19.8774 164.514 19.9602C164.382 20.0398 164.232 20.0795 164.067 20.0795ZM170.169 20.1591C169.453 20.1591 168.837 19.9901 168.32 19.652C167.803 19.3139 167.405 18.8482 167.127 18.255C166.848 17.6617 166.709 16.9839 166.709 16.2216C166.709 15.446 166.852 14.7616 167.137 14.1683C167.425 13.5717 167.826 13.1061 168.34 12.7713C168.857 12.4332 169.46 12.2642 170.149 12.2642C170.686 12.2642 171.17 12.3636 171.601 12.5625C172.032 12.7614 172.385 13.0398 172.66 13.3977C172.935 13.7557 173.106 14.1733 173.172 14.6506H171.999C171.909 14.3026 171.71 13.9943 171.402 13.7259C171.097 13.4541 170.686 13.3182 170.169 13.3182C169.712 13.3182 169.311 13.4375 168.966 13.6761C168.625 13.9115 168.358 14.2446 168.166 14.6754C167.977 15.103 167.882 15.6051 167.882 16.1818C167.882 16.7718 167.975 17.2855 168.161 17.723C168.35 18.1605 168.615 18.5002 168.956 18.7422C169.301 18.9841 169.705 19.1051 170.169 19.1051C170.474 19.1051 170.751 19.0521 171 18.946C171.248 18.84 171.459 18.6875 171.631 18.4886C171.803 18.2898 171.926 18.0511 171.999 17.7727H173.172C173.106 18.2235 172.942 18.6295 172.68 18.9908C172.421 19.3487 172.078 19.6338 171.651 19.8459C171.227 20.0547 170.733 20.1591 170.169 20.1591ZM177.99 20.1591C177.3 20.1591 176.695 19.995 176.175 19.6669C175.658 19.3388 175.254 18.8797 174.962 18.2898C174.674 17.6998 174.529 17.0104 174.529 16.2216C174.529 15.4261 174.674 14.7318 174.962 14.1385C175.254 13.5452 175.658 13.0845 176.175 12.7564C176.695 12.4283 177.3 12.2642 177.99 12.2642C178.679 12.2642 179.282 12.4283 179.799 12.7564C180.32 13.0845 180.724 13.5452 181.012 14.1385C181.304 14.7318 181.45 15.4261 181.45 16.2216C181.45 17.0104 181.304 17.6998 181.012 18.2898C180.724 18.8797 180.32 19.3388 179.799 19.6669C179.282 19.995 178.679 20.1591 177.99 20.1591ZM177.99 19.1051C178.513 19.1051 178.944 18.9709 179.282 18.7024C179.62 18.4339 179.871 18.081 180.033 17.6435C180.195 17.206 180.277 16.732 180.277 16.2216C180.277 15.7112 180.195 15.2356 180.033 14.7947C179.871 14.3539 179.62 13.9976 179.282 13.7259C178.944 13.4541 178.513 13.3182 177.99 13.3182C177.466 13.3182 177.035 13.4541 176.697 13.7259C176.359 13.9976 176.109 14.3539 175.946 14.7947C175.784 15.2356 175.703 15.7112 175.703 16.2216C175.703 16.732 175.784 17.206 175.946 17.6435C176.109 18.081 176.359 18.4339 176.697 18.7024C177.035 18.9709 177.466 19.1051 177.99 19.1051ZM183.241 20V12.3636H184.374V13.5568H184.474C184.633 13.1491 184.89 12.8326 185.244 12.6072C185.599 12.3786 186.025 12.2642 186.522 12.2642C187.026 12.2642 187.445 12.3786 187.78 12.6072C188.118 12.8326 188.381 13.1491 188.57 13.5568H188.65C188.845 13.1624 189.139 12.8492 189.53 12.6172C189.921 12.3819 190.39 12.2642 190.937 12.2642C191.62 12.2642 192.178 12.478 192.612 12.9055C193.046 13.3298 193.264 13.991 193.264 14.8892V20H192.09V14.8892C192.09 14.3258 191.936 13.9231 191.628 13.6811C191.32 13.4392 190.957 13.3182 190.539 13.3182C190.002 13.3182 189.586 13.4806 189.291 13.8054C188.996 14.1269 188.849 14.5346 188.849 15.0284V20H187.656V14.7699C187.656 14.3357 187.515 13.986 187.233 13.7209C186.951 13.4524 186.588 13.3182 186.144 13.3182C185.839 13.3182 185.554 13.3994 185.289 13.5618C185.027 13.7242 184.815 13.9496 184.653 14.2379C184.494 14.523 184.414 14.8527 184.414 15.2273V20H183.241Z" fill="black"/>
</svg>
