<svg width="14" height="14" viewBox="0 0 14 14" fill="none" xmlns="http://www.w3.org/2000/svg">
<path d="M13.667 2.28744C13.667 1.02619 12.6411 0 11.3799 0C10.7689 0 10.1944 0.237823 9.76247 0.670052L7.61 2.8222L7.3637 2.5759C7.24236 2.45456 7.0458 2.45456 6.92449 2.5759L5.68202 3.81836C5.56068 3.93971 5.56068 4.13627 5.68202 4.25758L6.08364 4.6592L1.69744 9.04541C1.40382 9.33874 1.24244 9.72883 1.24244 10.1438C1.24244 10.5578 1.1211 10.9591 0.891164 11.3047L0.0521576 12.5629C-0.0297571 12.686 -0.013974 12.8501 0.0909746 12.9548L0.712192 13.576C0.772267 13.6361 0.851736 13.667 0.931816 13.667C0.991279 13.667 1.05132 13.65 1.10412 13.6148L2.41697 12.7397C2.72576 12.5335 3.0855 12.4246 3.4574 12.4246C3.88328 12.4246 4.29399 12.248 4.58457 11.9401C5.15364 11.335 8.57012 7.99697 9.00307 7.57866L9.40939 7.98498C9.47004 8.04563 9.54954 8.07598 9.62901 8.07598C9.70848 8.07598 9.78795 8.04563 9.84863 7.98498L11.0911 6.74251C11.2124 6.62117 11.2124 6.42461 11.0911 6.30329L10.8448 6.05697L12.9972 3.90482C13.4292 3.47285 13.667 2.89867 13.667 2.28744ZM6.0632 8.69719H3.80256L6.96208 5.53767L8.12435 6.69994C7.6125 7.19451 6.88651 7.89718 6.0632 8.69719Z" fill="white"/>
</svg>
