<svg xmlns="http://www.w3.org/2000/svg" xmlns:xlink="http://www.w3.org/1999/xlink" version="1.1"  x="0px" y="0px" width="32" height="32" viewBox="0 0 24 24" style="enable-background:new 0 0 24 24;" xml:space="preserve" preserveAspectRatio="none" viewbox="0 0 32 32">

<path class="st4" d="M0,0h24v24H0V0z" style="fill:none;;"></path>
<path id="581045028_shock_x5F_color" class="stshockcolor" d="M12,3c-4.97,0-9,4.03-9,9c0,4.971,4.03,9,9,9c0.83,0,1.5-0.67,1.5-1.5  c0-0.391-0.15-0.74-0.391-1.01c-0.229-0.26-0.379-0.61-0.379-0.99c0-0.83,0.67-1.5,1.5-1.5H16c2.76,0,5-2.24,5-5  C21,6.58,16.971,3,12,3z" style="fill:#FF9800;;" data-st="fill:#FF9800;;"></path>
<circle class="st1" cx="6.5" cy="10.5" r="1.5" style="fill:#1976D2;;"></circle>
<circle class="st2" cx="9.5" cy="6.5" r="1.5" style="fill:#FF5722;;"></circle>
<circle class="st5" cx="14.5" cy="6.5" r="1.5" style="fill:#D32F2F;;"></circle>
<circle class="st0" cx="17.5" cy="10.5" r="1.5" style="fill:#7B1FA2;;"></circle>
</svg>