<svg xmlns="http://www.w3.org/2000/svg" xmlns:xlink="http://www.w3.org/1999/xlink" version="1.1"  x="0px" y="0px" width="32" height="32" viewBox="0 0 24 24" style="enable-background:new 0 0 24 24;" xml:space="preserve" preserveAspectRatio="none" viewbox="0 0 32 32">

<rect class="st1" width="24" height="24" style="fill:none;;"></rect>
<path id="58129003_shock_x5F_color_focus" class="stshockcolor" d="M19,5h-2V3c0-1.1-0.9-2-2-2H4C2.9,1,2,1.9,2,3v14c0,1.1,0.9,2,2,2h2v2c0,1.1,0.9,2,2,2h11  c1.1,0,2-0.9,2-2V7C21,5.9,20.1,5,19,5z" style="fill:#CFD8DC;;" data-st="fill:#CFD8DC;;"></path>
<path class="st0" d="M19,5H8C6.9,5,6,5.9,6,7v14c0,1.1,0.9,2,2,2h11c1.1,0,2-0.9,2-2V7C21,5.9,20.1,5,19,5z" style="opacity:0.6;fill:#FFFFFF;;"></path>
</svg>