<svg xmlns="http://www.w3.org/2000/svg" xmlns:xlink="http://www.w3.org/1999/xlink" version="1.1" x="0px" y="0px" width="32" height="32" viewBox="0 0 24 24" style="enable-background:new 0 0 24 24;" xml:space="preserve" preserveAspectRatio="none" viewbox="0 0 32 32">

<rect class="st1" width="24" height="24" style="fill:none;;"></rect>
<path id="58545682_shock_x5F_color_focus" class="stshockcolor" d="M20.49,7.29L18.53,9.6l1.52,1.3l-1.28,1.5l-1.52-1.3L8.82,21H4.21l-0.72-4.54l8.43-9.9  L10.4,5.27l1.3-1.53l1.52,1.3l1.94-2.28c0,0,1.3-1.53,2.82-0.23l2.289,1.95C21.77,5.76,20.49,7.29,20.49,7.29z" style="fill: rgb(63, 81, 181);" data-st="fill:#311B92;;"></path>
<path class="st0" d="M11.92,6.56l-8.43,9.9L4.21,21h4.61l8.43-9.9L11.92,6.56z M7.9,19l-1.98,0.01l-0.31-1.95l5.54-6.68l2.28,1.95  L7.9,19z" style="opacity:0.6;fill:#FFFFFF;;"></path>
</svg>