<svg xmlns="http://www.w3.org/2000/svg" xmlns:xlink="http://www.w3.org/1999/xlink" version="1.1"  x="0px" y="0px" width="32" height="32" viewBox="0 0 24 24" style="enable-background:new 0 0 24 24;" xml:space="preserve" preserveAspectRatio="none" viewbox="0 0 32 32">

<rect class="st3" width="24" height="24" style="fill:none;;"></rect>
<path id="582244958_shock_x5F_color" class="stshockcolor" d="M22.71,21.29l-1.42,1.42l-4.68-4.68C15.07,19.26,13.12,20,11,20c-4.97,0-9-4.03-9-9  c0-4.97,4.03-9,9-9c4.97,0,9,4.03,9,9c0,2.12-0.74,4.07-1.97,5.61L22.71,21.29z" style="fill: rgb(63, 81, 181);" data-st="fill:#AB47BC;;"></path>
<path class="st2" d="M11,2c-4.97,0-9,4.03-9,9c0,4.97,4.03,9,9,9c4.97,0,9-4.03,9-9C20,6.03,15.97,2,11,2z M11,18  c-3.86,0-7-3.14-7-7c0-3.86,3.14-7,7-7c3.86,0,7,3.14,7,7C18,14.86,14.86,18,11,18z" style="opacity:0.25;fill:#FFFFFF;;"></path>
<path class="st1" d="M16,10h1.92C17.49,6.93,15.07,4.51,12,4.08V6h-2V4.08C6.93,4.51,4.51,6.93,4.08,10H6v2H4.08  c0.43,3.07,2.85,5.49,5.92,5.92V16h2v1.92c3.07-0.43,5.49-2.85,5.92-5.92H16V10z M14,12h-2v2h-2v-2H8v-2h2V8h2v2h2V12z" style="opacity:0.8;fill:#FFFFFF;;"></path>
</svg>