<svg xmlns="http://www.w3.org/2000/svg" xmlns:xlink="http://www.w3.org/1999/xlink" version="1.1"  x="0px" y="0px" width="32" height="32" viewBox="0 0 24 24" style="enable-background:new 0 0 24 24;" xml:space="preserve" preserveAspectRatio="none" viewbox="0 0 32 32">

<rect class="st2" width="24" height="24" style="fill:none;;"></rect>
<path id="58545709_shock_x5F_color_focus" class="stshockcolor" d="M2,2h2v2H2V2z M6,2h2v2H6V2z M10,2h2v2h-2V2z M14,2h2v2h-2V2z M18,2h2v2h-2V2z M20,4h2v2  h-2V4z M16,4h2v2h-2V4z M12,4h2v2h-2V4z M8,4h2v2H8V4z M4,4h2v2H4V4z M2,6h2v2H2V6z M6,6h2v2H6V6z M10,6h2v2h-2V6z M14,6h2v2h-2V6z   M18,6h2v2h-2V6z M20,8h2v2h-2V8z M16,8h2v2h-2V8z M12,8h2v2h-2V8z M8,8h2v2H8V8z M4,8h2v2H4V8z M2,10h2v2H2V10z M6,10h2v2H6V10z   M10,10h2v2h-2V10z M14,10h2v2h-2V10z M18,10h2v2h-2V10z M20,12h2v2h-2V12z M16,12h2v2h-2V12z M12,12h2v2h-2V12z M8,12h2v2H8V12z   M4,12h2v2H4V12z M2,14h2v2H2V14z M6,14h2v2H6V14z M10,14h2v2h-2V14z M14,14h2v2h-2V14z M18,14h2v2h-2V14z M2,18h2v2H2V18z M6,18h2  v2H6V18z M10,18h2v2h-2V18z M14,18h2v2h-2V18z M18,18h2v2h-2V18z M20,16h2v2h-2V16z M16,16h2v2h-2V16z M12,16h2v2h-2V16z M8,16h2v2  H8V16z M4,16h2v2H4V16z M20,20h2v2h-2V20z M16,20h2v2h-2V20z M12,20h2v2h-2V20z M8,20h2v2H8V20z M4,20h2v2H4V20z" style="fill: rgb(33, 150, 243);" data-st="fill:#263238;;"></path>
<path class="st3" d="M18,2h2v2h-2V2z M20,4h2v2h-2V4z M16,4h2v2h-2V4z M18,6h2v2h-2V6z M20,8h2v2h-2V8z M16,8h2v2h-2V8z M18,10h2v2  h-2V10z M20,12h2v2h-2V12z M16,12h2v2h-2V12z M18,14h2v2h-2V14z M18,18h2v2h-2V18z M20,16h2v2h-2V16z M16,16h2v2h-2V16z M20,20h2v2  h-2V20z M16,20h2v2h-2V20z" style="opacity:0.4;fill:#FFFFFF;;"></path>
<path class="st1" d="M10,2h2v2h-2V2z M14,2h2v2h-2V2z M12,4h2v2h-2V4z M10,6h2v2h-2V6z M14,6h2v2h-2V6z M12,8h2v2h-2V8z M10,10h2v2  h-2V10z M14,10h2v2h-2V10z M12,12h2v2h-2V12z M10,14h2v2h-2V14z M14,14h2v2h-2V14z M10,18h2v2h-2V18z M14,18h2v2h-2V18z M12,16h2v2  h-2V16z M12,20h2v2h-2V20z" style="opacity:0.2;fill:#FFFFFF;;"></path>
</svg>