<svg xmlns="http://www.w3.org/2000/svg" xmlns:xlink="http://www.w3.org/1999/xlink" version="1.1"  x="0px" y="0px" width="32" height="32" viewBox="0 0 24 24" style="enable-background:new 0 0 24 24;" xml:space="preserve" preserveAspectRatio="none" viewbox="0 0 32 32">

<rect class="st2" width="24" height="24" style="fill:none;;"></rect>
<path id="58129026_shock_x5F_color_focus" class="stshockcolor" d="M12,2C6.48,2,2,6.48,2,12c0,5.52,4.48,10,10,10c5.52,0,10-4.48,10-10  C22,6.48,17.52,2,12,2z" style="fill:#42A5F5;;" data-st="fill:#42A5F5;;"></path>
<path class="st0" d="M12,2C6.49,2,2,6.49,2,12s4.49,10,10,10s10-4.49,10-10S17.51,2,12,2z M12,20c-4.42,0-8-3.59-8-8  c0-4.42,3.58-8,8-8c4.41,0,8,3.58,8,8C20,16.41,16.41,20,12,20z" style="opacity:0.2;fill:#FFFFFF;;"></path>
<path class="st1" d="M13,19h-2v-2h2V19z M15.07,11.25l-0.9,0.92C13.45,12.9,13,13.5,13,15h-2v-0.5c0-1.1,0.45-2.1,1.17-2.83  l1.24-1.26C13.779,10.05,14,9.55,14,9c0-1.1-0.9-2-2-2c-1.1,0-2,0.9-2,2H8c0-2.21,1.79-4,4-4s4,1.79,4,4  C16,9.88,15.641,10.68,15.07,11.25z" style="fill:#FFFFFF;;"></path>
</svg>