<svg xmlns="http://www.w3.org/2000/svg" xmlns:xlink="http://www.w3.org/1999/xlink" version="1.1"  x="0px" y="0px" width="32" height="32" viewBox="0 0 24 24" style="enable-background:new 0 0 24 24;" xml:space="preserve" preserveAspectRatio="none" viewbox="0 0 32 32">

<rect class="st1" width="24" height="24" style="fill:none;;"></rect>
<path id="58129027_shock_x5F_color_focus" class="stshockcolor" d="M22,12c0,4.97-4.03,9-9,9c-2.48,0-4.74-1.01-6.36-2.64c-0.68-0.67-1.26-1.471-1.7-2.351  L1,12h3c0-4.97,4.03-9,9-9C17.97,3,22,7.03,22,12z" style="fill:#FB8C00;;" data-st="fill:#FB8C00;;"></path>
<path class="st2" d="M8.05,16.95l-1.41,1.41c-0.67-0.66-1.25-1.45-1.68-2.32l1.51-1.51C6.82,15.45,7.36,16.26,8.05,16.95z" style="opacity:0.3;fill:#FFFFFF;enable-background:new    ;;"></path>
<path class="st3" d="M13,5c-3.87,0-7,3.13-7,7h3l-2.53,2.52c0.35,0.921,0.89,1.74,1.58,2.431C9.32,18.22,11.07,19,13,19  c3.86,0,7-3.14,7-7C20,8.13,16.87,5,13,5z M16.75,15.85L12,13V7h1.5v5.25l4,2.37L16.75,15.85z" style="opacity:0.7;fill:#FFFFFF;enable-background:new    ;;"></path>
</svg>