<svg width="412" height="300" viewBox="0 0 412 300" fill="none" xmlns="http://www.w3.org/2000/svg">
<path d="M279.449 177.22L257.232 255.69C257.232 255.69 239.722 259.69 240.062 260.75C240.402 261.81 267.707 265.41 267.707 265.41L295.394 184.09" fill="white"/>
<path d="M267.707 265.92H267.646C240.052 262.3 239.702 261.29 239.568 260.92C239.542 260.835 239.534 260.746 239.545 260.659C239.555 260.571 239.584 260.486 239.63 260.41C240.351 259.15 251.65 256.46 256.81 255.29L278.955 177.11C278.991 176.983 279.077 176.875 279.195 176.81C279.313 176.744 279.452 176.726 279.583 176.76C279.649 176.777 279.711 176.807 279.765 176.848C279.819 176.888 279.864 176.939 279.897 176.997C279.931 177.054 279.952 177.118 279.96 177.184C279.968 177.25 279.963 177.316 279.944 177.38L257.727 255.84C257.703 255.928 257.655 256.008 257.588 256.071C257.521 256.135 257.437 256.179 257.346 256.2C250.393 257.77 242.926 259.74 240.948 260.66C243.925 261.59 258.118 263.66 267.357 264.88L294.899 183.95C294.944 183.826 295.037 183.723 295.158 183.663C295.278 183.604 295.419 183.592 295.548 183.63C295.614 183.65 295.674 183.683 295.726 183.726C295.779 183.77 295.821 183.823 295.852 183.883C295.883 183.942 295.901 184.007 295.905 184.074C295.91 184.14 295.9 184.207 295.878 184.27L268.202 265.59C268.165 265.688 268.098 265.773 268.009 265.832C267.921 265.891 267.815 265.922 267.707 265.92Z" fill="#231F20"/>
<path d="M326.901 173.94L332.69 265.43C332.69 265.43 305.282 271.2 305.179 270.51C305.076 269.82 319.949 259.56 319.949 259.56L308.753 175.07" fill="white"/>
<path d="M305.344 271C304.993 271 304.921 271 304.87 270.92C304.752 270.831 304.671 270.703 304.643 270.56C304.581 270.19 304.489 269.56 319.362 259.3L308.217 175.1C308.199 174.967 308.237 174.833 308.321 174.727C308.405 174.621 308.529 174.552 308.665 174.535C308.802 174.518 308.94 174.554 309.049 174.635C309.158 174.717 309.229 174.837 309.247 174.97L320.443 259.46C320.454 259.551 320.44 259.644 320.402 259.728C320.364 259.813 320.304 259.886 320.227 259.94C315.654 263.09 308.65 268.06 306.353 269.94C310.215 269.45 323.41 266.81 332.103 264.94L326.386 174C326.382 173.934 326.391 173.868 326.414 173.806C326.436 173.744 326.47 173.687 326.515 173.637C326.56 173.588 326.615 173.548 326.676 173.519C326.737 173.491 326.803 173.474 326.871 173.47C327.006 173.464 327.139 173.51 327.241 173.598C327.343 173.686 327.406 173.808 327.416 173.94L333.174 265.43C333.184 265.549 333.149 265.668 333.075 265.764C333.001 265.86 332.893 265.926 332.772 265.95C311.606 270.37 306.621 271 305.344 271Z" fill="#231F20"/>
<path d="M282.55 97.63C281.149 98.06 279.738 98.47 278.316 98.83C267.045 101.844 255.388 103.285 243.698 103.11C239.794 103.01 234.583 103.11 231.008 101.49C228.227 100.21 225.611 97.97 223.047 96.32C222.387 95.9 221.326 95.55 220.987 96.22C220.698 96.73 221.131 97.33 221.543 97.74C223.027 99.2101 224.644 100.549 226.373 101.74C223.039 101.182 219.663 100.888 216.279 100.86C216.129 100.843 215.977 100.875 215.847 100.95C215.466 101.23 215.96 101.77 216.403 101.95C217.431 102.367 218.492 102.702 219.575 102.95C218.572 102.65 217.534 102.475 216.485 102.43C216.012 102.43 215.455 102.43 215.239 102.88C214.961 103.47 215.692 104.02 216.321 104.26C217.331 104.649 218.362 104.983 219.411 105.26C218.193 105.239 216.979 105.391 215.806 105.71C215.6 105.744 215.412 105.842 215.27 105.99C215.175 106.143 215.135 106.322 215.157 106.5C215.273 106.972 215.531 107.399 215.897 107.729C216.264 108.058 216.723 108.274 217.217 108.35C218.211 108.473 219.198 108.647 220.173 108.87C219.266 108.93 218.37 108.61 217.474 108.67C216.578 108.73 215.569 109.44 215.764 110.3C215.96 111.16 216.794 111.3 217.618 111.52C232.77 114.824 248.317 116.095 263.824 115.3C271.575 114.911 279.289 114.019 286.917 112.63C293.808 111.37 300.863 110.29 305.529 104.7C305.896 104.282 306.24 103.844 306.559 103.39C307.695 101.945 308.202 100.124 307.97 98.32C306.827 92.91 299.38 93.39 295.136 94.18C290.877 95.0967 286.674 96.2485 282.55 97.63Z" fill="white"/>
<path d="M254.781 116C242.224 116.02 229.704 114.678 217.454 112C216.599 111.81 215.394 111.44 215.208 110.39C215.161 110.167 215.165 109.937 215.22 109.715C215.275 109.494 215.38 109.287 215.528 109.11C215.708 108.874 215.936 108.677 216.197 108.53C215.77 108.363 215.395 108.09 215.11 107.74C214.825 107.389 214.638 106.972 214.57 106.53C214.525 106.228 214.599 105.922 214.776 105.67C214.986 105.431 215.272 105.265 215.589 105.2C215.96 105.1 216.341 105.02 216.722 104.95L216.063 104.7C215.472 104.497 214.98 104.087 214.683 103.55C214.62 103.408 214.587 103.255 214.587 103.1C214.587 102.945 214.62 102.792 214.683 102.65C214.763 102.487 214.879 102.343 215.024 102.229C215.168 102.115 215.337 102.033 215.517 101.99C215.32 101.809 215.19 101.57 215.147 101.31C215.125 101.166 215.145 101.02 215.203 100.886C215.261 100.752 215.355 100.636 215.476 100.55C215.696 100.411 215.956 100.345 216.218 100.36C218.947 100.383 221.672 100.577 224.375 100.94C223.229 100.044 222.139 99.0821 221.11 98.06C220.142 97.06 220.224 96.38 220.472 95.95C220.552 95.8019 220.665 95.6725 220.802 95.5707C220.939 95.4688 221.097 95.397 221.265 95.36C221.993 95.2702 222.73 95.4525 223.325 95.87C224.211 96.44 225.107 97.08 225.972 97.71C227.62 98.9624 229.381 100.067 231.235 101.01C234.274 102.4 238.713 102.48 242.266 102.55H243.708C255.35 102.734 266.959 101.3 278.183 98.29C279.419 97.97 280.716 97.6 282.395 97.1L284.805 96.36C288.151 95.2491 291.563 94.3374 295.023 93.63C298.638 92.95 307.177 92.05 308.413 98.16C308.763 99.8 308.238 101.64 306.858 103.62C306.538 104.083 306.194 104.53 305.828 104.96C301.234 110.47 294.395 111.71 287.772 112.96L286.917 113.12C279.266 114.516 271.527 115.411 263.752 115.8C260.772 115.933 257.782 116 254.781 116ZM217.649 109.15H217.454C217.24 109.165 217.031 109.221 216.84 109.316C216.649 109.41 216.48 109.541 216.341 109.7C216.284 109.763 216.242 109.839 216.221 109.92C216.199 110.002 216.198 110.088 216.218 110.17C216.3 110.54 216.774 110.82 217.68 111.02C232.788 114.315 248.29 115.58 263.752 114.78C271.478 114.394 279.169 113.505 286.773 112.12L287.638 111.96C294.075 110.79 300.729 109.58 305.086 104.36C305.426 103.96 305.745 103.53 306.044 103.1C306.588 102.444 306.993 101.691 307.235 100.882C307.477 100.074 307.552 99.2267 307.455 98.39C306.353 93.16 298.525 94.02 295.219 94.64C291.801 95.34 288.43 96.2417 285.125 97.34L282.704 98.08C281.015 98.59 279.697 98.96 278.45 99.28C267.135 102.321 255.428 103.77 243.688 103.58H242.246C238.589 103.51 234.006 103.43 230.792 101.94C228.874 100.979 227.057 99.8403 225.364 98.54C224.468 97.9 223.613 97.29 222.758 96.74C222.414 96.4753 221.982 96.3403 221.543 96.36C221.513 96.3659 221.485 96.3778 221.46 96.395C221.435 96.4123 221.414 96.4344 221.399 96.46C221.306 96.64 221.491 97 221.883 97.4C223.345 98.866 224.938 100.205 226.641 101.4C226.736 101.466 226.804 101.56 226.836 101.668C226.868 101.777 226.861 101.892 226.817 101.996C226.773 102.1 226.694 102.187 226.593 102.242C226.492 102.297 226.375 102.318 226.26 102.3C222.989 101.761 219.68 101.47 216.362 101.43C216.424 101.479 216.494 101.52 216.568 101.55C217.242 101.82 217.93 102.057 218.628 102.26C218.978 102.34 219.318 102.43 219.658 102.53C219.786 102.565 219.895 102.648 219.96 102.76C220.026 102.872 220.043 103.005 220.008 103.13C219.972 103.255 219.888 103.362 219.773 103.429C219.658 103.496 219.521 103.518 219.39 103.49C219.05 103.41 218.71 103.33 218.36 103.23C217.681 103.092 216.993 103.005 216.3 102.97C215.888 102.97 215.6 102.97 215.538 103.14C215.527 103.176 215.527 103.214 215.538 103.25C215.733 103.526 216.015 103.733 216.341 103.84C217.326 104.232 218.334 104.565 219.359 104.84C219.48 104.875 219.584 104.95 219.652 105.053C219.72 105.156 219.748 105.279 219.73 105.4C219.71 105.518 219.647 105.626 219.553 105.703C219.458 105.78 219.338 105.822 219.215 105.82C218.049 105.797 216.887 105.942 215.765 106.25C215.669 106.266 215.578 106.3 215.497 106.35C215.484 106.403 215.484 106.457 215.497 106.51C215.569 107.23 216.403 107.74 217.186 107.92C217.58 108.005 217.979 108.069 218.381 108.11C219 108.16 219.612 108.277 220.204 108.46C220.315 108.5 220.409 108.575 220.47 108.673C220.532 108.771 220.558 108.886 220.544 109C220.524 109.114 220.465 109.218 220.377 109.295C220.29 109.373 220.178 109.421 220.06 109.43C219.57 109.443 219.08 109.409 218.597 109.33C218.285 109.26 217.968 109.21 217.649 109.18V109.15Z" fill="#231F20"/>
<path d="M251.433 255.36L255.141 260.84L269.561 262.5L268.15 267.87C268.15 267.87 236.344 264.01 235.612 261.18C234.881 258.35 251.433 255.36 251.433 255.36Z" fill="#231F20"/>
<path d="M290.336 89.48C290.336 89.48 280.345 91.79 277.338 97.79C274.33 103.79 277.925 135.97 277.925 135.97L322.215 137.81C322.215 137.81 326.757 114.11 324.532 103.95C322.308 93.79 313.48 80.25 290.336 89.48Z" fill="#FDECC8"/>
<path d="M291.634 84L288.791 93C288.791 93 288.853 98.32 294.92 97.71C296.712 97.5107 298.436 96.9262 299.967 95.9991C301.497 95.0719 302.795 93.8254 303.768 92.35L305.931 76.25C304.987 75.4947 304.366 74.4252 304.19 73.25C304.03 72.3634 304.03 71.4566 304.19 70.57C304.252 70.23 304.643 68.24 305.045 68.17C303.894 68.3487 302.715 68.2537 301.61 67.8932C300.505 67.5326 299.506 66.9173 298.7 66.1C297.857 65.1363 297.163 64.0583 296.64 62.9C296.16 62.1964 295.972 61.3425 296.115 60.51C294.213 61.6833 292.369 62.9433 290.584 64.29C289.596 64.9879 288.7 65.8006 287.916 66.71C286.628 68.33 286.278 70.56 285.979 72.53C285.585 74.8697 285.416 77.2399 285.475 79.61C285.609 84.12 291.634 84 291.634 84Z" fill="white"/>
<path d="M293.972 98.27C292.572 98.3346 291.199 97.8807 290.13 97C289.027 95.9627 288.381 94.5504 288.328 93.06C288.318 93.0138 288.318 92.9662 288.328 92.92L290.985 84.48C288.647 84.33 285.083 83.2 284.949 79.63C284.893 77.233 285.065 74.8361 285.464 72.47C285.753 70.55 286.113 68.16 287.524 66.47C288.329 65.5279 289.253 64.688 290.275 63.97C292.067 62.62 293.941 61.34 295.847 60.16C295.926 60.1088 296.019 60.0815 296.115 60.0815C296.21 60.0815 296.303 60.1088 296.382 60.16C296.459 60.2171 296.516 60.2956 296.545 60.3849C296.575 60.4743 296.576 60.5703 296.547 60.66C296.449 61.3822 296.625 62.1144 297.042 62.72C297.567 63.8431 298.262 64.8843 299.102 65.81C299.857 66.5695 300.789 67.1427 301.819 67.4819C302.85 67.8211 303.948 67.9164 305.024 67.76C305.086 67.75 305.149 67.7519 305.209 67.7656C305.27 67.7793 305.328 67.8045 305.378 67.8399C305.429 67.8752 305.472 67.9199 305.505 67.9714C305.538 68.0229 305.56 68.0802 305.57 68.14C305.585 68.2387 305.567 68.3394 305.519 68.4275C305.47 68.5155 305.395 68.5865 305.302 68.63C305.014 69.2886 304.816 69.9812 304.715 70.69C304.566 71.5237 304.566 72.3763 304.715 73.21C304.868 74.2788 305.417 75.2566 306.26 75.96C306.33 76.0072 306.386 76.0723 306.42 76.1482C306.455 76.2241 306.467 76.3078 306.456 76.39L304.303 92.49C304.294 92.5499 304.273 92.6075 304.241 92.66C303.237 94.2038 301.886 95.5075 300.289 96.4737C298.693 97.4398 296.893 98.0436 295.023 98.24C294.58 98.25 294.292 98.27 293.972 98.27ZM289.265 93.11C289.337 94.3253 289.869 95.472 290.759 96.33C291.333 96.7715 291.997 97.0891 292.708 97.2615C293.418 97.434 294.158 97.4573 294.879 97.33C296.577 97.1447 298.213 96.6011 299.672 95.7374C301.13 94.8737 302.377 93.7108 303.325 92.33L305.385 76.57C304.462 75.7408 303.862 74.6284 303.685 73.42C303.515 72.4805 303.515 71.5195 303.685 70.58C303.782 69.9767 303.927 69.3816 304.118 68.8C303.037 68.8318 301.961 68.6426 300.96 68.2446C299.959 67.8467 299.056 67.2489 298.309 66.49C297.422 65.4952 296.69 64.3801 296.135 63.18C295.827 62.6416 295.615 62.0568 295.507 61.45C293.893 62.4767 292.321 63.5667 290.79 64.72C289.853 65.3777 289.002 66.1433 288.256 67C287.03 68.54 286.7 70.7 286.412 72.61C286.026 74.9238 285.858 77.2667 285.907 79.61C286.052 83.61 291.418 83.61 291.624 83.61C291.698 83.6084 291.771 83.6239 291.837 83.6552C291.903 83.6865 291.961 83.7327 292.005 83.79C292.05 83.8476 292.081 83.9145 292.096 83.9856C292.11 84.0568 292.107 84.1301 292.087 84.2L289.265 93.11Z" fill="#231F20"/>
<path d="M302.666 75C302.934 74.338 303.419 73.7795 304.046 73.41C304.639 73.0863 305.288 72.8694 305.961 72.77C306.324 72.6851 306.701 72.6851 307.064 72.77C307.316 72.8399 307.551 72.959 307.754 73.12C308.259 73.4605 308.624 73.9635 308.784 74.54C308.856 75.0196 308.813 75.5088 308.66 75.97C308.523 76.4801 308.319 76.9708 308.052 77.43C307.486 78.3366 306.573 78.988 305.513 79.2411C304.453 79.4942 303.332 79.3284 302.398 78.78" fill="white"/>
<path d="M304.581 79.66C303.749 79.6625 302.933 79.4409 302.223 79.02C302.13 78.9641 302.064 78.8757 302.037 78.7732C302.01 78.6707 302.025 78.5621 302.079 78.47C302.106 78.4244 302.143 78.3846 302.186 78.3532C302.23 78.3217 302.28 78.2992 302.333 78.2871C302.386 78.2749 302.441 78.2733 302.495 78.2824C302.548 78.2915 302.599 78.3111 302.645 78.34C303.061 78.5867 303.523 78.7508 304.005 78.823C304.486 78.8952 304.978 78.8739 305.451 78.7605C305.924 78.647 306.37 78.4436 306.761 78.162C307.153 77.8805 307.483 77.5263 307.733 77.12C307.978 76.6916 308.165 76.2346 308.289 75.76C308.437 75.3633 308.479 74.9369 308.413 74.52C308.263 74.0354 307.942 73.6176 307.507 73.34C307.347 73.2082 307.161 73.1095 306.961 73.05C306.654 73.007 306.342 73.0274 306.044 73.11C305.416 73.2035 304.809 73.4032 304.252 73.7C303.707 74.0261 303.285 74.5133 303.047 75.09C303.028 75.1391 303 75.1841 302.964 75.2223C302.927 75.2606 302.883 75.2914 302.834 75.3128C302.785 75.3343 302.732 75.3459 302.679 75.3472C302.625 75.3484 302.571 75.3392 302.521 75.32C302.47 75.3012 302.424 75.2728 302.384 75.2364C302.345 75.2 302.313 75.1564 302.291 75.108C302.269 75.0596 302.257 75.0075 302.256 74.9547C302.255 74.9018 302.265 74.8492 302.285 74.8C302.586 74.0477 303.137 73.4143 303.85 73C304.49 72.656 305.187 72.4226 305.91 72.31C306.333 72.2096 306.775 72.2096 307.198 72.31C307.5 72.3981 307.783 72.5405 308.032 72.73C308.628 73.1207 309.059 73.7063 309.247 74.38C309.335 74.9227 309.289 75.4779 309.113 76C308.969 76.5455 308.751 77.0701 308.465 77.56C308.159 78.0544 307.756 78.4854 307.279 78.8286C306.802 79.1717 306.26 79.4203 305.684 79.56C305.321 79.635 304.952 79.6685 304.581 79.66Z" fill="#231F20"/>
<path d="M290.213 88.21C291.282 88.4711 292.396 88.5062 293.48 88.313C294.564 88.1197 295.592 87.7027 296.496 87.09C297.312 86.5667 298.002 85.8787 298.52 85.0727C299.037 84.2668 299.369 83.3619 299.493 82.42C299.493 82.42 294.899 85.25 291.15 83.99L290.213 88.21Z" fill="#231F20"/>
<path d="M292.129 88.88C291.434 88.887 290.741 88.8029 290.069 88.63C289.959 88.5974 289.866 88.5256 289.809 88.4291C289.751 88.3326 289.734 88.2185 289.76 88.11L290.697 83.9C290.712 83.8392 290.741 83.7822 290.78 83.7323C290.818 83.6824 290.868 83.6408 290.924 83.61C290.982 83.5852 291.045 83.5724 291.109 83.5724C291.173 83.5724 291.236 83.5852 291.294 83.61C294.786 84.78 299.195 82.11 299.236 82.08C299.305 82.0384 299.386 82.0164 299.467 82.0164C299.549 82.0164 299.629 82.0384 299.699 82.08C299.772 82.1172 299.833 82.1734 299.875 82.2423C299.917 82.3112 299.938 82.39 299.936 82.47C299.811 83.4776 299.461 84.4467 298.912 85.31C298.362 86.1734 297.626 86.9104 296.753 87.47C295.408 88.4095 293.786 88.9039 292.129 88.88ZM290.749 87.88C291.692 88.0533 292.662 88.0417 293.602 87.8459C294.541 87.6502 295.43 87.2742 296.218 86.74C297.476 85.9042 298.408 84.6821 298.865 83.27C297.402 84.01 294.323 85.27 291.49 84.56L290.749 87.88Z" fill="#231F20"/>
<path d="M295.332 68.58C295.332 68.58 291.49 72.51 292.088 73.4C292.685 74.29 294.807 74.12 294.807 74.12" fill="white"/>
<path d="M294.364 74.58C293.622 74.58 292.242 74.46 291.706 73.64C291.047 72.64 293.138 70.18 295.002 68.27C295.086 68.1851 295.2 68.1359 295.321 68.1331C295.442 68.1302 295.559 68.1741 295.646 68.255C295.734 68.3359 295.784 68.4472 295.787 68.5644C295.79 68.6816 295.745 68.7951 295.662 68.88C293.869 70.72 292.376 72.73 292.479 73.19C292.798 73.66 294.158 73.73 294.766 73.68C294.825 73.6754 294.885 73.6822 294.942 73.7001C294.999 73.718 295.051 73.7465 295.097 73.7841C295.142 73.8217 295.179 73.8677 295.207 73.9193C295.234 73.9709 295.25 74.0272 295.255 74.085C295.26 74.1428 295.253 74.2009 295.234 74.256C295.216 74.3112 295.186 74.3623 295.148 74.4064C295.109 74.4505 295.062 74.4868 295.008 74.5131C294.955 74.5395 294.897 74.5554 294.838 74.56C294.68 74.5767 294.522 74.5834 294.364 74.58Z" fill="#231F20"/>
<path d="M301.093 69.9249C301.316 69.3869 301.176 68.8255 300.78 68.6708C300.384 68.5162 299.883 68.827 299.66 69.3649C299.437 69.9029 299.577 70.4644 299.973 70.619C300.368 70.7737 300.87 70.4629 301.093 69.9249Z" fill="#231F20"/>
<path d="M291.556 69.4114C291.779 68.8734 291.639 68.3119 291.243 68.1573C290.847 68.0027 290.345 68.3134 290.122 68.8514C289.9 69.3894 290.04 69.9509 290.435 70.1055C290.831 70.2601 291.333 69.9493 291.556 69.4114Z" fill="#231F20"/>
<path d="M289.533 76.45L297.135 76.16C297.135 76.16 296.929 81.16 292.5 81.56C288.071 81.96 289.533 76.45 289.533 76.45Z" fill="#231F20"/>
<path d="M317.786 137.4C317.786 137.4 328.477 148.96 331.464 161.7C337.737 188.5 337.922 229.5 337.922 229.5L256.717 223.87L276.04 135.27L317.786 137.4Z" fill="#231F20"/>
<path d="M332.69 131.35C331.068 131.355 329.456 131.098 327.921 130.59C327.854 130.568 327.791 130.533 327.737 130.487C327.684 130.441 327.64 130.386 327.608 130.323C327.577 130.261 327.558 130.193 327.553 130.124C327.549 130.055 327.558 129.986 327.581 129.92C327.604 129.854 327.64 129.794 327.687 129.742C327.735 129.689 327.792 129.647 327.856 129.616C327.92 129.586 327.99 129.567 328.061 129.563C328.132 129.558 328.204 129.568 328.271 129.59C331.182 130.47 334.298 130.485 337.218 129.633C340.138 128.781 342.729 127.102 344.659 124.81C346.511 122.443 347.699 119.649 348.107 116.703C348.515 113.757 348.129 110.758 346.986 108C344.659 102.4 339.663 98.32 334.832 94.37C333.988 93.68 333.133 92.98 332.309 92.28C326.263 87.21 323.039 82.22 321.401 75.6C319.908 69.4 318.157 62.96 314.686 58.26C311.802 54.36 304.746 49.85 299.534 51.93C297.917 52.6588 296.423 53.6232 295.105 54.79C295.046 54.8346 294.978 54.8672 294.906 54.8861C294.833 54.905 294.757 54.9097 294.683 54.9C291.859 54.4285 288.975 54.4082 286.144 54.84C283.355 55.2793 280.845 56.7394 279.13 58.92C277.67 61.2118 277.036 63.91 277.328 66.59C277.379 67.37 277.657 68.31 278.275 68.38C278.414 68.3975 278.54 68.4669 278.626 68.5734C278.713 68.6799 278.753 68.815 278.739 68.95C278.731 69.0181 278.709 69.084 278.675 69.1439C278.641 69.2037 278.594 69.2562 278.538 69.2982C278.483 69.3402 278.419 69.3708 278.351 69.3883C278.282 69.4058 278.211 69.4098 278.141 69.4C277.111 69.28 276.38 68.25 276.267 66.65C275.943 63.737 276.648 60.8037 278.265 58.33C280.129 55.9388 282.869 54.3349 285.918 53.85C288.786 53.3936 291.712 53.3936 294.58 53.85C295.932 52.6753 297.46 51.7075 299.112 50.98C304.901 48.67 312.368 53.38 315.53 57.66C319.115 62.51 320.897 69.06 322.421 75.36C323.945 81.66 327.118 86.58 332.978 91.5C333.802 92.2 334.647 92.89 335.502 93.58C340.425 97.58 345.524 101.78 347.955 107.58C349.191 110.506 349.611 113.696 349.174 116.829C348.736 119.963 347.456 122.929 345.462 125.43C343.91 127.265 341.961 128.746 339.754 129.769C337.547 130.792 335.136 131.332 332.69 131.35Z" fill="#231F20"/>
<path d="M335.214 266.67L334.379 261.15L317.642 265.63L314.387 261.46C314.387 261.46 302.13 270.09 303.85 272C305.57 273.91 323.605 270.42 335.214 266.67Z" fill="#231F20"/>
<path d="M255.44 177.89C255.357 177.891 255.276 177.873 255.202 177.836C255.128 177.8 255.065 177.746 255.018 177.68L239.784 156.36C239.708 156.249 239.679 156.114 239.704 155.984C239.729 155.853 239.806 155.737 239.918 155.66C239.973 155.622 240.035 155.596 240.101 155.582C240.167 155.568 240.235 155.567 240.302 155.579C240.368 155.592 240.431 155.616 240.487 155.653C240.543 155.689 240.591 155.735 240.629 155.79L255.883 177.11C255.922 177.164 255.949 177.224 255.963 177.288C255.978 177.352 255.978 177.418 255.966 177.482C255.954 177.547 255.928 177.608 255.891 177.663C255.853 177.717 255.805 177.764 255.749 177.8C255.66 177.863 255.551 177.895 255.44 177.89Z" fill="#37352F" fill-opacity="0.16"/>
<path d="M255.893 55.69C255.796 55.694 255.699 55.6707 255.616 55.6227C255.532 55.5747 255.464 55.5042 255.42 55.4196C255.377 55.335 255.359 55.24 255.37 55.1461C255.381 55.0521 255.419 54.9632 255.481 54.89L271.961 34.16C272.001 34.1035 272.052 34.0555 272.111 34.0188C272.17 33.9822 272.237 33.9577 272.306 33.9469C272.375 33.9361 272.446 33.9392 272.515 33.9561C272.583 33.9729 272.647 34.0031 272.702 34.0449C272.758 34.0866 272.804 34.1389 272.838 34.1986C272.872 34.2584 272.893 34.3242 272.9 34.3922C272.907 34.4601 272.899 34.5287 272.878 34.5937C272.856 34.6586 272.821 34.7187 272.775 34.77L256.295 55.5C256.246 55.5584 256.185 55.6057 256.116 55.6385C256.046 55.6714 255.97 55.689 255.893 55.69Z" fill="#37352F" fill-opacity="0.16"/>
<path d="M128.575 148.96L154.974 257.33L132.046 262.66L106.821 175.11L99.4981 264.94L75.7051 263.75L74.8914 138.3L128.575 148.96Z" fill="#231F20"/>
<path d="M121.406 93.19C121.252 93.78 167.756 100.29 167.756 100.29L164.398 114.66C164.398 114.66 133.9 111.4 117.739 108.88L121.406 93.19Z" fill="white"/>
<path d="M164.408 115.16H164.357C164.048 115.16 133.653 111.87 117.667 109.38C117.597 109.371 117.529 109.348 117.468 109.312C117.408 109.276 117.356 109.227 117.317 109.17C117.241 109.054 117.215 108.914 117.245 108.78L120.901 93.09C120.933 92.9616 121.016 92.8506 121.132 92.7813C121.248 92.7119 121.387 92.6899 121.519 92.72C121.594 92.739 121.665 92.7731 121.725 92.82C123.621 93.48 150.205 97.35 167.828 99.82C167.898 99.8303 167.965 99.8542 168.025 99.8903C168.085 99.9264 168.137 99.9739 168.178 100.03C168.219 100.086 168.248 100.149 168.262 100.216C168.276 100.284 168.276 100.353 168.261 100.42L164.903 114.79C164.874 114.896 164.809 114.989 164.72 115.056C164.631 115.123 164.521 115.159 164.408 115.16ZM118.367 108.47C133.375 110.78 160.185 113.7 164.007 114.11L167.097 100.71C132.581 95.87 123.971 94.36 121.777 93.8L118.367 108.47Z" fill="#231F20"/>
<path d="M94.7601 87.41C94.9455 86.85 123.126 92.69 123.126 92.69L122.096 113.22L102.784 106.51C102.784 106.51 93.5035 91.16 94.7601 87.41Z" fill="#FFE2DD"/>
<path d="M113.3 99.7C112.878 98.59 107.542 87.13 91.9893 86.76C76.4363 86.39 69.9885 85.76 66.744 104.76C63.2935 124.85 74.057 160.03 74.057 160.03L133.364 147.03C133.364 147.03 117.42 110.49 113.3 99.7Z" fill="#FDECC8"/>
<path d="M206.618 72.15L228.464 73.08C226.044 81.08 227.929 87.68 233.851 92C236.889 94.1637 240.523 95.3984 244.288 95.5462C248.053 95.6941 251.778 94.7484 254.987 92.83C261.167 89.07 263.587 82.6 261.929 74.5L279.439 75.24L276.266 145.84L203.466 142.76C203.466 142.21 203.466 141.65 203.548 141.1C203.847 134.25 204.177 127.4 204.434 120.55C204.484 119.505 204.315 118.461 203.94 117.48C203.797 117.099 203.57 116.752 203.275 116.465C202.98 116.178 202.623 115.957 202.23 115.818C201.838 115.679 201.418 115.625 201.002 115.66C200.586 115.695 200.182 115.818 199.82 116.02C197.35 117.075 194.587 117.296 191.973 116.647C189.359 115.998 187.045 114.517 185.4 112.44C183.724 110.339 182.825 107.752 182.848 105.094C182.87 102.437 183.813 99.8642 185.523 97.79C187.168 95.7468 189.488 94.3169 192.093 93.7412C194.697 93.1656 197.426 93.4795 199.82 94.63C203.239 96.26 205.578 94.97 205.784 91.25C206.103 85.25 206.329 79.34 206.608 73.39C206.577 73 206.597 72.67 206.618 72.15Z" fill="white"/>
<path d="M276.246 146.34L203.446 143.26C203.308 143.25 203.179 143.189 203.085 143.09C203.039 143.041 203.004 142.985 202.981 142.923C202.958 142.861 202.948 142.796 202.951 142.73L203.26 136.06C203.487 130.89 203.724 125.71 203.919 120.53C203.966 119.553 203.808 118.576 203.456 117.66C203.351 117.363 203.183 117.09 202.963 116.859C202.743 116.628 202.476 116.445 202.179 116.32C201.827 116.2 201.453 116.152 201.081 116.177C200.709 116.203 200.346 116.303 200.016 116.47C197.45 117.561 194.582 117.787 191.868 117.113C189.154 116.439 186.751 114.903 185.039 112.75C183.297 110.558 182.363 107.861 182.387 105.092C182.411 102.324 183.392 99.6428 185.173 97.48C186.887 95.3639 189.296 93.882 191.999 93.2815C194.702 92.681 197.535 92.9981 200.026 94.18C201.55 94.9 202.838 95.02 203.744 94.5C204.651 93.98 205.155 92.86 205.248 91.22C205.475 87.05 205.66 82.8 205.835 78.7C205.907 76.92 205.99 75.14 206.072 73.37V72.13C206.079 71.9971 206.138 71.8719 206.237 71.78C206.339 71.6933 206.472 71.647 206.608 71.65L228.454 72.58C228.534 72.5802 228.612 72.5995 228.682 72.6362C228.752 72.6728 228.812 72.7256 228.856 72.79C228.9 72.8517 228.93 72.9225 228.942 72.997C228.955 73.0714 228.95 73.1477 228.928 73.22C226.6 81 228.402 87.39 234.16 91.6C237.122 93.7092 240.664 94.9121 244.334 95.0547C248.004 95.1972 251.635 94.2728 254.76 92.4C260.693 88.77 263.072 82.4 261.465 74.59C261.448 74.5163 261.449 74.4396 261.469 74.3665C261.489 74.2934 261.526 74.226 261.579 74.17C261.626 74.1094 261.689 74.0619 261.762 74.0321C261.834 74.0023 261.913 73.9913 261.991 74L279.501 74.74C279.569 74.7411 279.636 74.7558 279.698 74.7834C279.76 74.8109 279.816 74.8506 279.861 74.9C279.907 74.9482 279.943 75.0049 279.966 75.0668C279.989 75.1286 279.999 75.1943 279.995 75.26L276.823 145.86C276.822 145.926 276.806 145.991 276.778 146.052C276.75 146.112 276.709 146.166 276.658 146.21C276.603 146.259 276.537 146.296 276.466 146.318C276.395 146.341 276.32 146.348 276.246 146.34ZM203.94 142.28L275.721 145.28L278.811 75.67L262.547 75C263.999 83 261.424 89.45 255.265 93.23C251.966 95.197 248.139 96.1665 244.27 96.0151C240.402 95.8638 236.667 94.5984 233.542 92.38C227.558 88 225.57 81.52 227.795 73.55L207.112 72.67V73.41C207.04 75.19 206.958 76.96 206.886 78.74C206.711 82.85 206.525 87.1 206.299 91.27C206.185 93.27 205.495 94.68 204.239 95.37C202.982 96.06 201.406 95.96 199.552 95.07C197.274 93.9851 194.682 93.6911 192.208 94.237C189.734 94.7829 187.527 96.1358 185.956 98.07C184.325 100.053 183.426 102.511 183.403 105.049C183.381 107.587 184.236 110.06 185.833 112.07C187.399 114.047 189.601 115.459 192.088 116.082C194.576 116.706 197.206 116.504 199.562 115.51C200.019 115.281 200.519 115.147 201.031 115.116C201.544 115.085 202.057 115.158 202.539 115.33C202.969 115.504 203.357 115.763 203.676 116.093C203.996 116.422 204.24 116.813 204.393 117.24C204.796 118.284 204.978 119.396 204.929 120.51C204.733 125.69 204.496 130.87 204.259 136.05L203.94 142.28Z" fill="#231F20"/>
<path d="M190.189 72.65L192.425 90C183.999 88.9 177.232 91.91 173.74 98.29C172 101.505 171.301 105.155 171.737 108.762C172.173 112.369 173.722 115.764 176.181 118.5C181.331 124.07 188.686 125.5 196.596 122.5L199.284 143.39L119.686 153L110.601 82.3L135.795 79.3C136.581 79.211 137.338 78.9601 138.016 78.564C138.693 78.1679 139.276 77.6358 139.725 77.0032C140.173 76.3707 140.477 75.6524 140.617 74.8965C140.756 74.1405 140.728 73.3644 140.533 72.62C140.232 71.5482 139.818 70.5094 139.297 69.52C138.015 67.3021 137.506 64.7416 137.845 62.2199C138.184 59.6981 139.352 57.3501 141.177 55.5256C143.002 53.7011 145.385 52.4978 147.971 52.095C150.558 51.6921 153.209 52.1113 155.53 53.29C157.88 54.4666 159.779 56.3438 160.949 58.6459C162.119 60.948 162.497 63.5536 162.029 66.08C161.854 67.08 161.617 68.08 161.463 69.08C160.927 72.43 163.976 76.27 168.158 75.43C172.34 74.59 185.884 73.17 190.189 72.65Z" fill="white"/>
<path d="M119.686 153.48C119.574 153.484 119.464 153.449 119.377 153.38C119.321 153.34 119.275 153.289 119.241 153.231C119.207 153.172 119.187 153.107 119.181 153.04L110.086 82.35C110.078 82.2843 110.083 82.2175 110.101 82.1537C110.119 82.0898 110.15 82.0301 110.192 81.978C110.234 81.9259 110.287 81.8824 110.347 81.8501C110.406 81.8179 110.472 81.7974 110.54 81.79L112.301 81.57L135.733 78.73C136.459 78.6413 137.156 78.4037 137.78 78.033C138.403 77.6623 138.938 77.167 139.349 76.58C139.745 76.0158 140.01 75.3753 140.128 74.7022C140.245 74.029 140.211 73.3393 140.028 72.68C139.741 71.6418 139.34 70.6361 138.834 69.68C137.534 67.3696 137.031 64.7152 137.401 62.107C137.77 59.4988 138.992 57.0745 140.886 55.1907C142.781 53.3068 145.247 52.0627 147.924 51.6414C150.601 51.2201 153.346 51.6437 155.757 52.85C158.201 54.0784 160.177 56.0339 161.394 58.4306C162.612 60.8273 163.008 63.5393 162.524 66.17C162.452 66.61 162.359 67.04 162.277 67.47C162.194 67.9 162.05 68.57 161.957 69.13C161.853 69.9653 161.952 70.8126 162.245 71.6043C162.539 72.396 163.018 73.1102 163.646 73.69C164.218 74.2311 164.919 74.6258 165.687 74.8387C166.455 75.0517 167.265 75.0762 168.044 74.91C171.134 74.29 179.375 73.37 185.4 72.7L190.128 72.16C190.262 72.1456 190.398 72.1823 190.505 72.2624C190.613 72.3426 190.684 72.4599 190.704 72.59L192.929 89.94C192.942 90.0163 192.935 90.0943 192.911 90.1677C192.886 90.2411 192.844 90.3078 192.788 90.3624C192.731 90.417 192.663 90.4579 192.587 90.4818C192.511 90.5057 192.431 90.512 192.353 90.5C184.185 89.44 177.572 92.36 174.204 98.5C172.522 101.627 171.848 105.173 172.268 108.677C172.689 112.182 174.185 115.482 176.563 118.15C181.517 123.53 188.758 124.92 196.411 121.96C196.483 121.93 196.562 121.917 196.641 121.922C196.72 121.926 196.797 121.949 196.865 121.988C196.933 122.027 196.991 122.081 197.034 122.146C197.076 122.21 197.103 122.284 197.111 122.36L199.789 143.26C199.798 143.325 199.793 143.391 199.776 143.455C199.758 143.518 199.727 143.578 199.686 143.63C199.645 143.681 199.593 143.723 199.535 143.754C199.477 143.785 199.412 143.804 199.346 143.81L119.748 153.46L119.686 153.48ZM111.178 82.72L120.139 152.42L198.708 142.9L196.163 123.14C188.315 125.96 180.919 124.41 175.79 118.83C173.276 116.009 171.693 112.519 171.246 108.814C170.8 105.108 171.511 101.358 173.287 98.05C176.779 91.66 183.515 88.54 191.827 89.42L189.767 73.2L185.544 73.68C179.869 74.31 171.289 75.27 168.281 75.88C167.338 76.0818 166.357 76.0531 165.428 75.7966C164.499 75.54 163.649 75.0636 162.956 74.41C162.204 73.7272 161.628 72.881 161.277 71.9406C160.926 71.0002 160.81 69.9925 160.938 69C161.03 68.43 161.144 67.86 161.267 67.29L161.514 66.02C161.958 63.5984 161.593 61.1024 160.472 58.8966C159.351 56.6908 157.533 54.891 155.283 53.76C153.066 52.65 150.54 52.2608 148.078 52.6498C145.616 53.0388 143.348 54.1854 141.608 55.9207C139.868 57.6559 138.749 59.8879 138.414 62.2877C138.08 64.6875 138.548 67.1282 139.75 69.25C140.293 70.2691 140.721 71.342 141.028 72.45C141.246 73.2482 141.286 74.0826 141.144 74.8969C141.001 75.7112 140.681 76.4864 140.204 77.17C139.711 77.8741 139.069 78.4683 138.321 78.9132C137.574 79.358 136.737 79.6433 135.867 79.75L112.435 82.6L111.178 82.72Z" fill="#231F20"/>
<path d="M99.2816 94.5V87.77C99.2816 87.77 109.293 89.77 108.016 78.77C106.739 67.77 102.433 63.34 101.692 63.56L87.6735 67.63L86.3242 93.37C86.3242 93.37 93.2767 103.89 99.2816 94.5Z" fill="white"/>
<path d="M93.73 98.9C89.4555 98.9 86.0771 93.85 85.9329 93.64C85.8712 93.552 85.8422 93.4462 85.8505 93.34L87.1586 67.6C87.1651 67.497 87.2041 67.3985 87.2705 67.3179C87.3369 67.2374 87.4273 67.1787 87.5294 67.15L101.537 63.08C101.688 63.0485 101.844 63.0501 101.993 63.0847C102.143 63.1193 102.283 63.186 102.403 63.28C104.205 64.44 107.47 69.66 108.583 78.72C108.995 82.32 108.274 84.98 106.43 86.62C104.246 88.57 101.156 88.49 99.8482 88.35V94.5C99.8511 94.5948 99.8261 94.6885 99.7761 94.77C98.0354 97.49 96.0166 98.88 93.7815 98.9H93.73ZM86.8908 93.22C87.3955 94 90.331 97.9 93.73 97.9C95.5634 97.9 97.2526 96.69 98.777 94.36V87.77C98.7766 87.6962 98.7941 87.6233 98.8281 87.5573C98.8621 87.4913 98.9117 87.434 98.9727 87.39C99.0308 87.3433 99.0987 87.3093 99.1715 87.2903C99.2444 87.2714 99.3206 87.2678 99.395 87.28C99.395 87.28 103.319 88.01 105.699 85.88C107.285 84.46 107.893 82.09 107.511 78.88C106.358 68.97 102.701 64.48 101.754 64.11L88.168 68L86.8908 93.22Z" fill="#231F20"/>
<path d="M88.2606 74.81C87.7868 72.73 84.5938 72 83.0179 73.48C82.6596 73.8768 82.3876 74.3396 82.218 74.8409C82.0484 75.3421 81.9848 75.8715 82.031 76.3972C82.0771 76.9229 82.2321 77.4341 82.4867 77.9003C82.7412 78.3664 83.09 78.7779 83.5123 79.11C84.4108 79.7427 85.4924 80.0833 86.6023 80.0833C87.7122 80.0833 88.7938 79.7427 89.6923 79.11" fill="white"/>
<path d="M86.4376 80.55C85.2706 80.5833 84.1266 80.2307 83.1931 79.55C82.6859 79.1411 82.2726 78.6334 81.9798 78.0599C81.6871 77.4863 81.5215 76.8595 81.4936 76.22C81.464 75.669 81.5522 75.1181 81.7525 74.6018C81.9528 74.0855 82.2609 73.6151 82.6575 73.22C83.1546 72.7919 83.7588 72.4983 84.4096 72.3684C85.0603 72.2385 85.7349 72.277 86.3655 72.48C86.9419 72.6223 87.4681 72.9129 87.8887 73.3212C88.3092 73.7295 88.6086 74.2404 88.7551 74.8C88.77 74.8657 88.7714 74.9335 88.7593 74.9997C88.7471 75.0659 88.7217 75.1291 88.6844 75.1858C88.6471 75.2424 88.5987 75.2914 88.5419 75.3298C88.4851 75.3683 88.421 75.3955 88.3534 75.41C88.2858 75.4244 88.2159 75.4258 88.1477 75.414C88.0795 75.4022 88.0144 75.3775 87.9561 75.3413C87.8977 75.3051 87.8473 75.2581 87.8077 75.203C87.768 75.1478 87.74 75.0856 87.7251 75.02C87.6134 74.6337 87.3983 74.283 87.1015 74.0037C86.8048 73.7244 86.4371 73.5264 86.0359 73.43C85.5809 73.2805 85.0935 73.249 84.622 73.3384C84.1505 73.4279 83.7113 73.6352 83.3476 73.94C83.0451 74.2383 82.8122 74.5963 82.6647 74.9897C82.5172 75.3831 82.4585 75.8027 82.4927 76.22C82.5113 76.7167 82.6373 77.204 82.8627 77.6502C83.0881 78.0964 83.4077 78.4916 83.8008 78.81C84.6127 79.36 85.5812 79.6499 86.5711 79.6391C87.561 79.6283 88.5227 79.3175 89.3216 78.75C89.3754 78.7012 89.4394 78.6641 89.5092 78.6414C89.5789 78.6186 89.653 78.6106 89.7262 78.618C89.7994 78.6253 89.8702 78.6478 89.9337 78.684C89.9972 78.7202 90.052 78.7691 90.0944 78.8276C90.1368 78.886 90.1657 78.9526 90.1793 79.0229C90.193 79.0931 90.1909 79.1654 90.1733 79.2348C90.1557 79.3042 90.123 79.3692 90.0773 79.4253C90.0317 79.4814 89.9742 79.5273 89.9087 79.56C88.8815 80.2233 87.6712 80.5685 86.4376 80.55Z" fill="#231F20"/>
<path d="M97.5615 72.28C98.4006 73.3275 99.1844 74.4155 99.9099 75.54C100.118 75.7809 100.269 76.0638 100.351 76.3682C100.433 76.6726 100.444 76.9909 100.384 77.3C100.254 77.5482 100.065 77.7623 99.8315 77.9242C99.5984 78.0861 99.3285 78.191 99.0447 78.23C98.8186 78.3092 98.5728 78.319 98.3408 78.2582C98.1087 78.1974 97.9014 78.0689 97.7469 77.89" fill="white"/>
<path d="M98.6533 78.72C98.408 78.7358 98.1628 78.6887 97.9422 78.5834C97.7217 78.4781 97.5335 78.3183 97.3967 78.12C97.3363 78.0176 97.3198 77.8964 97.3506 77.7823C97.3814 77.6682 97.4572 77.5704 97.5615 77.51C97.6669 77.4514 97.7918 77.4353 97.9093 77.4653C98.0268 77.4952 98.1276 77.5687 98.1898 77.67C98.2928 77.85 98.6842 77.86 98.9932 77.79C99.3022 77.72 99.8275 77.57 100.023 77.15C100.219 76.73 99.8893 76.23 99.6009 75.78C98.8688 74.6646 98.0781 73.5865 97.2319 72.55C97.1947 72.5047 97.167 72.4527 97.1505 72.397C97.134 72.3414 97.129 72.2831 97.1357 72.2255C97.1424 72.1679 97.1607 72.1122 97.1896 72.0615C97.2184 72.0108 97.2573 71.9661 97.304 71.93C97.3507 71.8939 97.4042 71.867 97.4615 71.851C97.5189 71.835 97.5789 71.8301 97.6382 71.8366C97.6975 71.8431 97.7549 71.8609 97.8071 71.8889C97.8594 71.9169 97.9054 71.9547 97.9426 72C98.8094 73.0608 99.6174 74.1657 100.363 75.31C100.616 75.6043 100.795 75.9521 100.884 76.3255C100.974 76.6989 100.972 77.0875 100.878 77.46C100.726 77.778 100.495 78.0543 100.205 78.2638C99.9159 78.4733 99.5771 78.6095 99.2198 78.66C99.0339 78.7008 98.8439 78.7209 98.6533 78.72Z" fill="#231F20"/>
<path d="M94.4981 72.3839C94.828 72.3836 95.0951 72.0162 95.0946 71.5633C95.0941 71.1104 94.8263 70.7436 94.4963 70.7439C94.1664 70.7442 93.8993 71.1116 93.8998 71.5645C93.9003 72.0174 94.1682 72.3842 94.4981 72.3839Z" fill="#231F20"/>
<path d="M101.251 71.8C101.58 71.7717 101.813 71.383 101.771 70.9319C101.73 70.4808 101.43 70.1381 101.101 70.1665C100.773 70.1948 100.54 70.5835 100.581 71.0346C100.622 71.4857 100.922 71.8284 101.251 71.8Z" fill="#231F20"/>
<path d="M79.8869 76.24C79.1865 76.24 78.2594 75.84 77.3427 74.24C76.3303 72.7114 75.6115 71.0174 75.221 69.24C75.0388 68.3168 75.0748 67.3655 75.3264 66.4579C75.578 65.5502 76.0385 64.7098 76.6733 64C77.2514 63.4205 77.9872 63.0122 78.7949 62.8228C79.6027 62.6334 80.4493 62.6706 81.2362 62.93C81.1116 60.4536 81.9664 58.0246 83.6258 56.14C85.5155 54.0964 87.81 52.4435 90.3723 51.28C93.398 49.773 96.5639 48.5475 99.8277 47.62C101.898 46.8684 104.148 46.7156 106.306 47.18C109.953 48.24 111.817 52.18 112.002 55.29C112.125 57.6085 111.619 59.9177 110.535 61.9867C109.45 64.0557 107.825 65.812 105.822 67.08C105.703 67.1515 105.56 67.1748 105.423 67.1449C105.286 67.115 105.167 67.0343 105.091 66.92C105.053 66.8631 105.027 66.7994 105.015 66.7327C105.003 66.666 105.005 66.5975 105.02 66.5314C105.035 66.4653 105.064 66.4029 105.105 66.3477C105.145 66.2925 105.196 66.2457 105.256 66.21C107.092 65.0321 108.584 63.4131 109.586 61.5102C110.587 59.6073 111.065 57.4851 110.972 55.35C110.807 52.53 109.19 49.08 106.039 48.17C104.075 47.7695 102.034 47.9222 100.157 48.61C96.9568 49.5179 93.8527 50.72 90.8873 52.2C88.4543 53.2862 86.2692 54.8331 84.4601 56.75C83.6015 57.693 82.9754 58.8134 82.6292 60.0262C82.283 61.2391 82.2258 62.5125 82.4619 63.75C82.4909 63.8557 82.4834 63.9676 82.4406 64.0688C82.3978 64.1699 82.3221 64.2547 82.225 64.31C82.1342 64.3757 82.024 64.4113 81.9108 64.4113C81.7976 64.4113 81.6874 64.3757 81.5967 64.31C80.9713 63.8911 80.2122 63.7031 79.4566 63.7801C78.701 63.8572 77.9987 64.1941 77.4767 64.73C76.9422 65.3323 76.5589 66.0467 76.357 66.8171C76.155 67.5876 76.1399 68.393 76.3127 69.17C76.6871 70.803 77.3529 72.3598 78.2801 73.77C78.7127 74.5 79.3822 75.34 80.0826 75.19C80.2205 75.1601 80.365 75.1843 80.4846 75.2573C80.6042 75.3304 80.6892 75.4464 80.7212 75.58C80.7362 75.6464 80.7374 75.715 80.7247 75.7818C80.7121 75.8487 80.6858 75.9124 80.6474 75.9692C80.609 76.026 80.5593 76.0748 80.5012 76.1128C80.4431 76.1507 80.3778 76.1769 80.3092 76.19C80.1712 76.2243 80.0293 76.2411 79.8869 76.24Z" fill="#231F20"/>
<path d="M99.2818 87.77C96.815 87.1694 94.4396 86.2583 92.216 85.06C92.216 85.06 92.0821 89.56 99.1994 91.71L99.2818 87.77Z" fill="#231F20"/>
<path d="M99.1993 92.15H99.0654C91.7009 89.93 91.7627 85.27 91.7627 85.07C91.7667 84.9927 91.7917 84.9177 91.8351 84.8528C91.8785 84.7878 91.9388 84.7351 92.0099 84.7C92.0785 84.6604 92.1567 84.6395 92.2365 84.6395C92.3163 84.6395 92.3946 84.6604 92.4631 84.7C94.647 85.8709 96.9767 86.7649 99.395 87.36C99.4939 87.3829 99.5816 87.4382 99.6435 87.5165C99.7054 87.5948 99.7377 87.6913 99.7349 87.79L99.6525 91.73C99.649 91.7975 99.6295 91.8632 99.5955 91.9222C99.5616 91.9811 99.5141 92.0317 99.4568 92.07C99.3835 92.1255 99.2922 92.1539 99.1993 92.15ZM92.7927 85.9C93.112 87.16 94.3068 89.6 98.7564 91.1L98.8182 88.1C96.7351 87.5759 94.7153 86.8384 92.7927 85.9Z" fill="#231F20"/>
<path d="M80.7932 120.53C80.7932 120.53 105.39 147.97 120.644 141.16C135.898 134.35 158.466 107.4 158.466 107.4C158.466 107.4 165.583 100.19 164.161 99.8C162.74 99.41 158.054 103.8 158.054 103.8C158.054 103.8 163.348 97.68 161.308 97.68C159.269 97.68 155.417 102.22 155.417 102.22C155.417 102.22 161.72 95.31 159.073 95.7C156.426 96.09 153.182 99.85 153.182 99.85C153.182 99.85 159.485 93.93 157.044 94.13C154.603 94.33 148.093 100.24 148.093 100.24C148.093 100.24 150.741 94.32 148.701 94.52C146.662 94.72 146.26 100 143.17 102.76C140.08 105.52 120.397 123.88 116.74 123.69C113.084 123.5 96.82 106.51 96.82 106.51" fill="white"/>
<path d="M115.247 142.76C109.571 142.76 102.691 139.76 94.6467 133.76C89.5037 129.865 84.7233 125.538 80.3606 120.83C80.2655 120.735 80.2124 120.608 80.2124 120.475C80.2124 120.342 80.2655 120.215 80.3606 120.12C80.4075 120.073 80.4636 120.036 80.5255 120.011C80.5874 119.986 80.6539 119.973 80.7211 119.973C80.7882 119.973 80.8547 119.986 80.9166 120.011C80.9785 120.036 81.0346 120.073 81.0816 120.12C81.3288 120.39 105.606 147.2 120.335 140.62C135.301 133.94 157.744 107.27 157.971 107C160.546 104.4 163.276 101.25 163.688 100.2C162.74 100.38 160.278 102.2 158.321 104.03C158.226 104.117 158.1 104.165 157.97 104.165C157.839 104.165 157.714 104.117 157.618 104.031C157.523 103.944 157.465 103.826 157.456 103.7C157.447 103.573 157.487 103.448 157.569 103.35C159.516 101.09 161.092 98.76 161.174 98.06C160.01 98.15 157.961 99.98 156.498 101.54L155.705 102.42C155.609 102.512 155.479 102.563 155.345 102.563C155.21 102.563 155.08 102.512 154.984 102.42C154.883 102.333 154.821 102.212 154.809 102.082C154.798 101.952 154.838 101.822 154.922 101.72C155.015 101.61 155.262 101.32 155.623 100.94C157.374 98.94 158.991 96.74 159.114 96.01C157.708 96.3893 156.43 97.1203 155.406 98.13C154.788 98.78 154.129 99.42 153.491 100.02C153.395 100.107 153.27 100.155 153.139 100.155C153.009 100.155 152.883 100.107 152.788 100.021C152.692 99.9344 152.634 99.8161 152.625 99.6898C152.616 99.5634 152.656 99.4384 152.739 99.34C153.314 98.7037 153.923 98.0963 154.562 97.52C155.522 96.6084 156.347 95.5718 157.013 94.44C155.139 94.63 150.174 98.81 148.402 100.44C148.316 100.517 148.205 100.563 148.088 100.571C147.971 100.578 147.855 100.547 147.759 100.481C147.663 100.416 147.592 100.321 147.559 100.211C147.527 100.102 147.533 99.9852 147.578 99.88C148.485 97.88 149.195 95.36 148.825 94.88C148.825 94.88 148.825 94.88 148.711 94.88C147.99 94.95 147.383 96.34 146.744 97.82C146.054 99.7583 144.956 101.536 143.52 103.04L142.49 104.04C127.359 117.89 119.212 124.28 116.74 124.15C112.981 123.94 98.2002 108.57 96.4698 106.81C96.4218 106.764 96.3837 106.71 96.3577 106.65C96.3317 106.59 96.3183 106.525 96.3183 106.46C96.3183 106.395 96.3317 106.33 96.3577 106.27C96.3837 106.21 96.4218 106.156 96.4698 106.11C96.5176 106.063 96.5746 106.026 96.6373 106.001C96.7001 105.975 96.7674 105.962 96.8354 105.962C96.9034 105.962 96.9707 105.975 97.0335 106.001C97.0962 106.026 97.1532 106.063 97.2011 106.11C103.68 112.88 114.248 122.99 116.771 123.11C118.223 123.18 123.703 119.8 141.779 103.27L142.809 102.32C144.14 100.911 145.153 99.2496 145.786 97.44C146.61 95.53 147.269 94.02 148.598 93.89C148.793 93.8666 148.99 93.8931 149.171 93.9668C149.351 94.0405 149.509 94.1588 149.628 94.31C150.205 95.08 149.783 96.87 149.268 98.31C151.42 96.49 155.087 93.61 156.931 93.46C157.132 93.416 157.342 93.4384 157.529 93.5235C157.715 93.6086 157.867 93.7516 157.961 93.93C158.126 94.28 157.961 94.82 157.559 95.46C157.991 95.2615 158.448 95.1203 158.919 95.04C159.127 94.9749 159.352 94.9811 159.556 95.0575C159.761 95.1339 159.932 95.276 160.041 95.46C160.289 95.9 160.041 96.68 159.475 97.61C159.996 97.2679 160.599 97.0613 161.226 97.01C161.408 96.9967 161.591 97.0361 161.75 97.1233C161.91 97.2105 162.039 97.3416 162.122 97.5C162.4 98.09 161.875 99.22 161.092 100.44C162.297 99.61 163.502 99 164.182 99.2C164.311 99.2319 164.429 99.2971 164.523 99.3886C164.618 99.4801 164.685 99.5946 164.718 99.72C165.068 100.97 161.113 105.21 158.723 107.63C157.827 108.7 135.929 134.71 120.747 141.49C119.03 142.294 117.153 142.728 115.247 142.76Z" fill="#231F20"/>
<path d="M102.32 82.64C102.224 82.8013 102.11 82.9522 101.98 83.09C99.1582 86.3 95.8828 83.32 94.0288 80.93C94.2142 81.18 97.9943 80.11 98.3754 80.04L103.031 79.04C103.174 79.6552 103.185 80.2925 103.063 80.912C102.94 81.5315 102.688 82.1198 102.32 82.64Z" fill="#231F20"/>
<path d="M132.046 261.78L132.808 270.17C132.808 270.17 172.916 264.69 171.237 263.06C169.559 261.43 154.974 257.33 154.974 257.33" fill="white"/>
<path d="M132.808 270.67C132.692 270.669 132.58 270.63 132.489 270.56C132.379 270.472 132.309 270.347 132.293 270.21L131.531 261.82C131.519 261.687 131.561 261.555 131.649 261.453C131.737 261.351 131.863 261.287 132 261.275C132.136 261.263 132.272 261.304 132.377 261.39C132.483 261.475 132.549 261.597 132.561 261.73L133.272 269.6C146.662 267.76 167.426 264.55 170.516 263.15C168.456 261.89 160.216 259.33 154.83 257.81C154.765 257.793 154.705 257.763 154.652 257.723C154.599 257.683 154.555 257.633 154.523 257.576C154.49 257.519 154.47 257.457 154.462 257.392C154.455 257.328 154.46 257.262 154.479 257.2C154.518 257.072 154.606 256.964 154.725 256.899C154.845 256.833 154.985 256.816 155.118 256.85C156.622 257.28 169.878 261.03 171.598 262.71C171.687 262.793 171.751 262.9 171.78 263.017C171.809 263.134 171.803 263.256 171.763 263.37C171.134 265.18 147.125 268.71 132.87 270.66L132.808 270.67Z" fill="#231F20"/>
<path d="M99.498 264.94V271.75L63.2008 272C63.2008 272 69.6074 266.08 75.705 263.71" fill="white"/>
<path d="M63.2008 272.54C63.0988 272.539 62.9995 272.508 62.9155 272.452C62.8315 272.395 62.7666 272.316 62.7291 272.224C62.6915 272.132 62.6831 272.031 62.7047 271.934C62.7264 271.837 62.7772 271.749 62.8506 271.68C63.1081 271.44 69.3911 265.68 75.5196 263.29C75.5825 263.266 75.6498 263.254 75.7175 263.254C75.7852 263.255 75.852 263.269 75.9142 263.295C75.9764 263.321 76.0327 263.359 76.0799 263.406C76.127 263.453 76.1642 263.509 76.1891 263.57C76.2371 263.694 76.2338 263.83 76.18 263.951C76.1262 264.073 76.0261 264.169 75.9008 264.22C71.3584 265.98 66.5689 269.81 64.5707 271.53L99.0037 271.25V264.94C99.0037 264.807 99.0579 264.68 99.1545 264.586C99.2511 264.493 99.3821 264.44 99.5187 264.44C99.6552 264.44 99.7862 264.493 99.8828 264.586C99.9794 264.68 100.034 264.807 100.034 264.94V271.75C100.031 271.882 99.9759 272.007 99.8799 272.101C99.7839 272.194 99.6544 272.247 99.5187 272.25L63.2317 272.54H63.2008Z" fill="#231F20"/>
<path d="M102.331 174.52C99.6113 174.52 97.8706 174.43 97.8397 174.43C97.705 174.417 97.5802 174.356 97.4903 174.257C97.4005 174.159 97.3524 174.031 97.3556 173.9C97.3596 173.834 97.3768 173.77 97.4064 173.711C97.436 173.652 97.4773 173.599 97.5281 173.555C97.5788 173.511 97.6379 173.478 97.702 173.456C97.766 173.435 97.8339 173.426 97.9015 173.43C102.893 173.641 107.894 173.51 112.867 173.04C112.934 173.032 113.002 173.037 113.066 173.054C113.131 173.072 113.191 173.103 113.243 173.144C113.295 173.185 113.338 173.236 113.369 173.294C113.4 173.352 113.419 173.415 113.424 173.48C113.438 173.611 113.399 173.743 113.314 173.846C113.229 173.949 113.105 174.015 112.97 174.03C108.892 174.42 105.06 174.52 102.331 174.52Z" fill="white"/>
<path d="M153.727 176.55C153.611 176.552 153.497 176.513 153.408 176.44C153.303 176.357 153.234 176.239 153.217 176.108C153.2 175.978 153.235 175.846 153.315 175.74L163.688 162.74C163.774 162.64 163.896 162.575 164.03 162.558C164.164 162.541 164.299 162.574 164.409 162.65C164.517 162.733 164.587 162.854 164.605 162.987C164.622 163.119 164.585 163.254 164.501 163.36L154.139 176.36C154.09 176.42 154.027 176.468 153.956 176.501C153.884 176.534 153.806 176.55 153.727 176.55Z" fill="#37352F" fill-opacity="0.16"/>
<path d="M208.482 217.62C208.352 217.62 208.227 217.571 208.133 217.484C208.038 217.396 207.983 217.276 207.978 217.15L204.888 164.44C204.882 164.306 204.931 164.176 205.023 164.077C205.116 163.978 205.245 163.918 205.382 163.91C205.449 163.906 205.516 163.915 205.58 163.937C205.643 163.958 205.702 163.992 205.752 164.036C205.802 164.079 205.842 164.132 205.871 164.192C205.899 164.251 205.915 164.315 205.918 164.38L209.008 217.09C209.012 217.156 209.003 217.222 208.981 217.284C208.958 217.346 208.924 217.403 208.879 217.453C208.834 217.502 208.779 217.542 208.718 217.571C208.657 217.599 208.591 217.616 208.524 217.62H208.482Z" fill="#37352F" fill-opacity="0.16"/>
<path d="M305.848 96.11C305.249 97.0767 304.712 98.0786 304.241 99.11C299.73 108.32 293.89 119.66 282.22 121.3C274.031 122.45 265.606 120.91 257.881 118.3C255.478 117.522 253.205 116.407 251.135 114.99C248.683 113.18 246.613 110.46 244.45 108.32C243.904 107.77 242.946 107.22 242.39 107.8C241.834 108.38 242.287 108.91 242.606 109.4C243.738 111.147 245.027 112.793 246.458 114.32C244.718 113.64 242.936 113.04 241.133 112.51C239.571 111.957 237.966 111.526 236.333 111.22C236.03 111.222 235.734 111.316 235.489 111.49C235.371 111.582 235.289 111.711 235.257 111.855C235.225 111.999 235.245 112.149 235.314 112.28C235.397 112.396 235.506 112.491 235.633 112.56C236.853 113.34 238.191 113.93 239.599 114.31C238.387 113.725 237.066 113.385 235.715 113.31C235.128 113.31 234.397 113.39 234.201 113.93C234.006 114.47 234.582 115.04 235.118 115.36C236.319 116.08 237.61 116.648 238.96 117.05C237.903 116.535 236.808 116.097 235.685 115.74C234.984 115.52 234.078 115.38 233.625 115.96C233.496 116.152 233.427 116.376 233.427 116.605C233.427 116.834 233.496 117.058 233.625 117.25C233.893 117.622 234.245 117.93 234.655 118.15C235.734 118.802 236.893 119.319 238.105 119.69L234.84 118.59C234.606 118.473 234.346 118.412 234.083 118.412C233.82 118.412 233.56 118.473 233.326 118.59C232.801 119 233.007 119.84 233.408 120.38C234.247 121.248 235.284 121.912 236.436 122.32C237.95 123.021 239.501 123.645 241.082 124.19C251.598 128.19 260.775 133.86 272.311 134.79C285.052 135.79 299.349 132.47 308.845 123.79C314.593 118.54 320.536 109.49 319.506 101.38C319.166 98.73 318.744 95.07 316.344 93.38C313.779 91.53 309.134 92.44 307.074 94.55C306.615 95.0308 306.204 95.5531 305.848 96.11Z" fill="white"/>
<path d="M276.977 135.5C275.432 135.5 273.887 135.44 272.291 135.31C263.979 134.63 257.026 131.58 249.631 128.31C246.798 127.06 243.863 125.77 240.865 124.64L239.835 124.28C238.577 123.836 237.342 123.329 236.138 122.76L235.53 122.47C234.522 122.087 233.63 121.465 232.934 120.66C232.614 120.324 232.437 119.883 232.437 119.425C232.437 118.967 232.614 118.526 232.934 118.19C233.126 118.044 233.353 117.948 233.594 117.91C233.438 117.772 233.303 117.614 233.192 117.44C233.003 117.166 232.902 116.844 232.902 116.515C232.902 116.186 233.003 115.864 233.192 115.59C233.391 115.329 233.673 115.139 233.995 115.05C233.825 114.872 233.706 114.653 233.65 114.416C233.594 114.179 233.603 113.932 233.676 113.7C233.79 113.428 233.983 113.194 234.232 113.027C234.481 112.86 234.774 112.767 235.077 112.76C234.944 112.658 234.836 112.528 234.763 112.38C234.689 112.232 234.65 112.069 234.65 111.905C234.65 111.74 234.689 111.578 234.763 111.43C234.836 111.282 234.944 111.152 235.077 111.05C235.407 110.801 235.813 110.668 236.23 110.67C237.642 110.834 239.026 111.17 240.35 111.67L241.205 111.93C242.369 112.27 243.523 112.64 244.676 113.05C243.744 111.944 242.884 110.781 242.101 109.57C241.36 108.43 241.597 107.75 241.926 107.38C242.036 107.249 242.174 107.144 242.331 107.071C242.488 106.999 242.659 106.961 242.833 106.96C243.555 107.016 244.227 107.343 244.707 107.87C245.449 108.6 246.191 109.42 246.901 110.2C248.235 111.765 249.718 113.205 251.33 114.5C253.359 115.88 255.583 116.968 257.933 117.73C266.729 120.73 274.835 121.73 282.035 120.73C293.777 119.08 299.72 106.87 303.665 98.79C304.142 97.7563 304.689 96.7541 305.302 95.79C305.681 95.1964 306.119 94.6403 306.61 94.13C308.794 91.9 313.728 90.86 316.57 92.9C319.104 94.73 319.578 98.43 319.918 101.14V101.29C320.948 109.29 315.221 118.54 309.093 124.13C301.316 131.41 289.512 135.5 276.977 135.5ZM233.985 118.92C233.876 118.918 233.769 118.946 233.676 119C233.439 119.19 233.583 119.73 233.861 120.1C234.456 120.773 235.218 121.286 236.076 121.59L236.704 121.9C237.876 122.449 239.076 122.94 240.299 123.37L241.329 123.74C244.347 124.88 247.293 126.18 250.135 127.43C257.407 130.63 264.267 133.65 272.414 134.31C286.361 135.44 299.874 131.39 308.557 123.46C314.49 118.04 320.031 109.14 319.053 101.46V101.31C318.723 98.79 318.29 95.31 316.107 93.76C313.738 92.05 309.402 92.94 307.506 94.87C307.065 95.3339 306.669 95.836 306.322 96.37C305.734 97.3103 305.208 98.2855 304.746 99.29C300.719 107.56 294.631 120.06 282.344 121.79C274.979 122.79 266.708 121.79 257.757 118.73C255.309 117.922 252.989 116.784 250.867 115.35C249.202 114.02 247.671 112.54 246.294 110.93C245.552 110.11 244.852 109.35 244.131 108.63C243.845 108.311 243.456 108.096 243.028 108.02C242.997 108.019 242.966 108.024 242.938 108.037C242.909 108.049 242.884 108.067 242.864 108.09C242.73 108.24 242.864 108.63 243.142 109.09C244.243 110.829 245.497 112.472 246.891 114C246.97 114.082 247.019 114.189 247.028 114.301C247.037 114.414 247.007 114.526 246.942 114.62C246.876 114.714 246.778 114.783 246.666 114.816C246.554 114.848 246.433 114.843 246.324 114.8C244.594 114.13 242.812 113.53 241.03 113.01L240.155 112.74C238.939 112.306 237.689 111.971 236.416 111.74C236.226 111.741 236.041 111.793 235.88 111.89C235.856 111.909 235.837 111.934 235.824 111.961C235.812 111.989 235.806 112.02 235.808 112.05C235.854 112.094 235.906 112.131 235.963 112.16C236.516 112.518 237.098 112.832 237.703 113.1C238.458 113.287 239.19 113.552 239.887 113.89C240.001 113.944 240.09 114.038 240.135 114.153C240.181 114.268 240.181 114.395 240.134 114.51C240.086 114.625 239.997 114.719 239.884 114.776C239.771 114.832 239.64 114.848 239.516 114.82C238.778 114.62 238.058 114.363 237.363 114.05C236.829 113.929 236.284 113.852 235.736 113.82C235.303 113.82 234.83 113.88 234.706 114.1C234.582 114.32 234.994 114.7 235.406 114.95C235.643 115.1 235.901 115.24 236.148 115.37C237.205 115.717 238.237 116.132 239.238 116.61C239.351 116.668 239.439 116.764 239.484 116.88C239.53 116.996 239.53 117.124 239.485 117.24C239.435 117.355 239.344 117.448 239.229 117.503C239.113 117.559 238.981 117.572 238.857 117.54C237.788 117.221 236.753 116.803 235.767 116.29L235.561 116.22C235.211 116.11 234.376 115.9 234.098 116.22C234.037 116.335 234.01 116.465 234.021 116.594C234.032 116.723 234.08 116.846 234.16 116.95C234.388 117.26 234.688 117.513 235.036 117.69C236.037 118.295 237.109 118.782 238.229 119.14L238.373 119.19C238.492 119.238 238.588 119.327 238.643 119.441C238.697 119.554 238.706 119.683 238.667 119.803C238.628 119.922 238.545 120.023 238.433 120.085C238.321 120.148 238.19 120.167 238.064 120.14H237.909L234.696 119.14C234.47 119.036 234.231 118.962 233.985 118.92Z" fill="#231F20"/>
<path d="M200.459 59C200.322 59 200.191 58.9473 200.094 58.8536C199.998 58.7598 199.944 58.6326 199.944 58.5V27.5C199.944 27.3674 199.998 27.2402 200.094 27.1464C200.191 27.0527 200.322 27 200.459 27C200.595 27 200.726 27.0527 200.823 27.1464C200.919 27.2402 200.974 27.3674 200.974 27.5V58.5C200.974 58.6326 200.919 58.7598 200.823 58.8536C200.726 58.9473 200.595 59 200.459 59Z" fill="#37352F" fill-opacity="0.16"/>
<path d="M137.814 53.93C137.734 53.9292 137.655 53.9108 137.584 53.8762C137.513 53.8415 137.45 53.7915 137.402 53.73L128.132 41.34C128.092 41.2868 128.063 41.2265 128.047 41.1626C128.031 41.0986 128.029 41.0322 128.039 40.9672C128.06 40.8359 128.135 40.7182 128.245 40.64C128.356 40.5618 128.494 40.5294 128.629 40.55C128.764 40.5707 128.886 40.6426 128.966 40.75L138.236 53.14C138.314 53.2482 138.346 53.3816 138.325 53.5122C138.304 53.6428 138.232 53.7603 138.123 53.84C138.032 53.8995 137.924 53.9309 137.814 53.93Z" fill="#37352F" fill-opacity="0.16"/>
<path d="M78.28 118.44C78.2002 118.439 78.1216 118.421 78.0502 118.386C77.9788 118.352 77.9165 118.302 77.868 118.24C73.9231 113.15 70.761 108.37 70.7301 108.32C70.6941 108.264 70.6698 108.202 70.6587 108.137C70.6475 108.072 70.6496 108.006 70.6649 107.942C70.6802 107.878 70.7084 107.817 70.7479 107.764C70.7873 107.71 70.8373 107.665 70.8949 107.63C70.9519 107.594 71.0159 107.569 71.083 107.557C71.1502 107.546 71.219 107.548 71.2854 107.563C71.3519 107.577 71.4145 107.605 71.4695 107.644C71.5245 107.684 71.5708 107.733 71.6056 107.79C71.6056 107.79 74.7677 112.58 78.692 117.64C78.7325 117.693 78.7621 117.752 78.7789 117.816C78.7956 117.88 78.7994 117.946 78.7898 118.011C78.7802 118.076 78.7576 118.138 78.7231 118.195C78.6887 118.251 78.6431 118.301 78.589 118.34C78.501 118.407 78.3918 118.442 78.28 118.44Z" fill="#231F20"/>
<path d="M329.415 211.23C329.289 211.229 329.167 211.184 329.073 211.103C328.978 211.022 328.917 210.911 328.9 210.79C328.9 210.42 324.244 173.92 322.339 165.03C322.311 164.897 322.339 164.76 322.417 164.647C322.494 164.535 322.614 164.457 322.751 164.43C322.887 164.403 323.029 164.431 323.145 164.506C323.261 164.581 323.341 164.697 323.369 164.83C325.284 173.76 329.909 210.3 329.95 210.67C329.959 210.734 329.954 210.8 329.937 210.863C329.919 210.925 329.889 210.984 329.847 211.035C329.806 211.086 329.755 211.129 329.696 211.161C329.638 211.192 329.574 211.213 329.507 211.22L329.415 211.23Z" fill="white"/>
</svg>
