<svg xmlns="http://www.w3.org/2000/svg" viewBox="0 0 2410.47 789.64"><defs><style>.a{fill:#272f34;}.b{fill:#ff4f00;}</style></defs><path class="a" d="M1140,600.17h-37.84V443.42H999.44V600.17H961.61V443.42H858.91V600.17H821.07V411h37.84v27l27-27h75.68q33,0,37.29,27.57L1026.47,411h75.67A37.83,37.83,0,0,1,1140,448.83Z"/><path class="a" d="M1404.83,562.34A37.83,37.83,0,0,1,1367,600.17H1253.48a37.83,37.83,0,0,1-37.83-37.83V448.83A37.83,37.83,0,0,1,1253.48,411H1367a37.83,37.83,0,0,1,37.84,37.84Zm-37.84,5.4V443.42H1253.48V567.74Z"/><path class="a" d="M1669.68,600.17H1518.33a37.85,37.85,0,0,1-37.84-37.83V448.83A37.85,37.85,0,0,1,1518.33,411h113.51a37.85,37.85,0,0,1,37.84,37.84v37.83l-37.84,37.84h-108.1l32.43-32.43h75.67V443.42H1518.33V567.74h151.35Z"/><path class="a" d="M1883.18,411l-33,32.43h-91.34v43.24h75.67a37.86,37.86,0,0,1,37.84,37.84v37.84a37.85,37.85,0,0,1-37.84,37.83H1721V567.74h113.51V519.1h-75.67A37.83,37.83,0,0,1,1721,481.26V448.83A37.83,37.83,0,0,1,1758.86,411Z"/><path class="a" d="M1977.77,378.56h-37.84V335.32h37.84Zm0,221.61h-37.84V438l37.84-37.84Z"/><path class="a" d="M2221,297.48l-33,32.43h-91.35v102.7L2118.84,411h96.75l-33,32.43h-85.95V600.17h-37.83V335.32a37.83,37.83,0,0,1,37.83-37.84Z"/><rect class="b" x="368.43" y="410.68" width="84.21" height="189.49"/><path class="b" d="M621.05,347.53V600.16H536.84V347.53h28.24L565,293a52.67,52.67,0,0,1-36.78-36.72H500.56l-90,90-90-90H292.85a52.68,52.68,0,0,1-36.7,36.7V473.84h28.07V600.18H200V473.84h28.07V293a52.64,52.64,0,1,1,64.77-64.77h39.29l78.4,78.4,78.39-78.4h39.29A52.64,52.64,0,1,1,593.07,293l.08,54.53Z"/></svg>