<svg width="112" height="23" viewBox="0 0 112 23" fill="none" xmlns="http://www.w3.org/2000/svg">
<g id="Logo">
<path id="Vector" d="M51.8724 22.8903H49.8029V14.3152H44.1846V22.8903H42.1146V14.3152H36.4963V22.8903H34.4268V12.5411H36.4963V14.0181L37.9733 12.5411H42.1129C43.3164 12.5411 43.9966 13.0438 44.1534 14.0493L45.6617 12.5411H49.8012C50.0731 12.5411 50.3422 12.5946 50.5933 12.6987C50.8445 12.8027 51.0726 12.9552 51.2648 13.1474C51.457 13.3396 51.6094 13.5679 51.7134 13.819C51.8174 14.0702 51.8708 14.3393 51.8708 14.6111L51.8724 22.8903Z" fill="white"/>
<path id="Vector_2" d="M66.3617 20.8202C66.3615 21.3692 66.1434 21.8957 65.7552 22.2838C65.367 22.672 64.8406 22.8902 64.2916 22.8903H58.0847C57.8128 22.8904 57.5436 22.8369 57.2924 22.7329C57.0413 22.6289 56.813 22.4764 56.6208 22.2842C56.4286 22.0919 56.2761 21.8637 56.1721 21.6125C56.0681 21.3613 56.0146 21.0921 56.0146 20.8202V14.6111C56.0146 14.3393 56.0681 14.0701 56.1721 13.8189C56.2761 13.5677 56.4286 13.3395 56.6208 13.1472C56.813 12.955 57.0413 12.8025 57.2924 12.6985C57.5436 12.5945 57.8128 12.541 58.0847 12.5411H64.2944C64.8433 12.5412 65.3698 12.7594 65.758 13.1475C66.1461 13.5357 66.3643 14.0622 66.3644 14.6111L66.3617 20.8202ZM64.2916 21.1151V14.3152H58.0847V21.1151H64.2916Z" fill="white"/>
<path id="Vector_3" d="M80.85 22.8903H72.5708C72.0221 22.8899 71.4961 22.6716 71.1083 22.2834C70.7205 21.8952 70.5028 21.3689 70.5029 20.8202V14.6111C70.5029 14.3393 70.5564 14.0701 70.6604 13.8189C70.7644 13.5677 70.9168 13.3395 71.1091 13.1472C71.3013 12.955 71.5295 12.8025 71.7807 12.6985C72.0319 12.5945 72.3011 12.541 72.573 12.5411H78.7826C79.0545 12.5411 79.3236 12.5946 79.5747 12.6987C79.8259 12.8027 80.054 12.9552 80.2462 13.1474C80.4384 13.3396 80.5908 13.5679 80.6948 13.819C80.7987 14.0702 80.8522 14.3393 80.8522 14.6111V16.6807L78.7826 18.7507H72.8662L74.6403 16.9766H78.7805V14.3152H72.5708V21.1151H80.85V22.8903Z" fill="white"/>
<path id="Vector_4" d="M92.5297 12.5411L90.7244 14.3152H85.7276V16.6807H89.8688C90.1406 16.6807 90.4098 16.7342 90.6609 16.8382C90.912 16.9423 91.1402 17.0948 91.3324 17.287C91.5246 17.4792 91.677 17.7074 91.781 17.9586C91.8849 18.2097 91.9384 18.4789 91.9383 18.7507V20.8202C91.9384 21.0921 91.8849 21.3612 91.781 21.6124C91.677 21.8635 91.5246 22.0917 91.3324 22.284C91.1402 22.4762 90.912 22.6287 90.6609 22.7327C90.4098 22.8368 90.1406 22.8903 89.8688 22.8903H83.6592V21.1151H89.8688V18.4548H85.7292C85.4574 18.4548 85.1883 18.4014 84.9371 18.2974C84.686 18.1934 84.4578 18.041 84.2655 17.8488C84.0733 17.6566 83.9208 17.4285 83.8168 17.1773C83.7127 16.9262 83.6592 16.6571 83.6592 16.3852V14.6111C83.6591 14.3393 83.7126 14.0701 83.8166 13.8189C83.9206 13.5677 84.0731 13.3395 84.2653 13.1472C84.4576 12.955 84.6858 12.8025 84.937 12.6985C85.1882 12.5945 85.4574 12.541 85.7292 12.5411H92.5297Z" fill="white"/>
<path id="Vector_5" d="M97.7043 10.7669H95.6348V8.40143H97.7043V10.7669ZM97.7043 22.8902H95.6348V14.0197L97.7043 11.9496V22.8902Z" fill="white"/>
<path id="Vector_6" d="M111.01 6.3316L109.205 8.10571H104.208V13.724L105.421 12.5412H110.713L108.908 14.3154H104.203V22.8905H102.134V8.40167C102.134 8.12985 102.187 7.86068 102.291 7.60953C102.395 7.35838 102.548 7.13017 102.74 6.93794C102.932 6.74571 103.16 6.59323 103.411 6.48919C103.662 6.38515 103.931 6.3316 104.203 6.3316H111.01Z" fill="white"/>
<path id="Vector_7" d="M14.8685 12.524H10.2617V22.8902H14.8685V12.524Z" fill="white"/>
<path id="Vector_8" d="M24.0813 9.06899V22.8893H19.4745V9.06899H21.0194L21.015 6.08698C20.5345 5.95473 20.0966 5.70013 19.7439 5.34804C19.3913 4.99596 19.136 4.55843 19.0029 4.07819H17.4898L12.5662 9.0017L7.64274 4.07819H6.12684C5.99398 4.55769 5.73923 4.99461 5.3874 5.34645C5.03557 5.69828 4.59864 5.95302 4.11914 6.08589V15.9789H5.65473V22.8904H1.04797V15.9789H2.58355V6.08589C2.09827 5.95163 1.65666 5.69248 1.30279 5.33428C0.948922 4.97609 0.695156 4.53137 0.566807 4.04448C0.438459 3.5576 0.440014 3.04557 0.571318 2.55948C0.702623 2.07338 0.959087 1.63021 1.31513 1.27417C1.67117 0.918132 2.11434 0.661669 2.60043 0.530364C3.08653 0.39906 3.59855 0.397504 4.08544 0.525852C4.57232 0.654201 5.01704 0.907967 5.37524 1.26184C5.73344 1.61571 5.99259 2.05731 6.12684 2.5426H8.27623L12.5652 6.83153L16.8535 2.5426H19.0029C19.1371 2.05751 19.3962 1.61607 19.7542 1.26229C20.1122 0.9085 20.5566 0.654723 21.0433 0.526249C21.5299 0.397775 22.0417 0.399093 22.5277 0.53007C23.0137 0.661046 23.4569 0.917108 23.813 1.27273C24.1692 1.62836 24.4259 2.07112 24.5577 2.55689C24.6894 3.04267 24.6915 3.55448 24.5638 4.04132C24.4361 4.52817 24.183 4.97303 23.8297 5.33157C23.4765 5.69012 23.0355 5.94982 22.5506 6.08479L22.555 9.0679L24.0813 9.06899Z" fill="white"/>
</g>
</svg>
