<svg width="212" height="150" viewBox="0 0 212 150" fill="none" xmlns="http://www.w3.org/2000/svg">
<path d="M143.794 88.6099L132.362 127.845C132.362 127.845 123.352 129.845 123.527 130.375C123.702 130.905 137.752 132.705 137.752 132.705L151.999 92.0449" fill="white"/>
<path d="M137.752 132.96H137.72C123.522 131.15 123.341 130.645 123.273 130.46C123.259 130.418 123.255 130.373 123.261 130.329C123.266 130.285 123.281 130.243 123.304 130.205C123.675 129.575 129.489 128.23 132.145 127.645L143.54 88.5549C143.558 88.4915 143.603 88.4375 143.663 88.4047C143.724 88.372 143.796 88.3631 143.863 88.3799C143.897 88.3886 143.929 88.4035 143.956 88.4238C143.984 88.4442 144.007 88.4695 144.025 88.4983C144.042 88.5272 144.053 88.559 144.057 88.5919C144.061 88.6247 144.058 88.6581 144.049 88.6899L132.616 127.92C132.604 127.964 132.58 128.004 132.545 128.036C132.51 128.067 132.467 128.09 132.42 128.1C128.843 128.885 125 129.87 123.983 130.33C125.514 130.795 132.818 131.83 137.572 132.44L151.744 91.9749C151.767 91.9127 151.815 91.8614 151.877 91.8315C151.939 91.8017 152.011 91.7958 152.078 91.8149C152.112 91.8251 152.143 91.8415 152.17 91.8632C152.197 91.8849 152.219 91.9114 152.234 91.9412C152.25 91.971 152.259 92.0035 152.262 92.0368C152.264 92.0701 152.259 92.1034 152.248 92.1349L138.007 132.795C137.988 132.844 137.953 132.886 137.907 132.916C137.862 132.946 137.808 132.961 137.752 132.96Z" fill="black"/>
<path d="M168.211 86.97L171.19 132.715C171.19 132.715 157.087 135.6 157.034 135.255C156.981 134.91 164.634 129.78 164.634 129.78L158.873 87.535" fill="white"/>
<path d="M157.119 135.5C156.938 135.5 156.901 135.5 156.875 135.46C156.814 135.415 156.773 135.351 156.758 135.28C156.726 135.095 156.679 134.78 164.332 129.65L158.597 87.5501C158.588 87.4838 158.607 87.4168 158.651 87.3638C158.694 87.3108 158.758 87.2762 158.828 87.2676C158.898 87.259 158.969 87.277 159.025 87.3178C159.081 87.3586 159.118 87.4188 159.127 87.4851L164.888 129.73C164.894 129.776 164.887 129.822 164.867 129.864C164.848 129.906 164.817 129.943 164.777 129.97C162.424 131.545 158.82 134.03 157.638 134.97C159.625 134.725 166.415 133.405 170.888 132.47L167.946 87.0001C167.944 86.9672 167.949 86.9343 167.96 86.9032C167.972 86.8721 167.99 86.8434 168.013 86.8188C168.036 86.7942 168.064 86.7741 168.095 86.7597C168.127 86.7454 168.161 86.737 168.196 86.7351C168.266 86.7323 168.334 86.7552 168.386 86.7991C168.439 86.8429 168.471 86.9042 168.477 86.9701L171.439 132.715C171.444 132.775 171.426 132.834 171.388 132.882C171.35 132.93 171.295 132.963 171.232 132.975C160.341 135.185 157.776 135.5 157.119 135.5Z" fill="black"/>
<path d="M145.39 48.8151C144.669 49.0301 143.943 49.2351 143.211 49.4151C137.411 50.9221 131.413 51.6427 125.398 51.5551C123.389 51.5051 120.708 51.5551 118.868 50.7451C117.437 50.1051 116.091 48.9851 114.772 48.1601C114.432 47.9501 113.886 47.7751 113.712 48.1101C113.563 48.3651 113.786 48.6651 113.998 48.8701C114.762 49.6051 115.594 50.2745 116.483 50.8701C114.768 50.5913 113.031 50.4442 111.289 50.4301C111.212 50.4216 111.134 50.4374 111.067 50.4751C110.871 50.6151 111.125 50.8851 111.353 50.9751C111.882 51.1837 112.428 51.3509 112.985 51.4751C112.469 51.3251 111.935 51.2377 111.395 51.2151C111.152 51.2151 110.865 51.2151 110.754 51.4401C110.611 51.7351 110.987 52.0101 111.311 52.1301C111.83 52.3247 112.361 52.4916 112.901 52.6301C112.274 52.6198 111.649 52.6956 111.046 52.8551C110.94 52.8719 110.843 52.9211 110.77 52.9951C110.721 53.0716 110.7 53.1613 110.712 53.2501C110.772 53.4859 110.904 53.6997 111.093 53.8644C111.282 54.0291 111.518 54.1372 111.772 54.1751C112.283 54.2366 112.791 54.3234 113.293 54.4351C112.826 54.4651 112.365 54.3051 111.904 54.3351C111.443 54.3651 110.924 54.7201 111.024 55.1501C111.125 55.5801 111.554 55.6501 111.978 55.7601C119.775 57.4119 127.775 58.0478 135.754 57.6501C139.742 57.4556 143.712 57.0096 147.637 56.3151C151.183 55.6851 154.813 55.1451 157.214 52.3501C157.403 52.1409 157.58 51.9223 157.744 51.6951C158.329 50.9724 158.589 50.0622 158.47 49.1601C157.882 46.4551 154.05 46.6951 151.866 47.0901C149.674 47.5484 147.512 48.1244 145.39 48.8151Z" fill="white"/>
<path d="M131.101 57.9999C124.639 58.0097 118.197 57.3389 111.894 55.9999C111.454 55.9049 110.834 55.7199 110.738 55.1949C110.714 55.0834 110.716 54.9682 110.744 54.8575C110.773 54.7468 110.827 54.6435 110.902 54.5549C110.995 54.4371 111.112 54.3384 111.247 54.2649C111.027 54.1813 110.834 54.0451 110.688 53.8697C110.541 53.6944 110.445 53.4859 110.41 53.2649C110.387 53.1141 110.425 52.9607 110.516 52.8349C110.624 52.7152 110.771 52.6326 110.934 52.5999C111.125 52.5499 111.321 52.5099 111.517 52.4749L111.178 52.3499C110.874 52.2482 110.621 52.0432 110.468 51.7749C110.435 51.7039 110.418 51.6273 110.418 51.5499C110.418 51.4725 110.435 51.3959 110.468 51.3249C110.509 51.2433 110.569 51.1714 110.643 51.1143C110.717 51.0573 110.804 51.0165 110.897 50.9949C110.796 50.9044 110.729 50.7849 110.706 50.6549C110.695 50.583 110.705 50.5096 110.735 50.4427C110.765 50.3757 110.814 50.3177 110.876 50.2749C110.989 50.2055 111.123 50.1722 111.258 50.1799C112.662 50.1915 114.064 50.2884 115.455 50.4699C114.865 50.0218 114.304 49.5409 113.775 49.0299C113.277 48.5299 113.319 48.1899 113.446 47.9749C113.488 47.9008 113.546 47.8361 113.616 47.7852C113.687 47.7343 113.768 47.6984 113.855 47.6799C114.229 47.635 114.608 47.7261 114.915 47.9349C115.37 48.2199 115.831 48.5399 116.277 48.8549C117.125 49.4811 118.031 50.0333 118.985 50.5049C120.548 51.1999 122.833 51.2399 124.661 51.2749H125.403C131.394 51.3671 137.367 50.6498 143.142 49.1449C143.778 48.9849 144.446 48.7999 145.31 48.5499L146.55 48.1799C148.272 47.6244 150.028 47.1686 151.808 46.8149C153.668 46.4749 158.062 46.0249 158.698 49.0799C158.878 49.8999 158.608 50.8199 157.898 51.8099C157.733 52.0415 157.556 52.2651 157.368 52.4799C155.004 55.2349 151.485 55.8549 148.077 56.4799L147.637 56.5599C143.7 57.2578 139.718 57.7055 135.717 57.8999C134.184 57.9666 132.645 57.9999 131.101 57.9999ZM111.994 54.5749H111.894C111.784 54.5824 111.676 54.6106 111.578 54.6578C111.48 54.705 111.392 54.7703 111.321 54.8499C111.291 54.8815 111.27 54.9193 111.259 54.9601C111.248 55.001 111.248 55.0438 111.258 55.0849C111.3 55.2699 111.544 55.4099 112.01 55.5099C119.784 57.1574 127.761 57.79 135.717 57.3899C139.693 57.1967 143.65 56.7523 147.563 56.0599L148.008 55.9799C151.32 55.3949 154.744 54.7899 156.986 52.1799C157.161 51.9799 157.325 51.7649 157.479 51.5499C157.759 51.2221 157.967 50.8452 158.092 50.441C158.216 50.0367 158.255 49.6132 158.205 49.1949C157.638 46.5799 153.61 47.0099 151.909 47.3199C150.15 47.6699 148.415 48.1207 146.715 48.6699L145.469 49.0399C144.6 49.2949 143.921 49.4799 143.28 49.6399C137.457 51.1606 131.434 51.8846 125.393 51.7899H124.651C122.769 51.7549 120.411 51.7149 118.757 50.9699C117.77 50.4893 116.835 49.92 115.964 49.2699C115.503 48.9499 115.063 48.6449 114.623 48.3699C114.446 48.2375 114.224 48.17 113.998 48.1799C113.982 48.1828 113.968 48.1888 113.955 48.1974C113.942 48.206 113.931 48.2171 113.923 48.2299C113.876 48.3199 113.971 48.4999 114.173 48.6999C114.925 49.4329 115.744 50.1021 116.621 50.6999C116.67 50.7327 116.705 50.78 116.721 50.8341C116.738 50.8882 116.734 50.946 116.712 50.998C116.689 51.0501 116.648 51.0934 116.596 51.121C116.544 51.1485 116.484 51.1587 116.425 51.1499C114.742 50.8803 113.039 50.7348 111.332 50.7149C111.364 50.7396 111.4 50.7598 111.438 50.7749C111.785 50.9097 112.138 51.0282 112.498 51.1299C112.678 51.1699 112.853 51.2149 113.028 51.2649C113.094 51.2824 113.15 51.3237 113.183 51.3799C113.217 51.4361 113.226 51.5026 113.208 51.5649C113.189 51.6275 113.146 51.681 113.087 51.7145C113.028 51.7479 112.957 51.7588 112.89 51.7449C112.715 51.7049 112.54 51.6649 112.36 51.6149C112.011 51.5457 111.656 51.5023 111.3 51.4849C111.088 51.4849 110.94 51.4849 110.908 51.5699C110.902 51.5879 110.902 51.6069 110.908 51.6249C111.008 51.763 111.153 51.8665 111.321 51.9199C111.828 52.1156 112.346 52.2826 112.874 52.4199C112.936 52.4373 112.99 52.4751 113.025 52.5265C113.06 52.5779 113.074 52.6394 113.065 52.6999C113.055 52.759 113.022 52.8128 112.974 52.8513C112.925 52.8899 112.863 52.9107 112.8 52.9099C112.2 52.8984 111.602 52.9709 111.024 53.1249C110.975 53.1329 110.929 53.1499 110.887 53.1749C110.88 53.2012 110.88 53.2286 110.887 53.2549C110.924 53.6149 111.353 53.8699 111.756 53.9599C111.959 54.0025 112.164 54.0342 112.371 54.0549C112.689 54.0797 113.004 54.1384 113.309 54.2299C113.366 54.2497 113.414 54.2872 113.446 54.3362C113.478 54.3852 113.491 54.4429 113.484 54.4999C113.473 54.5567 113.443 54.6087 113.398 54.6476C113.353 54.6865 113.295 54.7102 113.234 54.7149C112.982 54.7212 112.73 54.7044 112.482 54.6649C112.321 54.63 112.158 54.6049 111.994 54.5899V54.5749Z" fill="black"/>
<path d="M129.378 127.68L131.286 130.42L138.706 131.25L137.98 133.935C137.98 133.935 121.614 132.005 121.237 130.59C120.861 129.175 129.378 127.68 129.378 127.68Z" fill="black"/>
<path d="M149.396 44.7399C149.396 44.7399 144.255 45.8949 142.708 48.8949C141.16 51.8949 143.01 67.985 143.01 67.985L165.8 68.905C165.8 68.905 168.137 57.0549 166.992 51.9749C165.847 46.8949 161.305 40.1249 149.396 44.7399Z" fill="#FDECC8"/>
<path d="M150.064 41.9999L148.601 46.4999C148.601 46.4999 148.633 49.1599 151.755 48.8549C152.677 48.7552 153.564 48.463 154.352 47.9994C155.139 47.5358 155.807 46.9126 156.308 46.1749L157.421 38.1249C156.935 37.7472 156.616 37.2125 156.525 36.6249C156.443 36.1816 156.443 35.7282 156.525 35.2849C156.557 35.1149 156.758 34.1199 156.965 34.0849C156.372 34.1742 155.766 34.1267 155.197 33.9465C154.629 33.7662 154.115 33.4585 153.7 33.0499C153.266 32.568 152.909 32.029 152.64 31.4499C152.393 31.0981 152.297 30.6711 152.37 30.2549C151.391 30.8415 150.442 31.4716 149.524 32.1449C149.015 32.4938 148.554 32.9002 148.151 33.3549C147.488 34.1649 147.308 35.2799 147.154 36.2649C146.951 37.4347 146.865 38.6198 146.895 39.8049C146.964 42.0599 150.064 41.9999 150.064 41.9999Z" fill="white"/>
<path d="M151.267 49.135C150.547 49.1673 149.84 48.9403 149.29 48.5C148.723 47.9814 148.39 47.2752 148.363 46.53C148.358 46.5069 148.358 46.4831 148.363 46.46L149.73 42.24C148.527 42.165 146.693 41.6 146.625 39.815C146.595 38.6165 146.684 37.4181 146.89 36.235C147.038 35.275 147.223 34.08 147.95 33.235C148.364 32.7639 148.839 32.344 149.365 31.985C150.287 31.31 151.251 30.67 152.232 30.08C152.273 30.0544 152.321 30.0408 152.37 30.0408C152.419 30.0408 152.467 30.0544 152.508 30.08C152.547 30.1085 152.576 30.1478 152.591 30.1925C152.607 30.2372 152.607 30.2851 152.592 30.33C152.542 30.6911 152.632 31.0572 152.847 31.36C153.117 31.9215 153.475 32.4422 153.907 32.905C154.296 33.2848 154.775 33.5714 155.305 33.741C155.835 33.9105 156.401 33.9582 156.954 33.88C156.986 33.875 157.018 33.876 157.05 33.8828C157.081 33.8897 157.11 33.9023 157.137 33.9199C157.163 33.9376 157.185 33.9599 157.202 33.9857C157.219 34.0114 157.23 34.0401 157.235 34.07C157.243 34.1194 157.233 34.1697 157.209 34.2137C157.184 34.2578 157.145 34.2932 157.097 34.315C156.949 34.6443 156.847 34.9906 156.795 35.345C156.718 35.7619 156.718 36.1881 156.795 36.605C156.874 37.1394 157.157 37.6283 157.59 37.98C157.626 38.0036 157.655 38.0362 157.673 38.0741C157.69 38.1121 157.697 38.1539 157.691 38.195L156.583 46.245C156.578 46.2749 156.568 46.3038 156.551 46.33C156.034 47.1019 155.339 47.7537 154.518 48.2368C153.697 48.7199 152.77 49.0218 151.808 49.12C151.58 49.125 151.432 49.135 151.267 49.135ZM148.845 46.555C148.882 47.1627 149.156 47.736 149.614 48.165C149.909 48.3858 150.251 48.5445 150.617 48.6308C150.982 48.717 151.363 48.7287 151.734 48.665C152.608 48.5723 153.449 48.3006 154.2 47.8687C154.951 47.4369 155.592 46.8554 156.08 46.165L157.14 38.285C156.665 37.8704 156.356 37.3142 156.265 36.71C156.178 36.2403 156.178 35.7597 156.265 35.29C156.315 34.9884 156.389 34.6908 156.488 34.4C155.932 34.4159 155.378 34.3213 154.863 34.1223C154.348 33.9233 153.883 33.6244 153.499 33.245C153.042 32.7476 152.666 32.1901 152.38 31.59C152.222 31.3208 152.113 31.0284 152.057 30.725C151.227 31.2383 150.418 31.7833 149.63 32.36C149.148 32.6888 148.71 33.0716 148.326 33.5C147.695 34.27 147.526 35.35 147.377 36.305C147.179 37.4619 147.092 38.6333 147.117 39.805C147.192 41.805 149.953 41.805 150.059 41.805C150.097 41.8042 150.134 41.812 150.169 41.8276C150.203 41.8433 150.232 41.8664 150.255 41.895C150.278 41.9238 150.294 41.9573 150.302 41.9928C150.309 42.0284 150.308 42.0651 150.297 42.1L148.845 46.555Z" fill="black"/>
<path d="M155.741 37.5001C155.879 37.1691 156.128 36.8899 156.451 36.7051C156.756 36.5432 157.09 36.4348 157.437 36.3851C157.623 36.3427 157.817 36.3427 158.004 36.3851C158.133 36.42 158.254 36.4796 158.359 36.5601C158.619 36.7304 158.806 36.9819 158.889 37.2701C158.926 37.5099 158.904 37.7545 158.825 37.9851C158.755 38.2401 158.65 38.4855 158.512 38.7151C158.221 39.1684 157.751 39.4941 157.206 39.6206C156.66 39.7472 156.084 39.6643 155.603 39.3901" fill="white"/>
<path d="M156.726 39.8301C156.298 39.8313 155.878 39.7205 155.513 39.5101C155.465 39.4821 155.431 39.4379 155.417 39.3867C155.403 39.3354 155.411 39.2811 155.438 39.2351C155.452 39.2123 155.471 39.1924 155.494 39.1767C155.516 39.1609 155.542 39.1497 155.569 39.1436C155.597 39.1375 155.625 39.1368 155.652 39.1413C155.68 39.1459 155.706 39.1557 155.73 39.1701C155.944 39.2934 156.182 39.3755 156.43 39.4116C156.677 39.4477 156.93 39.437 157.174 39.3803C157.417 39.3236 157.646 39.2219 157.848 39.0811C158.05 38.9403 158.22 38.7632 158.348 38.5601C158.474 38.3459 158.57 38.1174 158.634 37.8801C158.71 37.6817 158.732 37.4685 158.698 37.2601C158.621 37.0178 158.456 36.8089 158.231 36.6701C158.149 36.6042 158.054 36.5548 157.951 36.5251C157.793 36.5036 157.632 36.5138 157.479 36.5551C157.156 36.6018 156.843 36.7017 156.557 36.8501C156.276 37.0131 156.059 37.2568 155.937 37.5451C155.927 37.5696 155.913 37.5921 155.894 37.6113C155.875 37.6304 155.852 37.6458 155.827 37.6565C155.802 37.6672 155.775 37.6731 155.747 37.6737C155.719 37.6743 155.692 37.6697 155.666 37.6601C155.64 37.6507 155.616 37.6365 155.596 37.6183C155.575 37.6001 155.559 37.5783 155.548 37.5541C155.536 37.5299 155.53 37.5039 155.53 37.4774C155.529 37.451 155.534 37.4247 155.544 37.4001C155.699 37.024 155.983 36.7073 156.35 36.5001C156.679 36.3281 157.038 36.2114 157.41 36.1551C157.628 36.1049 157.855 36.1049 158.072 36.1551C158.228 36.1991 158.374 36.2704 158.502 36.3651C158.808 36.5604 159.03 36.8532 159.127 37.1901C159.172 37.4614 159.149 37.739 159.058 38.0001C158.984 38.2729 158.872 38.5351 158.724 38.7801C158.567 39.0273 158.36 39.2428 158.114 39.4144C157.869 39.586 157.59 39.7102 157.293 39.7801C157.107 39.8176 156.917 39.8344 156.726 39.8301Z" fill="black"/>
<path d="M149.333 44.105C149.883 44.2355 150.456 44.2531 151.014 44.1565C151.572 44.0598 152.101 43.8513 152.566 43.545C152.986 43.2833 153.341 42.9393 153.607 42.5363C153.873 42.1333 154.044 41.6809 154.108 41.21C154.108 41.21 151.744 42.625 149.815 41.995L149.333 44.105Z" fill="black"/>
<path d="M150.319 44.4401C149.961 44.4436 149.604 44.4016 149.259 44.3151C149.202 44.2988 149.154 44.2629 149.125 44.2146C149.095 44.1664 149.086 44.1094 149.1 44.0551L149.582 41.9501C149.59 41.9197 149.604 41.8912 149.624 41.8662C149.644 41.8413 149.67 41.8205 149.698 41.8051C149.729 41.7927 149.761 41.7863 149.794 41.7863C149.827 41.7863 149.859 41.7927 149.889 41.8051C151.686 42.3901 153.954 41.0551 153.976 41.0401C154.011 41.0193 154.053 41.0083 154.095 41.0083C154.137 41.0083 154.178 41.0193 154.214 41.0401C154.252 41.0587 154.283 41.0868 154.304 41.1212C154.326 41.1557 154.337 41.1951 154.336 41.2351C154.271 41.7389 154.091 42.2234 153.809 42.6551C153.526 43.0868 153.147 43.4553 152.698 43.7351C152.006 44.2049 151.171 44.452 150.319 44.4401ZM149.608 43.9401C150.094 44.0267 150.593 44.0209 151.076 43.9231C151.56 43.8252 152.017 43.6372 152.423 43.3701C153.07 42.9522 153.55 42.3411 153.785 41.6351C153.032 42.0051 151.447 42.6351 149.99 42.2801L149.608 43.9401Z" fill="black"/>
<path d="M151.967 34.29C151.967 34.29 149.99 36.255 150.297 36.7C150.605 37.145 151.697 37.06 151.697 37.06" fill="white"/>
<path d="M151.469 37.2902C151.087 37.2902 150.377 37.2302 150.101 36.8202C149.762 36.3202 150.838 35.0902 151.797 34.1352C151.84 34.0927 151.899 34.0681 151.961 34.0667C152.023 34.0653 152.084 34.0872 152.129 34.1277C152.174 34.1681 152.2 34.2238 152.201 34.2824C152.203 34.341 152.179 34.3977 152.136 34.4402C151.214 35.3602 150.446 36.3652 150.499 36.5952C150.663 36.8302 151.363 36.8652 151.675 36.8402C151.706 36.8379 151.737 36.8413 151.766 36.8502C151.795 36.8592 151.822 36.8734 151.846 36.8922C151.869 36.9111 151.888 36.934 151.902 36.9598C151.916 36.9856 151.925 37.0138 151.927 37.0427C151.93 37.0716 151.926 37.1006 151.916 37.1282C151.907 37.1558 151.892 37.1813 151.872 37.2034C151.852 37.2254 151.828 37.2436 151.8 37.2567C151.773 37.2699 151.743 37.2779 151.712 37.2802C151.632 37.2885 151.55 37.2919 151.469 37.2902Z" fill="black"/>
<path d="M154.931 34.9626C155.046 34.6936 154.974 34.4129 154.77 34.3356C154.566 34.2583 154.308 34.4136 154.194 34.6826C154.079 34.9516 154.151 35.2324 154.355 35.3097C154.558 35.387 154.816 35.2316 154.931 34.9626Z" fill="black"/>
<path d="M150.024 34.7058C150.139 34.4368 150.067 34.1561 149.863 34.0787C149.659 34.0014 149.401 34.1568 149.286 34.4258C149.172 34.6948 149.244 34.9755 149.447 35.0528C149.651 35.1301 149.909 34.9748 150.024 34.7058Z" fill="black"/>
<path d="M148.983 38.2251L152.894 38.0801C152.894 38.0801 152.788 40.5801 150.509 40.7801C148.23 40.9801 148.983 38.2251 148.983 38.2251Z" fill="black"/>
<path d="M163.521 68.7C163.521 68.7 169.022 74.48 170.559 80.85C173.787 94.25 173.882 114.75 173.882 114.75L132.097 111.935L142.04 67.635L163.521 68.7Z" fill="black"/>
<path d="M171.19 65.6751C170.355 65.6775 169.526 65.5491 168.736 65.2951C168.701 65.2839 168.669 65.2664 168.642 65.2435C168.614 65.2206 168.591 65.1929 168.575 65.1618C168.559 65.1306 168.549 65.0968 168.547 65.0622C168.545 65.0276 168.549 64.9929 168.561 64.9601C168.573 64.9273 168.592 64.8969 168.616 64.8709C168.64 64.8448 168.67 64.8235 168.703 64.8082C168.736 64.7929 168.771 64.7838 168.808 64.7816C168.845 64.7793 168.882 64.7839 168.916 64.7951C170.414 65.2349 172.017 65.2424 173.52 64.8165C175.022 64.3907 176.356 63.5509 177.349 62.4051C178.302 61.2214 178.913 59.8248 179.123 58.3517C179.333 56.8785 179.134 55.3792 178.546 54.0001C177.349 51.2001 174.778 49.1601 172.292 47.1851C171.858 46.8401 171.418 46.4901 170.994 46.1401C167.883 43.6051 166.224 41.1101 165.381 37.8001C164.613 34.7001 163.712 31.4801 161.926 29.1301C160.442 27.1801 156.811 24.9251 154.129 25.9651C153.297 26.3295 152.528 26.8117 151.85 27.3951C151.82 27.4174 151.785 27.4337 151.748 27.4432C151.71 27.4526 151.671 27.455 151.633 27.4501C150.18 27.2143 148.696 27.2042 147.239 27.4201C145.804 27.6398 144.512 28.3698 143.63 29.4601C142.879 30.606 142.552 31.9551 142.703 33.2951C142.729 33.6851 142.872 34.1551 143.19 34.1901C143.261 34.1988 143.326 34.2336 143.371 34.2868C143.415 34.34 143.436 34.4076 143.429 34.4751C143.425 34.5091 143.414 34.5421 143.396 34.572C143.378 34.6019 143.354 34.6282 143.326 34.6492C143.297 34.6702 143.264 34.6855 143.229 34.6943C143.194 34.703 143.157 34.705 143.121 34.7001C142.591 34.6401 142.215 34.1251 142.157 33.3251C141.99 31.8686 142.353 30.402 143.185 29.1651C144.144 27.9695 145.554 27.1676 147.123 26.9251C148.599 26.6969 150.104 26.6969 151.58 26.9251C152.276 26.3377 153.062 25.8538 153.912 25.4901C156.891 24.3351 160.733 26.6901 162.36 28.8301C164.205 31.2551 165.122 34.5301 165.906 37.6801C166.69 40.8301 168.323 43.2901 171.338 45.7501C171.762 46.1001 172.197 46.4451 172.637 46.7901C175.17 48.7901 177.794 50.8901 179.045 53.7901C179.681 55.2529 179.897 56.848 179.672 58.4148C179.447 59.9816 178.788 61.4648 177.762 62.7151C176.963 63.6324 175.961 64.373 174.825 64.8845C173.689 65.396 172.448 65.6659 171.19 65.6751Z" fill="black"/>
<path d="M172.489 133.335L172.059 130.575L163.447 132.815L161.772 130.73C161.772 130.73 155.465 135.045 156.35 136C157.235 136.955 166.515 135.21 172.489 133.335Z" fill="black"/>
<path d="M131.44 88.9449C131.397 88.9456 131.355 88.9363 131.317 88.918C131.279 88.8997 131.247 88.8729 131.223 88.8399L123.384 78.1799C123.345 78.1246 123.33 78.0571 123.343 77.9917C123.356 77.9263 123.395 77.8683 123.453 77.8299C123.481 77.8111 123.513 77.7979 123.547 77.7909C123.581 77.784 123.616 77.7836 123.65 77.7896C123.684 77.7957 123.717 77.8081 123.746 77.8262C123.775 77.8443 123.799 77.8677 123.819 77.8949L131.668 88.5549C131.688 88.5817 131.702 88.612 131.709 88.644C131.716 88.676 131.717 88.709 131.711 88.7412C131.704 88.7733 131.691 88.8039 131.672 88.8312C131.653 88.8585 131.628 88.8818 131.599 88.8999C131.553 88.9317 131.497 88.9475 131.44 88.9449Z" fill="#37352F" fill-opacity="0.16"/>
<path d="M131.673 27.8449C131.623 27.8469 131.573 27.8352 131.53 27.8112C131.487 27.7873 131.452 27.752 131.43 27.7097C131.407 27.6674 131.398 27.6199 131.404 27.5729C131.41 27.526 131.429 27.4815 131.461 27.4449L139.941 17.0799C139.961 17.0517 139.988 17.0276 140.018 17.0093C140.049 16.991 140.083 16.9788 140.119 16.9734C140.154 16.968 140.191 16.9695 140.226 16.9779C140.261 16.9864 140.294 17.0015 140.322 17.0223C140.351 17.0432 140.375 17.0694 140.392 17.0992C140.41 17.1291 140.421 17.162 140.424 17.196C140.428 17.23 140.424 17.2643 140.413 17.2967C140.402 17.3292 140.384 17.3592 140.36 17.3849L131.88 27.7499C131.855 27.7791 131.823 27.8028 131.788 27.8192C131.752 27.8356 131.713 27.8444 131.673 27.8449Z" fill="#37352F" fill-opacity="0.16"/>
<path d="M66.16 74.4799L79.7439 128.665L67.9461 131.33L54.9664 87.5549L51.1981 132.47L38.9551 131.875L38.5364 69.1499L66.16 74.4799Z" fill="black"/>
<path d="M62.471 46.595C62.3915 46.89 86.321 50.145 86.321 50.145L84.5932 57.33C84.5932 57.33 68.8999 55.7 60.5842 54.44L62.471 46.595Z" fill="white"/>
<path d="M84.5987 57.5801H84.5722C84.4132 57.5801 68.7729 55.9351 60.5473 54.6901C60.511 54.6858 60.4761 54.6742 60.445 54.6561C60.4139 54.638 60.3874 54.6138 60.3671 54.5851C60.3279 54.5272 60.3146 54.4572 60.33 54.3901L62.2115 46.5451C62.2278 46.4809 62.2705 46.4254 62.33 46.3907C62.3896 46.3561 62.4613 46.345 62.5295 46.3601C62.5681 46.3696 62.6042 46.3866 62.6355 46.4101C63.6107 46.7401 77.29 48.6751 86.3583 49.9101C86.3943 49.9152 86.4288 49.9272 86.4597 49.9452C86.4907 49.9633 86.5175 49.987 86.5385 50.0151C86.5596 50.043 86.5743 50.0747 86.5816 50.1083C86.5889 50.1419 86.5887 50.1766 86.5809 50.2101L84.8531 57.3951C84.838 57.4479 84.8049 57.4947 84.759 57.5281C84.713 57.5615 84.6567 57.5798 84.5987 57.5801ZM60.9077 54.2351C68.6298 55.3901 82.4257 56.8501 84.392 57.0551L85.982 50.3551C68.2217 47.9351 63.7909 47.1801 62.662 46.9001L60.9077 54.2351Z" fill="black"/>
<path d="M48.7599 43.705C48.8553 43.425 63.3561 46.345 63.3561 46.345L62.8261 56.61L52.8886 53.255C52.8886 53.255 48.1133 45.58 48.7599 43.705Z" fill="#FFE2DD"/>
<path d="M58.2999 49.85C58.0826 49.295 55.3372 43.565 47.3342 43.38C39.3312 43.195 36.0134 42.88 34.3439 52.38C32.5684 62.425 38.1069 80.015 38.1069 80.015L68.6243 73.515C68.6243 73.515 60.4199 55.245 58.2999 49.85Z" fill="#FDECC8"/>
<path d="M106.318 36.075L117.559 36.54C116.314 40.54 117.284 43.84 120.331 46C121.895 47.0818 123.765 47.6991 125.702 47.7731C127.639 47.847 129.556 47.3741 131.207 46.415C134.387 44.535 135.632 41.3 134.779 37.25L143.789 37.6199L142.157 72.92L104.696 71.38C104.696 71.1049 104.696 70.825 104.739 70.55C104.892 67.125 105.062 63.7 105.194 60.275C105.22 59.7524 105.133 59.2303 104.94 58.74C104.867 58.5492 104.75 58.376 104.598 58.2324C104.446 58.0889 104.262 57.9784 104.06 57.9088C103.858 57.8393 103.643 57.8123 103.428 57.8297C103.214 57.8472 103.006 57.9087 102.82 58.01C101.549 58.5376 100.128 58.648 98.7824 58.3235C97.4372 57.999 96.2463 57.2583 95.4 56.22C94.5377 55.1694 94.0751 53.8757 94.0866 52.5471C94.0982 51.2184 94.5832 49.9321 95.4636 48.895C96.3099 47.8734 97.5038 47.1584 98.8439 46.8705C100.184 46.5827 101.588 46.7397 102.82 47.3149C104.58 48.13 105.783 47.485 105.889 45.625C106.053 42.625 106.17 39.67 106.313 36.695C106.297 36.5 106.307 36.335 106.318 36.075Z" fill="white"/>
<path d="M142.146 73.17L104.686 71.63C104.615 71.6249 104.548 71.5945 104.5 71.545C104.477 71.5207 104.458 71.4924 104.447 71.4615C104.435 71.4306 104.43 71.3978 104.431 71.365L104.59 68.03C104.707 65.445 104.829 62.855 104.929 60.265C104.953 59.7764 104.872 59.2883 104.691 58.83C104.637 58.6814 104.55 58.545 104.437 58.4296C104.324 58.3143 104.187 58.2224 104.034 58.16C103.853 58.1001 103.66 58.0759 103.469 58.0888C103.278 58.1017 103.091 58.1514 102.921 58.235C101.6 58.7804 100.125 58.8935 98.7282 58.5565C97.3318 58.2195 96.095 57.4516 95.2145 56.375C94.3178 55.279 93.8371 53.9307 93.8496 52.5463C93.8621 51.1618 94.367 49.8214 95.2834 48.74C96.1652 47.682 97.4048 46.9411 98.7956 46.6408C100.186 46.3405 101.644 46.4991 102.926 47.09C103.71 47.45 104.373 47.51 104.839 47.25C105.306 46.99 105.565 46.43 105.613 45.61C105.73 43.525 105.825 41.4 105.915 39.35C105.952 38.46 105.995 37.57 106.037 36.685V36.065C106.041 35.9986 106.071 35.936 106.122 35.89C106.175 35.8467 106.243 35.8235 106.313 35.825L117.554 36.29C117.595 36.2901 117.635 36.2998 117.671 36.3181C117.707 36.3364 117.738 36.3628 117.761 36.395C117.784 36.4259 117.799 36.4613 117.805 36.4985C117.812 36.5357 117.809 36.5739 117.798 36.61C116.6 40.5 117.527 43.695 120.49 45.8C122.014 46.8546 123.837 47.4561 125.725 47.5274C127.614 47.5986 129.482 47.1364 131.09 46.2C134.143 44.385 135.367 41.2 134.54 37.295C134.532 37.2582 134.532 37.2198 134.542 37.1833C134.553 37.1467 134.572 37.113 134.599 37.085C134.623 37.0547 134.656 37.031 134.693 37.0161C134.73 37.0012 134.771 36.9957 134.811 37L143.821 37.37C143.856 37.3706 143.89 37.3779 143.922 37.3917C143.954 37.4055 143.983 37.4253 144.006 37.45C144.03 37.4741 144.048 37.5025 144.06 37.5334C144.072 37.5643 144.077 37.5972 144.075 37.63L142.443 72.93C142.442 72.9631 142.434 72.9958 142.42 73.0259C142.405 73.056 142.384 73.0829 142.358 73.105C142.33 73.1295 142.296 73.1479 142.259 73.1591C142.223 73.1703 142.184 73.174 142.146 73.17ZM104.94 71.14L141.876 72.64L143.466 37.835L135.097 37.5C135.844 41.5 134.519 44.725 131.35 46.615C129.652 47.5985 127.683 48.0833 125.692 48.0076C123.702 47.9319 121.78 47.2992 120.172 46.19C117.093 44 116.07 40.76 117.215 36.775L106.572 36.335V36.705C106.535 37.595 106.493 38.48 106.456 39.37C106.366 41.425 106.27 43.55 106.154 45.635C106.095 46.635 105.74 47.34 105.094 47.685C104.447 48.03 103.636 47.98 102.682 47.535C101.51 46.9926 100.176 46.8456 98.9032 47.1185C97.6301 47.3915 96.4946 48.0679 95.6862 49.035C94.8467 50.0268 94.3841 51.2555 94.3726 52.5247C94.3611 53.7938 94.8012 55.0299 95.6226 56.035C96.4286 57.0235 97.5615 57.7296 98.8415 58.0412C100.121 58.3529 101.475 58.2521 102.687 57.755C102.922 57.6405 103.18 57.5734 103.443 57.5579C103.707 57.5424 103.971 57.5789 104.219 57.665C104.441 57.7518 104.64 57.8818 104.804 58.0463C104.969 58.2109 105.094 58.4064 105.173 58.62C105.381 59.142 105.474 59.6981 105.449 60.255C105.348 62.845 105.226 65.435 105.104 68.025L104.94 71.14Z" fill="black"/>
<path d="M97.8645 36.3249L99.0146 44.9999C94.6792 44.4499 91.1971 45.9549 89.4004 49.1449C88.5048 50.7522 88.1454 52.5774 88.3696 54.3809C88.5938 56.1844 89.391 57.8817 90.6565 59.2499C93.3065 62.0349 97.0907 62.7499 101.161 61.2499L102.544 71.6949L61.586 76.4999L56.9114 41.1499L69.8752 39.6499C70.2795 39.6054 70.669 39.48 71.0177 39.2819C71.3664 39.0839 71.6663 38.8178 71.8971 38.5015C72.128 38.1853 72.2845 37.8261 72.3563 37.4481C72.428 37.0702 72.4133 36.6821 72.3132 36.3099C72.1582 35.774 71.9451 35.2546 71.6772 34.7599C71.0176 33.651 70.7555 32.3707 70.9298 31.1098C71.1042 29.849 71.7056 28.675 72.6446 27.7627C73.5836 26.8505 74.8098 26.2488 76.1406 26.0474C77.4715 25.846 78.8356 26.0556 80.03 26.6449C81.2391 27.2332 82.2165 28.1718 82.8184 29.3229C83.4204 30.4739 83.6152 31.7767 83.3743 33.0399C83.2842 33.5399 83.1623 34.0399 83.0828 34.5399C82.8072 36.2149 84.376 38.1349 86.5278 37.7149C88.6796 37.2949 95.6491 36.5849 97.8645 36.3249Z" fill="white"/>
<path d="M61.586 76.74C61.5283 76.7421 61.4719 76.7243 61.427 76.69C61.3983 76.6701 61.3745 76.6447 61.3571 76.6153C61.3397 76.586 61.3292 76.5535 61.3263 76.52L56.6464 41.175C56.642 41.1422 56.6445 41.1088 56.6539 41.0769C56.6632 41.0449 56.6792 41.0151 56.7009 40.989C56.7226 40.963 56.7496 40.9412 56.7803 40.9251C56.8109 40.909 56.8447 40.8988 56.8796 40.895L57.7859 40.785L69.8434 39.365C70.2166 39.3207 70.5755 39.2019 70.8963 39.0165C71.217 38.8312 71.4923 38.5835 71.7037 38.29C71.9074 38.0079 72.0441 37.6877 72.1045 37.3511C72.1649 37.0146 72.1475 36.6697 72.0535 36.34C71.9054 35.8209 71.6993 35.3181 71.4387 34.84C70.7697 33.6848 70.5113 32.3576 70.7014 31.0535C70.8915 29.7494 71.5202 28.5373 72.4949 27.5954C73.4696 26.6534 74.739 26.0314 76.1163 25.8207C77.4937 25.6101 78.9064 25.8219 80.1466 26.425C81.4045 27.0392 82.421 28.017 83.0475 29.2153C83.674 30.4137 83.8777 31.7697 83.6287 33.085C83.5916 33.305 83.5439 33.52 83.5015 33.735C83.4591 33.95 83.3849 34.285 83.3372 34.565C83.2838 34.9827 83.3346 35.4063 83.4855 35.8022C83.6364 36.198 83.8833 36.5552 84.2064 36.845C84.5006 37.1156 84.8614 37.3129 85.2564 37.4194C85.6514 37.5259 86.0682 37.5381 86.4695 37.455C88.0595 37.145 92.2995 36.685 95.4 36.35L97.8327 36.08C97.902 36.0728 97.9716 36.0912 98.0269 36.1313C98.0822 36.1713 98.119 36.23 98.1295 36.295L99.2743 44.97C99.2806 45.0082 99.2774 45.0472 99.2647 45.0839C99.252 45.1206 99.2303 45.1539 99.2014 45.1812C99.1724 45.2085 99.1371 45.229 99.0982 45.2409C99.0593 45.2529 99.0179 45.256 98.9775 45.25C94.7746 44.72 91.372 46.18 89.6389 49.25C88.7735 50.8137 88.4265 52.5867 88.6429 54.3388C88.8594 56.0908 89.6293 57.741 90.8526 59.075C93.4019 61.765 97.1278 62.46 101.066 60.98C101.103 60.965 101.144 60.9584 101.184 60.9608C101.225 60.9633 101.264 60.9747 101.299 60.9941C101.335 61.0136 101.364 61.0406 101.386 61.0729C101.408 61.1051 101.422 61.1419 101.426 61.18L102.804 71.63C102.809 71.6626 102.806 71.6958 102.797 71.7275C102.788 71.7593 102.772 71.789 102.751 71.815C102.73 71.8404 102.703 71.8614 102.673 71.8769C102.643 71.8923 102.61 71.9019 102.576 71.905L61.6178 76.73L61.586 76.74ZM57.2082 41.36L61.8192 76.21L102.248 71.45L100.939 61.57C96.8999 62.98 93.0945 62.205 90.4551 59.415C89.1613 58.0045 88.3466 56.2597 88.117 54.4069C87.8873 52.5542 88.2532 50.6791 89.1672 49.025C90.9639 45.83 94.4301 44.27 98.7072 44.71L97.6472 36.6L95.4742 36.84C92.5539 37.155 88.139 37.635 86.5914 37.94C86.1059 38.0409 85.6014 38.0266 85.1232 37.8983C84.645 37.77 84.208 37.5318 83.8513 37.205C83.4639 36.8636 83.1678 36.4405 82.9873 35.9703C82.8067 35.5001 82.7468 34.9963 82.8125 34.5C82.8602 34.215 82.9185 33.93 82.9821 33.645L83.1093 33.01C83.3378 31.7992 83.1499 30.5512 82.573 29.4483C81.9961 28.3455 81.0605 27.4455 79.9028 26.88C78.7621 26.325 77.4625 26.1304 76.1957 26.3249C74.9288 26.5194 73.7617 27.0928 72.8664 27.9604C71.9711 28.828 71.3949 29.944 71.2228 31.1439C71.0507 32.3438 71.2917 33.5641 71.9104 34.625C72.1896 35.1346 72.41 35.671 72.5676 36.225C72.6801 36.6241 72.7004 37.0413 72.6273 37.4485C72.5541 37.8556 72.3892 38.2432 72.1436 38.585C71.89 38.9371 71.5598 39.2342 71.1751 39.4566C70.7904 39.679 70.36 39.8217 69.9123 39.875L57.8548 41.3L57.2082 41.36Z" fill="black"/>
<path d="M51.0866 47.25V43.885C51.0866 43.885 56.2382 44.885 55.581 39.385C54.9238 33.885 52.7084 31.67 52.3268 31.78L45.1135 33.815L44.4192 46.685C44.4192 46.685 47.9967 51.945 51.0866 47.25Z" fill="white"/>
<path d="M48.23 49.4501C46.0305 49.4501 44.2921 46.9251 44.2179 46.8201C44.1862 46.776 44.1712 46.7232 44.1755 46.6701L44.8486 33.8001C44.8519 33.7486 44.872 33.6993 44.9062 33.659C44.9404 33.6187 44.9869 33.5894 45.0394 33.5751L52.2474 31.5401C52.3248 31.5243 52.405 31.5251 52.4821 31.5424C52.5591 31.5597 52.6311 31.5931 52.6926 31.6401C53.6201 32.2201 55.3002 34.8301 55.8726 39.3601C56.0846 41.1601 55.7136 42.4901 54.7649 43.3101C53.6413 44.2851 52.0513 44.2451 51.3782 44.1751V47.2501C51.3797 47.2975 51.3668 47.3443 51.3411 47.3851C50.4454 48.7451 49.4066 49.4401 48.2565 49.4501H48.23ZM44.7108 46.6101C44.9705 47.0001 46.481 48.9501 48.23 48.9501C49.1734 48.9501 50.0426 48.3451 50.827 47.1801V43.8851C50.8268 43.8482 50.8358 43.8117 50.8533 43.7787C50.8708 43.7457 50.8963 43.7171 50.9277 43.6951C50.9576 43.6717 50.9925 43.6547 51.03 43.6452C51.0675 43.6357 51.1067 43.634 51.145 43.6401C51.145 43.6401 53.1643 44.0051 54.3886 42.9401C55.2048 42.2301 55.5175 41.0451 55.3214 39.4401C54.7278 34.4851 52.8463 32.2401 52.3587 32.0551L45.368 34.0001L44.7108 46.6101Z" fill="black"/>
<path d="M45.4157 37.405C45.1719 36.365 43.5289 36 42.718 36.74C42.5336 36.9383 42.3937 37.1698 42.3064 37.4204C42.2191 37.671 42.1864 37.9357 42.2101 38.1986C42.2339 38.4614 42.3137 38.717 42.4446 38.9501C42.5756 39.1832 42.7551 39.3889 42.9724 39.555C43.4347 39.8713 43.9913 40.0416 44.5624 40.0416C45.1335 40.0416 45.69 39.8713 46.1524 39.555" fill="white"/>
<path d="M44.4775 40.275C43.877 40.2916 43.2884 40.1153 42.808 39.775C42.547 39.5705 42.3344 39.3167 42.1837 39.0299C42.0331 38.7431 41.9479 38.4297 41.9335 38.11C41.9183 37.8345 41.9637 37.559 42.0667 37.3009C42.1698 37.0427 42.3284 36.8075 42.5324 36.61C42.7882 36.3959 43.0991 36.2491 43.434 36.1842C43.7688 36.1192 44.1159 36.1385 44.4404 36.24C44.737 36.3111 45.0078 36.4564 45.2242 36.6606C45.4406 36.8647 45.5946 37.1202 45.67 37.4C45.6777 37.4328 45.6784 37.4667 45.6722 37.4998C45.6659 37.5329 45.6528 37.5645 45.6336 37.5928C45.6144 37.6212 45.5895 37.6456 45.5603 37.6649C45.5311 37.6841 45.4981 37.6977 45.4633 37.705C45.4285 37.7122 45.3926 37.7129 45.3575 37.707C45.3224 37.7011 45.2889 37.6887 45.2589 37.6706C45.2289 37.6525 45.2029 37.629 45.1825 37.6014C45.1621 37.5739 45.1477 37.5428 45.14 37.51C45.0826 37.3168 44.9718 37.1415 44.8192 37.0018C44.6665 36.8622 44.4773 36.7632 44.2708 36.715C44.0367 36.6402 43.7859 36.6245 43.5433 36.6692C43.3007 36.7139 43.0747 36.8176 42.8875 36.97C42.7319 37.1191 42.612 37.2981 42.5361 37.4948C42.4602 37.6915 42.43 37.9013 42.4476 38.11C42.4572 38.3583 42.5221 38.602 42.638 38.8251C42.754 39.0482 42.9185 39.2458 43.1207 39.405C43.5385 39.68 44.0369 39.8249 44.5462 39.8195C45.0556 39.8141 45.5504 39.6587 45.9615 39.375C45.9892 39.3506 46.0221 39.332 46.058 39.3207C46.0939 39.3093 46.132 39.3053 46.1697 39.309C46.2074 39.3126 46.2438 39.3239 46.2765 39.342C46.3092 39.36 46.3374 39.3845 46.3592 39.4138C46.381 39.443 46.3959 39.4763 46.4029 39.5114C46.4099 39.5465 46.4088 39.5827 46.3998 39.6174C46.3907 39.6521 46.3739 39.6846 46.3504 39.7126C46.3269 39.7406 46.2973 39.7636 46.2636 39.78C45.7351 40.1116 45.1123 40.2842 44.4775 40.275Z" fill="black"/>
<path d="M50.2017 36.1399C50.6334 36.6636 51.0367 37.2076 51.4101 37.7699C51.5174 37.8903 51.5949 38.0318 51.6371 38.184C51.6793 38.3362 51.685 38.4953 51.6539 38.6499C51.5871 38.774 51.4896 38.881 51.3697 38.962C51.2498 39.0429 51.1109 39.0954 50.9649 39.1149C50.8485 39.1545 50.722 39.1594 50.6026 39.129C50.4832 39.0986 50.3765 39.0343 50.2971 38.9449" fill="white"/>
<path d="M50.7633 39.3601C50.6371 39.368 50.5109 39.3444 50.3975 39.2918C50.284 39.2391 50.1871 39.1592 50.1167 39.0601C50.0857 39.0089 50.0772 38.9483 50.093 38.8912C50.1089 38.8342 50.1479 38.7853 50.2015 38.7551C50.2558 38.7258 50.3201 38.7178 50.3805 38.7327C50.441 38.7477 50.4928 38.7844 50.5248 38.8351C50.5778 38.9251 50.7792 38.9301 50.9382 38.8951C51.0972 38.8601 51.3675 38.7851 51.4682 38.5751C51.5689 38.3651 51.3993 38.1151 51.2509 37.8901C50.8742 37.3324 50.4674 36.7933 50.0319 36.2751C50.0128 36.2524 49.9986 36.2264 49.9901 36.1986C49.9816 36.1708 49.979 36.1416 49.9824 36.1128C49.9859 36.0841 49.9953 36.0562 50.0102 36.0308C50.025 36.0055 50.045 35.9831 50.069 35.9651C50.0931 35.947 50.1206 35.9336 50.1501 35.9256C50.1796 35.9176 50.2105 35.9151 50.241 35.9184C50.2715 35.9216 50.3011 35.9305 50.3279 35.9445C50.3548 35.9586 50.3785 35.9774 50.3976 36.0001C50.8437 36.5305 51.2594 37.0829 51.6431 37.6551C51.7734 37.8022 51.8652 37.9761 51.9112 38.1628C51.9573 38.3495 51.9562 38.5438 51.9081 38.7301C51.8299 38.8891 51.711 39.0272 51.562 39.132C51.413 39.2367 51.2387 39.3048 51.0548 39.3301C50.9592 39.3505 50.8614 39.3605 50.7633 39.3601Z" fill="black"/>
<path d="M48.6252 36.192C48.795 36.1918 48.9324 36.0081 48.9322 35.7817C48.9319 35.5553 48.7941 35.3718 48.6243 35.372C48.4545 35.3722 48.3171 35.5559 48.3173 35.7823C48.3176 36.0088 48.4554 36.1922 48.6252 36.192Z" fill="black"/>
<path d="M52.1 35.9C52.2691 35.8858 52.3889 35.6915 52.3677 35.4659C52.3464 35.2404 52.1921 35.069 52.023 35.0832C51.8539 35.0974 51.734 35.2917 51.7553 35.5173C51.7765 35.7428 51.9308 35.9142 52.1 35.9Z" fill="black"/>
<path d="M41.1069 38.12C40.7465 38.12 40.2695 37.92 39.7978 37.12C39.2769 36.3557 38.907 35.5087 38.706 34.62C38.6123 34.1584 38.6308 33.6828 38.7603 33.229C38.8897 32.7751 39.1267 32.3549 39.4533 32C39.7508 31.7103 40.1294 31.5061 40.5451 31.4114C40.9607 31.3167 41.3963 31.3353 41.8012 31.465C41.7371 30.2268 42.177 29.0123 43.0308 28.07C44.0032 27.0482 45.1839 26.2218 46.5023 25.64C48.0592 24.8865 49.6883 24.2738 51.3677 23.81C52.433 23.4342 53.591 23.3578 54.7014 23.59C56.5776 24.12 57.5369 26.09 57.6323 27.645C57.6956 28.8043 57.4353 29.9589 56.8772 30.9934C56.3192 32.0279 55.483 32.906 54.4523 33.54C54.391 33.5758 54.3172 33.5875 54.2469 33.5725C54.1765 33.5575 54.1152 33.5172 54.076 33.46C54.0565 33.4316 54.0433 33.3997 54.037 33.3664C54.0307 33.333 54.0316 33.2988 54.0395 33.2658C54.0474 33.2327 54.0622 33.2015 54.083 33.1739C54.1038 33.1463 54.1303 33.1229 54.1608 33.105C55.1059 32.5161 55.8734 31.7066 56.3888 30.7551C56.9042 29.8037 57.15 28.7426 57.1023 27.675C57.0175 26.265 56.1854 24.54 54.5636 24.085C53.5532 23.8848 52.5032 23.9611 51.5373 24.305C49.8905 24.759 48.2932 25.36 46.7673 26.1C45.5154 26.6431 44.391 27.4166 43.4601 28.375C43.0184 28.8465 42.6962 29.4067 42.518 30.0131C42.3399 30.6196 42.3104 31.2563 42.4319 31.875C42.4468 31.9279 42.443 31.9838 42.421 32.0344C42.399 32.085 42.36 32.1274 42.31 32.155C42.2633 32.1879 42.2066 32.2057 42.1484 32.2057C42.0901 32.2057 42.0334 32.1879 41.9867 32.155C41.6649 31.9456 41.2743 31.8516 40.8855 31.8901C40.4967 31.9286 40.1353 32.0971 39.8667 32.365C39.5917 32.6662 39.3945 33.0234 39.2906 33.4086C39.1867 33.7938 39.1789 34.1965 39.2678 34.585C39.4604 35.4015 39.803 36.1799 40.2801 36.885C40.5027 37.25 40.8472 37.67 41.2076 37.595C41.2786 37.5801 41.3529 37.5922 41.4145 37.6287C41.476 37.6652 41.5198 37.7232 41.5362 37.79C41.5439 37.8232 41.5446 37.8575 41.5381 37.8909C41.5315 37.9244 41.518 37.9562 41.4983 37.9846C41.4785 38.013 41.4529 38.0374 41.423 38.0564C41.3932 38.0754 41.3596 38.0885 41.3242 38.095C41.2532 38.1122 41.1802 38.1206 41.1069 38.12Z" fill="black"/>
<path d="M51.0868 43.885C49.8175 43.5847 48.5952 43.1292 47.451 42.53C47.451 42.53 47.3821 44.78 51.0444 45.855L51.0868 43.885Z" fill="black"/>
<path d="M51.0444 46.0751H50.9755C47.186 44.9651 47.2178 42.6351 47.2178 42.5351C47.2199 42.4964 47.2327 42.459 47.255 42.4265C47.2774 42.394 47.3084 42.3676 47.345 42.3501C47.3803 42.3303 47.4205 42.3198 47.4616 42.3198C47.5026 42.3198 47.5429 42.3303 47.5782 42.3501C48.7019 42.9356 49.9007 43.3825 51.1451 43.6801C51.196 43.6916 51.2411 43.7192 51.273 43.7583C51.3048 43.7975 51.3214 43.8458 51.32 43.8951L51.2776 45.8651C51.2758 45.8988 51.2657 45.9317 51.2483 45.9612C51.2308 45.9907 51.2064 46.016 51.1769 46.0351C51.1392 46.0629 51.0922 46.077 51.0444 46.0751ZM47.7478 42.9501C47.9121 43.5801 48.5269 44.8001 50.8165 45.5501L50.8483 44.0501C49.7764 43.788 48.7371 43.4193 47.7478 42.9501Z" fill="black"/>
<path d="M41.5732 60.265C41.5732 60.265 54.2296 73.985 62.0789 70.58C69.9282 67.175 81.5405 53.7 81.5405 53.7C81.5405 53.7 85.2028 50.095 84.4714 49.9C83.74 49.705 81.3285 51.9 81.3285 51.9C81.3285 51.9 84.0527 48.84 83.0033 48.84C81.9539 48.84 79.9717 51.11 79.9717 51.11C79.9717 51.11 83.2153 47.655 81.8532 47.85C80.4911 48.045 78.8216 49.925 78.8216 49.925C78.8216 49.925 82.0652 46.965 80.8091 47.065C79.553 47.165 76.2034 50.12 76.2034 50.12C76.2034 50.12 77.5655 47.16 76.5161 47.26C75.4667 47.36 75.26 50 73.67 51.38C72.08 52.76 61.9517 61.94 60.0702 61.845C58.1887 61.75 49.82 53.255 49.82 53.255" fill="white"/>
<path d="M59.3017 71.38C56.3814 71.38 52.841 69.88 48.7017 66.88C46.0554 64.9323 43.5956 62.769 41.3506 60.415C41.3018 60.3674 41.2744 60.3038 41.2744 60.2375C41.2744 60.1712 41.3018 60.1076 41.3506 60.06C41.3748 60.0367 41.4037 60.0182 41.4355 60.0056C41.4674 59.993 41.5016 59.9865 41.5362 59.9865C41.5707 59.9865 41.6049 59.993 41.6368 60.0056C41.6686 60.0182 41.6975 60.0367 41.7217 60.06C41.8489 60.195 54.3409 73.6 61.9199 70.31C69.6208 66.97 81.1695 53.635 81.2861 53.5C82.6111 52.2 84.0156 50.625 84.2276 50.1C83.74 50.19 82.4733 51.1 81.4663 52.015C81.4173 52.0583 81.3527 52.0824 81.2856 52.0825C81.2184 52.0825 81.1538 52.0586 81.1046 52.0154C81.0555 51.9722 81.0256 51.9131 81.0209 51.8499C81.0162 51.7867 81.0372 51.7242 81.0794 51.675C82.0811 50.545 82.892 49.38 82.9344 49.03C82.3355 49.075 81.2808 49.99 80.5282 50.77L80.1201 51.21C80.0706 51.2558 80.004 51.2815 79.9346 51.2815C79.8653 51.2815 79.7987 51.2558 79.7491 51.21C79.6973 51.1666 79.6651 51.1061 79.6592 51.041C79.6533 50.9759 79.6741 50.9111 79.7173 50.86C79.765 50.805 79.8922 50.66 80.0777 50.47C80.9787 49.47 81.8108 48.37 81.8744 48.005C81.151 48.1946 80.4931 48.5602 79.9664 49.065C79.6484 49.39 79.3092 49.71 78.9806 50.01C78.9316 50.0533 78.867 50.0774 78.7999 50.0775C78.7327 50.0775 78.6681 50.0536 78.6189 50.0104C78.5698 49.9672 78.5399 49.9081 78.5352 49.8449C78.5305 49.7817 78.5515 49.7192 78.5937 49.67C78.8899 49.3519 79.203 49.0481 79.5318 48.76C80.0258 48.3042 80.4503 47.7859 80.7932 47.22C79.8286 47.315 77.274 49.405 76.3624 50.22C76.318 50.2585 76.2609 50.2816 76.2007 50.2853C76.1405 50.2891 76.0807 50.2733 76.0312 50.2407C75.9818 50.208 75.9456 50.1604 75.9287 50.1057C75.9119 50.0511 75.9153 49.9926 75.9384 49.94C76.4048 48.94 76.7705 47.68 76.5797 47.44C76.5797 47.44 76.5797 47.44 76.5214 47.44C76.1504 47.475 75.8377 48.17 75.5091 48.91C75.1541 49.8791 74.5892 50.768 73.8502 51.52L73.3202 52.02C65.5345 58.945 61.3422 62.14 60.0702 62.075C58.1357 61.97 50.5302 54.285 49.6398 53.405C49.6152 53.3822 49.5956 53.355 49.5822 53.3249C49.5688 53.2949 49.5619 53.2626 49.5619 53.23C49.5619 53.1974 49.5688 53.1651 49.5822 53.1351C49.5956 53.105 49.6152 53.0778 49.6398 53.055C49.6645 53.0316 49.6938 53.013 49.7261 53.0003C49.7584 52.9876 49.793 52.981 49.828 52.981C49.863 52.981 49.8976 52.9876 49.9299 53.0003C49.9622 53.013 49.9915 53.0316 50.0161 53.055C53.3498 56.44 58.7876 61.495 60.0861 61.555C60.8334 61.59 63.653 59.9 72.9545 51.635L73.4845 51.16C74.169 50.4557 74.6907 49.6248 75.0162 48.72C75.4402 47.765 75.7794 47.01 76.4631 46.945C76.5632 46.9333 76.6648 46.9465 76.7578 46.9834C76.8508 47.0202 76.9319 47.0794 76.9931 47.155C77.2899 47.54 77.0726 48.435 76.8076 49.155C77.9153 48.245 79.8021 46.805 80.7508 46.73C80.8543 46.708 80.9626 46.7192 81.0586 46.7617C81.1546 46.8043 81.2328 46.8758 81.2808 46.965C81.3656 47.14 81.2808 47.41 81.0741 47.73C81.2963 47.6308 81.5316 47.5601 81.7737 47.52C81.881 47.4875 81.9968 47.4905 82.1019 47.5288C82.207 47.567 82.2951 47.638 82.3514 47.73C82.4786 47.95 82.3514 48.34 82.0599 48.805C82.3281 48.6339 82.6383 48.5306 82.9609 48.505C83.0549 48.4983 83.1488 48.518 83.2308 48.5616C83.3129 48.6052 83.3794 48.6708 83.422 48.75C83.5651 49.045 83.2948 49.61 82.892 50.22C83.5121 49.805 84.1322 49.5 84.482 49.6C84.5485 49.616 84.6092 49.6485 84.6577 49.6943C84.7062 49.7401 84.7407 49.7973 84.7576 49.86C84.9378 50.485 82.9026 52.605 81.673 53.815C81.2119 54.35 69.9441 67.355 62.1319 70.745C61.2483 71.1472 60.2827 71.3639 59.3017 71.38Z" fill="black"/>
<path d="M52.6503 41.32C52.6007 41.4007 52.542 41.4761 52.4754 41.545C51.0232 43.15 49.3378 41.66 48.3838 40.465C48.4792 40.59 50.4243 40.055 50.6204 40.02L53.016 39.52C53.0897 39.8276 53.0953 40.1463 53.0323 40.456C52.9694 40.7658 52.8393 41.0599 52.6503 41.32Z" fill="black"/>
<path d="M67.946 130.89L68.3382 135.085C68.3382 135.085 88.9764 132.345 88.1125 131.53C87.2486 130.715 79.7438 128.665 79.7438 128.665" fill="white"/>
<path d="M68.3382 135.335C68.2785 135.334 68.2207 135.315 68.1739 135.28C68.1175 135.236 68.0814 135.173 68.0732 135.105L67.681 130.91C67.6747 130.844 67.6965 130.778 67.7418 130.727C67.787 130.676 67.8519 130.643 67.9222 130.637C67.9924 130.632 68.0624 130.652 68.1165 130.695C68.1707 130.737 68.2047 130.799 68.211 130.865L68.5767 134.8C75.4667 133.88 86.1515 132.275 87.7415 131.575C86.6815 130.945 82.4415 129.665 79.6696 128.905C79.6364 128.896 79.6053 128.882 79.5783 128.862C79.5512 128.841 79.5286 128.816 79.5118 128.788C79.495 128.76 79.4844 128.728 79.4806 128.696C79.4767 128.664 79.4797 128.631 79.4894 128.6C79.5092 128.536 79.5546 128.482 79.616 128.449C79.6774 128.417 79.7499 128.408 79.818 128.425C80.5918 128.64 87.4129 130.515 88.298 131.355C88.3441 131.397 88.3765 131.45 88.3916 131.508C88.4066 131.567 88.4036 131.628 88.3828 131.685C88.0595 132.59 75.7052 134.355 68.37 135.33L68.3382 135.335Z" fill="black"/>
<path d="M51.198 132.47V135.875L32.5208 136C32.5208 136 35.8174 133.04 38.955 131.855" fill="white"/>
<path d="M32.5208 136.27C32.4683 136.269 32.4172 136.254 32.374 136.226C32.3308 136.198 32.2974 136.158 32.2781 136.112C32.2588 136.066 32.2544 136.015 32.2656 135.967C32.2767 135.919 32.3028 135.874 32.3406 135.84C32.4731 135.72 35.7061 132.84 38.8596 131.645C38.892 131.633 38.9266 131.627 38.9614 131.627C38.9963 131.628 39.0307 131.635 39.0627 131.648C39.0947 131.661 39.1236 131.679 39.1479 131.703C39.1722 131.727 39.1913 131.754 39.2041 131.785C39.2288 131.847 39.2271 131.915 39.1994 131.976C39.1718 132.036 39.1203 132.084 39.0557 132.11C36.7184 132.99 34.2539 134.905 33.2257 135.765L50.9436 135.625V132.47C50.9436 132.404 50.9716 132.34 51.0213 132.293C51.071 132.246 51.1384 132.22 51.2086 132.22C51.2789 132.22 51.3463 132.246 51.396 132.293C51.4457 132.34 51.4736 132.404 51.4736 132.47V135.875C51.4723 135.941 51.4439 136.004 51.3945 136.05C51.3451 136.097 51.2785 136.124 51.2086 136.125L32.5367 136.27H32.5208Z" fill="black"/>
<path d="M52.6554 87.26C51.2562 87.26 50.3605 87.215 50.3446 87.215C50.2753 87.2087 50.2111 87.1779 50.1649 87.1287C50.1186 87.0796 50.0939 87.0157 50.0955 86.95C50.0976 86.9172 50.1064 86.885 50.1217 86.8554C50.1369 86.8258 50.1582 86.7993 50.1843 86.7775C50.2104 86.7557 50.2408 86.7389 50.2738 86.7282C50.3067 86.7175 50.3416 86.713 50.3764 86.715C52.9451 86.8203 55.5184 86.7551 58.0773 86.52C58.1116 86.5159 58.1464 86.5183 58.1796 86.5273C58.2128 86.5362 58.2438 86.5514 58.2706 86.572C58.2973 86.5926 58.3194 86.6181 58.3354 86.647C58.3514 86.6759 58.3609 86.7075 58.3635 86.74C58.371 86.8056 58.3507 86.8713 58.307 86.9229C58.2633 86.9744 58.1998 87.0075 58.1303 87.015C56.0315 87.21 54.0599 87.26 52.6554 87.26Z" fill="white"/>
<path d="M79.1025 88.275C79.0425 88.2759 78.9842 88.2564 78.9382 88.22C78.884 88.1787 78.8487 88.1192 78.8399 88.054C78.831 87.9888 78.8491 87.9228 78.8905 87.87L84.2276 81.37C84.2721 81.3198 84.335 81.2873 84.4038 81.279C84.4726 81.2706 84.5421 81.2871 84.5986 81.3249C84.6544 81.3664 84.6907 81.4268 84.6996 81.4932C84.7085 81.5596 84.6894 81.6267 84.6463 81.6799L79.3145 88.1799C79.289 88.2098 79.2567 88.2338 79.22 88.2503C79.1833 88.2667 79.1432 88.2752 79.1025 88.275Z" fill="#37352F" fill-opacity="0.16"/>
<path d="M107.277 108.81C107.21 108.81 107.146 108.786 107.097 108.742C107.049 108.698 107.02 108.638 107.017 108.575L105.427 82.2201C105.425 82.1532 105.45 82.088 105.497 82.0385C105.545 81.9889 105.611 81.9589 105.682 81.9551C105.716 81.953 105.751 81.9575 105.784 81.9683C105.816 81.9791 105.846 81.9959 105.872 82.0178C105.898 82.0397 105.919 82.0662 105.933 82.0958C105.948 82.1254 105.956 82.1574 105.957 82.1901L107.547 108.545C107.55 108.578 107.545 108.611 107.534 108.642C107.522 108.673 107.504 108.702 107.481 108.726C107.458 108.751 107.43 108.771 107.399 108.785C107.367 108.8 107.333 108.808 107.298 108.81H107.277Z" fill="#37352F" fill-opacity="0.16"/>
<path d="M157.378 48.055C157.07 48.5383 156.794 49.0393 156.551 49.555C154.23 54.16 151.225 59.83 145.22 60.65C141.006 61.225 136.671 60.455 132.696 59.15C131.459 58.761 130.29 58.2034 129.225 57.495C127.963 56.59 126.898 55.23 125.785 54.16C125.504 53.885 125.011 53.61 124.725 53.9C124.439 54.19 124.672 54.455 124.836 54.7C125.419 55.5735 126.082 56.3967 126.818 57.16C125.923 56.82 125.006 56.52 124.078 56.255C123.274 55.9785 122.449 55.7628 121.608 55.61C121.452 55.611 121.3 55.6582 121.174 55.745C121.113 55.791 121.071 55.8554 121.054 55.9274C121.038 55.9993 121.048 56.0744 121.084 56.14C121.127 56.1978 121.183 56.2457 121.248 56.28C121.876 56.6698 122.564 56.965 123.289 57.155C122.665 56.8624 121.985 56.6923 121.29 56.655C120.988 56.655 120.612 56.695 120.511 56.965C120.411 57.235 120.707 57.52 120.983 57.68C121.601 58.04 122.265 58.324 122.96 58.525C122.416 58.2675 121.853 58.0486 121.275 57.87C120.914 57.76 120.448 57.69 120.215 57.98C120.148 58.0759 120.113 58.188 120.113 58.3025C120.113 58.417 120.148 58.5291 120.215 58.625C120.353 58.8109 120.534 58.9648 120.745 59.075C121.3 59.4008 121.896 59.6595 122.52 59.845L120.84 59.295C120.719 59.2366 120.586 59.2062 120.45 59.2062C120.315 59.2062 120.181 59.2366 120.061 59.295C119.791 59.5 119.897 59.92 120.103 60.19C120.535 60.624 121.069 60.9562 121.661 61.16C122.44 61.5105 123.238 61.8226 124.052 62.095C129.463 64.095 134.185 66.93 140.121 67.395C146.677 67.895 154.034 66.235 158.92 61.895C161.878 59.27 164.936 54.745 164.406 50.69C164.231 49.365 164.014 47.535 162.779 46.69C161.459 45.765 159.069 46.22 158.009 47.275C157.773 47.5154 157.561 47.7766 157.378 48.055Z" fill="white"/>
<path d="M142.522 67.75C141.727 67.75 140.932 67.72 140.111 67.655C135.834 67.315 132.256 65.79 128.451 64.155C126.993 63.53 125.483 62.885 123.941 62.32L123.411 62.14C122.763 61.918 122.128 61.6643 121.508 61.38L121.195 61.235C120.677 61.0437 120.217 60.7325 119.86 60.33C119.695 60.1619 119.604 59.9414 119.604 59.7125C119.604 59.4836 119.695 59.2631 119.86 59.095C119.958 59.022 120.075 58.9739 120.199 58.955C120.119 58.886 120.049 58.8069 119.992 58.72C119.895 58.5832 119.843 58.4222 119.843 58.2575C119.843 58.0928 119.895 57.9318 119.992 57.795C120.094 57.6644 120.24 57.5694 120.405 57.525C120.318 57.4359 120.257 57.3266 120.228 57.2082C120.199 57.0897 120.204 56.9662 120.241 56.85C120.3 56.714 120.399 56.5971 120.527 56.5137C120.655 56.4302 120.806 56.3837 120.962 56.38C120.894 56.329 120.838 56.264 120.8 56.19C120.762 56.1159 120.743 56.0347 120.743 55.9525C120.743 55.8702 120.762 55.7891 120.8 55.715C120.838 55.641 120.894 55.576 120.962 55.525C121.132 55.4007 121.341 55.3338 121.556 55.335C122.282 55.417 122.994 55.585 123.676 55.835L124.115 55.965C124.714 56.135 125.308 56.32 125.902 56.525C125.422 55.9719 124.979 55.3907 124.577 54.785C124.195 54.215 124.317 53.875 124.486 53.69C124.543 53.6246 124.614 53.5719 124.695 53.5356C124.775 53.4993 124.864 53.4803 124.953 53.48C125.325 53.5082 125.67 53.6713 125.917 53.935C126.299 54.3 126.681 54.71 127.046 55.1C127.733 55.8826 128.496 56.6024 129.325 57.25C130.369 57.9401 131.514 58.4841 132.723 58.865C137.249 60.365 141.42 60.865 145.125 60.365C151.167 59.54 154.225 53.435 156.255 49.395C156.501 48.8781 156.782 48.3771 157.097 47.895C157.292 47.5982 157.518 47.3202 157.77 47.065C158.894 45.95 161.433 45.43 162.896 46.45C164.199 47.365 164.443 49.215 164.618 50.57V50.645C165.148 54.645 162.201 59.27 159.048 62.065C155.046 65.705 148.972 67.75 142.522 67.75ZM120.4 59.46C120.344 59.4589 120.289 59.4728 120.241 59.5C120.119 59.595 120.193 59.865 120.337 60.05C120.642 60.3864 121.035 60.6429 121.476 60.795L121.799 60.95C122.402 61.2245 123.02 61.4698 123.649 61.685L124.179 61.87C125.732 62.44 127.248 63.09 128.711 63.715C132.452 65.315 135.982 66.825 140.174 67.155C147.351 67.72 154.304 65.695 158.772 61.73C161.825 59.02 164.676 54.57 164.173 50.73V50.655C164.003 49.395 163.781 47.655 162.657 46.88C161.438 46.025 159.207 46.47 158.232 47.435C158.005 47.6669 157.801 47.918 157.622 48.185C157.32 48.6551 157.049 49.1428 156.811 49.645C154.739 53.78 151.607 60.03 145.284 60.895C141.494 61.395 137.238 60.895 132.633 59.365C131.373 58.9611 130.179 58.3922 129.087 57.675C128.23 57.0102 127.442 56.2702 126.734 55.465C126.352 55.055 125.992 54.675 125.621 54.315C125.474 54.1555 125.274 54.048 125.054 54.01C125.038 54.0094 125.022 54.0122 125.007 54.0183C124.992 54.0244 124.979 54.0335 124.969 54.045C124.9 54.12 124.969 54.315 125.112 54.545C125.678 55.4144 126.324 56.2359 127.041 57C127.082 57.0412 127.107 57.0943 127.112 57.1506C127.116 57.2069 127.101 57.2631 127.068 57.31C127.033 57.3569 126.983 57.3914 126.925 57.4078C126.868 57.4242 126.806 57.4214 126.75 57.4C125.859 57.065 124.942 56.765 124.025 56.505L123.575 56.37C122.95 56.1529 122.306 55.9856 121.651 55.87C121.554 55.8706 121.458 55.8966 121.375 55.945C121.363 55.9546 121.353 55.9668 121.347 55.9807C121.34 55.9947 121.337 56.0098 121.338 56.025C121.362 56.0468 121.389 56.0654 121.418 56.08C121.703 56.2589 122.002 56.4161 122.313 56.55C122.702 56.6434 123.079 56.7759 123.437 56.945C123.496 56.9721 123.541 57.0191 123.565 57.0765C123.589 57.134 123.588 57.1977 123.564 57.255C123.54 57.3123 123.494 57.3594 123.436 57.3878C123.377 57.4162 123.31 57.4241 123.246 57.41C122.867 57.3101 122.496 57.1814 122.139 57.025C121.863 56.9644 121.583 56.9259 121.301 56.91C121.079 56.91 120.835 56.94 120.771 57.05C120.708 57.16 120.92 57.35 121.132 57.475C121.253 57.55 121.386 57.62 121.513 57.685C122.057 57.8587 122.588 58.0658 123.103 58.305C123.161 58.3339 123.206 58.3819 123.23 58.4398C123.253 58.4978 123.253 58.5619 123.23 58.62C123.205 58.6774 123.158 58.7242 123.098 58.7517C123.039 58.7793 122.971 58.7858 122.907 58.77C122.357 58.6106 121.824 58.4013 121.317 58.145L121.211 58.11C121.031 58.055 120.602 57.95 120.458 58.11C120.427 58.1675 120.413 58.2323 120.419 58.2968C120.424 58.3614 120.449 58.4231 120.49 58.475C120.608 58.6298 120.762 58.7565 120.941 58.845C121.456 59.1476 122.007 59.391 122.584 59.57L122.658 59.595C122.719 59.6189 122.769 59.6637 122.797 59.7204C122.825 59.7771 122.829 59.8416 122.809 59.9013C122.789 59.9609 122.746 60.0113 122.689 60.0426C122.631 60.0738 122.564 60.0836 122.499 60.07H122.419L120.766 59.57C120.65 59.5178 120.527 59.4808 120.4 59.46Z" fill="black"/>
<path d="M103.149 29.5C103.078 29.5 103.011 29.4737 102.961 29.4268C102.911 29.3799 102.884 29.3163 102.884 29.25V13.75C102.884 13.6837 102.911 13.6201 102.961 13.5732C103.011 13.5263 103.078 13.5 103.149 13.5C103.219 13.5 103.286 13.5263 103.336 13.5732C103.386 13.6201 103.414 13.6837 103.414 13.75V29.25C103.414 29.3163 103.386 29.3799 103.336 29.4268C103.286 29.4737 103.219 29.5 103.149 29.5Z" fill="#37352F" fill-opacity="0.16"/>
<path d="M70.914 26.965C70.8729 26.9646 70.8325 26.9554 70.7958 26.9381C70.759 26.9208 70.727 26.8958 70.702 26.865L65.932 20.67C65.9115 20.6434 65.8967 20.6133 65.8885 20.5813C65.8803 20.5493 65.8789 20.5161 65.8843 20.4836C65.8953 20.418 65.9334 20.3591 65.9903 20.32C66.0472 20.2809 66.1183 20.2647 66.1879 20.275C66.2575 20.2853 66.3198 20.3213 66.3613 20.375L71.1313 26.57C71.1716 26.6241 71.188 26.6908 71.1771 26.7561C71.1662 26.8214 71.1289 26.8802 71.073 26.92C71.026 26.9498 70.9706 26.9655 70.914 26.965Z" fill="#37352F" fill-opacity="0.16"/>
<path d="M40.28 59.22C40.2389 59.2196 40.1985 59.2104 40.1618 59.1931C40.125 59.1757 40.093 59.1507 40.068 59.12C38.0381 56.575 36.411 54.185 36.3951 54.16C36.3766 54.1321 36.3641 54.101 36.3584 54.0686C36.3526 54.0361 36.3537 54.0029 36.3616 53.9709C36.3695 53.9388 36.384 53.9085 36.4043 53.8818C36.4246 53.855 36.4503 53.8323 36.4799 53.815C36.5093 53.7968 36.5422 53.7845 36.5767 53.7787C36.6113 53.7729 36.6467 53.7738 36.6809 53.7812C36.7151 53.7887 36.7473 53.8026 36.7756 53.8222C36.8039 53.8417 36.8277 53.8665 36.8456 53.895C36.8456 53.895 38.4727 56.29 40.492 58.82C40.5129 58.8462 40.5281 58.8761 40.5367 58.9079C40.5454 58.9397 40.5473 58.9728 40.5423 59.0053C40.5374 59.0378 40.5258 59.0691 40.508 59.0973C40.4903 59.1256 40.4668 59.1503 40.439 59.17C40.3937 59.2035 40.3375 59.2211 40.28 59.22Z" fill="black"/>
<path d="M169.505 105.615C169.44 105.614 169.377 105.592 169.329 105.551C169.28 105.511 169.248 105.455 169.24 105.395C169.24 105.21 166.844 86.9599 165.863 82.5149C165.849 82.4486 165.864 82.3798 165.904 82.3235C165.943 82.2672 166.005 82.2282 166.075 82.2149C166.146 82.2017 166.219 82.2153 166.278 82.2528C166.338 82.2903 166.379 82.3486 166.393 82.4149C167.379 86.8799 169.759 105.15 169.78 105.335C169.785 105.367 169.782 105.4 169.773 105.431C169.764 105.463 169.748 105.492 169.727 105.517C169.706 105.543 169.68 105.564 169.65 105.58C169.619 105.596 169.586 105.606 169.552 105.61L169.505 105.615Z" fill="white"/>
</svg>
