<svg width="20" height="15" viewBox="0 0 20 15" fill="none" xmlns="http://www.w3.org/2000/svg">
<path fill-rule="evenodd" clip-rule="evenodd" d="M0 0.9375C0 0.419737 0.407018 0 0.909091 0H19.0909C19.5929 0 20 0.419737 20 0.9375V12.1875C20 13.7407 18.7789 15 17.2727 15H2.72727C1.22104 15 0 13.7407 0 12.1875V0.9375ZM1.81818 2.73812V12.1875C1.81818 12.7052 2.2252 13.125 2.72727 13.125H17.2727C17.7747 13.125 18.1818 12.7052 18.1818 12.1875V2.73812L10.5213 8.26804C10.2083 8.49399 9.79169 8.49399 9.47867 8.26804L1.81818 2.73812ZM16.2069 1.875H3.79306L10 6.35563L16.2069 1.875Z" fill="#61C554"/>
</svg>
