<svg width="20" height="20" viewBox="0 0 20 20" fill="none" xmlns="http://www.w3.org/2000/svg">
<path fill-rule="evenodd" clip-rule="evenodd" d="M9.23077 11.7032V17.3286C9.23077 19.2729 10.9714 20.5643 12.5 19.7542L18.6538 16.4931C19.4742 16.0583 20 15.1108 20 14.0675V5.42534C20 5.07757 19.8248 4.76171 19.5512 4.6168L11.6025 0.404388C10.5851 -0.134796 9.41494 -0.134796 8.39748 0.404388L0.448723 4.6168C0.175308 4.76171 0 5.07757 0 5.42534V12.4369C0 14.3811 1.74062 15.6725 3.2692 14.8624L9.23077 11.7032ZM10.9615 2.02148C10.351 1.69796 9.64897 1.69796 9.03849 2.02148L2.61543 5.42534L10 9.33876L17.3846 5.42534L10.9615 2.02148ZM18.4615 6.81137L10.7692 10.8879V17.3286C10.7692 17.9768 11.3494 18.4073 11.859 18.1373L18.0128 14.8759C18.2863 14.7311 18.4615 14.4152 18.4615 14.0675V6.81137ZM8.1538 10.3171L1.53846 6.81137V12.4369C1.53846 13.0849 2.11866 13.5154 2.6282 13.2454L8.1538 10.3171Z" fill="#61C554"/>
</svg>
