<svg width="162" height="140" viewBox="0 0 162 140" fill="none" xmlns="http://www.w3.org/2000/svg">
<ellipse cx="81" cy="101.569" rx="81" ry="38.4314" fill="#231F20"/>
<path d="M97.8495 97.0965C97.6249 98.1826 97.5358 99.2634 97.1422 100.24C96.6316 101.507 95.4498 102.272 94.0851 102.662C92.5859 103.09 91.042 103.39 89.5076 103.704C88.9979 103.808 88.4577 103.789 87.9309 103.818C86.034 103.923 84.1365 104.021 82.2399 104.131C81.205 104.19 80.172 104.279 79.1369 104.332C78.1443 104.383 77.1492 104.441 76.1563 104.427C75.9361 104.424 74.5588 104.608 72.6317 104.733C72.2576 104.757 72.84 106.621 72.1672 106.817C70.6682 107.252 66.9966 107.13 66.356 106.206C65.7156 105.281 65.9427 104.892 65.2324 104.624C61.7597 103.317 58.1826 103.012 57.1344 100.24C56.4365 98.3946 57.7645 94.0231 57.3784 90.6671C56.3881 82.0615 54.4186 72.4593 54.3543 72.4101C54.361 72.4036 52.2572 72.5694 52.1005 71.8583C50.1567 63.0354 49.2701 51.4073 54.3543 48.4752C57.4159 46.7096 63.2477 44.8961 69.7128 43.4149C70.6526 43.1997 71.2073 41.9264 72.1672 41.7263C72.3819 41.6816 73.0388 40.5313 73.6021 39.3758C74.1695 38.2123 74.6467 37.0432 75.8114 36.9922C78.2055 36.8871 82.3356 34.0592 85.1373 34.9416C87.7031 35.7496 89.0039 40.2982 89.9946 39.7473C90.9933 39.1921 91.8769 40.1559 93.2448 40.1559C103.035 40.1559 110.408 57.3066 111.433 61.5266C109.72 63.8067 104.645 63.8067 99.8498 65.1578C99.0564 64.2552 97.4621 61.5485 96.9472 60.0258C96.4171 58.4589 96.2344 62.0123 96.1973 63.2715C96.1493 64.9 96.3077 66.5346 96.3949 68.1656C96.4523 69.2409 96.5476 70.3142 96.6145 71.389C96.7317 73.276 96.8555 75.1627 96.9472 77.0508C97.0115 78.3796 96.9837 79.7131 97.0766 81.0396C97.1716 82.3988 97.368 83.7519 97.5114 85.1085C97.5956 85.9061 97.6725 86.705 97.7342 87.5044C97.7865 88.1784 97.86 88.8555 97.8392 89.529C97.7993 90.8343 97.6513 92.1377 97.6451 93.4422C97.6419 94.1235 97.8893 94.803 97.9405 95.4884C97.9789 96.0029 97.8846 96.5257 97.8495 97.0965Z" fill="white"/>
<path d="M113.629 14.1293C112.996 13.5437 112.609 12.8119 112.111 12.1608C112.097 12.1417 112.083 12.1215 112.072 12.1001C111.683 11.2746 111.303 10.4495 111.118 9.54711C111.01 9.02019 111.014 8.50669 111.096 7.98417C111.137 7.72417 111.154 7.46018 111.207 7.20291C111.369 6.41346 111.763 5.726 112.225 5.07212C112.365 4.87549 112.524 4.69229 112.66 4.49315C113.167 3.74756 113.882 3.26743 114.716 2.93293C115.258 2.71532 115.815 2.5317 116.345 2.28555C116.41 2.25533 116.482 2.22827 116.553 2.22176C117.431 2.14055 118.309 2.05619 119.188 1.98778C120.045 1.92084 120.903 1.93931 121.761 1.99345C122.226 2.02262 122.692 2.03521 123.155 2.08116C124.159 2.18084 125.13 2.40223 126.062 2.80052C126.713 3.07878 127.37 3.33899 127.994 3.67537C128.712 4.06212 129.32 4.57562 129.896 5.1336C130.16 5.38899 130.362 5.68823 130.542 6.00279C130.65 6.1906 130.745 6.38723 130.871 6.56266C131.605 7.58273 131.763 8.71843 131.585 9.91938C131.543 10.2025 131.45 10.4788 131.474 10.7703C131.33 11.352 131.189 11.9362 130.834 12.4399C130.556 12.835 130.254 13.2117 129.879 13.5265C129.748 13.6356 129.617 13.7455 129.5 13.867C129.245 14.1308 128.934 14.3199 128.639 14.5339C128.005 14.995 127.298 15.3204 126.598 15.6629C126.512 15.7053 126.42 15.7393 126.326 15.7668C125.952 15.8782 125.576 15.9859 125.2 16.0941C124.777 16.2159 124.356 16.3451 123.93 16.4559C123.263 16.6295 122.571 16.632 121.892 16.7201C121.796 16.7325 121.694 16.7258 121.598 16.7098C120.873 16.5896 120.138 16.5529 119.41 16.4641C119.289 16.4494 119.17 16.4186 119.05 16.3942C118.234 16.2282 117.413 16.0809 116.622 15.8171C116.423 15.7513 116.244 15.7662 116.06 15.8721C115.849 15.993 115.625 16.092 115.404 16.1968C114.938 16.4177 114.533 16.7287 114.113 17.0187C113.994 17.101 113.869 17.1759 113.742 17.2464C113.644 17.3008 113.476 17.2189 113.45 17.1054C113.418 16.9659 113.387 16.8278 113.429 16.6811C113.665 15.8631 113.657 15.0264 113.629 14.1293Z" fill="white"/>
<path fill-rule="evenodd" clip-rule="evenodd" d="M72.5166 41.0723C72.5166 41.0723 73.5848 39.6432 73.9535 38.8983C74.3222 38.1533 74.6691 36.7242 74.6691 36.7242C74.6691 36.7242 82.2912 47.2699 81.0852 47.4072C78.6742 47.6816 72.5166 41.0723 72.5166 41.0723Z" fill="#E7EAEE"/>
<path d="M105.385 74.8304C104.178 72.9556 101.614 68.5855 100.433 66.7395C100.406 66.6969 105.905 61.7563 110.799 63.007C111.285 63.1312 112.22 64.9822 112.678 65.203C113.531 65.6139 113.378 63.6061 115.011 60.7771C117.582 56.3227 122.316 49.6703 124.175 45.6992C124.931 44.085 124.396 42.827 124.317 42.4746C124.022 41.1709 123.33 40.1073 122.33 39.214C121.682 38.6346 121.656 37.3416 122.394 36.9852C122.939 36.7223 123.554 36.639 124.175 36.9424C124.885 37.2889 125.592 37.6167 126.08 38.2626C126.146 38.3499 126.262 38.4011 126.354 38.4691C126.399 38.3589 126.448 38.2504 126.488 38.1386C126.881 37.0165 127.243 35.8829 127.674 34.7751C128.055 33.796 128.477 32.8279 128.956 31.8918C129.115 31.5833 129.513 31.1861 129.793 31.1924C130.205 31.2014 130.474 31.6362 130.535 32.092C130.568 32.3335 130.603 32.5753 130.65 32.8147C130.67 32.9199 130.722 33.0191 130.76 33.1211C130.835 33.0338 130.904 32.9413 130.985 32.8601C131.23 32.6152 131.447 32.3264 131.735 32.1445C132.129 31.8943 132.579 32.1722 132.547 32.6525C132.503 33.3158 132.451 33.9903 132.287 34.6322C131.992 35.786 131.611 36.9189 131.271 38.0617C131.25 38.1297 131.27 38.2093 131.271 38.2833C131.348 38.2431 131.462 38.2221 131.495 38.1598C131.709 37.7535 131.938 37.3502 132.101 36.9235C132.363 36.2338 132.76 35.6431 133.335 35.1768C133.469 35.0681 133.686 35.0576 133.864 35.0018C133.916 35.164 134.045 35.3465 134.007 35.485C133.73 36.4862 133.491 37.5057 133.106 38.4682C132.135 40.8932 131.099 43.2928 130.081 45.6992C129.492 47.0896 128.808 48.4471 128.308 49.8669C127.799 51.3147 127.502 52.8325 127.039 54.2976C126.549 55.8511 125.984 57.3826 125.432 58.9172C124.594 61.2495 123.839 63.6174 122.859 65.8917C122.093 67.6693 121.096 69.3609 120.092 71.0284C119.341 72.2778 118.48 73.4788 117.544 74.6029C116.995 75.2633 116.214 75.7447 115.518 76.2827C114.404 77.144 113.138 77.6936 111.753 78.0039C110.158 78.3611 108.743 78.083 107.553 76.9463C106.832 76.2576 106.126 75.5546 105.385 74.8304Z" fill="white"/>
<path fill-rule="evenodd" clip-rule="evenodd" d="M67.8727 28.6069C67.7192 28.9106 67.7291 29.1762 67.9292 29.4339C68.019 29.5496 68.1161 29.6597 68.2131 29.7699C68.3173 29.888 68.4214 30.0064 68.5166 30.1313C68.66 30.3199 68.8084 30.5063 68.9568 30.6926C69.3466 31.1818 69.7366 31.6713 70.0426 32.2064C70.4747 32.9625 70.9753 33.5201 71.8837 33.6802C72.2524 33.7453 72.3916 34.0332 72.4358 34.4122C72.4972 34.9397 72.5977 35.4746 72.777 35.9736C72.9052 36.3306 73.2445 36.5673 73.6766 36.5215C73.8791 36.5001 74.0808 36.4668 74.2824 36.4334C74.5928 36.382 74.9026 36.3306 75.214 36.3232C75.5123 36.3163 75.8993 36.3925 76.0999 36.5805C76.6359 37.0829 77.1294 37.6293 77.6225 38.1749C77.7245 38.2878 77.8263 38.4005 77.9285 38.513C77.9663 38.5543 78.0032 38.5961 78.0399 38.6376L78.0402 38.6378C78.4001 39.0443 78.7347 39.4221 79.4502 39.1795C80.2998 38.8916 81.1931 38.7625 82.1146 38.821C82.9599 38.8748 83.29 38.595 83.55 37.7863C83.5769 37.7034 83.5994 37.6186 83.622 37.5338C83.6656 37.3704 83.7092 37.2069 83.782 37.0569C83.8097 37.0002 83.8369 36.9425 83.8644 36.8848V36.8846C84.0148 36.5679 84.1683 36.2441 84.4 35.9952C84.8188 35.546 85.3615 35.615 85.9177 35.8076C86.5439 36.0246 86.8686 35.8916 87.1387 35.3355C87.253 35.1 87.2908 35.103 87.5 35.2536C87.669 35.3756 87.9355 35.4318 88.1511 35.4163C88.6847 35.3777 89.219 35.3048 89.742 35.1955C89.9309 35.1561 90.1813 35.01 90.246 34.8512C90.325 34.657 90.4045 34.4629 90.4839 34.2688C90.9325 33.1743 91.3818 32.078 91.7411 30.9551C92.3256 29.1286 92.7609 27.2585 92.7599 25.3291C92.7592 24.0365 92.7204 22.744 92.6817 21.4516C92.6718 21.124 92.6619 20.7964 92.6527 20.4688C92.6484 20.3136 92.6445 20.1581 92.6407 20.0026V20.0019C92.6235 19.2931 92.6061 18.5834 92.5333 17.8795C92.4019 16.6097 92.2324 15.3433 92.0632 14.0773L92.0628 14.0739C92.0344 13.8624 92.0063 13.6507 91.9782 13.4392C91.8953 12.8155 91.7986 12.1935 91.7022 11.5715L91.702 11.5709C91.6702 11.3654 91.6382 11.1598 91.6069 10.9544L91.5388 10.5086C91.388 9.52005 91.2373 8.53125 91.0777 7.5437C91.0715 7.50509 91.0659 7.46522 91.0601 7.42472C91.0311 7.21928 90.9998 6.99894 90.8812 6.86002C90.7751 6.736 90.6693 6.61156 90.5636 6.48691C89.8865 5.68991 89.2074 4.89081 88.4522 4.16957C87.8595 3.60382 87.1454 3.1495 86.444 2.70336L86.3528 2.64523C84.4363 1.42518 82.2897 0.8758 80.0333 0.730795C79.415 0.691134 78.7935 0.700368 78.1718 0.709391C77.7996 0.715057 77.4275 0.720513 77.0557 0.715477C76.7164 0.71086 76.5328 0.816414 76.3125 1.10579C76.0204 1.48939 75.5838 1.79829 75.1526 2.04507C74.0761 2.6616 73.1286 3.38558 72.401 4.40334C71.4451 5.74027 70.5694 7.11583 69.9971 8.64918C69.5555 9.83209 69.2502 11.0469 69.1449 12.3192C69.1108 12.7299 69.0262 13.1353 68.9414 13.5409C68.7773 14.3258 68.613 15.1116 68.8157 15.9393C68.9031 16.2958 68.9538 16.6616 69.0047 17.0271C69.0642 17.4556 69.1237 17.8837 69.242 18.2963C69.2637 18.3723 69.2856 18.448 69.3073 18.5238C69.6846 19.8343 70.0546 21.1204 69.981 22.5306C69.9019 24.0465 69.3515 25.3709 68.7137 26.8058C68.6323 26.9819 68.552 27.1586 68.4719 27.335C68.2782 27.7619 68.0845 28.1889 67.8727 28.6069ZM93.1043 18.626C93.1052 18.639 93.1037 18.653 93.1022 18.6669C93.0994 18.6921 93.0968 18.7166 93.1073 18.7338C93.14 18.7869 93.1793 18.8362 93.2186 18.8855C93.234 18.9051 93.2495 18.9246 93.2647 18.9443C93.2813 18.9296 93.2989 18.9158 93.3163 18.9017C93.3539 18.8715 93.3914 18.8413 93.4219 18.8052C93.5083 18.703 93.5952 18.601 93.682 18.4992L93.6822 18.499L93.6824 18.4988C93.9298 18.2088 94.1774 17.9188 94.4098 17.6174C94.922 16.9526 95.4228 16.2792 95.9135 15.5989C96.2028 15.1979 95.915 15.0319 95.572 15.008C94.8578 14.9585 94.2528 15.2535 93.6391 15.5983C93.2005 15.8446 92.8775 16.0509 92.9922 16.701L93.0094 16.9933C93.0412 17.5375 93.073 18.0816 93.1043 18.626ZM68.6435 18.9344C68.628 18.959 68.6126 18.9837 68.6014 19.0075C68.2958 18.8652 68.0126 18.6952 67.7321 18.5269C67.4866 18.3796 67.2433 18.2337 66.9893 18.1087C66.4148 17.8262 66.2127 17.3129 66.0289 16.803C65.8171 16.2161 66.2883 15.6556 66.927 15.6598C66.9553 15.66 66.9839 15.66 67.0125 15.6602C67.2401 15.661 67.4714 15.6617 67.6902 15.7087C68.1204 15.8008 68.1631 16.1265 68.2041 16.4404C68.2168 16.5378 68.2295 16.6339 68.2535 16.7218C68.4071 17.2834 68.5192 17.856 68.6313 18.4283C68.6544 18.5466 68.6776 18.665 68.7013 18.7831C68.7103 18.8282 68.6768 18.8813 68.6435 18.9344Z" fill="white"/>
<path d="M89.1312 26.9166C89.9614 26.9166 90.6344 26.259 90.6344 25.4477C90.6344 24.6364 89.9614 23.9788 89.1312 23.9788C88.301 23.9788 87.6279 24.6364 87.6279 25.4477C87.6279 26.259 88.301 26.9166 89.1312 26.9166Z" fill="#F6B82D"/>
<path d="M73.4539 25.6575C74.2842 25.6575 74.9572 24.9999 74.9572 24.1886C74.9572 23.3773 74.2842 22.7197 73.4539 22.7197C72.6237 22.7197 71.9507 23.3773 71.9507 24.1886C71.9507 24.9999 72.6237 25.6575 73.4539 25.6575Z" fill="#F6B82D"/>
<path fill-rule="evenodd" clip-rule="evenodd" d="M80.5606 6.48877C81.4173 6.66861 82.3463 6.88685 83.2119 6.42749C83.5051 6.272 83.7806 6.0804 84.0478 5.88399C84.2108 5.76416 84.3574 5.61538 84.4854 5.45926C85.5023 4.22074 86.2526 4.40561 87.6528 5.21436C89.444 6.24891 91.5183 9.26274 85.9646 9.26274C83.1673 9.26274 71.9944 7.77429 73.5544 6.29466C74.192 5.69009 75.0273 5.28529 75.7674 4.78229C76.0461 4.5928 76.3298 4.40309 76.5757 4.17667C76.9322 3.84868 77.1482 4.0218 77.3707 4.32335C77.6632 4.71975 77.9684 5.10692 78.2963 5.52536C79.0672 5.87622 79.7826 6.32551 80.5606 6.48877Z" fill="#E7EAEE"/>
<path fill-rule="evenodd" clip-rule="evenodd" d="M110.418 61.4304C110.128 61.597 109.838 61.7631 109.527 61.8759C108.774 62.1484 108.01 62.3948 107.239 62.6438C106.75 62.8016 106.258 62.9602 105.764 63.1271C105.615 63.1824 105.484 63.2188 105.358 63.254C105.328 63.2624 105.298 63.2706 105.269 63.279C104.828 63.4042 104.387 63.5309 103.946 63.6573L103.945 63.6575L103.944 63.6579C102.838 63.9753 101.731 64.2929 100.62 64.5904C100.169 64.7109 99.7968 64.5759 99.5521 64.1114C98.9438 62.9571 98.2931 61.8227 97.6383 60.6915C97.5928 60.6129 97.4806 60.5698 97.3685 60.5264C97.3163 60.5063 97.2642 60.4863 97.2188 60.4626C97.2018 60.5174 97.1748 60.5769 97.1475 60.6367C97.0892 60.7652 97.0309 60.8937 97.0738 60.9721C97.8036 62.3103 98.5533 63.6395 99.3374 64.9493C99.4344 65.1114 99.7855 65.2601 99.9791 65.2235C101.009 65.0299 102.03 64.7932 103.045 64.5366C103.437 64.4373 103.825 64.3213 104.213 64.2055C104.773 64.0383 105.331 63.8713 105.902 63.7549C107.86 63.3549 109.734 62.7772 111.415 61.7089C112.018 61.3252 112.184 60.7386 111.89 60.1307C111.789 59.9201 111.685 59.71 111.581 59.4996L111.581 59.4986L111.58 59.4976L111.58 59.4967L111.579 59.4951C111.219 58.7652 110.858 58.0343 110.576 57.2774C109.711 54.9574 108.738 52.6822 107.592 50.4783C106.866 49.0833 106.096 47.7069 105.278 46.36C104.184 44.5606 103.039 42.7626 101.28 41.4823C100.059 40.593 98.7512 39.7555 97.3607 39.1475C95.3283 38.2593 93.0962 38.0647 90.875 37.9169C90.4212 37.8867 89.9442 37.7244 89.5435 37.511C88.7396 37.0831 88.4132 36.3252 88.0844 35.5622C88.0483 35.4787 88.0123 35.395 87.9756 35.3119C87.8133 34.9438 88.0745 34.8748 88.2388 34.8423C88.662 34.7588 89.109 34.6927 89.5343 34.7336C90.1972 34.7975 90.5619 34.5032 90.8051 33.9788C91.4018 32.6928 91.9243 31.385 92.3187 30.0239C92.8648 28.1395 93.3313 26.2554 93.2815 24.2806C93.2598 23.4248 93.265 22.5683 93.2699 21.7119C93.2725 21.2655 93.2751 20.8184 93.274 20.3719C93.2736 20.2499 93.2581 20.1224 93.2427 19.9954C93.2116 19.74 93.1807 19.4861 93.274 19.2825C93.5031 18.782 93.8795 18.3326 94.2447 17.9009C94.5339 17.5594 94.8356 17.2277 95.1376 16.896C95.5033 16.4941 95.869 16.0924 96.2116 15.6731C96.4874 15.3355 96.6931 14.9056 96.4153 14.4573C96.144 14.0194 95.7088 13.8416 95.2033 13.9504C95.1166 13.9691 95.0293 13.9867 94.9418 14.0043C94.3063 14.1326 93.6637 14.2623 93.215 14.7998C92.9995 15.0581 92.8748 15.0589 92.8189 14.6844C92.7775 14.4061 92.7185 14.1303 92.6595 13.8545C92.5984 13.5688 92.5372 13.2834 92.4956 12.9951C92.4444 12.6398 92.4098 12.2826 92.3753 11.9253C92.3421 11.5795 92.3086 11.2337 92.2601 10.8899C92.1919 10.4072 92.1149 9.92574 92.0379 9.44406C91.9215 8.71499 91.805 7.98613 91.719 7.254C91.668 6.81918 91.5414 6.47091 91.2356 6.15395C91.077 5.98944 90.9158 5.82656 90.7547 5.66368C90.2605 5.1642 89.7657 4.66431 89.3395 4.11633C88.1635 2.60459 86.4933 1.81168 84.7603 1.09264C83.6435 0.629375 82.4888 0.297889 81.2606 0.230977C80.7203 0.201716 80.1803 0.164885 79.6402 0.128257C79.089 0.0906071 78.5376 0.0531612 77.9857 0.0234911C77.5316 -0.00106353 77.0701 -0.0184566 76.6216 0.0353588C76.3987 0.0621643 76.1757 0.232205 75.9919 0.381374C75.8102 0.528497 75.6375 0.68585 75.4647 0.843204C75.2422 1.04598 75.0198 1.24856 74.779 1.42904C74.525 1.61933 74.2558 1.79388 73.9873 1.96842C73.5463 2.25468 73.1062 2.54054 72.7349 2.89351C72.3083 3.29948 71.9675 3.78853 71.6271 4.27675C71.5019 4.45641 71.3768 4.63607 71.2475 4.81143C70.2877 6.11241 69.5503 7.51837 69.1443 9.06612C68.8931 10.0242 68.6804 10.9916 68.4691 11.9587L68.4356 12.1117C68.2808 12.8197 68.1253 13.5293 68.0277 14.2451L68.0234 14.2768C67.9464 14.8438 67.9404 14.887 67.3703 14.6859C66.7813 14.4782 66.2739 14.6183 65.8593 14.9995C65.452 15.374 65.4072 15.8792 65.5487 16.3883C65.9635 17.8798 67.1584 18.5041 68.5866 18.8761C68.7113 18.9086 68.849 19.0246 68.9084 19.1366C69.5241 20.2986 69.5507 21.5347 69.161 22.7332C68.8022 23.8367 68.3771 24.9206 67.952 26.0045L67.9516 26.0055C67.7641 26.4833 67.5764 26.9619 67.3948 27.4415C67.2075 27.9359 67.1048 28.3892 67.534 28.8678C68.4569 29.8976 69.3382 30.9635 70.0039 32.1714C70.268 32.6504 70.6731 32.9952 71.2166 33.0991C71.7344 33.1984 71.8045 33.4425 71.8656 33.9059C71.9459 34.5167 72.1591 35.1586 72.5048 35.6704C72.6146 35.8329 72.9108 35.8767 73.2139 35.9217C73.3743 35.9456 73.5367 35.9696 73.6746 36.0117C73.787 36.0461 73.9656 36.1893 73.9519 36.2474C73.9273 36.3508 73.9034 36.4545 73.8794 36.5585C73.7645 37.0573 73.6491 37.5591 73.455 38.0299C73.0301 39.0608 72.1262 39.7057 71.249 40.3317L71.2479 40.3325C71.1285 40.4178 71.0094 40.5027 70.8921 40.5883C69.3607 41.7053 67.5387 42.3188 65.7083 42.8481C64.8482 43.0969 63.9755 43.3063 63.1028 43.5156C62.5365 43.6515 61.9701 43.7873 61.4071 43.934C61.0564 44.0253 60.7096 44.1336 60.3632 44.2416C59.8495 44.4018 59.3358 44.5618 58.8101 44.667C56.7897 45.0713 55.0075 45.9031 53.4423 47.1771C52.39 48.0332 51.8253 49.1846 51.2575 50.3424C51.2299 50.3984 51.2022 50.4551 51.1745 50.5112C50.4071 52.0718 49.7341 53.7358 49.6393 55.4246C49.6127 55.8983 49.6506 56.3748 49.6886 56.8518C49.7077 57.0931 49.727 57.3341 49.7377 57.5751C49.7622 58.1166 49.783 58.6584 49.804 59.2002C49.8495 60.3787 49.8949 61.5569 49.9762 62.733C50.0217 63.3888 50.1439 64.0406 50.266 64.6913C50.3012 64.8781 50.3361 65.0649 50.3694 65.2515C50.4597 65.7598 50.5605 66.2664 50.6615 66.7731C50.7286 67.1109 50.796 67.4489 50.8601 67.7874C50.9019 68.0082 50.947 68.2288 50.9918 68.4491C51.1128 69.0423 51.2337 69.6361 51.2951 70.2351C51.3515 70.7855 51.335 71.3431 51.3187 71.8999C51.3137 72.0646 51.309 72.2293 51.306 72.3938C51.3009 72.6836 51.3538 72.9181 51.7189 72.8395C52.0794 72.7617 52.434 72.6574 52.7881 72.5528C52.8994 72.5199 53.0107 72.4871 53.1222 72.4552C53.4982 72.3472 53.7286 72.4736 53.7771 72.8426C53.8251 73.2074 53.8674 73.5729 53.9096 73.9383C53.9737 74.4933 54.0379 75.048 54.1219 75.5998C54.3263 76.942 54.5511 78.2814 54.7935 79.6178C55.2385 82.0706 55.8801 84.4798 56.7228 86.8338C57.4722 88.9264 58.2825 90.9997 59.1007 93.069C59.5722 94.2607 60.0762 95.441 60.5802 96.6208C60.7091 96.9224 60.8378 97.224 60.9661 97.5257C61.4858 98.7483 62.0166 99.9664 62.5483 101.184C62.6716 101.467 62.7937 101.75 62.9155 102.033C63.2731 102.864 63.6306 103.695 64.0252 104.509C64.368 105.216 64.7573 105.903 65.1466 106.589C65.2613 106.791 65.3763 106.994 65.4897 107.197C65.5251 107.26 65.5959 107.305 65.6669 107.35C65.6997 107.37 65.7327 107.391 65.7621 107.414C65.7763 107.377 65.7928 107.34 65.8091 107.303C65.8477 107.216 65.8863 107.13 65.8951 107.041C65.902 106.971 65.8606 106.895 65.8209 106.822C65.8104 106.803 65.8001 106.784 65.7906 106.765C65.6583 106.5 65.5215 106.237 65.3844 105.974C65.0974 105.423 64.8103 104.872 64.5651 104.304C63.716 102.337 62.9014 100.356 62.0898 98.3748C61.7251 97.4845 61.3687 96.5909 61.012 95.6976C60.6611 94.8181 60.3102 93.9384 59.9514 93.0618C59.7283 92.5167 59.4924 91.9759 59.2567 91.4351C58.8346 90.4672 58.4127 89.4994 58.0639 88.508C57.324 86.403 56.6618 84.2701 56.0624 82.1246C55.7246 80.9157 55.4925 79.6788 55.2606 78.4441C55.219 78.2221 55.1774 77.9998 55.1352 77.7782C55.0183 77.165 54.9438 76.5444 54.8694 75.9238C54.8439 75.712 54.8186 75.5002 54.7916 75.2888C54.6738 74.3701 54.5629 73.4503 54.455 72.5303C54.4192 72.2238 54.5614 72.0785 54.8894 71.9795C56.1456 71.6001 57.3956 71.2027 58.6458 70.8054C59.0891 70.6644 59.5327 70.5232 59.9765 70.383C60.3065 70.2789 60.6581 70.1788 61.0193 70.0761C62.3572 69.6955 63.8298 69.2768 64.8482 68.4594C64.9072 68.4121 65.0614 68.3851 65.0985 68.4197C65.165 68.4819 65.212 68.6004 65.2049 68.691C65.1697 69.1446 65.127 69.5983 65.0844 70.0515C65.0003 70.9457 64.9162 71.8399 64.8898 72.7355C64.8564 73.8716 64.9134 75.0111 64.9705 76.1486L64.9707 76.1497V76.1507V76.1517V76.1529L64.9709 76.154V76.155C64.9784 76.3031 64.9857 76.4513 64.993 76.5992C65.0282 77.3211 65.0846 78.0488 65.2203 78.7582C65.5657 80.5636 66.2822 82.2529 67.1237 83.8938C67.2459 84.1324 67.3913 84.3619 67.5367 84.5911C67.7538 84.9339 67.9706 85.276 68.1083 85.6457C68.3192 86.2113 68.542 86.773 68.7649 87.3349C69.3768 88.8775 69.9889 90.4204 70.3523 92.0434C70.4666 92.554 70.6 93.0606 70.7334 93.5673C70.8816 94.1296 71.0296 94.6917 71.1514 95.2591C71.3395 96.134 71.4858 97.0174 71.6323 97.9003C71.666 98.1035 71.6996 98.3075 71.734 98.5107C71.7756 98.7591 71.8223 99.0075 71.8691 99.2561C71.9956 99.9306 72.1224 100.606 72.1531 101.285C72.2138 102.635 72.2331 103.987 72.2524 105.339C72.2627 106.061 72.2729 106.783 72.2897 107.504C72.292 107.612 72.3399 107.718 72.3879 107.825C72.4102 107.875 72.4325 107.924 72.4501 107.974C72.4799 107.924 72.5166 107.874 72.5535 107.824C72.6333 107.716 72.7131 107.609 72.7199 107.497C72.757 106.889 72.7787 106.279 72.8006 105.669V105.668V105.667V105.666C72.8147 105.274 72.8287 104.882 72.8467 104.49C72.8553 104.303 72.8759 104.116 72.8962 103.929C72.9269 103.649 72.9574 103.368 72.9481 103.089C72.9385 102.797 72.9299 102.506 72.9211 102.214V102.213V102.212V102.211C72.881 100.872 72.8411 99.5309 72.7092 98.1995C72.6208 97.3065 72.3991 96.4231 72.1784 95.5439C72.1361 95.3751 72.0936 95.2063 72.0525 95.0379C71.9534 94.6341 71.8566 94.2294 71.7599 93.8249C71.4172 92.3901 71.0742 90.9542 70.6236 89.5503C69.8838 87.2448 68.8794 85.0321 67.7257 82.8782C67.2013 81.8991 66.7616 80.8541 66.4671 79.7927C65.8889 77.7085 65.8387 75.554 65.7889 73.4116L65.7842 73.2101C65.761 72.2242 65.8035 71.2367 65.846 70.2496C65.8606 69.9128 65.8752 69.5754 65.887 69.2388C65.9026 68.7966 65.9382 68.3548 65.9738 67.9132V67.9118L65.974 67.9106C65.9818 67.815 65.9895 67.7186 65.997 67.6231C66.0315 67.1831 66.0736 66.7434 66.1156 66.3035C66.2076 65.3422 66.2998 64.3809 66.3125 63.4185C66.3226 62.6446 66.2698 61.8702 66.2173 61.0955C66.1735 60.4538 66.13 59.8121 66.1218 59.17C66.1107 58.2641 65.8365 57.4268 65.5622 56.5891C65.4754 56.3233 65.3883 56.0575 65.3098 55.7894C65.2795 55.6865 65.1678 55.6053 65.056 55.524C65.0044 55.4864 64.9527 55.4487 64.9091 55.409C64.892 55.4671 64.8675 55.5267 64.8429 55.5862C64.7892 55.7164 64.7356 55.8463 64.7603 55.9613C64.8092 56.1917 64.8825 56.4186 64.9555 56.6453C65.0578 56.9625 65.1599 57.2789 65.195 57.6028C65.3529 59.0531 65.5024 60.51 65.5268 61.9663C65.5371 62.5759 65.4874 63.1869 65.4374 63.7977C65.3818 64.4791 65.3261 65.1603 65.3542 65.8386C65.3941 66.8064 64.8765 67.3211 64.1835 67.8121C63.272 68.4581 61.9699 68.8314 60.8009 69.1665C60.4912 69.2553 60.1909 69.3415 59.9095 69.4293C58.1626 69.9746 56.4259 70.5502 54.6893 71.1258C53.972 71.3636 53.2548 71.6013 52.5367 71.8371L52.5247 71.8409C52.2847 71.9199 52.0867 71.985 52.0869 71.5942C52.0874 71.1178 52.0357 70.64 51.9842 70.1649L51.9814 70.1395C51.952 69.869 51.9233 69.5985 51.8945 69.3282C51.7834 68.2824 51.6723 67.2359 51.5278 66.1944C51.4396 65.5583 51.3324 64.9243 51.2251 64.2904C51.0969 63.5327 50.9688 62.7752 50.8732 62.014C50.7385 60.9436 50.6585 59.8616 50.6495 58.784C50.6403 57.6926 50.6754 56.6007 50.7106 55.5089C50.7243 55.0804 50.7383 54.6519 50.7494 54.2234C50.7792 53.0737 51.371 52.0188 51.948 50.9902C52.1639 50.6053 52.3778 50.2241 52.5594 49.8431C53.4804 47.9098 55.2147 46.844 57.1672 46.091C58.1051 45.7292 59.0838 45.4617 60.062 45.1947L60.0631 45.1943L60.0642 45.1941C60.423 45.0961 60.7816 44.9981 61.1381 44.8954C61.9383 44.6652 62.7403 44.4409 63.5424 44.2166L63.5435 44.2162L63.5448 44.216C65.1268 43.7736 66.7086 43.3312 68.275 42.8428C69.6726 42.4072 71.0032 41.7831 72.1039 40.8168C72.4053 40.5523 72.5537 40.5991 72.8197 40.8416C73.6877 41.6333 74.5765 42.4043 75.4653 43.1753L75.6182 43.3083C77.1336 44.623 78.8198 45.6981 80.695 46.482C80.9728 46.5982 81.4277 46.5821 81.6859 46.4388C82.268 46.1157 82.8126 45.7292 83.3561 45.3437C83.4681 45.2641 83.58 45.1847 83.6922 45.1059C83.9176 44.9473 84.1437 44.7894 84.3695 44.6312C85.3085 43.9744 86.248 43.3173 87.1612 42.629C88.1313 41.8979 88.8256 40.9345 89.5173 39.9746C89.628 39.8209 89.7385 39.6677 89.8502 39.5152C89.894 39.4553 89.7393 39.1469 89.6402 39.1277C89.2514 39.0526 89.0729 39.2943 88.8857 39.5478C88.8501 39.5959 88.8143 39.6446 88.7765 39.6914C88.6212 39.8848 88.4696 40.0831 88.3177 40.282C87.8474 40.8979 87.3744 41.5171 86.7801 41.9953C85.8315 42.7583 84.8352 43.4667 83.8385 44.1755C83.1298 44.6793 82.4212 45.1833 81.7293 45.7071C81.2988 46.0331 80.9818 46.0091 80.5657 45.785C80.4745 45.7359 80.3834 45.687 80.2922 45.6383C79.3217 45.1182 78.3587 44.6021 77.519 43.8659C76.4397 42.9197 75.3068 42.0286 74.1743 41.1379C73.8505 40.8831 73.5266 40.6286 73.204 40.3726C72.905 40.1352 72.9589 39.9885 73.216 39.7641C74.0778 39.0119 74.5402 38.0815 74.6655 36.9589C74.6732 36.8904 74.6758 36.8151 74.6784 36.7367C74.6904 36.3827 74.7045 35.9691 75.2008 35.8589C75.6779 35.7527 76.0335 36.05 76.3183 36.3796C76.501 36.5914 76.6756 36.8099 76.8502 37.0283C77.0673 37.3 77.2843 37.5715 77.5173 37.8302L77.561 37.8789C78.0063 38.3745 78.4968 38.9202 79.2709 38.6648C80.3534 38.308 81.4457 38.2415 82.5707 38.2288C82.8905 38.2251 83.3347 37.9969 83.4985 37.7416C83.7694 37.3194 83.9695 36.8558 84.1696 36.3925L84.1701 36.3915L84.1705 36.3905L84.1709 36.3894C84.2479 36.2108 84.3251 36.0322 84.4062 35.8562C84.6934 35.2331 84.992 35.0003 85.7109 35.2499C86.0232 35.3586 86.4367 35.4449 86.7192 35.3377C87.279 35.1253 87.3847 35.3827 87.5417 35.7645C87.5482 35.7801 87.5546 35.7958 87.5613 35.8116C87.9278 36.6974 88.3006 37.5857 89.1853 38.1633C89.7685 38.5441 90.4285 38.6495 91.0893 38.7551C91.1506 38.7649 91.212 38.7747 91.2733 38.7847C91.8479 38.8787 92.4244 38.9628 93.0007 39.0471C93.8297 39.1682 94.6591 39.2891 95.4823 39.4391C97.6267 39.8295 99.4646 40.8805 101.04 42.2402C102.14 43.1898 103.029 44.3858 103.895 45.552L103.92 45.5858C104.55 46.4327 105.061 47.3631 105.57 48.288C105.629 48.3948 105.687 48.5014 105.746 48.6078C105.904 48.8941 106.064 49.1801 106.223 49.4662C106.951 50.7731 107.681 52.0817 108.298 53.4354C109.013 55.0022 109.665 56.5952 110.317 58.1884C110.633 58.9619 110.949 59.7353 111.273 60.5059C111.381 60.7636 111.416 60.927 111.087 61.0748C110.857 61.1781 110.637 61.3044 110.418 61.4304ZM68.4487 26.507C68.5289 26.3347 68.6089 26.1625 68.6904 25.9908C69.3272 24.5916 69.877 23.3002 69.9561 21.822C70.0297 20.447 69.6599 19.193 69.2833 17.9152C69.2614 17.8413 69.2397 17.7672 69.2179 17.6932C69.0999 17.2909 69.0405 16.8735 68.9809 16.4556C68.9302 16.0994 68.8794 15.7425 68.7923 15.3949C68.5899 14.5878 68.7539 13.8217 68.9178 13.0565C69.0023 12.6607 69.087 12.2656 69.1209 11.8649C69.2262 10.6243 69.5312 9.43976 69.9722 8.28652C70.5438 6.79114 71.4185 5.44985 72.3731 4.14621C73.0998 3.15379 74.0461 2.44785 75.1213 1.84667C75.5517 1.60603 75.988 1.30504 76.2797 0.930782C76.4995 0.648814 76.6831 0.545685 77.022 0.550186C77.3933 0.555097 77.765 0.549777 78.1367 0.544457C78.7576 0.535454 79.3781 0.526451 79.9956 0.565329C82.2494 0.706518 84.3931 1.24222 86.3074 2.43209L86.3983 2.48857C87.0988 2.92359 87.8122 3.3666 88.404 3.91826C89.1583 4.62154 89.8365 5.40074 90.5128 6.17789C90.6185 6.29944 90.7242 6.42078 90.83 6.54191C90.9486 6.67737 90.9797 6.89202 91.0088 7.09235C91.0146 7.13184 91.0202 7.17072 91.0264 7.20837C91.1856 8.17111 91.3361 9.13488 91.4867 10.0989L91.5549 10.5341C91.5862 10.7344 91.618 10.9347 91.6499 11.1351C91.7465 11.7416 91.8428 12.3489 91.9255 12.957C91.9539 13.1645 91.9822 13.372 92.0107 13.5795C92.1797 14.8139 92.3487 16.0486 92.4802 17.2868C92.5529 17.9731 92.5703 18.6651 92.5874 19.3561C92.5913 19.508 92.5949 19.66 92.5994 19.8116C92.6085 20.1306 92.6183 20.4496 92.6282 20.7686V20.7697V20.7709V20.7721C92.667 22.0316 92.7058 23.2912 92.7065 24.5509C92.7076 26.4321 92.2728 28.2557 91.689 30.0368C91.3301 31.1317 90.8814 32.2004 90.4336 33.2677C90.3542 33.457 90.2745 33.6465 90.1955 33.836C90.131 33.9907 89.8809 34.1331 89.6924 34.1716C89.1699 34.2782 88.6362 34.3494 88.1035 34.3868C87.8881 34.4022 87.622 34.3471 87.4529 34.2282C87.2443 34.0815 87.2065 34.0784 87.0924 34.308C86.8226 34.8505 86.4981 34.9802 85.8729 34.7686C85.3173 34.5806 84.7751 34.5133 84.3571 34.9516C84.1257 35.194 83.9721 35.5098 83.8222 35.8186C83.7947 35.875 83.7675 35.9313 83.7398 35.9867C83.6669 36.1328 83.6234 36.2922 83.5798 36.4519C83.5573 36.5343 83.5348 36.6172 83.5082 36.698C83.2484 37.4864 82.9188 37.7594 82.0746 37.7068C81.154 37.6497 80.2618 37.7756 79.4135 38.0563C78.6988 38.2928 78.3647 37.9245 78.005 37.5282C77.9683 37.4876 77.9312 37.4469 77.8937 37.4064C77.7916 37.2967 77.6897 37.1869 77.588 37.0768C77.0958 36.5445 76.6027 36.0119 76.0674 35.5221C75.867 35.3387 75.4805 35.2644 75.1824 35.2712C74.8714 35.2783 74.5619 35.3285 74.2522 35.3786C74.0508 35.4111 73.8492 35.4437 73.6469 35.4646C73.2154 35.5092 72.8767 35.2783 72.7487 34.9303C72.5696 34.4437 72.4692 33.9223 72.4079 33.4079C72.3637 33.0382 72.2247 32.7574 71.8564 32.694C70.9492 32.5378 70.4492 31.9942 70.0175 31.2569C69.712 30.7351 69.3225 30.2578 68.9332 29.7808L68.9326 29.78C68.7846 29.5987 68.6366 29.4172 68.4933 29.2336C68.3983 29.1117 68.2943 28.9965 68.1903 28.8811C68.0935 28.7736 67.9966 28.6662 67.9069 28.5537C67.707 28.3022 67.697 28.0431 67.8505 27.7473C68.0618 27.3394 68.2553 26.923 68.4487 26.507ZM92.9548 16.4094L92.9385 16.1376C92.824 15.5037 93.1466 15.3026 93.5846 15.0624C94.1976 14.7262 94.8015 14.4387 95.5149 14.4868C95.8577 14.5101 96.1448 14.6721 95.8559 15.0632C95.3661 15.7263 94.8657 16.383 94.3541 17.0312C94.1223 17.3251 93.875 17.6078 93.6277 17.8908C93.541 17.9901 93.4537 18.0897 93.3677 18.1896C93.3373 18.2248 93.2997 18.254 93.262 18.2835C93.2556 18.2886 93.2491 18.2937 93.2427 18.2989C93.2317 18.3074 93.221 18.316 93.2105 18.325C93.1955 18.3058 93.18 18.2868 93.1646 18.268C93.1254 18.2199 93.0861 18.1716 93.0535 18.1198C93.0428 18.103 93.0456 18.0791 93.0481 18.0547C93.0496 18.041 93.0511 18.0273 93.0505 18.0146C93.0188 17.4795 92.9868 16.9445 92.9548 16.4094ZM68.6203 18.3154C68.6049 18.3396 68.5894 18.3635 68.5781 18.3868C68.2731 18.2479 67.9902 18.0822 67.7101 17.9183C67.4649 17.7748 67.2219 17.6322 66.9682 17.5102C66.3944 17.2348 66.1926 16.7345 66.0088 16.2371C65.7973 15.665 66.2679 15.1182 66.9057 15.1223C66.9343 15.1225 66.9628 15.1227 66.9913 15.1227C67.2187 15.1235 67.4495 15.1244 67.6682 15.17C68.0976 15.2598 68.1403 15.5774 68.1815 15.8835C68.1941 15.9784 68.2068 16.0724 68.2306 16.1579C68.3842 16.7055 68.4961 17.2641 68.6081 17.8219C68.6313 17.9373 68.6544 18.0527 68.678 18.1681C68.6868 18.2119 68.6536 18.2637 68.6203 18.3154ZM102.63 68.7284C103.518 70.0843 104.408 71.4444 105.315 72.8196C105.546 73.0402 105.774 73.2588 106 73.4757C106.497 73.9526 106.986 74.421 107.48 74.8826C108.669 75.9911 110.082 76.2622 111.675 75.9139C113.058 75.6113 114.323 75.0754 115.436 74.2356C115.612 74.1026 115.794 73.9729 115.976 73.8432C116.511 73.4615 117.05 73.0781 117.459 72.5976C118.394 71.5015 119.253 70.3304 120.004 69.1121C121.006 67.4862 122.002 65.8367 122.767 64.1034C123.481 62.4877 124.074 60.8237 124.668 59.1599L124.668 59.1589C124.889 58.5393 125.11 57.9197 125.337 57.3026L125.406 57.1166L125.456 56.9799L125.498 56.8653L125.587 56.6265L125.587 56.6255C126.057 55.3552 126.526 54.0843 126.942 52.798C127.144 52.1735 127.315 51.539 127.485 50.9049C127.704 50.0884 127.923 49.2722 128.21 48.4777C128.538 47.5655 128.947 46.6797 129.356 45.7938C129.567 45.3351 129.779 44.8761 129.98 44.4137C130.191 43.9269 130.403 43.4405 130.614 42.9541C131.424 41.0955 132.233 39.2368 133.001 37.3628C133.306 36.6198 133.519 35.8421 133.731 35.066L133.732 35.0649L133.732 35.0639L133.732 35.0629L133.732 35.0619L133.733 35.0608C133.788 34.8583 133.844 34.6555 133.901 34.4539C133.927 34.3616 133.875 34.2493 133.823 34.1368C133.799 34.0848 133.775 34.0328 133.759 33.9827C133.702 33.9999 133.642 34.0126 133.582 34.0255C133.452 34.0531 133.322 34.0807 133.23 34.1533C132.656 34.608 132.26 35.184 131.998 35.8566C131.863 36.201 131.683 36.5298 131.504 36.8576C131.466 36.9258 131.429 36.9939 131.392 37.062C131.37 37.1036 131.309 37.1263 131.249 37.149C131.221 37.1596 131.193 37.1701 131.169 37.1826C131.168 37.1596 131.166 37.1361 131.164 37.1126C131.159 37.0622 131.155 37.0119 131.168 36.9665C131.277 36.6117 131.389 36.2579 131.501 35.9041L131.502 35.9031L131.502 35.9018L131.502 35.9002L131.503 35.899C131.743 35.1433 131.983 34.3872 132.183 33.6223C132.347 32.9964 132.4 32.339 132.443 31.6919C132.475 31.2238 132.026 30.9526 131.632 31.1966C131.427 31.323 131.258 31.5023 131.089 31.6813C131.021 31.7535 130.953 31.8258 130.883 31.8943C130.828 31.9487 130.778 32.0083 130.728 32.0678C130.705 32.0951 130.682 32.1223 130.659 32.1489C130.647 32.1178 130.634 32.0871 130.621 32.0562C130.591 31.9884 130.562 31.9207 130.548 31.8501C130.502 31.6166 130.467 31.3809 130.434 31.1454C130.372 30.701 130.104 30.277 129.692 30.2682C129.413 30.2621 129.015 30.6494 128.857 30.9502C128.378 31.863 127.957 32.8069 127.576 33.7617C127.281 34.5037 127.017 35.2577 126.754 36.0115C126.634 36.3551 126.514 36.699 126.391 37.0414C126.364 37.1158 126.333 37.1889 126.301 37.2619C126.287 37.2957 126.272 37.3297 126.258 37.3636C126.229 37.3426 126.197 37.3233 126.166 37.3039C126.098 37.2622 126.029 37.2204 125.984 37.1623C125.515 36.557 124.845 36.2382 124.164 35.9143L124.082 35.875C123.461 35.5791 122.847 35.6604 122.303 35.9168C121.566 36.2642 121.591 37.5251 122.239 38.09C123.237 38.9611 123.928 39.9981 124.223 41.2695C124.623 42.9959 124.244 44.5561 123.175 45.9852L123.094 46.0924L123.017 46.1961L123.015 46.1978C122.482 46.909 121.948 47.6215 121.458 48.3592C120.202 50.2503 118.957 52.1494 117.742 54.0647L117.669 54.1778C116.545 55.9486 115.42 57.721 114.381 59.5373C113.911 60.3584 113.53 61.2264 113.149 62.0938C113.015 62.4001 112.88 62.7062 112.742 63.0103C112.619 63.2818 112.531 63.3772 112.296 63.1009C112.12 62.8945 111.919 62.7005 111.698 62.538C111.631 62.4883 111.528 62.4816 111.425 62.4748C111.379 62.4717 111.332 62.4687 111.289 62.4615C111.286 62.492 111.279 62.5266 111.272 62.5612C111.256 62.6358 111.24 62.7107 111.272 62.7447C111.314 62.7895 111.355 62.8347 111.397 62.8802C111.614 63.1157 111.834 63.3543 112.097 63.5315C112.917 64.0848 113.015 64.0205 113.377 63.1083C113.397 63.0598 113.416 63.0115 113.435 62.963C113.461 62.8967 113.487 62.8306 113.513 62.7643C113.827 61.9669 114.143 61.1638 114.572 60.4239C115.736 58.4147 116.965 56.4387 118.202 54.4688C119.425 52.5208 120.67 50.5844 121.945 48.6671C122.233 48.2342 122.553 47.8194 122.872 47.4048C123.32 46.8243 123.768 46.2438 124.126 45.6162C125.455 43.2838 125.26 40.9629 123.712 38.7663C123.559 38.5484 123.36 38.3589 123.161 38.1696C122.942 37.9611 122.723 37.7528 122.566 37.5077C122.397 37.2433 122.379 36.7643 122.521 36.4907C122.618 36.3062 123.158 36.1756 123.423 36.2544C124.698 36.6336 125.91 37.1265 126.178 38.6082C126.191 38.6775 126.276 38.735 126.36 38.7925C126.4 38.8193 126.439 38.8461 126.471 38.874C126.486 38.8519 126.504 38.8302 126.521 38.8087C126.559 38.762 126.596 38.7154 126.613 38.6628C126.771 38.1684 126.923 37.6724 127.075 37.1764L127.145 36.9454C127.26 36.5709 127.371 36.1953 127.482 35.8196L127.482 35.8186L127.483 35.8175L127.483 35.8163L127.484 35.8153L127.484 35.814C127.745 34.9301 128.006 34.0455 128.316 33.1773C128.511 32.6324 128.793 32.1155 129.075 31.5999C129.163 31.4399 129.251 31.2796 129.335 31.119C129.393 31.0087 129.546 30.932 129.673 30.8743C129.706 30.8593 129.855 30.9686 129.864 31.0314C129.878 31.1401 129.898 31.2506 129.918 31.3613C129.973 31.6705 130.03 31.9823 129.963 32.2663C129.826 32.8423 129.639 33.4071 129.452 33.9722C129.346 34.2927 129.24 34.6135 129.143 34.9364C128.922 35.672 128.719 36.413 128.539 37.1584C128.523 37.2225 128.597 37.3059 128.67 37.3896C128.704 37.4283 128.738 37.467 128.763 37.5038C128.797 37.4756 128.837 37.4494 128.877 37.423C128.963 37.3661 129.049 37.309 129.077 37.2329C129.257 36.7344 129.422 36.2309 129.587 35.7273L129.587 35.7261L129.587 35.7248L129.588 35.7236C129.645 35.5493 129.702 35.3741 129.76 35.2C130.146 34.034 130.556 32.8792 131.47 31.9688C131.527 31.9121 131.603 31.873 131.68 31.834C131.697 31.8252 131.714 31.8164 131.731 31.8074C131.749 31.7977 131.767 31.7879 131.784 31.7777C131.796 31.8186 131.813 31.8606 131.83 31.9025C131.866 31.9929 131.903 32.0834 131.884 32.1613C131.563 33.4601 131.229 34.7557 130.888 36.0498C130.838 36.2409 130.779 36.4304 130.719 36.6196C130.624 36.9245 130.529 37.2292 130.471 37.5404C130.445 37.6786 130.509 37.8318 130.572 37.9853C130.601 38.0551 130.63 38.1248 130.651 38.1932C130.707 38.1739 130.771 38.16 130.835 38.1461C130.974 38.1156 131.113 38.0851 131.18 38.0019C131.521 37.5765 131.836 37.1271 132.11 36.6593C132.271 36.3843 132.41 36.0985 132.55 35.8124C132.667 35.5744 132.783 35.336 132.912 35.1044C132.958 35.0211 133.056 34.9643 133.155 34.9074C133.2 34.8812 133.246 34.8552 133.286 34.8263C133.281 34.8691 133.279 34.9131 133.277 34.9569C133.273 35.0514 133.269 35.1462 133.235 35.2305L133.169 35.3964L133.087 35.6047C132.733 36.4983 132.38 37.3923 131.999 38.2754C131.843 38.6391 131.668 38.9951 131.493 39.3511C131.322 39.6974 131.152 40.0436 130.999 40.3965C130.714 41.0538 130.439 41.7151 130.164 42.3767C129.674 43.5551 129.184 44.7335 128.637 45.8874C127.863 47.5215 127.244 49.1977 126.727 50.9155C126.521 51.6 126.309 52.2838 126.072 52.9591C125.82 53.6804 125.558 54.3988 125.297 55.1174C124.785 56.5224 124.274 57.9279 123.828 59.3513C123.171 61.4466 122.44 63.5079 121.471 65.4891C120.438 67.6008 119.163 69.5846 117.678 71.4235C116.98 72.2876 116.099 73.0885 115.135 73.6664C114.035 74.3257 112.856 74.9342 111.538 75.1869C110.661 75.3549 109.777 75.4533 108.973 75.0109C107.493 74.1972 106.388 72.9834 105.412 71.6836C104.676 70.7039 103.981 69.6971 103.285 68.6902C102.885 68.1109 102.484 67.5314 102.076 66.9572C102.01 66.8635 101.894 66.8019 101.778 66.7401C101.724 66.7117 101.67 66.6831 101.621 66.6511C101.619 66.7045 101.616 66.7579 101.613 66.8113C101.605 66.9534 101.597 67.0958 101.604 67.237C101.606 67.2668 101.641 67.293 101.678 67.3207C101.707 67.3419 101.737 67.3642 101.754 67.3898C102.045 67.8351 102.337 68.2803 102.629 68.7262L102.63 68.7274L102.63 68.7284ZM97.8779 97.9075C97.8118 98.2386 97.7573 98.5692 97.7033 98.8968C97.5742 99.6817 97.4478 100.449 97.1699 101.163C96.6587 102.475 95.4757 103.268 94.1096 103.671C92.7665 104.068 91.3878 104.358 90.0119 104.648L90.0006 104.65L89.9849 104.654C89.8324 104.686 89.6799 104.718 89.5274 104.75C89.1622 104.828 88.781 104.839 88.4003 104.85C88.2495 104.855 88.0988 104.859 87.949 104.868C87.1939 104.911 86.4387 104.954 85.6835 104.996C84.5396 105.06 83.3958 105.124 82.2522 105.192C81.7863 105.22 81.3209 105.253 80.8552 105.287C80.2858 105.329 79.7161 105.37 79.146 105.401C79.0555 105.405 78.965 105.41 78.8745 105.415L78.8713 105.415L78.8679 105.415C77.9666 105.464 77.0636 105.512 76.1624 105.499C75.5339 105.49 74.9061 105.417 74.2792 105.345C74.1151 105.326 73.9508 105.307 73.787 105.289C73.7209 105.282 73.6611 105.222 73.6012 105.162C73.5736 105.135 73.5459 105.107 73.5176 105.084C73.5395 105.062 73.5605 105.034 73.5815 105.007C73.6274 104.947 73.6731 104.887 73.7286 104.877C73.7868 104.867 73.8451 104.856 73.9039 104.844C74.1666 104.793 74.4349 104.741 74.6893 104.772C76.4476 104.989 78.1918 104.847 79.9394 104.659C80.7939 104.568 81.6529 104.511 82.5115 104.455L82.708 104.442C83.304 104.403 83.9007 104.371 84.4976 104.339L84.4987 104.339H84.4997H84.501L84.5021 104.338C85.6358 104.277 86.7698 104.216 87.8986 104.107C90.0894 103.897 92.2565 103.521 94.3067 102.718C95.4917 102.254 96.3074 101.371 96.6167 100.207L96.6482 100.089C96.9895 98.8058 97.3365 97.5021 97.1988 96.1526C97.1666 95.8379 97.1119 95.524 97.0575 95.2106C96.9738 94.7299 96.8904 94.2499 96.8882 93.7688C96.8857 93.1363 96.9343 92.5038 96.983 91.8711C97.0255 91.3197 97.0682 90.7684 97.0766 90.2168C97.0841 89.7249 97.0167 89.2317 96.9492 88.739C96.9206 88.5293 96.8919 88.3193 96.8689 88.1098C96.849 87.9281 96.8305 87.746 96.8119 87.5641C96.7626 87.0791 96.713 86.5931 96.6388 86.1117C96.3711 84.3795 96.2675 82.6407 96.2978 80.8901C96.3057 80.4314 96.2757 79.9722 96.2459 79.513C96.2255 79.2018 96.2053 78.8902 96.1968 78.5787C96.1777 77.8789 96.1642 77.1791 96.1504 76.4791V76.4781C96.1311 75.4799 96.1116 74.4812 96.0762 73.4834C96.0473 72.6637 95.9979 71.8446 95.9486 71.0255C95.9171 70.5003 95.8853 69.9748 95.8592 69.4493C95.8377 69.019 95.8225 68.5885 95.8072 68.1578V68.1565C95.789 67.6384 95.7708 67.1203 95.7416 66.6028C95.7208 66.2349 95.685 65.8666 95.6494 65.4985C95.5825 64.8063 95.5156 64.1144 95.5473 63.4265C95.5818 62.68 95.7195 61.9377 95.8574 61.1955C95.919 60.8642 95.9806 60.5331 96.0329 60.2015C96.0678 59.9799 96.1039 59.7584 96.1397 59.5368C96.2371 58.9353 96.3347 58.3335 96.414 57.7296C96.4588 57.3887 96.4919 57.0464 96.5249 56.7043C96.5631 56.3081 96.6015 55.9122 96.6579 55.5187C96.6703 55.4315 96.7735 55.356 96.8767 55.2807C96.9243 55.2459 96.9719 55.2111 97.0105 55.1751C97.0311 55.2165 97.0583 55.2584 97.0856 55.3006C97.1445 55.391 97.2033 55.4817 97.1937 55.5651C97.0622 56.7037 96.9118 57.8403 96.7546 58.976C96.6958 59.3993 96.6231 59.8221 96.5504 60.2448C96.3999 61.1214 96.2491 61.9976 96.224 62.8775C96.1882 64.1324 96.2669 65.3907 96.3454 66.6485C96.3724 67.081 96.3994 67.5136 96.4217 67.946C96.4546 68.5801 96.4996 69.2134 96.5446 69.8467L96.5449 69.8479V69.849C96.579 70.3272 96.6128 70.8058 96.6416 71.2842C96.6613 71.6103 96.681 71.9365 96.7008 72.2627L96.701 72.2647V72.2666L96.7012 72.2686C96.7999 73.8943 96.8983 75.5209 96.9747 77.1476C97.0026 77.7439 97.0131 78.3412 97.0238 78.9382C97.0377 79.7189 97.0515 80.5003 97.1042 81.2785C97.1666 82.2013 97.2726 83.1215 97.3785 84.0419L97.3788 84.0431L97.379 84.0446C97.4345 84.5269 97.4901 85.0096 97.5394 85.4923C97.6237 86.3185 97.7007 87.1456 97.7627 87.9735C97.7721 88.1014 97.7824 88.2295 97.7927 88.3576C97.8386 88.9285 97.8845 89.5006 97.8678 90.0703C97.8504 90.6551 97.8129 91.2395 97.7753 91.8239C97.726 92.5902 97.6769 93.3565 97.6735 94.1228C97.6715 94.5177 97.7483 94.912 97.8253 95.3071C97.8858 95.618 97.9465 95.9294 97.969 96.2421C97.995 96.601 97.9604 96.964 97.9246 97.3435C97.907 97.5271 97.8894 97.7147 97.8779 97.9075ZM56.599 99.8653C57.0704 101.772 58.3621 103.187 60.0183 104.36L60.1562 104.413C60.8784 104.688 61.5731 104.954 62.2817 105.179C62.4175 105.222 62.5764 105.198 62.7353 105.175C62.8083 105.164 62.8814 105.153 62.952 105.149C62.9112 105.108 62.8705 105.067 62.8299 105.025C62.7107 104.904 62.5914 104.782 62.466 104.667C62.4499 104.652 62.4188 104.655 62.386 104.657C62.3579 104.659 62.3285 104.661 62.3062 104.653C62.1209 104.582 61.9265 104.521 61.7322 104.46C61.2874 104.322 60.8423 104.183 60.5041 103.919C59.6792 103.277 58.927 102.521 58.2692 101.719C57.6191 100.927 57.2877 99.9752 57.3488 98.931C57.3709 98.5533 57.3829 98.1747 57.3947 97.7962C57.4115 97.2613 57.4282 96.7266 57.4741 96.194C57.5088 95.7892 57.5749 95.387 57.641 94.9847C57.6993 94.6297 57.7576 94.2746 57.7945 93.9178C57.8752 93.1369 57.9254 92.3528 57.9758 91.5691V91.5681L57.976 91.5669C57.988 91.3803 57.9998 91.1938 58.0122 91.0072C58.0169 90.936 57.968 90.8368 57.9093 90.7944C57.861 90.7592 57.7244 90.7584 57.6905 90.7954C57.6669 90.8212 57.6416 90.8476 57.6157 90.8744C57.5028 90.9913 57.3821 91.1163 57.3651 91.2489C57.2941 91.8026 57.2448 92.3586 57.1953 92.9147V92.9159C57.1727 93.1684 57.1504 93.4212 57.126 93.6735C57.1185 93.7494 57.102 93.8245 57.0855 93.8998C57.073 93.9568 57.0604 94.0139 57.0518 94.0714C57.0042 94.3919 56.9527 94.7119 56.9012 95.0321C56.7768 95.8062 56.6524 96.5805 56.5814 97.3591C56.5761 97.4182 56.5705 97.4778 56.5649 97.5375C56.4924 98.3159 56.4167 99.1276 56.599 99.8653ZM85.7819 46.634C86.086 46.4319 86.3923 46.2346 86.6978 46.038C87.9143 45.2545 89.1154 44.4808 90.0999 43.4556C90.6189 42.9152 91.0792 42.3233 91.5393 41.7315C91.7417 41.471 91.9444 41.2103 92.152 40.9541C92.1752 40.9257 92.1947 40.8919 92.2142 40.8586C92.2494 40.798 92.2842 40.7383 92.3376 40.7127C92.4457 40.6607 92.566 40.6319 92.6861 40.6028C92.7363 40.5909 92.7865 40.5789 92.8356 40.5652C92.8197 40.6124 92.8073 40.6619 92.7948 40.7117C92.7682 40.8191 92.7414 40.9265 92.6786 41.0088C92.5495 41.178 92.421 41.3478 92.2925 41.5179C91.7741 42.2034 91.2553 42.8895 90.6901 43.5385C90.1807 44.1237 89.619 44.6899 88.9912 45.1544C87.9014 45.9606 86.7814 46.7435 85.6017 47.4216C84.3114 48.1634 82.957 48.8114 81.5946 49.4279C80.9194 49.7334 80.1833 49.6937 79.5147 49.2783C77.4935 48.0222 75.5228 46.7032 73.8427 45.0351C73.378 44.5735 72.9484 44.0763 72.5421 43.5667C72.4763 43.4843 72.4851 43.3478 72.4937 43.2111C72.4977 43.1483 72.5016 43.0855 72.4984 43.0278C72.5586 43.0386 72.626 43.0431 72.6931 43.0476C72.8392 43.0574 72.9855 43.0673 73.061 43.1419C73.2645 43.3435 73.4507 43.5614 73.6368 43.7791C73.8528 44.0314 74.0684 44.2835 74.3107 44.5103C74.936 45.0951 75.5934 45.6539 76.2801 46.172C77.1035 46.7934 77.9505 47.3866 78.7971 47.9798C78.9852 48.1114 79.1731 48.2432 79.3609 48.3751C79.4847 48.4621 79.6181 48.537 79.7515 48.6117C79.8907 48.6894 80.0301 48.7678 80.1582 48.8595C80.6929 49.2423 81.1534 48.9915 81.5757 48.7615C81.6806 48.7044 81.7831 48.6485 81.8837 48.6041C82.8851 48.1613 83.8533 47.65 84.8356 47.1311L84.8367 47.1304L84.8386 47.1294C85.1511 46.9645 85.4651 46.7985 85.7819 46.634ZM128.941 41.232C129.106 41.0376 129.275 40.84 129.451 40.6364C129.57 40.6237 129.684 40.6222 129.794 40.6208C129.916 40.6194 130.032 40.6179 130.147 40.6014C130.243 40.5875 130.333 40.5351 130.424 40.4827C130.464 40.4592 130.504 40.4356 130.545 40.4156C130.513 40.3798 130.483 40.3378 130.453 40.2961C130.387 40.2056 130.322 40.1152 130.233 40.0837C129.399 39.787 127.926 40.8786 127.971 41.7561C127.975 41.8381 128.024 41.9179 128.074 41.9979C128.097 42.035 128.12 42.0718 128.139 42.109C128.167 42.082 128.197 42.0556 128.226 42.0294C128.29 41.9719 128.355 41.9138 128.411 41.8496C128.587 41.6458 128.762 41.4409 128.941 41.232ZM87.1291 26.4995C87.3987 26.5604 87.6404 26.6482 87.8821 26.736C87.8454 26.7943 87.8124 26.8561 87.7794 26.9181C87.7082 27.0513 87.6368 27.1847 87.5306 27.284C86.2278 28.5009 84.6411 29.2119 82.8759 29.5651C82.662 29.6079 82.4235 29.5518 82.1906 29.4972C82.1203 29.4804 82.0501 29.464 81.9815 29.4505C81.9178 29.4378 81.8217 29.2723 81.8333 29.2606C81.8582 29.2353 81.8837 29.2072 81.9094 29.1788C82.0042 29.0746 82.1053 28.9633 82.2183 28.9472C83.9876 28.6944 85.4716 27.9191 86.7537 26.7546C86.8142 26.6996 86.8856 26.6552 86.9644 26.6065C87.0165 26.5744 87.0716 26.54 87.1291 26.4995ZM126.611 42.1025C126.876 41.4751 126.662 40.8805 126.42 40.2617C126.391 40.2296 126.362 40.1981 126.334 40.1666C126.299 40.1287 126.266 40.0915 126.232 40.0544C126.057 39.8602 125.892 39.6775 125.719 39.5021C125.708 39.4907 125.498 39.6208 125.505 39.6354C125.592 39.832 125.695 40.0231 125.805 40.2091C126.145 40.78 126.189 41.4 126.177 42.0376C126.175 42.1264 126.231 42.2162 126.286 42.3061C126.311 42.3476 126.337 42.3889 126.357 42.4303C126.384 42.3961 126.415 42.363 126.445 42.3298C126.51 42.2578 126.576 42.186 126.611 42.1025ZM78.2604 5.24032C78.4801 5.33792 78.6952 5.4433 78.9084 5.54766C79.4431 5.80957 79.9664 6.06596 80.5222 6.17994L80.6088 6.19774C81.4399 6.36881 82.3345 6.55276 83.1699 6.11998C83.4627 5.96836 83.7381 5.78154 84.0049 5.59002C84.1675 5.47318 84.314 5.3281 84.442 5.17586C85.4576 3.96819 86.207 4.14846 87.6052 4.93707C89.3944 5.94585 90.046 7.66795 90.6758 9.38104C90.9906 10.237 91.1884 11.1346 91.3853 12.0274L91.3855 12.0288C91.4119 12.1481 91.4382 12.2678 91.4648 12.3867C91.5948 12.9701 91.6497 13.5717 91.698 14.168C91.7552 14.8751 91.7823 15.585 91.8093 16.2942L91.8142 16.4245C91.829 16.8127 91.837 17.2013 91.8447 17.59C91.8599 18.3471 91.8751 19.1049 91.9421 19.8579C92.0444 21.0097 91.8515 22.1198 91.5822 23.221C91.272 24.4891 90.2616 25.1005 89.0369 25.3855C88.5211 25.5054 87.9827 25.5402 87.4454 25.5748C87.2599 25.5867 87.0742 25.5987 86.8899 25.6141C84.9937 25.7731 83.1095 25.9969 81.2776 26.515C80.7094 26.6756 80.1665 26.6018 79.6902 26.2996C78.7284 25.6896 77.6421 25.4667 76.5343 25.2957C74.4682 24.9771 72.507 24.4393 70.9929 22.9401C70.5931 22.5443 70.3368 22.1208 70.3626 21.5247C70.4082 20.4678 70.2482 19.4275 70.0884 18.3883C69.9973 17.7947 69.9061 17.2015 69.8534 16.6058C69.6936 14.8047 69.7637 12.9953 70.3409 11.2016C70.9846 9.20077 71.9667 7.43325 73.5247 5.99066C73.9526 5.59431 74.4697 5.28615 74.9872 4.97758C75.2397 4.82719 75.4923 4.67659 75.7347 4.51575L75.7754 4.48874C76.0405 4.31297 76.3084 4.13516 76.5422 3.92521C76.898 3.60539 77.114 3.77441 77.3362 4.06825C77.6016 4.41938 77.8774 4.76293 78.1712 5.129L78.2604 5.24032ZM89.7391 8.48009C89.7095 8.41256 89.6795 8.34524 89.6497 8.27772C89.5853 8.13285 89.5208 7.98716 89.4588 7.84126C88.8679 6.44922 87.8238 5.47236 86.394 4.88489C86.1718 4.79363 85.7853 4.84662 85.585 4.98167C85.4184 5.09401 85.3013 5.2706 85.1833 5.44862C85.1164 5.5495 85.0492 5.65058 84.9727 5.74102C84.2887 6.54805 83.4867 7.1789 82.3161 7.07945C81.5916 7.01786 80.8598 6.92906 80.1584 6.7537C79.059 6.47889 78.058 5.98555 77.347 5.10608C77.3227 5.07621 77.2998 5.04777 77.2777 5.02035C76.8105 4.44004 76.8045 4.43267 76.1677 4.84049C75.9578 4.97492 75.7418 5.10363 75.5258 5.23254C74.9877 5.5538 74.4487 5.87546 73.9991 6.28532C72.4791 7.67163 71.4806 9.33807 70.8816 11.3106C70.3417 13.0884 70.3092 14.851 70.3977 16.6336C70.4696 18.0811 70.7111 19.5249 70.9522 20.9591C70.9575 20.9902 70.9627 21.0215 70.9678 21.0531L70.968 21.0541C71.0736 21.6892 71.1821 22.3426 71.7633 22.8343C72.8641 23.7655 74.1683 24.2666 75.5708 24.5333C75.7611 24.5695 75.9515 24.6043 76.1418 24.6393C77.4791 24.884 78.8084 25.1275 80.013 25.8138C80.2939 25.974 80.7193 26.0092 81.0547 25.9593C81.8093 25.8465 82.561 25.7154 83.3128 25.584C84.0918 25.4479 84.871 25.3121 85.6534 25.1966C86.0968 25.1312 86.5461 25.096 86.9952 25.0608C87.6082 25.0127 88.2204 24.9646 88.816 24.84C89.6362 24.6685 90.5584 24.4031 90.8244 23.4874C91.0828 22.5975 91.3057 21.6722 91.3411 20.7553C91.39 19.4877 91.334 18.2154 91.278 16.9449C91.2679 16.7139 91.2576 16.4828 91.2482 16.252C91.2287 15.7816 91.1873 15.312 91.1457 14.8422C91.1 14.3251 91.0543 13.8078 91.038 13.2899C90.9874 11.6759 90.4094 10.1962 89.8088 8.65872L89.7391 8.48009ZM88.5946 13.8213C87.6443 13.1129 86.5298 12.9678 85.3049 13.0853C85.191 13.1047 85.0945 13.1264 85.0051 13.1465C84.93 13.1633 84.8601 13.179 84.7897 13.1913C83.6322 13.392 82.6397 13.8428 81.9579 14.8119C81.8865 14.9136 81.619 14.9652 81.4715 14.93C80.8209 14.7745 80.2172 14.7614 79.7121 15.2631C79.6494 15.3251 79.5913 15.3914 79.5332 15.4577C79.5064 15.4882 79.4796 15.5185 79.4523 15.5485C79.442 15.5043 79.4279 15.4595 79.4137 15.4149C79.3833 15.3183 79.3528 15.222 79.3612 15.1289C79.4622 14.02 78.9056 13.3296 77.8917 12.8633C76.9431 12.427 75.9466 12.3339 74.9216 12.3352C73.3606 12.337 72.031 13.3014 71.4824 14.7118C71.1471 15.5731 71.2381 16.4104 71.527 17.206C71.8092 17.9825 72.1299 18.8127 72.9681 19.2432C73.0743 19.2976 73.1811 19.3549 73.2885 19.4124C73.781 19.676 74.288 19.9473 74.8122 20.0072C74.8592 20.0126 74.9064 20.0181 74.954 20.0236C75.7315 20.1145 76.5654 20.2121 77.3 19.7114C78.4102 18.9545 79.0158 17.8849 79.3371 16.6709C79.489 16.0981 79.7953 15.7534 80.3306 15.5244C81.1364 15.1798 81.6418 15.4831 81.7258 16.279C81.8243 17.2101 82.039 18.1259 82.611 18.9234C83.281 19.8579 84.1909 20.4261 85.3143 20.8214C86.6682 21.2976 87.6408 21.0074 88.6225 20.2501C90.4467 18.8429 90.6281 15.337 88.5946 13.8213ZM84.3577 13.8635C85.123 13.6458 85.9537 13.5754 86.7642 13.7814C87.6846 13.8475 88.289 14.3427 88.7351 14.9439C89.1827 15.5475 89.5885 16.2318 89.56 17.014C89.5293 17.8532 89.1986 18.6086 88.6459 19.269C88.1717 19.8354 87.554 20.1975 86.8211 20.3526C86.6673 20.3852 86.4946 20.3428 86.3241 20.3011C86.2632 20.2861 86.2027 20.2712 86.1433 20.2597C84.1928 19.8867 82.887 18.8677 82.4986 16.9355C82.4737 16.8121 82.4424 16.6899 82.4111 16.568C82.285 16.0781 82.1604 15.5936 82.4755 15.0701C82.9066 14.3538 83.6377 14.0683 84.3577 13.8635ZM78.68 15.1256C78.8016 16.1102 78.4674 16.9954 78.008 17.8513C77.9156 17.9684 77.8362 18.0799 77.7611 18.1853C77.6513 18.3394 77.5511 18.4804 77.4332 18.6062C76.7842 19.2999 76.0082 19.518 75.0235 19.3197C74.3335 19.1808 73.7194 19.0105 73.1457 18.5917C72.4544 18.0871 72.158 17.3907 71.9596 16.658C71.6437 15.4906 72.0741 14.5107 72.9511 13.6726C73.6596 12.9957 74.5553 12.9116 75.4501 12.9973C76.3114 13.08 77.1526 13.2838 77.9128 13.7702C78.4578 14.1188 78.6126 14.5807 78.68 15.1256ZM78.4569 11.0505C79.0281 11.0812 79.5023 11.0235 79.9347 10.6906C80.0138 10.6294 80.1801 10.6712 80.3463 10.7129C80.4224 10.7322 80.4988 10.7514 80.5666 10.7606C80.5346 10.7958 80.5037 10.832 80.4728 10.8684C80.4059 10.947 80.339 11.0256 80.2614 11.0927C79.5379 11.7166 78.7417 11.673 77.8611 11.4131C77.0913 11.1858 76.2829 11.0106 75.4818 10.9632C74.2788 10.8918 73.2499 11.3384 72.4454 12.2234C72.3759 12.2998 72.2684 12.3448 72.1608 12.3896C72.111 12.4105 72.0613 12.4313 72.0151 12.4553C72.0297 12.3933 72.0381 12.3262 72.0462 12.259C72.064 12.1144 72.0818 11.9699 72.164 11.8772C73.5064 10.363 75.2547 10.3002 77.1055 10.6779C77.3648 10.7309 77.6187 10.8073 77.8836 10.8866C78.0678 10.9419 78.257 10.9988 78.4569 11.0505ZM87.3174 11.4336C86.224 11.2736 85.1355 11.2916 84.1542 11.9877C84.0109 12.0886 83.8696 12.1854 83.7306 12.2803C83.4522 12.4708 83.1835 12.6548 82.9276 12.8539C82.8699 12.8989 82.8611 13.0008 82.8521 13.1029C82.848 13.1498 82.8439 13.1968 82.8351 13.2382C82.8735 13.2334 82.9139 13.2318 82.9542 13.2304C83.0432 13.2269 83.1324 13.2234 83.2006 13.1856C83.3964 13.0773 83.5742 12.937 83.7499 12.7984L83.7581 12.7919C84.847 11.9329 86.0569 11.586 87.451 11.9709C87.9357 12.1048 88.4248 12.2279 88.9181 12.326C88.9983 12.3419 89.0905 12.3014 89.183 12.2607C89.2254 12.2421 89.2681 12.2234 89.3093 12.2101C89.278 12.1784 89.2484 12.1414 89.219 12.1043C89.1549 12.0239 89.0907 11.9435 89.0077 11.9163C88.9018 11.8815 88.7958 11.8455 88.6899 11.8095C88.2384 11.6562 87.7841 11.5019 87.3174 11.4336ZM81.4039 22.644C80.7457 22.6886 80.1151 22.7252 79.4862 22.708C79.4028 22.7056 79.3223 22.6049 79.2421 22.5042C79.205 22.4578 79.1679 22.4113 79.1306 22.3745C79.1789 22.3551 79.2271 22.3309 79.2752 22.3068C79.38 22.2542 79.4849 22.2018 79.5922 22.1971C80.1715 22.1719 80.7525 22.1738 81.3325 22.1799C81.471 22.1815 81.6094 22.2026 81.7477 22.2239C81.8108 22.2335 81.8738 22.2431 81.9371 22.2511C81.7689 22.3729 81.5999 22.4952 81.4039 22.644ZM84.8832 14.9334C84.4834 15.3572 84.527 16.2494 84.996 16.6999C85.9471 16.7267 86.5176 15.817 86.0747 15.0515C85.8289 14.6265 85.2288 14.5672 84.8832 14.9334ZM76.4363 14.3705C76.6366 14.9347 76.5055 15.5189 76.0592 15.8336C75.9294 15.925 75.6006 15.9537 75.5093 15.8684C74.9932 15.3879 74.9068 14.5747 75.645 14.1528C75.9814 13.9605 76.2211 14.0495 76.4363 14.3705ZM112.812 11.7915C113.102 12.2073 113.394 12.6259 113.79 12.9842C113.816 13.7964 113.824 14.5539 113.605 15.2944C113.566 15.4272 113.595 15.5522 113.625 15.6785C113.649 15.7814 113.804 15.8555 113.895 15.8062C114.013 15.7423 114.129 15.6746 114.239 15.6001C114.313 15.5502 114.387 15.4994 114.461 15.4487C114.773 15.2332 115.086 15.0179 115.436 14.8559C115.478 14.8362 115.521 14.8168 115.563 14.7972C115.726 14.7231 115.888 14.6488 116.043 14.5621C116.214 14.4661 116.38 14.4526 116.564 14.5123C117.196 14.7184 117.849 14.8459 118.501 14.9733C118.606 14.9938 118.71 15.0141 118.814 15.0347C118.845 15.0411 118.876 15.0476 118.907 15.0544C118.987 15.0714 119.067 15.0885 119.147 15.098C119.407 15.1289 119.667 15.1528 119.928 15.1767C120.344 15.215 120.762 15.2535 121.175 15.3204C121.264 15.3349 121.358 15.341 121.447 15.3298C121.657 15.3032 121.868 15.2852 122.08 15.2672C122.502 15.2314 122.924 15.1954 123.336 15.0906C123.618 15.019 123.898 14.9388 124.177 14.8586C124.289 14.8266 124.401 14.7945 124.513 14.763C124.565 14.7485 124.617 14.7337 124.668 14.7192C124.965 14.6359 125.261 14.5526 125.556 14.4667C125.642 14.4417 125.728 14.411 125.808 14.3726C125.878 14.3392 125.948 14.3061 126.017 14.2731C126.596 13.9979 127.175 13.7231 127.699 13.3505C127.766 13.3036 127.833 13.258 127.9 13.2124C128.109 13.07 128.318 12.9279 128.497 12.7469C128.605 12.6372 128.726 12.5381 128.846 12.4397L128.848 12.4385C129.196 12.1535 129.475 11.8126 129.733 11.4549C130.056 11.0074 130.187 10.4899 130.319 9.97321L130.326 9.94334C130.311 9.75959 130.348 9.58259 130.385 9.40539C130.401 9.32825 130.417 9.2509 130.429 9.17294C130.594 8.08578 130.447 7.05756 129.768 6.1341C129.685 6.02136 129.616 5.89899 129.547 5.77663C129.519 5.7265 129.491 5.67657 129.462 5.62726C129.295 5.34242 129.108 5.0715 128.864 4.84028C128.33 4.33528 127.766 3.87038 127.102 3.52027C126.63 3.27186 126.138 3.06928 125.645 2.8663C125.534 2.82046 125.423 2.77463 125.311 2.72818C124.448 2.36763 123.548 2.16711 122.618 2.07687C122.331 2.04924 122.043 2.03492 121.755 2.0206C121.612 2.01344 121.469 2.00627 121.326 1.99747C120.531 1.94857 119.736 1.93179 118.941 1.99236C118.262 2.04413 117.585 2.10572 116.907 2.16731C116.771 2.17959 116.636 2.19187 116.501 2.20414C116.435 2.21008 116.368 2.23463 116.307 2.26205C115.989 2.40631 115.661 2.52663 115.333 2.64715C115.154 2.71283 114.975 2.77851 114.798 2.84809C114.025 3.15093 113.362 3.58554 112.892 4.26059C112.824 4.35819 112.75 4.4517 112.675 4.54501C112.612 4.624 112.549 4.70298 112.49 4.78462C112.062 5.3766 111.697 5.99906 111.546 6.7138C111.517 6.85396 111.499 6.99638 111.482 7.139C111.47 7.23313 111.459 7.32746 111.444 7.42097C111.368 7.89405 111.364 8.35895 111.464 8.83593C111.635 9.65277 111.988 10.3998 112.348 11.1471C112.358 11.1666 112.371 11.1848 112.384 11.2022C112.534 11.3933 112.673 11.592 112.812 11.7915ZM114.209 14.8506C114.206 14.851 114.202 14.8512 114.199 14.8516C114.196 14.8555 114.202 14.861 114.215 14.868C114.213 14.8622 114.211 14.8563 114.209 14.8506ZM114.265 14.8487C114.246 14.8489 114.227 14.8491 114.209 14.8506C114.171 14.7274 114.192 14.6028 114.228 14.4843C114.317 14.1946 114.356 13.8972 114.395 13.5997C114.418 13.4242 114.44 13.2486 114.474 13.0747C114.494 12.9652 114.469 12.8535 114.347 12.7996C113.96 12.629 113.707 12.3192 113.465 12.0063C113.263 11.7454 113.071 11.4729 112.914 11.1858C112.768 10.9188 112.66 10.6303 112.561 10.3432C112.433 9.97301 112.323 9.59691 112.221 9.21959C112.128 8.88196 112.119 8.5335 112.123 8.18625C112.123 8.11095 112.129 8.03565 112.134 7.96015C112.141 7.86213 112.148 7.76412 112.145 7.66631C112.108 6.59941 112.557 5.6866 113.131 4.81389C113.492 4.2655 114.01 3.86485 114.601 3.58084C115.288 3.25037 116.002 2.96063 116.762 2.80593C117.473 2.66127 118.188 2.54136 118.918 2.51803C119.188 2.50944 119.455 2.49552 119.721 2.40794C119.906 2.34758 120.116 2.34922 120.32 2.35065C120.345 2.35086 120.37 2.35106 120.395 2.35106C120.667 2.35188 120.94 2.36927 121.211 2.39792C121.235 2.40037 121.258 2.40303 121.282 2.40549C121.552 2.43434 121.82 2.46299 122.093 2.46626C122.275 2.46872 122.457 2.50657 122.637 2.54381C122.657 2.54811 122.677 2.55241 122.698 2.5565C123.174 2.65452 123.636 2.79816 124.099 2.9418C124.392 3.03306 124.685 3.12433 124.982 3.20372C125.152 3.28291 125.322 3.36169 125.492 3.44067C125.873 3.61706 126.253 3.79364 126.632 3.97371C127.37 4.32484 127.958 4.86197 128.544 5.39849L128.606 5.45537C129.011 5.82472 129.251 6.29616 129.429 6.78807C129.6 7.25768 129.718 7.74263 129.754 8.24559C129.814 9.08372 129.663 9.88093 129.351 10.6638C129.027 11.4792 128.503 12.1563 127.78 12.6654C126.847 13.3231 125.83 13.8555 124.721 14.2042C124.248 14.3529 123.775 14.5013 123.284 14.5991C122.544 14.7464 121.796 14.7589 121.046 14.7665C121.016 14.7669 120.985 14.7654 120.954 14.764C120.917 14.7624 120.88 14.7607 120.842 14.762C119.479 14.8105 118.186 14.4906 116.906 14.0939C116.784 14.056 116.661 14.0223 116.537 13.9885C116.464 13.9687 116.392 13.9488 116.32 13.9281C116.18 13.888 116.048 13.9105 115.93 13.9867C115.701 14.1338 115.456 14.2535 115.211 14.3734C114.931 14.5103 114.65 14.6474 114.394 14.8252C114.362 14.8475 114.314 14.8481 114.265 14.8487Z" fill="#00160A"/>
<path fill-rule="evenodd" clip-rule="evenodd" d="M98.0558 50.5931C98.1544 50.5087 98.2547 50.4229 98.3595 50.3377C98.4293 50.2481 98.5003 50.1627 98.5699 50.0789C98.7389 49.8758 98.8994 49.6832 99.0117 49.4666C99.2902 48.9296 99.1422 48.7361 98.5549 48.4784C98.2871 48.3609 98.0414 48.197 97.7953 48.0327C97.634 47.9251 97.4725 47.8172 97.3046 47.7223L97.2668 47.7009C97.0398 47.5723 96.792 47.4317 96.5446 47.4118C95.2501 47.3075 94.1407 48.9764 94.6563 50.1851C95.1893 51.4348 96.2519 51.8127 97.3639 51.1273C97.6074 50.9773 97.8267 50.7895 98.0558 50.5931ZM95.1257 49.6764C95.091 49.2551 95.1504 48.8694 95.4651 48.5529C95.5462 48.4923 95.615 48.4482 95.6753 48.4098C95.7337 48.3724 95.7844 48.3401 95.8303 48.3028C96.3747 47.8596 96.7241 47.8885 97.266 48.3185C97.5859 48.5726 97.9678 48.7701 98.3505 48.9256C98.6442 49.045 98.6743 49.2083 98.4933 49.378C98.3784 49.4859 98.2646 49.5971 98.1505 49.7085L98.1503 49.7088C97.7487 50.1012 97.3437 50.4969 96.8674 50.7674C96.1422 51.1794 95.1953 50.5223 95.1257 49.6764ZM62.1947 50.4749L62.2778 50.4029C62.7436 49.9988 63.1905 49.6112 63.6902 49.3063C64.2451 48.9678 64.8759 49.113 65.364 49.5591C66.1145 50.2451 66.6123 50.1654 67.1022 49.5799C67.1492 49.5237 67.2012 49.4676 67.2611 49.4255C67.3262 49.3797 67.3908 49.3293 67.4557 49.2786C67.7464 49.0511 68.0456 48.8173 68.445 48.9674C68.9377 49.1524 69.1357 49.5896 69.2912 50.0875C69.6453 51.2218 68.9252 52.185 68.0235 52.6873C66.9875 53.2644 65.8717 53.4898 64.727 53.657C63.9045 53.7773 62.3201 53.0787 61.9636 52.51C61.5036 51.776 61.7843 51.1523 62.1947 50.4749ZM67.1722 52.4368H67.1724C68.02 52.0272 68.8625 51.62 68.7201 50.429C68.7126 50.366 68.709 50.3001 68.7053 50.234C68.689 49.9348 68.6727 49.6328 68.2887 49.5946C68.0443 49.57 67.722 49.7702 67.5197 49.9566C66.6813 50.7295 65.9859 50.8027 65.1069 49.9927C64.8387 49.7457 64.5385 49.4895 64.0287 49.6865C63.1409 50.0296 62.7462 50.7441 62.4434 51.508C62.3053 51.8561 62.3409 52.3453 62.875 52.5096C63.0337 52.5585 63.1929 52.6168 63.3524 52.6754C63.76 52.8248 64.1698 52.975 64.575 52.9677C65.2158 52.9559 65.8536 52.7971 66.5209 52.6309C66.6877 52.5891 66.8567 52.5472 67.0279 52.5069C67.0758 52.4834 67.1241 52.4601 67.1722 52.4368ZM85.8831 80.5419C85.8607 80.5866 85.8384 80.6312 85.8163 80.6757C85.4516 81.4098 85.0992 82.1193 84.2799 82.4317C83.4267 82.757 82.0491 82.8638 81.3791 82.0318C80.9818 81.5386 80.9556 80.8837 81.4008 80.4159C81.5414 80.268 81.6909 80.124 81.8406 79.9801C82.2198 79.6152 82.5997 79.2496 82.8428 78.8121C83.0752 78.3939 83.1791 77.9076 83.2828 77.4212L83.2831 77.421C83.3307 77.1967 83.3788 76.9723 83.4392 76.7545C83.6318 76.0614 83.8337 75.359 84.5306 74.974C85.0324 74.6965 85.4321 74.8768 85.807 75.3236C86.4882 76.1351 86.4232 77.0517 86.3587 77.9593C86.3422 78.1945 86.3254 78.4291 86.3218 78.6612C86.3149 79.113 86.1768 79.5629 86.0353 80.0235V80.0237C85.9827 80.1948 85.9299 80.3673 85.8831 80.5419ZM84.2091 77.097C84.2031 77.1341 84.197 77.1713 84.191 77.2084C84.0706 77.9551 83.9488 78.7082 83.4302 79.3098C83.0372 79.7658 82.5931 80.1883 82.1264 80.5729C81.686 80.9362 81.6099 81.3643 82.0066 81.7514C82.7047 82.4328 84.3976 82.1231 84.8909 81.1905C85.184 80.6367 85.4329 80.0529 85.6299 79.4599C85.9943 78.3624 85.7686 77.2894 85.3543 76.2484C85.2916 76.0908 85.1155 75.8845 84.9781 75.874C84.8488 75.8644 84.6691 76.0629 84.5701 76.2079C84.4273 76.4171 84.3375 76.6609 84.2252 76.9998C84.2198 77.0322 84.2144 77.0647 84.2091 77.097ZM84.3008 54.0813C83.7854 53.7196 83.2955 53.7137 82.7664 53.832C81.9005 54.0257 80.9644 55.0118 80.9644 56.021C80.9644 57.037 81.427 57.7805 82.2797 58.2598C83.1027 58.7225 83.969 59.0451 84.9897 58.9538C86.185 58.847 87.0885 58.3897 87.5772 57.322C87.679 57.0998 87.6694 56.8289 87.6599 56.558C87.6554 56.4337 87.6511 56.3097 87.6573 56.1903C87.5523 56.1907 87.4441 56.183 87.3359 56.1752C87.0923 56.1578 86.8486 56.1404 86.6413 56.2165C86.255 56.3588 86.0484 56.2281 85.9187 55.9465C85.5599 55.1679 85.0165 54.5837 84.3008 54.0813ZM82.4853 54.6584C82.9833 54.4293 83.9007 54.1743 84.4453 54.6584C84.9897 55.1428 85.1961 55.5964 85.3329 55.9068C85.6629 56.6555 86.1272 56.9019 86.9113 56.6956C86.9852 56.6761 87.0644 56.6761 87.1437 56.6761C87.1804 56.6761 87.2171 56.6761 87.2534 56.6742C87.2422 56.7097 87.2323 56.7456 87.2223 56.7815C87.2008 56.8589 87.1793 56.9361 87.1464 57.0087C86.3718 58.7232 83.8822 58.4674 82.7183 57.7436C82.0083 57.3021 81.6048 56.7263 81.6391 55.8871C81.6628 55.3056 81.9729 54.8943 82.4853 54.6584ZM87.5691 68.2406C87.4366 68.3501 87.3112 68.466 87.1877 68.5803C86.9087 68.8382 86.6392 69.0873 86.3203 69.2342C85.6239 69.5553 84.8804 69.3904 84.2031 69.0647C83.0595 68.5151 82.3543 67.6795 82.4249 66.3572C82.4752 65.415 83.0511 64.8654 83.8288 64.4123C84.4846 64.0302 85.125 63.9498 85.8107 64.2724C86.3231 64.5135 86.4642 64.9806 86.6036 65.4419C86.6315 65.5342 86.6594 65.6265 86.6901 65.7165C86.73 65.8336 86.741 65.9606 86.7517 66.0873C86.7635 66.225 86.7751 66.3627 86.8243 66.4865C86.8956 66.6659 87.0685 66.8879 87.2405 66.9345C88.0881 67.1643 88.1725 67.3674 87.6389 68.066C87.6245 68.0847 87.6174 68.1088 87.6088 68.1378C87.6 68.1671 87.5899 68.2016 87.5691 68.2406ZM86.4732 68.3229C86.4975 68.3107 86.5228 68.2996 86.5481 68.2887C86.6029 68.2647 86.6577 68.241 86.7023 68.2053C87.2379 67.7779 87.2362 67.7764 86.7212 67.3403L86.6942 67.3175C86.5436 67.1897 86.4217 66.9878 86.3699 66.7983C86.3169 66.6027 86.2801 66.4013 86.2436 66.2002C86.1844 65.8746 86.1253 65.5499 85.996 65.2532C85.8816 64.9901 85.5111 64.7229 85.2154 64.6686C84.6111 64.5574 83.2777 65.6106 83.2242 66.2124C83.1523 67.0237 83.4016 67.7147 84.1721 68.169C84.8954 68.5952 85.6163 68.8416 86.4732 68.3229ZM55.6128 58.0758C56.8523 57.2981 57.6456 56.2661 57.811 54.7585C57.811 54.6246 57.8157 54.4958 57.8202 54.3709C57.8299 54.1032 57.8389 53.8524 57.8002 53.6094C57.716 53.0816 57.5382 52.5686 56.793 52.6865C56.4286 52.7442 56.0541 52.9079 55.7474 53.1133C55.1126 53.5389 54.8985 54.2427 54.6947 54.9121L54.6765 54.9722C54.3745 55.9614 53.9064 56.6574 52.7063 56.6568C52.4972 56.6568 52.157 57.0406 52.1037 57.2929C51.9583 57.9799 52.6595 58.6848 53.4133 58.7129C54.221 58.7431 54.9288 58.5049 55.6128 58.0758ZM54.0157 58.1192C53.9502 58.1331 53.8849 58.1469 53.8207 58.1633C53.278 58.2223 53.0192 57.9448 52.7697 57.6773C52.7499 57.6563 52.7304 57.6353 52.7108 57.6145C52.6707 57.5722 52.6919 57.3997 52.742 57.3644C52.754 57.3558 52.766 57.3472 52.7783 57.3386C52.9357 57.2263 53.1068 57.1044 53.2874 57.0744C54.2004 56.9225 54.7054 56.4033 55.0211 55.5599C55.287 54.8496 55.6867 54.1749 56.1168 53.5429C56.2542 53.3408 56.6844 53.2443 56.9683 53.2644C57.0791 53.2722 57.2311 53.7324 57.2372 53.9892C57.2838 56.0178 56.1299 57.2811 54.4269 58.0047C54.2972 58.0598 54.1563 58.0896 54.0157 58.1192ZM56.434 62.9684C56.6554 62.3137 57.1373 61.8946 57.6123 61.4812H57.6125C57.7805 61.3349 57.9478 61.1893 58.1024 61.0344C58.4091 60.727 59.1158 61.1297 59.2724 61.6508C59.3379 61.8684 59.4016 62.0866 59.4654 62.3048C59.6263 62.8546 59.7869 63.4042 59.9735 63.9454C60.1352 64.4149 60.0682 64.7821 59.7242 65.1495C59.4635 65.4278 59.2277 65.7457 59.0559 66.0827C58.6337 66.911 58.0122 67.1173 57.0696 66.3962C55.8247 65.444 55.9903 64.2478 56.434 62.9684ZM59.3847 64.1492C59.3147 63.9782 59.2449 63.8071 59.1749 63.6361L59.1744 63.6353C58.982 63.1648 58.7896 62.6943 58.5982 62.2232C58.5592 62.1267 58.5233 62.0289 58.4872 61.9309C58.4707 61.8858 58.4544 61.8407 58.4374 61.7958C58.3889 61.8184 58.3386 61.839 58.2886 61.8596C58.1799 61.9042 58.0708 61.9487 57.9783 62.015C57.2917 62.5065 56.9672 63.2385 56.8233 64.0027C56.7087 64.6115 56.6814 65.3055 57.1762 65.8093C57.4032 66.0406 57.7654 66.1786 58.0923 66.259C58.1421 66.2712 58.2317 66.119 58.3264 65.9577C58.3803 65.866 58.4357 65.7715 58.4868 65.7023C58.5733 65.585 58.6633 65.4698 58.7531 65.3546C58.9006 65.1655 59.0484 64.976 59.1813 64.7775C59.2719 64.6419 59.3106 64.473 59.3649 64.2352C59.3711 64.2075 59.3778 64.1788 59.3847 64.1492ZM72.0499 60.9597C70.9179 60.5411 69.79 60.7942 69.7254 62.2272C69.7939 62.3806 69.857 62.534 69.9193 62.6855C70.0958 63.1149 70.2655 63.5272 70.527 63.873C71.4711 65.1208 72.6651 65.4958 73.9929 64.976C74.8371 64.6457 74.841 63.8907 74.2757 63.4168C73.7445 62.9717 73.287 62.4706 73.0059 61.7966C72.8584 61.4432 72.431 61.1007 72.0499 60.9597ZM73.1769 64.4333C72.5665 64.542 71.9517 64.6516 71.4677 64.0942C70.8659 63.5159 70.4504 62.9289 70.3967 62.15C70.3752 61.8367 70.5019 61.6665 70.8019 61.5498C71.2233 61.3859 72.1927 61.5859 72.2861 61.9926C72.4186 62.5688 72.7675 62.986 73.117 63.4038C73.2548 63.5688 73.3929 63.7337 73.5177 63.9087C73.59 64.0103 73.6674 64.1947 73.6214 64.2692C73.5647 64.3603 73.3845 64.3966 73.251 64.4203L73.2155 64.4264L73.1769 64.4333ZM69.2759 75.6268C69.2982 75.4933 69.3118 75.3597 69.3249 75.2289C69.3554 74.9236 69.3844 74.6359 69.5227 74.4131C69.8806 73.836 69.7969 73.3393 69.5033 72.8048C69.4746 72.7525 69.4589 72.6933 69.443 72.6342C69.4277 72.5771 69.4127 72.5198 69.3856 72.4688C69.1471 72.0153 69.2589 71.5709 69.6758 71.3818C69.9687 71.2488 70.4585 71.2905 70.7545 71.4466C71.7159 71.9536 72.1521 72.8533 72.3002 73.8674C72.43 74.7536 72.2266 75.6148 71.8576 76.4278C71.3815 77.4764 70.4205 77.3429 69.8074 76.7214C69.6148 76.526 69.5113 76.2469 69.402 75.9517C69.3622 75.8444 69.3216 75.7351 69.2759 75.6268ZM71.1865 72.7162C71.1292 72.6602 71.0729 72.6029 71.0165 72.5456C70.8777 72.4046 70.7388 72.2636 70.585 72.1404C70.52 72.0884 70.4259 72.0709 70.3321 72.0533C70.2893 72.0453 70.2468 72.0374 70.2069 72.0262C70.1974 72.0699 70.1807 72.1175 70.1641 72.1652C70.128 72.268 70.0922 72.3708 70.1285 72.4338C70.532 73.1292 70.4401 73.7699 70.0174 74.4246C69.9283 74.5627 69.8957 74.7354 69.863 74.9083C69.8469 74.9939 69.8308 75.0795 69.8076 75.1614C69.6822 75.6062 70.0168 76.4507 70.4431 76.5789C70.4549 76.5825 70.4669 76.5862 70.4794 76.59C70.7066 76.6599 71.0128 76.7539 71.1934 76.3831C71.775 75.1897 71.968 74.0108 71.1865 72.7162ZM104.272 61.3282C104.996 61.639 106.211 61.5351 107.127 60.5522C107.194 60.4504 107.262 60.3512 107.328 60.2532C107.536 59.9474 107.735 59.6549 107.903 59.3466C108.323 58.5756 107.594 57.3881 106.695 57.4057C106.439 57.4108 106.184 57.4582 105.929 57.5056C105.692 57.5499 105.455 57.594 105.216 57.6041C104.494 57.6347 103.921 57.8853 103.517 58.4781C102.819 59.503 103.082 60.8168 104.272 61.3282ZM105.418 58.3847C105.454 58.3839 105.489 58.383 105.525 58.383C105.609 58.369 105.691 58.3595 105.766 58.3507C105.973 58.3264 106.14 58.3068 106.234 58.2156C106.541 57.9161 106.809 58.055 107.046 58.2372C107.303 58.4342 107.445 58.676 107.322 59.0604C107.031 59.9674 106.506 60.6361 105.545 60.8773C105.007 61.0124 104.504 60.8827 104.131 60.4273C103.794 60.016 103.742 59.5804 103.991 59.1143C104.242 58.6428 104.594 58.3243 105.188 58.3813C105.264 58.3887 105.341 58.3868 105.418 58.3847ZM91.5031 59.6736C92.2122 59.2155 92.8878 59.1863 93.5316 59.7057C93.714 59.8528 93.8746 60.0414 93.9964 60.2397C94.0501 60.3268 94.0821 60.4299 94.1136 60.5316C94.1544 60.6632 94.1948 60.7929 94.2803 60.8852C94.6612 61.2957 94.4229 61.6638 94.1117 61.8142C93.3255 62.194 92.4961 62.504 91.6579 62.7596C91.2166 62.8941 90.6271 62.3844 90.52 61.8969C90.285 60.8277 90.7285 60.1226 91.5031 59.6736ZM93.4419 61.1836C93.3873 61.1112 93.3334 61.0382 93.2795 60.9652V60.965C93.1485 60.7874 93.0175 60.6099 92.8762 60.4406L92.8638 60.4255C92.7686 60.3113 92.6471 60.165 92.5251 60.152C91.6107 60.0549 90.8275 61.0871 91.2005 61.894C91.3103 62.1315 91.5353 62.3863 91.8023 62.1076C92.1714 61.7223 92.6275 61.6438 93.1101 61.5605L93.1427 61.5551C93.2761 61.532 93.3805 61.3484 93.4419 61.1836ZM89.6053 83.7231C89.5864 83.8121 89.5667 83.9051 89.536 84.0016C89.5407 84.0725 89.5605 84.1363 89.5789 84.1968C89.5972 84.2557 89.6144 84.3116 89.6157 84.3676C89.6474 85.7243 91.461 86.7724 92.5928 86.6121C93.3837 86.5003 93.8168 86.2193 93.9307 85.5073C94.0318 84.8742 93.8729 84.1812 93.3652 83.7766C92.7804 83.311 92.0748 82.9601 91.3732 82.6722C90.5399 82.3302 90.014 82.6038 89.6872 83.4205C89.6492 83.5154 89.6279 83.6163 89.6053 83.7231ZM90.4354 83.4808C90.485 83.3893 90.5346 83.2976 90.5758 83.2054C90.6767 83.229 90.7777 83.2512 90.8777 83.2737C91.8151 83.4822 92.6851 83.6757 93.103 84.5873C93.301 85.0198 93.5267 85.5385 92.9834 85.8751C92.7212 86.0373 92.3209 86.0879 92.0037 86.0447C91.2151 85.9375 90.0943 85.1067 90.1978 84.0881C90.2189 83.8801 90.3271 83.6803 90.4354 83.4808ZM90.9692 70.0253C91.8839 70.1091 92.6093 70.5042 92.76 71.4464C92.8133 71.7799 93.0291 71.8242 93.2664 71.8728C93.301 71.88 93.336 71.8871 93.371 71.8953C93.8963 72.0181 94.3136 72.4407 94.2309 73.1078C94.1712 73.5913 93.9169 73.7883 93.2082 73.7495C92.7341 73.7235 92.2365 73.6744 91.7995 73.509C90.3851 72.9739 89.9797 71.8363 90.0795 70.6331C90.1169 70.1815 90.4583 69.9974 90.9692 70.0253ZM93.0485 72.4417C92.442 72.4791 92.1525 72.124 92.1053 71.607C92.0554 71.0607 91.6552 70.8861 91.2607 70.7141L91.2156 70.6943C90.9336 70.571 90.6018 70.8918 90.648 71.1942C90.8208 72.3244 92.1383 73.3061 93.3195 73.2175C93.7554 73.1848 93.7002 72.9651 93.5428 72.741C93.4913 72.6673 93.3972 72.6224 93.2855 72.5689C93.2119 72.5337 93.1305 72.4948 93.0485 72.4417ZM79.6166 91.3331C79.6304 91.1885 79.6312 91.0414 79.6321 90.8978C79.634 90.5816 79.6359 90.283 79.7738 90.0677C80.1105 89.5428 80.5162 89.0602 80.9221 88.5775L80.9223 88.5771C81.0875 88.3807 81.2526 88.1843 81.4132 87.9849C81.6894 87.642 82.1178 87.4431 82.467 87.6286C82.822 87.8171 83.1665 88.2007 83.3017 88.5727C83.6232 89.4576 83.2178 90.2181 82.6113 90.8674C82.4393 91.0516 82.2443 91.2149 82.0491 91.3782C81.8953 91.507 81.7414 91.6359 81.5986 91.775C80.8063 92.5474 80.1 92.1873 79.6166 91.3331ZM81.5837 91.1133C82.3934 90.5933 82.9158 89.9178 82.8817 88.915C82.8697 88.5645 82.7352 88.3308 82.4101 88.1828C82.0684 88.0273 81.8354 88.2368 81.7304 88.4625C81.4648 89.0329 81.0853 89.5198 80.705 90.0076V90.0079C80.5735 90.1766 80.4419 90.3455 80.3148 90.518C80.1855 90.6936 80.2654 91.118 80.3959 91.3484C80.5482 91.6168 80.8527 91.5716 81.11 91.3656C81.1729 91.3152 81.2487 91.2804 81.3363 91.2401C81.4106 91.2061 81.4933 91.1681 81.5837 91.1133ZM76.9052 84.7736C77.2554 83.9798 77.3083 83.1282 77.1158 82.2443C77.0997 82.2286 77.0873 82.2175 77.0776 82.2087C77.0624 82.1948 77.054 82.1871 77.0486 82.1778C76.6601 81.5023 76.2538 81.2001 75.7975 81.3479C75.22 81.5349 75.0046 81.9571 74.9842 82.57C74.9696 83.0071 74.792 83.3928 74.1907 83.5643C73.298 83.8188 73.3624 84.6007 73.913 85.0238C74.1233 85.1854 74.3909 85.279 74.6556 85.3715C74.739 85.4005 74.8221 85.4294 74.9028 85.4605C75.4094 85.6546 76.655 85.3402 76.9052 84.7736ZM76.5126 82.6019C76.5349 82.6391 76.5575 82.676 76.582 82.711C76.582 82.9079 76.5948 83.0974 76.6073 83.2789C76.6335 83.6585 76.6571 84.0035 76.5543 84.3074C76.2903 85.0867 74.7222 85.2254 74.2221 84.551C74.1686 84.4788 74.3176 84.1261 74.4201 84.1026C75.249 83.9139 75.5567 83.3891 75.5853 82.6063C75.5913 82.4366 75.7584 82.2332 75.9111 82.1277C75.9684 82.088 76.2102 82.2651 76.3399 82.3749C76.411 82.4351 76.4617 82.5186 76.5126 82.6019Z" fill="#F6B82D"/>
</svg>
