<svg width="18" height="18" viewBox="0 0 18 18" fill="none" xmlns="http://www.w3.org/2000/svg">
<path fill-rule="evenodd" clip-rule="evenodd" d="M7.61539 1.38462C5.70363 1.38462 4.15385 2.9344 4.15385 4.84615C4.15385 6.75791 5.70363 8.30769 7.61539 8.30769C9.52714 8.30769 11.0769 6.75791 11.0769 4.84615C11.0769 2.9344 9.52714 1.38462 7.61539 1.38462ZM4.84906 8.8257C2.01089 9.93275 0 12.693 0 15.9231C0 16.3054 0.30996 16.6154 0.692308 16.6154C1.07466 16.6154 1.38462 16.3054 1.38462 15.9231C1.38462 12.4819 4.17423 9.69231 7.61539 9.69231C10.2918 9.69231 12.4615 7.52262 12.4615 4.84615C12.4615 2.16969 10.2918 0 7.61539 0C4.93892 0 2.76923 2.16969 2.76923 4.84615C2.76923 6.49425 3.59194 7.9502 4.84906 8.8257Z" fill="#61C554"/>
<path fill-rule="evenodd" clip-rule="evenodd" d="M14.5387 11.0769C14.921 11.0769 15.231 11.3869 15.231 11.7692V13.8461H17.3079C17.6902 13.8461 18.0002 14.1562 18.0002 14.5384C18.0002 14.9207 17.6902 15.2308 17.3079 15.2308H15.231V17.3077C15.231 17.69 14.921 18 14.5387 18C14.1564 18 13.8464 17.69 13.8464 17.3077V15.2308H11.7695C11.3872 15.2308 11.0771 14.9207 11.0771 14.5384C11.0771 14.1562 11.3872 13.8461 11.7695 13.8461H13.8464V11.7692C13.8464 11.3869 14.1564 11.0769 14.5387 11.0769Z" fill="#61C554"/>
</svg>
